<?xml version="1.0" encoding="utf-8"?>
<!-- Generator: Adobe Illustrator 19.1.0, SVG Export Plug-In . SVG Version: 6.00 Build 0)  -->
<svg version="1.0" xmlns="http://www.w3.org/2000/svg" xmlns:xlink="http://www.w3.org/1999/xlink" x="0px" y="0px" width="1200" height="800"
 viewBox="384 69 100 80" xml:space="preserve">
<style type="text/css">
	.st0{fill:#F2F2F2;}
	.st1{fill:#808080;}
	.st2{fill:#0B3413;}
	.st3{fill:#871008;}
	.st4{fill:#07092D;}
	.st5{fill:#870E06;}
	.st6{fill:#CC1009;}
	.st7{fill:#CC140D;}
	.st8{fill:#CC130C;}
	.st9{filter:url(#Adobe_OpacityMaskFilter);}
	.st10{mask:url(#SVGID_1_);fill:#07092D;}
	.st11{filter:url(#Adobe_OpacityMaskFilter_1_);}
	.st12{mask:url(#SVGID_2_);fill:#07092D;}
</style>
<g>
	<g>
		<path class="st0" d="M380.6,98c-1,0-1.9-0.8-1.9-1.9v-22c0-1,0.8-1.9,1.9-1.9h15c1,0,1.9,0.8,1.9,1.9v22c0,1-0.8,1.9-1.9,1.9    H380.6z"/>
		<path class="st1" d="M395.6,72.4c1,0,1.8,0.8,1.8,1.8v22c0,1-0.8,1.8-1.8,1.8h-15c-1,0-1.8-0.8-1.8-1.8v-22c0-1,0.8-1.8,1.8-1.8    H395.6 M395.6,72.2h-15c-1.1,0-2,0.9-2,2v22c0,1.1,0.9,2,2,2h15c1.1,0,2-0.9,2-2v-22C397.6,73.1,396.7,72.2,395.6,72.2L395.6,72.2    z"/>
	</g>
	<g>
		<path class="st5" d="M383.6,86.9C383.6,87,383.5,87,383.6,86.9c-0.2,0.1-0.5-0.2-1.1-0.7c-0.2-0.1-0.4-0.3-0.7-0.4    c-0.3-0.1-0.5-0.2-0.7-0.3c-0.2-0.1-0.3-0.1-0.3-0.1c0,0,0.1-0.1,0.3-0.1c0.4,0,0.8,0.2,1.2,0.4c0.4,0.2,0.7,0.5,0.9,0.7    C383.4,86.7,383.6,86.8,383.6,86.9z M381.3,83.8c0.1,0,0.4,0.1,0.7,0.2c0.3,0.1,0.8,0.4,1.3,0.8c0.5,0.4,0.9,0.9,1.3,1.5    c0.1,0.2,0.1,0.4,0.1,0.4c0,0.1,0,0.1-0.1,0.1l-0.4-0.4c-1.4-1.3-2.4-2.1-3-2.4c-0.1,0-0.1-0.1-0.1-0.1    C381.2,83.8,381.2,83.8,381.3,83.8z M382.9,87.5c-0.2,0-0.5-0.1-1-0.2c-0.5-0.1-0.7-0.2-0.7-0.3c0,0,0.1-0.1,0.4-0.1    c0.1,0,0.3,0,0.5,0.1c0.2,0.1,0.4,0.2,0.6,0.3C382.9,87.4,383,87.4,382.9,87.5C383,87.5,383,87.5,382.9,87.5z M383.9,86.6    C383.9,86.6,383.9,86.5,383.9,86.6c0.1,0,0.3,0.1,0.7,0.4c0.3,0.3,0.5,0.6,0.5,0.7c0,0.2-0.1,0.3-0.2,0.3c-0.2,0-0.4-0.1-0.7-0.2    c-0.3-0.1-0.4-0.2-0.4-0.3c0,0,0,0,0.1,0c0.1,0,0.2,0,0.4,0.1c0.2,0,0.3,0.1,0.3,0.1c0,0,0.1,0,0.1-0.1c0-0.1-0.1-0.3-0.3-0.5    C384,86.8,383.9,86.6,383.9,86.6z"/>
		<path class="st5" d="M387.3,95.3c0,0.1,0,0.1-0.1,0.1c0,0-0.1,0-0.2-0.1c-0.1-0.1-0.2-0.1-0.2-0.1c0,0-0.2,0.1-0.7,0.4    c-0.4,0.3-0.7,0.4-0.8,0.4c-0.1,0-0.1,0-0.1-0.1c0,0,0.1-0.1,0.3-0.4c0.2-0.2,0.3-0.3,0.3-0.4c0,0,0,0-0.1,0c-0.1,0-0.3,0-0.5,0.1    c-0.2,0-0.3,0.1-0.3,0.1c-0.1,0-0.1,0-0.1-0.1c0-0.2,0.5-0.3,1.4-0.4c0.2,0,0.3-0.1,0.3-0.2c0-0.1,0.1-0.4,0.1-0.8    c0-0.2,0-0.3-0.1-0.5c0-0.2-0.1-0.3-0.1-0.3c0,0,0-0.1,0.1-0.1c0.3,0,0.5,0.1,0.6,0.3c0,0,0,0.1,0,0.3c0,0.5-0.1,1-0.2,1.3    C387.2,95.1,387.3,95.2,387.3,95.3z"/>
		<path class="st5" d="M389.1,94.4c0,0.3,0,0.6,0.1,0.7c0.1,0.1,0.2,0.2,0.4,0.2c0.2,0,0.4,0.1,0.6,0.2c0,0,0,0,0.1,0.1    c0,0,0.1,0,0.1,0.1c0,0-0.1,0.1-0.2,0.1c0,0-0.2,0-0.5-0.1c-0.3,0-0.5-0.1-0.6-0.1c0,0-0.2,0.1-0.4,0.3c-0.2,0.2-0.4,0.3-0.5,0.3    c0,0-0.1,0-0.1-0.1c0,0,0-0.1,0.1-0.2c0.2-0.2,0.3-0.4,0.2-0.4c0,0-0.2,0.1-0.5,0.2c-0.3,0.1-0.5,0.2-0.6,0.2    c-0.1,0-0.1,0-0.1-0.1c0-0.1,0.2-0.3,0.7-0.5c0.4-0.3,0.7-0.6,0.7-1c0-0.1,0-0.2,0-0.3c0-0.1,0-0.3-0.1-0.4c0-0.2,0-0.3,0-0.4    c0-0.1,0-0.1,0.1-0.1h0c0.4,0,0.6,0.1,0.6,0.4c0,0.1,0,0.3,0,0.5C389.1,94.2,389.1,94.3,389.1,94.4z"/>
		<path d="M384.3,80.1c0,0-0.1-0.1-0.2-0.3c-0.1-0.1-0.2-0.3-0.4-0.4c-0.1-0.2-0.3-0.3-0.3-0.4c-1-1.4-1.5-2.2-1.5-2.6    c0-0.1,0-0.1,0.1-0.1c0,0,0.1,0,0.2,0.1c1.4,2.1,2.2,3.2,2.3,3.2c0,0,0.1,0,0.1-0.1c0-0.1-0.3-0.5-1-1.4c-0.6-0.9-1-1.4-1-1.7    c0-0.1,0-0.1,0.1-0.1c0,0,0.4,0.5,1,1.4c0.6,0.9,1,1.4,1.1,1.4c0,0,0.1,0,0.1,0c0-0.1-0.3-0.6-0.9-1.4c-0.6-0.8-0.9-1.3-0.9-1.4    c0-0.1,0-0.1,0.1-0.1c0.1,0,0.4,0.4,0.8,1.2c0.5,0.8,0.7,1.2,0.8,1.2c0,0,0.1,0,0.1-0.1c0,0-0.1-0.3-0.4-0.8    c-0.3-0.5-0.4-0.8-0.4-1c0-0.1,0-0.1,0.1-0.1c0.1,0,0.3,0.4,0.6,1.1c0.3,0.7,0.5,1.1,0.6,1.1c0,0,0.1,0,0.1-0.1    c0-0.1-0.1-0.5-0.4-1.1c-0.3-0.7-0.4-1-0.4-1.1c0-0.1,0-0.1,0.1-0.1c0,0,0.2,0.4,0.5,1.1l0.5,1.1c0.1,0.2,0.2,0.3,0.3,0.2    c0,0-0.2-0.6-0.5-1.6c-0.3-1-0.5-1.7-0.5-2.1c0-0.1,0-0.2,0.1-0.2c0.1,0,0.3,0.6,0.6,1.7c0.3,1.1,0.5,1.7,0.5,1.7    c0.1,0,0.1-0.1,0.1-0.2c0-0.1-0.1-0.5-0.3-1.3c-0.2-0.7-0.3-1.4-0.3-1.9c0-0.2,0-0.4,0.1-0.4c0.2,0,0.4,0.5,0.6,1.6    c0.2,1,0.3,1.6,0.4,1.6c0.1,0,0.1-0.1,0.1-0.4c0-0.1,0-0.5-0.1-1.1c-0.1-0.6-0.1-1.1-0.1-1.3c0-0.4,0-0.6,0.1-0.6    c0.1,0,0.2,0.3,0.3,0.9c0.1,0.6,0.1,1.2,0.1,1.7c0,0.4,0.1,0.5,0.2,0.5c0.1,0,0.1-0.2,0.1-0.6c0-0.2,0-0.6-0.1-1.1    c0-0.5-0.1-0.8-0.1-1c0-0.3,0-0.4,0.1-0.4c0.1,0,0.2,0.5,0.3,1.5c0.1,1,0.1,1.5,0.2,1.5c0.1,0,0.2-0.4,0.2-1.1    c0-0.8,0-1.1,0.1-1.1c0.2,0,0.3,0.4,0.3,1.2c0,0.1,0,0.3,0,0.5c0,0.2,0,0.4,0,0.5c0,0.2,0.1,0.3,0.2,0.2c0,0,0.1-0.1,0.1-0.1    c0,0,0.1-0.2,0.1-0.6c0.1-0.3,0.2-0.6,0.2-0.9c0.1-0.2,0.2-0.4,0.3-0.4c0.1,0,0.1,0.1,0.1,0.3c0,0.1-0.1,0.4-0.2,0.8    c-0.1,0.4-0.2,0.7-0.2,0.8c0,0,0,0.1,0.1,0.1c0.1,0,0.3-0.5,0.6-1.5c0.3-1,0.6-1.5,0.7-1.5c0.1,0,0.1,0.2,0.1,0.5    c0,0.2-0.1,0.5-0.2,0.9c-0.1,0.4-0.3,0.7-0.4,1c-0.1,0.3-0.2,0.5-0.2,0.5c0,0.1,0,0.1,0.1,0.1c0.1,0,0.3-0.5,0.7-1.5    c0.4-1,0.7-1.5,0.8-1.5c0,0,0.1,0,0.1,0.1c0,0.3-0.2,0.8-0.5,1.5c-0.3,0.7-0.5,1.1-0.5,1.2c0,0,0,0,0.1,0c0.1,0,0.3-0.4,0.8-1.2    c0.5-0.8,0.7-1.2,0.8-1.2c0.1,0,0.1,0,0.1,0.1c0,0.1-0.1,0.4-0.3,0.9c-0.1,0.3-0.3,0.5-0.5,0.8c-0.2,0.3-0.3,0.4-0.3,0.6    c-0.1,0.1-0.1,0.2-0.1,0.2c0,0,0,0.1,0.1,0.1c0.1,0,0.3-0.3,0.7-0.9c0.4-0.6,0.6-0.9,0.6-0.9c0.1,0,0.1,0,0.1,0.1    c0,0.2-0.2,0.6-0.5,1.1l-0.5,0.8c0,0.1,0,0.1,0.1,0.1c0,0,0.3-0.2,0.6-0.7c0.4-0.5,0.6-0.7,0.7-0.7c0,0,0.1,0,0.1,0.1    c0,0.1-0.2,0.5-0.7,1c-0.5,0.5-0.7,0.8-0.7,0.8l0.1,0.1c0.2,0,0.7-0.4,1.5-1.2c0.7-0.8,1.1-1.2,1.2-1.2c0,0,0.1,0,0.1,0.1    c0,0.3-0.4,0.8-1.2,1.5c-0.8,0.7-1.2,1.1-1.2,1.1c0,0,0,0.1,0.1,0.1c0.2,0,0.7-0.4,1.6-1.2c0.9-0.8,1.4-1.2,1.4-1.2    c0,0,0.1,0,0.1,0.1c0,0.2-0.5,0.6-1.4,1.4c-0.9,0.8-1.4,1.2-1.4,1.2c0,0.1,0,0.1,0,0.1c0,0,0,0,0.1,0c0.1,0,0.5-0.3,1.3-0.9    c0.8-0.6,1.2-0.9,1.4-0.9c0,0,0.1,0,0.1,0.1c0,0.1-0.1,0.2-0.2,0.3c-0.7,0.5-1.4,1-2,1.4c-0.2,0.1-0.3,0.3-0.3,0.3    c0,0.1,0,0.1,0.1,0.1c0,0,0.3-0.2,1-0.6c0.6-0.4,1-0.6,1.2-0.6c0.1,0,0.1,0.1,0.1,0.2c0,0.1-0.2,0.2-0.5,0.3    c-0.3,0.2-0.6,0.3-1,0.5c-0.3,0.2-0.6,0.3-0.7,0.4C393,80,393,80,393.2,80c0,0,0.3-0.1,0.8-0.4c0.5-0.3,0.8-0.4,1-0.4    c0.1,0,0.2,0,0.2,0.1c0,0-0.3,0.2-0.9,0.5c-0.6,0.3-0.9,0.5-0.9,0.5c0,0.1,0,0.1,0.1,0.1c0,0,0.3-0.1,0.8-0.2    c0.5-0.1,0.8-0.2,0.9-0.2c0.2,0,0.3,0,0.3,0.1c0,0.1-0.4,0.2-1.1,0.4c-0.8,0.2-1.1,0.3-1.1,0.4c0,0.1,0,0.1,0.1,0.1    c0.1,0,0.5-0.1,1-0.2c0.5-0.1,0.9-0.2,1-0.2c0.1,0,0.2,0,0.2,0.1c0,0.1-0.1,0.1-0.2,0.2c-0.1,0-0.3,0.1-0.7,0.1    c-0.3,0.1-0.7,0.1-1,0.2c-0.1,0-0.1,0.1-0.2,0.1c0,0,0,0.1,0,0.1c0,0,0.1,0.1,0.2,0.1c0.1,0,0.4,0,0.8-0.1    c0.4-0.1,0.7-0.1,0.7-0.1c0.1,0,0.2,0,0.2,0.1c0,0.1-0.6,0.3-1.6,0.5c0,0-0.1,0-0.1,0.1c0,0,0,0.1,0,0.1c0,0,0.1,0.1,0.2,0.1    c0.1,0,0.3,0,0.6-0.1c0.3-0.1,0.6-0.1,0.7-0.1c0.1,0,0.1,0,0.1,0c0,0.1-0.3,0.2-0.8,0.3c-0.5,0.1-0.8,0.2-0.8,0.3    c0,0.1,0.1,0.1,0.3,0.1c0.1,0,0.3,0,0.6-0.1l0.4-0.1c0.1,0,0.2,0,0.2,0.1c0,0.1-0.3,0.2-1,0.3c-0.7,0.1-1,0.2-1,0.4    c0,0,0.1,0,0.1,0c0,0,0.2,0,0.4-0.1c0.2,0,0.4-0.1,0.5-0.1c0.1,0,0.2,0,0.2,0.1c0,0.1-0.2,0.1-0.5,0.2c-0.3,0-0.6,0.1-0.7,0.1    c-0.1,0-0.2,0-0.2,0.1c0,0,0,0.1,0.1,0.1c0.1,0,0.2,0,0.4,0c0.2,0,0.3,0,0.3,0c0.1,0,0.1,0,0.1,0.1c0,0.2-0.3,0.3-1,0.3    c-0.1,0-0.1,0.1-0.1,0.3c0,0,0.1,0,0.3,0c0.1,0,0.2,0,0.3,0c0.1,0,0.1,0,0.1,0c0,0.1-0.1,0.1-0.2,0.2c-0.1,0-0.3,0.1-0.4,0.1    c-0.2,0-0.3,0.1-0.5,0.2c-0.2,0.2-0.5,0.3-0.8,0.4c-0.3,0-0.5,0.1-0.6,0.1c0,0-0.2,0.2-0.6,0.5c-0.4,0.4-0.8,0.5-1.2,0.5    c-0.1,0-0.3,0-0.5-0.1c-0.2-0.1-0.4-0.1-0.6-0.1c-0.1,0-0.2,0-0.4,0.1c-0.2,0.1-0.4,0.1-0.5,0.1c-0.3,0-0.5-0.1-0.7-0.3    c-0.2-0.2-0.3-0.3-0.4-0.3c0,0-0.1,0-0.3-0.1c-0.2-0.1-0.4-0.1-0.5-0.2c-0.1-0.1-0.2-0.1-0.2-0.2c0,0,0-0.1,0.1-0.1    c0.1,0,0.2,0,0.3,0.1c0.1,0.1,0.2,0.1,0.3,0.1c0,0,0.1,0,0.1-0.1c0-0.1-0.2-0.2-0.6-0.3c-0.4-0.1-0.6-0.2-0.6-0.3    c0,0,0-0.1,0.1-0.1c0.1,0,0.3,0,0.5,0.1l0.3,0.1c0.1,0,0.2,0,0.2,0c0-0.1-0.1-0.2-0.3-0.2c-1-0.2-1.5-0.4-1.5-0.6    c0-0.1,0-0.1,0.1-0.1c0.1,0,0.3,0.1,0.7,0.2c0.4,0.1,0.6,0.2,0.7,0.2c0.1,0,0.1,0,0.1-0.1c0-0.1-0.1-0.1-0.3-0.2    c-0.2-0.1-0.4-0.2-0.7-0.3c-0.3-0.1-0.5-0.2-0.7-0.3c-0.5-0.3-0.9-0.7-1.4-1.1c-0.5-0.5-0.7-0.8-0.7-0.9c0-0.1,0-0.1,0.1-0.1    c0,0,0.3,0.2,0.8,0.6c0.5,0.4,0.8,0.6,0.9,0.6c0,0,0.1,0,0.1-0.1c0,0-0.1-0.1-0.2-0.3c-0.2-0.1-0.4-0.3-0.6-0.5    c-0.2-0.2-0.5-0.5-0.6-0.7c-0.1-0.1-0.1-0.2-0.1-0.3c0-0.1,0-0.1,0-0.2c0,0,0-0.1,0.1-0.1c0,0,0.3,0.3,0.8,0.8    c0.5,0.5,0.8,0.8,0.9,0.8c0,0,0.1,0,0.1-0.1c0,0-0.3-0.4-0.8-1c-0.5-0.6-0.8-1-0.8-1.2c0-0.1,0-0.1,0.1-0.1c0,0,0.3,0.3,0.8,0.9    c0.5,0.6,0.8,0.9,1,0.9l0-0.1c0,0-0.3-0.4-0.9-1c-0.6-0.7-0.9-1.1-0.9-1.4c0,0,0-0.1,0-0.1c0.1,0,0.4,0.3,0.9,1c0.5,0.7,0.9,1,1,1    c0.1,0,0.1,0,0.1-0.1c0-0.1-0.1-0.3-0.4-0.6c-0.3-0.4-0.6-0.7-0.9-1.1c-0.3-0.4-0.5-0.7-0.6-0.8c-0.1-0.2-0.1-0.4,0-0.4    c0,0,0.3,0.3,0.9,1C383.7,79.8,384,80.1,384.3,80.1C384.2,80.1,384.3,80.1,384.3,80.1z M385.1,82c-0.2,0-0.4,0.1-0.6,0.2    c-0.2,0.2-0.3,0.4-0.3,0.8c0,0.1,0,0.2,0.1,0.3c0,0.1,0.1,0.2,0.3,0.3c0.2,0.1,0.4,0.2,0.6,0.2c0.7,0,1-0.3,1-0.8    c0-0.3-0.1-0.5-0.3-0.7C385.6,82.1,385.3,82,385.1,82z M385.1,82.5c0.2,0,0.4,0.1,0.4,0.4c0,0.2-0.1,0.3-0.4,0.3    c-0.2,0-0.4-0.1-0.4-0.3C384.7,82.7,384.8,82.5,385.1,82.5z M386.9,80.6c0-0.3-0.1-0.5-0.3-0.7c-0.2-0.2-0.4-0.3-0.7-0.3    c-0.3,0-0.6,0.1-0.8,0.3c-0.2,0.2-0.3,0.4-0.3,0.8c0,0.6,0.4,1,1.1,1c0.3,0,0.5-0.1,0.7-0.3C386.8,81,386.9,80.8,386.9,80.6z     M385.5,80.6c0-0.1,0-0.2,0.1-0.3c0.1-0.1,0.2-0.1,0.3-0.1c0.1,0,0.2,0,0.3,0.1c0.1,0.1,0.1,0.2,0.1,0.3c0,0.2-0.1,0.3-0.4,0.3    C385.6,80.9,385.5,80.8,385.5,80.6z M387.8,85.1c0-0.6-0.3-1-0.9-1c-0.6,0-0.9,0.3-0.9,0.8c0,0.2,0.1,0.5,0.3,0.7    c0.2,0.2,0.4,0.3,0.8,0.3C387.6,85.9,387.8,85.6,387.8,85.1z M387.4,81.8c-0.3,0-0.5,0.1-0.7,0.3c-0.2,0.2-0.3,0.4-0.3,0.7    c0,0.6,0.4,0.9,1.2,0.9c0.3,0,0.5-0.1,0.7-0.3c0.2-0.2,0.2-0.4,0.2-0.6C388.6,82.1,388.2,81.8,387.4,81.8z M386.6,85    c0-0.2,0.1-0.4,0.4-0.4c0.2,0,0.4,0.1,0.4,0.4c0,0.2-0.1,0.3-0.3,0.3C386.7,85.4,386.6,85.3,386.6,85z M388.7,78.6    c0-0.2-0.1-0.3-0.2-0.5c-0.2-0.2-0.4-0.3-0.6-0.3c-0.7,0-1.1,0.3-1.1,1c0,0.2,0.1,0.3,0.3,0.5s0.4,0.2,0.5,0.2    c0.3,0,0.5-0.1,0.8-0.3C388.6,78.9,388.7,78.7,388.7,78.6z M387.9,82.8c0,0.2-0.1,0.3-0.3,0.3c-0.3,0-0.4-0.1-0.4-0.3    c0-0.3,0.1-0.4,0.4-0.4C387.8,82.4,387.9,82.6,387.9,82.8z M387.7,79c-0.3,0-0.4-0.1-0.4-0.4c0-0.2,0.2-0.4,0.5-0.4    c0.2,0,0.3,0.1,0.3,0.3C388.1,78.8,388,79,387.7,79z M388.6,81.6c0.1,0,0.2,0,0.3-0.1c0.1,0,0.3-0.1,0.5-0.3    c0.2-0.2,0.3-0.4,0.3-0.7c0-0.3-0.1-0.5-0.3-0.7c-0.2-0.1-0.4-0.2-0.5-0.2c-0.2,0-0.5,0.1-0.8,0.2c-0.3,0.1-0.4,0.4-0.4,0.7    c0,0.3,0.1,0.5,0.3,0.7C388.1,81.5,388.3,81.6,388.6,81.6z M388.7,80.3c0.3,0,0.4,0.1,0.4,0.4c0,0.2-0.1,0.4-0.4,0.4    c-0.3,0-0.4-0.1-0.4-0.4C388.3,80.4,388.4,80.3,388.7,80.3z M390.2,85c0-0.3-0.1-0.5-0.3-0.6c-0.2-0.1-0.5-0.2-0.7-0.2    c-0.5,0-0.8,0.3-0.8,1c0,0.5,0.3,0.8,0.8,0.8c0.1,0,0.2,0,0.4-0.1c0.1,0,0.3-0.1,0.4-0.3C390.1,85.5,390.2,85.3,390.2,85z     M389.3,84.9c0.2,0,0.3,0.1,0.3,0.3c0,0.3-0.1,0.4-0.4,0.4c-0.2,0-0.3-0.1-0.3-0.4C388.9,85,389,84.9,389.3,84.9z M388.9,82.5    c0,0.3,0.1,0.5,0.3,0.6c0.2,0.1,0.4,0.2,0.7,0.2c0.6,0,0.9-0.3,0.9-0.8c0-0.2-0.1-0.4-0.2-0.6c-0.2-0.2-0.4-0.3-0.6-0.3    c-0.3,0-0.6,0.1-0.8,0.3C389,82.1,388.9,82.3,388.9,82.5z M390.2,79.4c0.2,0,0.4-0.1,0.6-0.2c0.2-0.1,0.3-0.4,0.3-0.7    c0-0.5-0.3-0.8-0.8-0.8c-0.7,0-1,0.3-1,0.8c0,0.3,0.1,0.5,0.2,0.6C389.7,79.4,389.9,79.4,390.2,79.4z M389.9,82.2    c0.2,0,0.4,0.1,0.4,0.4c0,0.2-0.1,0.3-0.4,0.3c-0.2,0-0.3-0.1-0.3-0.4C389.6,82.3,389.7,82.2,389.9,82.2z M390.2,79    c-0.2,0-0.3-0.1-0.3-0.3c0-0.3,0.1-0.4,0.4-0.4c0.2,0,0.4,0.1,0.4,0.3C390.6,78.8,390.5,79,390.2,79z M390.5,84.2    c0,0.2,0.1,0.3,0.3,0.5c0.2,0.1,0.4,0.2,0.6,0.2c0.2,0,0.4-0.1,0.6-0.2c0.2-0.2,0.3-0.3,0.3-0.5c0-0.2-0.1-0.4-0.3-0.6    c-0.2-0.2-0.4-0.3-0.6-0.3c-0.2,0-0.4,0.1-0.6,0.3C390.5,83.8,390.5,84,390.5,84.2z M390.6,80.2c0,0.6,0.3,0.8,0.9,0.8    c0.2,0,0.5-0.1,0.7-0.2c0.2-0.2,0.3-0.4,0.3-0.6c0-0.6-0.3-0.9-0.8-0.9c-0.3,0-0.5,0.1-0.7,0.3C390.7,79.8,390.6,80,390.6,80.2z     M391.7,84.1c0,0.1,0,0.1-0.1,0.2c-0.1,0.1-0.1,0.1-0.2,0.1c-0.2,0-0.4-0.1-0.4-0.3c0-0.3,0.1-0.4,0.3-0.4    C391.6,83.8,391.7,83.9,391.7,84.1z M391.3,80.2c0-0.3,0.1-0.4,0.4-0.4c0.2,0,0.3,0.1,0.3,0.4c0,0.2-0.1,0.4-0.4,0.4    C391.4,80.6,391.3,80.5,391.3,80.2z M392.2,83.1c0.7,0,1-0.3,1-0.8c0-0.2-0.1-0.4-0.2-0.6c-0.1-0.2-0.4-0.3-0.6-0.3    c-0.2,0-0.4,0.1-0.6,0.2c-0.2,0.1-0.3,0.4-0.3,0.7c0,0.2,0.1,0.4,0.2,0.6C391.7,83,391.9,83.1,392.2,83.1z M392.3,82.7    c-0.3,0-0.4-0.1-0.4-0.3c0-0.1,0-0.2,0.1-0.3c0.1-0.1,0.2-0.1,0.3-0.1c0.2,0,0.3,0.1,0.3,0.4C392.6,82.5,392.5,82.7,392.3,82.7z"/>
		<path class="st2" d="M389.4,92.3c-0.2,0-0.5,0-0.9-0.1c-0.4-0.1-0.7-0.1-0.8-0.1c-0.1,0-0.4,0.1-0.7,0.2c-0.4,0.1-0.7,0.2-0.9,0.2    c-0.1,0-0.4,0-0.8-0.1c-0.4-0.1-0.7-0.1-0.8-0.1c-1.4,0-2.7,0.2-3.8,0.6c0-0.1-0.1-0.2-0.1-0.4c0-1,0.3-1.9,1-2.7    c0.7-0.7,1.4-1.1,2.1-1.1c0.2,0,0.4,0,0.7,0.1c0.2,0.1,0.4,0.1,0.4,0.1c0.1,0,0.1,0,0.1-0.1c0,0,0-0.1-0.1-0.2    c-0.1-0.1-0.1-0.1-0.1-0.2c0-0.1,0-0.2,0.1-0.2c0,0,0.1,0,0.2,0.1c0.1,0.1,0.1,0.3,0.2,0.5c0.1,0.2,0.1,0.5,0.1,0.8    c0,0.1,0,0.3,0,0.7c0,0.3,0,0.5,0,0.6c0,0.8,0.3,1.2,0.8,1.2c0.2,0,0.5-0.1,0.9-0.2c0.4-0.2,0.8-0.2,1-0.2c0.1,0,0.2,0,0.3,0    c0.1,0,0.2,0,0.2,0c0.4,0,0.6-0.3,0.6-0.8c0-0.2-0.1-0.3-0.3-0.5c-0.2-0.2-0.4-0.2-0.6-0.2c-0.2,0-0.5,0.2-0.9,0.6    c-0.3,0.4-0.6,0.6-0.8,0.6c-0.4,0-0.6-0.3-0.6-0.9c0-0.2,0.1-0.6,0.2-1c0.1-0.4,0.2-0.8,0.2-1c0-0.3-0.1-0.5-0.2-0.6    c-0.1-0.1-0.3-0.2-0.4-0.2c-0.1,0-0.2,0-0.2-0.1c0,0,0.1-0.1,0.2-0.1c0.2,0,0.5,0.1,0.7,0.4c0.2,0.3,0.3,0.4,0.4,0.4    c0,0,0.1-0.1,0.3-0.3c0.1-0.2,0.4-0.4,0.7-0.6c0.3-0.2,0.6-0.3,1.1-0.3c0.5,0,0.9,0.2,1.2,0.7c0.3,0.5,0.5,0.7,0.5,0.7l0.5-0.1    c0.4-0.1,0.8-0.2,1.4-0.2c0.7,0,1.5,0.4,2.3,1.1c0.8,0.8,1.2,1.7,1.2,2.8l-0.1,0.6c0,0-0.5-0.1-1.4-0.2c-0.9-0.1-1.6-0.2-2.1-0.2    c-0.9,0-1.5,0-1.9,0C389.8,92.3,389.5,92.3,389.4,92.3z M382.5,92c0-0.1-0.1-0.1-0.4-0.1c-0.2,0-0.4,0-0.6,0.1    c-0.2,0-0.3,0.1-0.3,0.2c-0.1,0.1-0.1,0.1-0.1,0.2c0,0.1,0,0.1,0.1,0.1c0.1,0,0.4-0.1,0.7-0.2C382.3,92.1,382.5,92,382.5,92z     M381.3,91.3c0,0.1,0.1,0.1,0.4,0.1c0.2,0,0.4,0,0.6-0.1c0.2-0.1,0.3-0.1,0.3-0.2c0-0.1-0.1-0.2-0.4-0.2    C381.6,91,381.3,91.1,381.3,91.3z M382.3,90.2c-0.4,0-0.7,0.1-0.7,0.2c0,0.1,0.2,0.2,0.7,0.2c0.4,0,0.6-0.1,0.6-0.2    C382.9,90.3,382.7,90.2,382.3,90.2z M382.2,89.8c0,0.1,0.3,0.2,0.8,0.2c0.2,0,0.3,0,0.3-0.1c0-0.2-0.2-0.3-0.6-0.3    C382.4,89.6,382.2,89.7,382.2,89.8z M382.8,89.2c0,0.1,0.2,0.2,0.7,0.2c0.1,0,0.2,0,0.2-0.1c0-0.1-0.2-0.2-0.6-0.2    C382.9,89.1,382.8,89.1,382.8,89.2z M384.8,91.7c-1.2,0-1.9,0.1-1.9,0.2c0,0.1,0.2,0.1,0.5,0.1c0.1,0,0.3,0,0.5,0    c0.3,0,0.5,0,0.6,0c0.3,0,0.5,0,0.5-0.1C385,91.8,384.9,91.7,384.8,91.7z M384.9,91.3c0-0.2-0.5-0.3-1.4-0.3    c-0.3,0-0.4,0.1-0.4,0.2c0,0,0,0.1,0,0.1c0,0,0.1,0,0.2,0c0.1,0,0.2,0,0.3,0c0.1,0,0.2,0,0.4,0c0.2,0,0.4,0,0.5,0    C384.7,91.4,384.9,91.4,384.9,91.3z M384.8,90.7c0-0.2-0.3-0.3-1-0.3c-0.3,0-0.5,0.1-0.5,0.2c0,0.1,0.4,0.2,1.1,0.2    C384.7,90.8,384.8,90.8,384.8,90.7z M383.7,90.1c0,0,0.2,0.1,0.5,0.1c0.3,0.1,0.5,0.1,0.6,0.1c0.1,0,0.1,0,0.1,0    c0,0,0-0.1-0.1-0.1c-0.1,0-0.2-0.1-0.3-0.1c-0.1,0-0.3-0.1-0.4-0.1C383.8,89.9,383.7,89.9,383.7,90.1z M383.9,89.5    c0,0.1,0.1,0.1,0.4,0.2c0.3,0.1,0.4,0.1,0.6,0.1c0,0,0.1,0,0.1-0.1c0,0-0.1-0.1-0.3-0.2c-0.2-0.1-0.4-0.1-0.5-0.1    C384,89.4,383.9,89.4,383.9,89.5z M384.9,89.3c0-0.2-0.2-0.3-0.5-0.3c-0.1,0-0.2,0-0.2,0.1c0,0.1,0.1,0.1,0.3,0.2    c0.2,0,0.3,0.1,0.4,0.1C384.9,89.4,384.9,89.3,384.9,89.3z M385.7,88.6c0,0.1,0,0.1-0.1,0.1c-0.1,0-0.2-0.1-0.3-0.2    c-0.1-0.1-0.1-0.3-0.1-0.4c0,0,0-0.1,0.1-0.1c0.1,0,0.2,0.1,0.3,0.2C385.6,88.4,385.7,88.5,385.7,88.6z M386.5,90.2    c0-0.1-0.1-0.2-0.3-0.2c-0.2,0-0.3,0.2-0.3,0.6c0,0.1,0,0.2,0.1,0.2c0,0,0.1-0.1,0.2-0.2C386.5,90.4,386.5,90.3,386.5,90.2z     M387,90.6c0-0.1,0-0.2-0.1-0.2c-0.1,0-0.2,0.1-0.3,0.2c-0.1,0.2-0.2,0.3-0.2,0.4c0,0.1,0,0.1,0.1,0.1c0.1,0,0.2-0.1,0.3-0.2    C386.9,90.8,387,90.7,387,90.6z M386.8,89.9c0,0,0.1,0,0.2-0.1c0.1-0.1,0.1-0.2,0.1-0.2c0-0.2-0.1-0.3-0.3-0.3    c-0.3,0-0.4,0.1-0.4,0.4C386.3,89.8,386.5,89.9,386.8,89.9z M387.6,88c0-0.1-0.1-0.1-0.2-0.1c-0.2,0-0.4,0.1-0.4,0.3    c0,0.1,0.1,0.2,0.2,0.2C387.4,88.3,387.6,88.2,387.6,88z M387.3,89.2c0.2,0,0.3-0.1,0.3-0.3c0-0.2-0.1-0.3-0.3-0.3    c-0.2,0-0.3,0.1-0.3,0.3C387,89.1,387.1,89.2,387.3,89.2z M387.3,89.7c0,0-0.1,0-0.2,0.1c-0.1,0.1-0.1,0.1-0.1,0.2    c0,0.2,0.1,0.3,0.3,0.3c0.2,0,0.3-0.1,0.3-0.3C387.6,89.8,387.5,89.7,387.3,89.7z M387.8,87.4c-0.2,0-0.3,0.1-0.3,0.2    c0,0.1,0.1,0.2,0.3,0.2c0,0,0.1,0,0.1,0c0,0,0.1-0.1,0.1-0.2C388,87.4,388,87.4,387.8,87.4z M387.8,88.7c0.2,0,0.3-0.1,0.3-0.3    c0-0.2-0.1-0.3-0.3-0.3c-0.2,0-0.3,0.1-0.3,0.3C387.6,88.6,387.6,88.7,387.8,88.7z M388.1,89.4c0-0.2-0.1-0.3-0.3-0.3    c-0.2,0-0.3,0.1-0.3,0.3c0,0.2,0.1,0.3,0.3,0.3C388,89.7,388.1,89.6,388.1,89.4z M388.3,88.6c-0.2,0-0.3,0.1-0.3,0.3    c0,0.1,0,0.1,0.1,0.2c0.1,0.1,0.2,0.1,0.2,0.1c0.2,0,0.3-0.1,0.3-0.3C388.6,88.7,388.5,88.6,388.3,88.6z M388.3,88.2    c0.2,0,0.3-0.1,0.3-0.3c0-0.1-0.1-0.2-0.3-0.2c-0.2,0-0.3,0.1-0.3,0.3C388.1,88.2,388.1,88.2,388.3,88.2z M388.4,87.2    c-0.2,0-0.3,0.1-0.3,0.2c0,0.1,0.1,0.2,0.3,0.2c0.1,0,0.2-0.1,0.2-0.2C388.6,87.2,388.5,87.2,388.4,87.2z M389.4,92    c0.1,0,0.6-0.1,1.3-0.2c0.7-0.1,1.4-0.2,2.1-0.2c0.3,0,0.5,0,0.5-0.1c0-0.2-0.2-0.3-0.7-0.3c-0.3,0-0.7,0-1.2,0.1    c-0.6,0.1-0.9,0.1-1,0.1c-0.1,0-0.1,0-0.1,0c0-0.1,0.3-0.3,1-0.4c0.6-0.1,1.1-0.2,1.4-0.2c0.3,0,0.4-0.1,0.4-0.2    c0-0.1-0.1-0.2-0.4-0.2c-0.2,0-0.6,0.1-1.1,0.2c-0.5,0.1-0.8,0.2-0.9,0.2c-0.1,0-0.1,0-0.1-0.1c0-0.2,0.6-0.3,1.7-0.5    c0.3,0,0.4-0.1,0.4-0.2c0-0.1-0.1-0.1-0.2-0.1c-0.2,0-0.5,0.1-0.9,0.2c-0.5,0.1-0.7,0.2-0.8,0.2c-0.1,0-0.1-0.1,0-0.2    c0,0,0.1-0.1,0.1-0.1c0.1,0,0.3-0.1,0.5-0.2c0.2-0.1,0.3-0.1,0.4-0.1c0.1,0,0.2,0,0.3-0.1c0.1,0,0.1-0.1,0.2-0.1c0,0,0-0.1,0-0.1    c0-0.1-0.1-0.1-0.2-0.1c-0.1,0-0.4,0.1-0.8,0.2c-0.4,0.1-0.6,0.2-0.6,0.2c-0.1,0-0.1,0-0.1,0c0-0.1,0.2-0.2,0.7-0.4    c0.5-0.2,0.7-0.3,0.7-0.4c0-0.1,0-0.1-0.1-0.1c-0.1,0-0.3,0.1-0.6,0.3c-0.3,0.2-0.6,0.3-0.7,0.3c0,0-0.1,0-0.1-0.1    c0-0.1,0.2-0.3,0.6-0.5c0.4-0.2,0.6-0.3,0.6-0.4c0,0,0-0.1-0.1-0.1c-0.2,0-0.4,0.1-0.6,0.2c-0.3,0.1-0.5,0.3-0.6,0.4l-0.3,0.2    c-0.1,0-0.1,0-0.1-0.1c0,0,0-0.1,0.1-0.2c0.1-0.1,0.1-0.2,0.1-0.3c0-0.1-0.1-0.1-0.2-0.1c-0.1,0-0.4,0.2-0.8,0.7    c-0.4,0.4-0.6,0.7-0.6,0.8c0,0,0.2,0.1,0.5,0.3c0.3,0.2,0.5,0.5,0.5,0.9c0,0.4-0.1,0.7-0.3,0.9C389.1,92,389.3,92,389.4,92z     M389.2,88.3c0-0.1-0.1-0.2-0.3-0.2c0,0-0.1,0-0.2,0.1c-0.1,0.1-0.1,0.1-0.1,0.2c0,0.1,0.1,0.2,0.3,0.2c0.1,0,0.1,0,0.2-0.1    C389.2,88.5,389.2,88.4,389.2,88.3z M389,87.3c-0.2,0-0.3,0.1-0.3,0.3c0,0.1,0.1,0.2,0.2,0.2c0.2,0,0.3-0.1,0.3-0.3    C389.3,87.4,389.2,87.3,389,87.3z M389.6,87.9c0-0.1-0.1-0.2-0.2-0.2c-0.1,0-0.2,0.1-0.2,0.2c0,0.1,0.1,0.2,0.2,0.2    C389.6,88.2,389.6,88.1,389.6,87.9z M390.8,87.2c0.7-0.8,1.4-1.4,2.1-1.8c0.7-0.5,1.3-0.7,1.7-0.7c0.1,0,0.2,0,0.2,0.1    c0,0,0,0.1-0.1,0.1c-0.1,0.1-0.4,0.2-0.8,0.4c-0.4,0.2-0.6,0.3-0.8,0.4c-0.5,0.3-0.9,0.6-1.3,0.9s-0.7,0.5-0.8,0.6    c-0.2,0.1-0.3,0.2-0.3,0.2C390.6,87.5,390.7,87.4,390.8,87.2z M392.1,88.8c0,0.1,0,0.1,0.1,0.1c0.6,0,1-0.1,1-0.3    c0-0.1-0.1-0.1-0.3-0.1c-0.1,0-0.3,0-0.5,0.1C392.2,88.7,392.1,88.7,392.1,88.8z M392.1,87.2c0,0,0.1-0.1,0.4-0.3    c0.3-0.2,0.6-0.4,1-0.6c0.4-0.2,0.7-0.3,0.9-0.3c0.2,0,0.3,0,0.3,0.1c0,0.1-0.8,0.5-2.5,1.1C392.2,87.3,392.1,87.3,392.1,87.2z     M393.5,89.1c-0.6,0-0.8,0.1-0.8,0.3c0,0.1,0.1,0.1,0.2,0.1c0.1,0,0.2,0,0.4,0c0.2,0,0.3,0,0.4,0c0.1,0,0.2,0,0.2-0.1    C393.9,89.2,393.7,89.1,393.5,89.1z M392.8,87.6c0,0,0.1-0.1,0.2-0.2c0.2-0.1,0.4-0.2,0.6-0.2c0.2-0.1,0.5-0.1,0.6-0.1    c0.2,0,0.4,0.1,0.4,0.2c0,0,0,0.1,0,0.1c0,0-0.2,0-0.3,0c-0.3,0-0.5,0.1-0.8,0.1c-0.2,0-0.4,0.1-0.5,0.1c-0.1,0-0.2,0-0.2,0    C392.8,87.6,392.8,87.6,392.8,87.6z M393.1,90.1c0,0.1,0.3,0.1,1,0.1c0.2,0,0.3,0,0.3-0.1c0-0.1-0.2-0.2-0.6-0.2    C393.4,89.9,393.1,89.9,393.1,90.1z M395,90.9c0-0.2-0.3-0.3-1-0.3c-0.2,0-0.3,0-0.4,0c-0.1,0-0.1,0.1-0.1,0.1    c0,0.1,0.2,0.1,0.5,0.2c0.4,0.1,0.6,0.1,0.7,0.1C394.9,91.1,395,91,395,90.9z M394.7,91.5c-0.2,0-0.4-0.1-0.6-0.1    c-0.2,0-0.3,0-0.3,0.1c0,0.2,0.4,0.4,1.1,0.4c0.1,0,0.2,0,0.2-0.1C395.1,91.7,395,91.5,394.7,91.5z"/>
	</g>
</g>
</svg>