<?xml version="1.0" encoding="utf-8"?>
<!-- Generator: Adobe Illustrator 19.1.0, SVG Export Plug-In . SVG Version: 6.00 Build 0)  -->
<svg version="1.0" xmlns="http://www.w3.org/2000/svg" xmlns:xlink="http://www.w3.org/1999/xlink" x="0px" y="0px" width="1200" height="800"
 viewBox="384 37 100 80" xml:space="preserve">
<style type="text/css">
	.st0{fill:#F2F2F2;}
	.st1{fill:#808080;}
	.st2{fill:#0B3413;}
	.st3{fill:#871008;}
	.st4{fill:#07092D;}
	.st5{fill:#870E06;}
	.st6{fill:#CC1009;}
	.st7{fill:#CC140D;}
	.st8{fill:#CC130C;}
	.st9{filter:url(#Adobe_OpacityMaskFilter);}
	.st10{mask:url(#SVGID_1_);fill:#07092D;}
	.st11{filter:url(#Adobe_OpacityMaskFilter_1_);}
	.st12{mask:url(#SVGID_2_);fill:#07092D;}
</style>
<g>
	<g>
		<g>
			<path class="st0" d="M380.6,65.9c-1,0-1.9-0.8-1.9-1.9V42c0-1,0.8-1.9,1.9-1.9h15c1,0,1.9,0.8,1.9,1.9v22c0,1-0.8,1.9-1.9,1.9     H380.6z"/>
			<path class="st1" d="M395.6,40.3c1,0,1.8,0.8,1.8,1.8v22c0,1-0.8,1.8-1.8,1.8h-15c-1,0-1.8-0.8-1.8-1.8V42c0-1,0.8-1.8,1.8-1.8     H395.6 M395.6,40h-15c-1.1,0-2,0.9-2,2v22c0,1.1,0.9,2,2,2h15c1.1,0,2-0.9,2-2V42C397.6,40.9,396.7,40,395.6,40L395.6,40z"/>
		</g>
	</g>
	<g>
		<g>
			<path class="st3" d="M388.1,49.5c-1.9,0-3.5,1.6-3.5,3.5s1.6,3.5,3.5,3.5c1.9,0,3.5-1.6,3.5-3.5S390.1,49.5,388.1,49.5z M389,53     c0,0.5-0.4,0.9-0.9,0.9c-0.5,0-0.9-0.4-0.9-0.9s0.4-0.9,0.9-0.9C388.6,52.2,389,52.6,389,53z M388.1,56.2c-1.1,0-1.3-0.3-1.3-0.9     c0.1-0.6,0.7-1.2,0.9-1.2c0,0,0.1,0,0.1,0l-0.2,0.8l0,0l0.2-0.8c0.1,0,0.1,0,0.3,0v1.2h0v-1.2c0.1,0,0.2,0,0.3,0l0.2,0.8l0,0     l-0.2-0.8c0,0,0.1,0,0.1,0c0.2,0,0.8,0.6,0.9,1.2C389.5,55.9,389.2,56.2,388.1,56.2z M391.2,54c-0.3,1-0.7,1.2-1.3,0.9     c-0.5-0.2-0.9-1-0.9-1.2c0,0,0-0.1,0-0.1l0.7,0.5l0,0l-0.7-0.5c0-0.1,0.1-0.1,0.1-0.2l1.1,0.4l0,0l-1.1-0.4c0-0.1,0-0.2,0.1-0.3     l0.9,0l0,0l-0.9,0c0,0,0-0.1,0-0.1c0-0.1,0.9-0.6,1.4-0.4C391.3,52.6,391.5,53,391.2,54z M390,50.5c0.9,0.6,0.9,1.1,0.5,1.5     c-0.4,0.4-1.3,0.6-1.4,0.5c0,0-0.1,0-0.1-0.1l0.7-0.6l0,0l-0.7,0.6c-0.1-0.1-0.1-0.1-0.2-0.2l0.7-0.9l0,0l-0.7,0.9     c-0.1-0.1-0.2-0.1-0.2-0.1l0.3-0.8l0,0l-0.3,0.8c0,0-0.1,0-0.1-0.1c-0.1-0.1-0.3-1,0-1.5C388.7,49.9,389.1,49.8,390,50.5z      M386.2,50.5c0.9-0.6,1.3-0.5,1.6,0c0.3,0.5,0.1,1.4,0,1.5c0,0-0.1,0-0.1,0.1l-0.3-0.8l0,0l0.3,0.8c-0.1,0-0.1,0.1-0.2,0.1     l-0.7-0.9l0,0l0.7,0.9c-0.1,0.1-0.1,0.1-0.2,0.2l-0.7-0.6l0,0l0.7,0.6c0,0-0.1,0-0.1,0.1c-0.1,0.1-1-0.1-1.4-0.5     C385.3,51.5,385.4,51.1,386.2,50.5z M385.1,54c-0.3-1-0.1-1.4,0.5-1.5c0.6-0.1,1.4,0.3,1.4,0.4c0,0,0,0.1,0,0.1l-0.9,0l0,0l0.9,0     c0,0.1,0,0.2,0.1,0.3l-1.1,0.4l0,0l1.1-0.4c0,0.1,0.1,0.2,0.1,0.2l-0.7,0.5l0,0l0.7-0.5c0,0,0,0.1,0,0.1c0,0.1-0.4,0.9-0.9,1.2     C385.8,55.2,385.4,55.1,385.1,54z"/>
			<circle class="st3" cx="388.1" cy="53" r="0.4"/>
		</g>
		<g>
			<path class="st4" d="M388.1,46.2c-3.8,0-6.8,3.1-6.8,6.8s3.1,6.8,6.8,6.8c3.8,0,6.9-3.1,6.9-6.8S391.9,46.2,388.1,46.2z      M394.7,52.1c0,0.2-0.4,0.6-0.7,0.6c-0.3,0-1.5,0.1-1.6,0.1s-0.1,0-0.1-0.2c0-0.1,0-0.2,0.1-0.2c0,0,1.3-0.2,1.4-0.2     c0.1,0,0.2-0.1,0.2-0.1c0,0-0.1-0.1-0.2,0c-0.1,0-1.3,0.2-1.4,0.2c0,0-0.1,0-0.1-0.1c0-0.1,0-0.2,0.1-0.2c0.1,0,1.2-0.3,1.5-0.4     C394.1,51.6,394.6,51.9,394.7,52.1z M394.1,50.3c0.1,0.2-0.2,0.7-0.5,0.8c-0.3,0.1-1.4,0.5-1.5,0.5c-0.1,0-0.1,0-0.2-0.1     c0-0.1,0-0.2,0-0.2c0,0,1.2-0.5,1.3-0.6c0.1,0,0.2-0.1,0.2-0.1c0,0-0.1,0-0.2,0c-0.1,0-1.2,0.6-1.3,0.6c0,0-0.1,0-0.2-0.1     c0-0.1,0-0.2,0-0.2c0.1,0,1.1-0.6,1.4-0.8C393.5,50,394,50.1,394.1,50.3z M391.8,53c0,2-1.7,3.7-3.7,3.7c-2,0-3.7-1.7-3.7-3.7     s1.7-3.7,3.7-3.7C390.2,49.3,391.8,51,391.8,53z M392.1,48.9c0.3-0.2,0.8-0.3,1-0.1c0.1,0.2,0,0.7-0.3,0.9     c-0.3,0.2-1.2,0.9-1.3,0.9c-0.1,0-0.1,0-0.2-0.1c-0.1-0.1-0.1-0.2,0-0.2c0,0,1-0.8,1-0.9c0.1-0.1,0.1-0.2,0.1-0.2     c0,0-0.1,0-0.2,0.1c-0.1,0.1-1,0.9-1,0.9c0,0-0.1,0-0.2-0.1c-0.1-0.1-0.1-0.1,0-0.2C391.1,49.9,391.9,49.1,392.1,48.9z      M391.7,47.5c0.2,0.1,0.2,0.7,0,1c-0.2,0.3-0.9,1.2-1,1.3c0,0.1-0.1,0-0.2,0c-0.1-0.1-0.1-0.1-0.1-0.2c0,0,0.7-1.1,0.7-1.2     c0.1-0.1,0.1-0.2,0-0.2s-0.1,0-0.2,0.1c-0.1,0.1-0.7,1.1-0.7,1.2c0,0-0.1,0.1-0.2,0c-0.1-0.1-0.1-0.1-0.1-0.2     c0-0.1,0.6-1.1,0.7-1.4C391,47.6,391.5,47.4,391.7,47.5z M389.2,47.4c0.1-0.4,0.5-0.7,0.7-0.6c0.2,0.1,0.4,0.6,0.3,0.9     c-0.1,0.3-0.5,1.4-0.6,1.5c0,0.1-0.1,0.1-0.2,0c-0.1,0-0.1-0.1-0.1-0.1s0.4-1.2,0.4-1.3s0-0.2,0-0.2c0,0-0.1,0.1-0.1,0.2     c0,0.1-0.4,1.3-0.4,1.3c0,0-0.1,0.1-0.2,0c-0.1,0-0.1-0.1-0.1-0.1C388.9,48.8,389.1,47.7,389.2,47.4z M388.1,46.4     c0.2,0,0.5,0.5,0.5,0.8c0,0.3-0.1,1.5-0.1,1.6c0,0.1-0.1,0.1-0.2,0.1c-0.1,0-0.2,0-0.2-0.1c0-0.1,0-1.3,0-1.4     c0-0.1,0-0.2-0.1-0.2c0,0-0.1,0.1-0.1,0.2c0,0.1,0,1.3,0,1.4c0,0.1,0,0.1-0.2,0.1c-0.1,0-0.2,0-0.2-0.1c0-0.1-0.1-1.2-0.1-1.6     C387.6,46.9,387.9,46.4,388.1,46.4z M386.3,46.7c0.2-0.1,0.6,0.3,0.7,0.6c0.1,0.3,0.3,1.5,0.3,1.5c0,0.1,0,0.1-0.1,0.1     c-0.1,0-0.2,0-0.2,0c0,0-0.4-1.2-0.4-1.3c0-0.1-0.1-0.2-0.1-0.2c0,0,0,0.1,0,0.2s0.4,1.3,0.4,1.3s0,0.1-0.1,0.1     c-0.1,0-0.2,0-0.2,0c0-0.1-0.5-1.1-0.6-1.5C385.9,47.3,386,46.8,386.3,46.7z M384.6,47.5c0.2-0.1,0.7,0.1,0.9,0.4     c0.2,0.3,0.7,1.3,0.7,1.4c0,0.1,0,0.1-0.1,0.2c-0.1,0.1-0.2,0-0.2,0c0,0-0.7-1.1-0.7-1.2c-0.1-0.1-0.1-0.1-0.2-0.1     c0,0,0,0.1,0,0.2c0.1,0.1,0.7,1.1,0.7,1.2c0,0,0,0.1-0.1,0.2c-0.1,0.1-0.2,0.1-0.2,0c0-0.1-0.8-1-1-1.3     C384.4,48.2,384.4,47.6,384.6,47.5z M383.1,48.7c0.1-0.2,0.7-0.1,1,0.1c0.3,0.2,1.1,1.1,1.1,1.1c0,0,0,0.1,0,0.2     c-0.1,0.1-0.1,0.1-0.2,0.1c0,0-1-0.8-1-0.9c-0.1-0.1-0.2-0.1-0.2-0.1c0,0,0,0.1,0.1,0.2c0.1,0.1,1,0.9,1,0.9c0,0,0,0.1,0,0.2     c-0.1,0.1-0.1,0.1-0.2,0.1c-0.1,0-1-0.7-1.3-0.9C383.1,49.4,383,48.9,383.1,48.7z M382.1,50.3c0.1-0.2,0.6-0.3,1-0.1     c0.3,0.1,1.3,0.7,1.4,0.8c0.1,0,0.1,0.1,0,0.2c0,0.1-0.1,0.1-0.2,0.1c0,0-1.2-0.5-1.3-0.6c-0.1,0-0.2,0-0.2,0     c0,0,0.1,0.1,0.2,0.1c0.1,0,1.2,0.6,1.3,0.6c0,0,0.1,0.1,0,0.2c0,0.1-0.1,0.1-0.2,0.1c-0.1,0-1.2-0.4-1.5-0.5     C382.3,51,382,50.5,382.1,50.3z M382.5,51.7c0.3,0,1.5,0.3,1.5,0.4c0.1,0,0.1,0.1,0.1,0.2c0,0.1-0.1,0.2-0.1,0.1     c0,0-1.3-0.2-1.4-0.2c-0.1,0-0.2,0-0.2,0c0,0,0.1,0.1,0.2,0.1c0.1,0,1.3,0.2,1.4,0.2c0,0,0.1,0.1,0.1,0.2c0,0.1-0.1,0.2-0.1,0.2     s-1.2,0-1.6-0.1c-0.4-0.1-0.8-0.4-0.7-0.6C381.6,51.9,382.1,51.6,382.5,51.7z M381.6,54c0-0.2,0.4-0.6,0.7-0.6     c0.3,0,1.5-0.1,1.6-0.1s0.1,0,0.1,0.2c0,0.1,0,0.2-0.1,0.2c0,0-1.3,0.2-1.4,0.2c-0.1,0-0.2,0.1-0.2,0.1c0,0,0.1,0.1,0.2,0     c0.1,0,1.3-0.2,1.4-0.2c0,0,0.1,0,0.1,0.1c0,0.1,0,0.2-0.1,0.2c-0.1,0-1.2,0.3-1.5,0.4C382.1,54.4,381.6,54.2,381.6,54z      M382.1,55.8c-0.1-0.2,0.2-0.7,0.5-0.8c0.3-0.1,1.4-0.5,1.5-0.5c0.1,0,0.1,0,0.2,0.1c0,0.1,0,0.2,0,0.2c0,0-1.2,0.5-1.3,0.6     c-0.1,0-0.2,0.1-0.2,0.1c0,0,0.1,0,0.2,0c0.1,0,1.2-0.6,1.3-0.6c0,0,0.1,0,0.2,0.1c0,0.1,0,0.2,0,0.2c-0.1,0-1.1,0.6-1.4,0.8     C382.8,56.1,382.2,56,382.1,55.8z M384.1,57.2c-0.3,0.2-0.8,0.3-1,0.1c-0.1-0.2,0-0.7,0.3-0.9c0.3-0.2,1.2-0.9,1.3-0.9     c0.1,0,0.1,0,0.2,0.1c0.1,0.1,0.1,0.2,0,0.2c0,0-1,0.8-1,0.9c-0.1,0.1-0.1,0.2-0.1,0.2c0,0,0.1,0,0.2-0.1c0.1-0.1,1-0.9,1-0.9     c0,0,0.1,0,0.2,0.1c0.1,0.1,0.1,0.1,0,0.2C385.2,56.1,384.4,57,384.1,57.2z M384.6,58.6c-0.2-0.1-0.2-0.7,0-1     c0.2-0.3,0.9-1.2,1-1.3c0-0.1,0.1,0,0.2,0c0.1,0.1,0.1,0.1,0.1,0.2c0,0-0.7,1.1-0.7,1.2c-0.1,0.1-0.1,0.2,0,0.2     c0,0,0.1,0,0.2-0.1c0.1-0.1,0.7-1.1,0.7-1.2c0,0,0.1-0.1,0.2,0c0.1,0.1,0.1,0.1,0.1,0.2c0,0.1-0.6,1.1-0.7,1.4     C385.2,58.5,384.7,58.7,384.6,58.6z M387,58.7c-0.1,0.4-0.5,0.7-0.7,0.6c-0.2-0.1-0.4-0.6-0.3-0.9c0.1-0.3,0.5-1.4,0.6-1.5     c0-0.1,0.1-0.1,0.2,0c0.1,0,0.1,0.1,0.1,0.1c0,0-0.4,1.2-0.4,1.3c0,0.1,0,0.2,0,0.2c0,0,0.1-0.1,0.1-0.2c0-0.1,0.4-1.3,0.4-1.3     c0,0,0.1-0.1,0.2,0c0.1,0,0.1,0.1,0.1,0.1C387.3,57.2,387.1,58.4,387,58.7z M388.1,59.6c-0.2,0-0.5-0.5-0.5-0.8     c0-0.3,0.1-1.5,0.1-1.6c0-0.1,0.1-0.1,0.2-0.1c0.1,0,0.2,0,0.2,0.1c0,0.1,0,1.3,0,1.4c0,0.1,0,0.2,0.1,0.2c0,0,0.1-0.1,0.1-0.2     c0-0.1,0-1.3,0-1.4c0-0.1,0-0.1,0.2-0.1c0.1,0,0.2,0,0.2,0.1c0,0.1,0.1,1.2,0.1,1.6C388.7,59.2,388.3,59.6,388.1,59.6z M390,59.4     c-0.2,0.1-0.6-0.3-0.7-0.6c-0.1-0.3-0.3-1.5-0.3-1.5c0-0.1,0-0.1,0.1-0.1c0.1,0,0.2,0,0.2,0c0,0,0.4,1.2,0.4,1.3     c0,0.1,0.1,0.2,0.1,0.2c0,0,0-0.1,0-0.2c0-0.1-0.4-1.3-0.4-1.3c0,0,0-0.1,0.1-0.1c0.1,0,0.2,0,0.2,0c0,0.1,0.5,1.1,0.6,1.5     C390.4,58.8,390.2,59.3,390,59.4z M391.7,58.6c-0.2,0.1-0.7-0.1-0.9-0.4c-0.2-0.3-0.7-1.3-0.7-1.4c0-0.1,0-0.1,0.1-0.2     c0.1-0.1,0.2,0,0.2,0c0,0,0.7,1.1,0.7,1.2c0.1,0.1,0.1,0.1,0.2,0.1s0-0.1,0-0.2c-0.1-0.1-0.7-1.1-0.7-1.2c0,0,0-0.1,0.1-0.2     c0.1-0.1,0.2-0.1,0.2,0c0,0.1,0.8,1,1,1.3C391.9,57.9,391.9,58.5,391.7,58.6z M393.1,57.4c-0.1,0.2-0.7,0.1-1-0.1     c-0.3-0.2-1.1-1.1-1.1-1.1c0,0,0-0.1,0-0.2c0.1-0.1,0.1-0.1,0.2-0.1c0,0,1,0.8,1,0.9c0.1,0.1,0.2,0.1,0.2,0.1c0,0,0-0.1-0.1-0.2     c-0.1-0.1-1-0.9-1-0.9c0,0,0-0.1,0-0.2c0.1-0.1,0.1-0.1,0.2-0.1c0.1,0,1,0.7,1.3,0.9C393.1,56.7,393.3,57.2,393.1,57.4z      M394.1,55.8c-0.1,0.2-0.6,0.3-1,0.1c-0.3-0.1-1.3-0.7-1.4-0.8c-0.1,0-0.1-0.1,0-0.2c0-0.1,0.1-0.1,0.2-0.1c0,0,1.2,0.5,1.3,0.6     c0.1,0,0.2,0,0.2,0c0,0-0.1-0.1-0.2-0.1c-0.1,0-1.2-0.6-1.3-0.6c0,0-0.1-0.1,0-0.2c0-0.1,0.1-0.1,0.2-0.1c0.1,0,1.2,0.4,1.5,0.5     C393.9,55.1,394.2,55.6,394.1,55.8z M393.8,54.4c-0.3,0-1.5-0.3-1.5-0.4c-0.1,0-0.1-0.1-0.1-0.2c0-0.1,0.1-0.2,0.1-0.1     c0,0,1.3,0.2,1.4,0.2c0.1,0,0.2,0,0.2,0c0,0-0.1-0.1-0.2-0.1c-0.1,0-1.3-0.2-1.4-0.2c0,0-0.1-0.1-0.1-0.2c0-0.1,0.1-0.2,0.1-0.2     s1.2,0,1.6,0.1c0.4,0.1,0.8,0.4,0.7,0.6C394.6,54.2,394.1,54.4,393.8,54.4z"/>
			<path class="st4" d="M388.1,45.7c-4.1,0-7.4,3.3-7.4,7.4s3.3,7.4,7.4,7.4c4.1,0,7.3-3.3,7.3-7.4S392.2,45.7,388.1,45.7z      M388.1,60c-3.9,0-7-3.1-7-7s3.1-7,7-7s7,3.1,7,7S392,60,388.1,60z"/>
		</g>
	</g>
</g>
</svg>