<?xml version="1.0" encoding="utf-8"?>
<!-- Generator: Adobe Illustrator 19.1.0, SVG Export Plug-In . SVG Version: 6.00 Build 0)  -->
<svg version="1.0" xmlns="http://www.w3.org/2000/svg" xmlns:xlink="http://www.w3.org/1999/xlink" x="0px" y="0px" width="1200" height="800"
 viewBox="400 0 100 100" xml:space="preserve">
<style type="text/css">
	.st0{fill:#F2F2F2;}
	.st1{fill:#808080;}
	.st2{fill:#0B3413;}
	.st3{fill:#871008;}
	.st4{fill:#07092D;}
	.st5{fill:#870E06;}
	.st6{fill:#CC1009;}
	.st7{fill:#CC140D;}
	.st8{fill:#CC130C;}
	.st9{filter:url(#Adobe_OpacityMaskFilter);}
	.st10{mask:url(#SVGID_1_);fill:#07092D;}
	.st11{filter:url(#Adobe_OpacityMaskFilter_1_);}
	.st12{mask:url(#SVGID_2_);fill:#07092D;}
</style>
<g>
	<g>
		<path class="st0" d="M380.6,33.8c-1,0-1.9-0.8-1.9-1.9v-22c0-1,0.8-1.9,1.9-1.9h15c1,0,1.9,0.8,1.9,1.9v22c0,1-0.8,1.9-1.9,1.9    H380.6z"/>
		<path class="st1" d="M395.6,8.2c1,0,1.8,0.8,1.8,1.8v22c0,1-0.8,1.8-1.8,1.8h-15c-1,0-1.8-0.8-1.8-1.8v-22c0-1,0.8-1.8,1.8-1.8    H395.6 M395.6,7.9h-15c-1.1,0-2,0.9-2,2v22c0,1.1,0.9,2,2,2h15c1.1,0,2-0.9,2-2v-22C397.6,8.8,396.7,7.9,395.6,7.9L395.6,7.9z"/>
	</g>
	<path d="M383.9,16.1c-1.4,0-2.1-0.2-2.1-0.5c0-0.2,0.2-0.3,0.6-0.3c0.1,0,0.3,0,0.5,0c0.2,0,0.4,0,0.6,0c1.3,0,2.8-0.4,4.5-1.1   c1.7-0.7,2.7-1.1,3-1.1c0.4,0,0.8,0.1,1.2,0.2c0.4,0.1,0.7,0.2,0.9,0.2c0.5,0,0.9,0.1,1,0.2c0.2,0.1,0.3,0.4,0.3,0.8   c0,0.2-0.1,0.5-0.2,0.7c-0.1,0.2-0.3,0.3-0.5,0.3c0,0-0.3-0.1-0.9-0.4c-0.6-0.2-1.3-0.4-2.2-0.4c-1.1,0-2.3,0.2-3.5,0.7   C385.7,15.8,384.7,16.1,383.9,16.1z"/>
	<path class="st5" d="M386.7,28.1c-0.1,0-0.3,0.1-0.6,0.2l-0.1,0.3c-0.1,0.2-0.2,0.3-0.3,0.4c-0.4-0.2-0.5-0.9-0.5-2.1   c0-0.9,0-1.6,0.1-2c0.9-0.1,1.9-0.4,2.9-0.6c1.1-0.3,1.7-0.4,2-0.4c0.5,0,0.8,0.2,0.8,0.5l-0.3,0.9c-0.2,0.6-0.3,1.3-0.3,1.9   c0,0.4,0,0.8,0.1,1.2c0.5,0,0.9,0.1,1.5,0.2c0.5,0.1,1.1,0.4,1.6,0.7c0.6,0.4,0.8,0.8,0.8,1.3c0,0.4-0.2,0.7-0.5,0.9   c-0.3,0.2-0.7,0.3-1.2,0.3c-0.1,0-0.4,0.1-0.8,0.2c-0.4,0.2-0.7,0.2-1,0.2c-0.3,0-0.9-0.2-1.7-0.5c-0.8-0.3-1.4-0.6-1.7-0.8   c-0.1,0-0.2,0.1-0.4,0.2c-0.1,0.1-0.2,0.2-0.3,0.2c-0.1,0-0.5-0.1-1.2-0.3c0,0,0,0.1,0,0.2c0,0.1,0,0.2,0,0.3c0,0.1,0,0.1,0,0.2   c0,0.1,0,0.1-0.1,0.2c0,0-0.1,0.1-0.2,0.1c-0.1,0-0.2,0-0.2-0.1c-0.1-0.1-0.2-0.2-0.2-0.4c-0.1-0.2-0.1-0.3-0.2-0.4   c-0.1-0.1-0.1-0.3-0.2-0.5c0-0.2-0.1-0.3-0.1-0.3h-0.4c-0.5,0-0.9-0.1-1.3-0.2c-0.4-0.1-0.6-0.3-0.6-0.6c0,0,0-0.1,0-0.1   c0,0,0-0.1,0-0.1c0.2,0,0.5,0,0.9,0.1c0.4,0,0.7,0.1,0.9,0.1h0.1c0-0.2-0.1-0.5-0.1-0.8c-0.1-0.3-0.1-0.6-0.2-0.9   c0-0.2-0.1-0.4-0.1-0.5c0,0,0-0.1,0.1-0.2c0.3,0,0.5,0.2,0.6,0.4c0.1,0.2,0.2,0.5,0.3,1c0.1,0.4,0.2,0.7,0.4,1   c0.3,0,0.8-0.1,1.4-0.3c0-0.1,0-0.2,0-0.5C386.7,28.4,386.7,28.2,386.7,28.1z M391.2,23.2c-0.7,0-1.8,0.2-3.2,0.6   c-1.4,0.4-2.4,0.6-2.8,0.6c-1.4,0-2.4-0.3-2.8-0.8c0.4-0.3,0.8-0.4,1-0.4c0.2,0,0.6,0.1,1.1,0.2c0.5,0.1,0.9,0.2,1.2,0.2   c0.5,0,0.8,0,1-0.1c0.2-0.1,0.3-0.3,0.3-0.6c0-0.1-0.1-0.1-0.2-0.2c-0.1,0-0.2-0.1-0.3-0.2c0-0.1,0-0.2,0.1-0.2   c0,0,0.1-0.1,0.2-0.2c0.1-0.1,0.1-0.2,0.2-0.3c0-0.1,0.1-0.2,0.3-0.4c0.1-0.2,0.2-0.4,0.3-0.5c0.1-0.1,0.2-0.1,0.3-0.1   c0.2,0,0.3,0.1,0.3,0.4c0,0.2,0,0.4-0.1,0.6c0,0.2-0.1,0.4-0.2,0.7c-0.1,0.3-0.1,0.4-0.2,0.6c0,0.1,0.1,0.2,0.3,0.2   c0.1,0,0.4-0.3,0.6-0.8c0.3-0.6,0.4-0.9,0.4-1.2c0-0.1-0.1-0.3-0.2-0.4c-0.2-0.1-0.3-0.2-0.3-0.3c0.2-0.4,0.6-0.8,1.3-1   c0.5,0.2,0.7,0.6,0.7,1.3c0,0.2-0.1,0.5-0.3,0.9c-0.2,0.3-0.3,0.6-0.3,0.9c0.2,0,0.5-0.1,0.8-0.1c0.3-0.1,0.7-0.1,1-0.2   c0.3,0,0.7-0.1,1.1-0.1c0.8,0,1.2,0.1,1.3,0.3c-0.2,0.3-0.4,0.6-0.8,0.8C392.8,23.2,392.2,23.2,391.2,23.2z M385.4,30.2   c0.1,0.2,0.2,0.4,0.3,0.6c0.3-0.1,0.7-0.2,1.2-0.4c-0.1-0.1-0.2-0.3-0.2-0.6L385.4,30.2z M386,25.4v0.6h0.1l0.1,0l0.6-0.1   c0-0.2,0-0.4,0.1-0.7L386,25.4z M386.7,26.6c-0.1,0-0.3,0-0.5,0.1c-0.1,0-0.2,0-0.2,0c0,0,0,0.1,0,0.1c0,0,0,0.1,0,0.1   c0,0,0,0.1,0,0.3c0,0.1,0,0.2,0,0.3c0.1,0,0.3,0,0.7-0.1V26.6z M387.6,25.1c0,0.1,0,0.3-0.1,0.4c0,0.1-0.1,0.3-0.1,0.4   c0.2,0,0.5-0.1,0.8-0.2c0.3-0.1,0.5-0.1,0.7-0.1c0-0.1,0-0.3,0-0.4c0-0.2,0-0.3,0-0.4c-0.2,0-0.5,0.1-0.8,0.2   C388,25,387.8,25.1,387.6,25.1z M387.5,26.5v0.8c0.3,0,0.8-0.1,1.4-0.3c0-0.4,0-0.6,0-0.8C388.4,26.3,387.9,26.4,387.5,26.5z    M387.5,27.9v1c0.5-0.1,1-0.2,1.4-0.4c0-0.4,0-0.7,0-0.9c-0.1,0-0.3,0.1-0.6,0.2C388,27.8,387.7,27.9,387.5,27.9z M387.6,29.5   c0,0.4,0.1,0.6,0.2,0.6c0.1,0,0.2,0,0.3-0.1c0.1,0,0.3-0.1,0.4-0.2c0.2-0.1,0.4-0.1,0.5-0.2c0-0.3-0.1-0.5,0-0.6   C388.8,29.1,388.4,29.3,387.6,29.5z M390.6,29.1c0,0,0,0.2,0.1,0.3c0,0.2,0.1,0.3,0.1,0.4c0,0.1,0,0.3-0.1,0.4   c-0.5,0.3-0.9,0.5-1.3,0.5c0,0-0.1-0.1-0.1-0.2c0-0.1-0.1-0.2-0.1-0.3c-0.1,0-0.3,0.1-0.5,0.3c-0.2,0.1-0.3,0.2-0.4,0.3   c0.1,0.1,0.3,0.3,0.7,0.4c0.4,0.2,0.7,0.2,0.9,0.2c0.1,0,0.3,0,0.4-0.1c0.1-0.1,0.3-0.1,0.4-0.3c0.2-0.1,0.3-0.2,0.4-0.3   c0.1,0,0.4-0.1,0.7-0.1c0.3,0,0.6-0.1,0.8-0.2c0.2-0.1,0.3-0.3,0.3-0.6c0-0.2-0.3-0.4-0.8-0.6C391.5,29.2,391,29.1,390.6,29.1z"/>
</g>
</svg>