<?xml version="1.0" encoding="utf-8"?>
<!-- Generator: Adobe Illustrator 19.1.0, SVG Export Plug-In . SVG Version: 6.00 Build 0)  -->
<svg version="1.0" xmlns="http://www.w3.org/2000/svg" xmlns:xlink="http://www.w3.org/1999/xlink" x="0px" y="0px" width="1200" height="800"
 viewBox="420 68 100 100" xml:space="preserve">
<style type="text/css">
	.st0{fill:#F2F2F2;}
	.st1{fill:#808080;}
	.st2{fill:#0B3413;}
	.st3{fill:#871008;}
	.st4{fill:#07092D;}
	.st5{fill:#870E06;}
	.st6{fill:#CC1009;}
	.st7{fill:#CC140D;}
	.st8{fill:#CC130C;}
	.st9{filter:url(#Adobe_OpacityMaskFilter);}
	.st10{mask:url(#SVGID_1_);fill:#07092D;}
	.st11{filter:url(#Adobe_OpacityMaskFilter_1_);}
	.st12{mask:url(#SVGID_2_);fill:#07092D;}
</style>
<g>
	<g>
		<path class="st0" d="M402.5,98c-1,0-1.9-0.8-1.9-1.9v-22c0-1,0.8-1.9,1.9-1.9h15c1,0,1.9,0.8,1.9,1.9v22c0,1-0.8,1.9-1.9,1.9    H402.5z"/>
		<path class="st1" d="M417.5,72.4c1,0,1.8,0.8,1.8,1.8v22c0,1-0.8,1.8-1.8,1.8h-15c-1,0-1.8-0.8-1.8-1.8v-22c0-1,0.8-1.8,1.8-1.8    H417.5 M417.5,72.2h-15c-1.1,0-2,0.9-2,2v22c0,1.1,0.9,2,2,2h15c1.1,0,2-0.9,2-2v-22C419.5,73.1,418.6,72.2,417.5,72.2L417.5,72.2    z"/>
	</g>
	<g>
		<path class="st2" d="M407.9,75.4c0-0.5,0.7-0.7,2-0.7c1.3,0,2,0.2,2,0.7c0,0.4-0.3,0.7-0.8,1v2.1c0.6,0.2,0.8,0.4,0.8,0.8    c0,0.4-0.3,0.6-0.8,0.8v2.1c0.6,0.3,0.8,0.6,0.8,1c0,0.5-0.7,0.7-2,0.7c-1.3,0-2-0.2-2-0.7c0-0.4,0.3-0.7,0.8-1v-2.1    c-0.6-0.2-0.8-0.4-0.8-0.8c0-0.4,0.3-0.6,0.8-0.8v-2.1C408.2,76.1,407.9,75.7,407.9,75.4z M407.9,87.1c0-0.5,0.7-0.7,2-0.7    c1.3,0,2,0.2,2,0.7c0,0.4-0.3,0.7-0.8,1v2.1c0.6,0.2,0.8,0.4,0.8,0.8c0,0.4-0.3,0.6-0.8,0.8v2.1c0.6,0.3,0.8,0.6,0.8,1    c0,0.5-0.7,0.7-2,0.7c-1.3,0-2-0.2-2-0.7c0-0.4,0.3-0.7,0.8-1v-2.1c-0.6-0.2-0.8-0.4-0.8-0.8c0-0.4,0.3-0.6,0.8-0.8v-2.1    C408.2,87.8,407.9,87.5,407.9,87.1z M409.4,75.4v3c0.1,0,0.3,0,0.5,0c0.2,0,0.4,0,0.5,0v-3c-0.1,0-0.3,0-0.5,0    C409.7,75.3,409.6,75.3,409.4,75.4z M409.4,79.9c0.1,0,0.2,0,0.3,0c0.1,0,0.2,0,0.2,0c0,0,0.1,0,0.2,0c0.1,0,0.2,0,0.3,0v-1.3    c-0.1,0-0.2,0-0.3,0c-0.1,0-0.2,0-0.2,0c0,0-0.1,0-0.2,0c-0.1,0-0.2,0-0.3,0V79.9z M410.5,83.2v-3c-0.1,0-0.3,0-0.5,0    c-0.2,0-0.4,0-0.5,0v3c0.1,0,0.3,0,0.5,0C410.2,83.2,410.3,83.2,410.5,83.2z M409.4,87.1v3c0.1,0,0.3,0,0.5,0c0.2,0,0.4,0,0.5,0    v-3c-0.1,0-0.3,0-0.5,0C409.7,87.1,409.6,87.1,409.4,87.1z M409.4,91.7c0.1,0,0.2,0,0.3,0c0.1,0,0.2,0,0.2,0c0,0,0.1,0,0.2,0    c0.1,0,0.2,0,0.3,0v-1.3c-0.1,0-0.2,0-0.3,0c-0.1,0-0.2,0-0.2,0c0,0-0.1,0-0.2,0c-0.1,0-0.2,0-0.3,0V91.7z M410.5,94.9v-3    c-0.1,0-0.3,0-0.5,0c-0.2,0-0.4,0-0.5,0v3c0.1,0,0.3,0,0.5,0C410.2,95,410.3,95,410.5,94.9z"/>
	</g>
</g>
</svg>