<?xml version="1.0" encoding="utf-8"?>
<!-- Generator: Adobe Illustrator 19.1.0, SVG Export Plug-In . SVG Version: 6.00 Build 0)  -->
<svg version="1.0" xmlns="http://www.w3.org/2000/svg" xmlns:xlink="http://www.w3.org/1999/xlink" x="0px" y="0px" width="1200" height="800"
 viewBox="420 36 100 100" xml:space="preserve">
<style type="text/css">
	.st0{fill:#F2F2F2;}
	.st1{fill:#808080;}
	.st2{fill:#0B3413;}
	.st3{fill:#871008;}
	.st4{fill:#07092D;}
	.st5{fill:#870E06;}
	.st6{fill:#CC1009;}
	.st7{fill:#CC140D;}
	.st8{fill:#CC130C;}
	.st9{filter:url(#Adobe_OpacityMaskFilter);}
	.st10{mask:url(#SVGID_1_);fill:#07092D;}
	.st11{filter:url(#Adobe_OpacityMaskFilter_1_);}
	.st12{mask:url(#SVGID_2_);fill:#07092D;}
</style>
<g>
	<g>
		<g>
			<path class="st0" d="M402.5,65.9c-1,0-1.9-0.8-1.9-1.9V42c0-1,0.8-1.9,1.9-1.9h15c1,0,1.9,0.8,1.9,1.9v22c0,1-0.8,1.9-1.9,1.9     H402.5z"/>
			<path class="st1" d="M417.5,40.3c1,0,1.8,0.8,1.8,1.8v22c0,1-0.8,1.8-1.8,1.8h-15c-1,0-1.8-0.8-1.8-1.8V42c0-1,0.8-1.8,1.8-1.8     H417.5 M417.5,40h-15c-1.1,0-2,0.9-2,2v22c0,1.1,0.9,2,2,2h15c1.1,0,2-0.9,2-2V42C419.5,40.9,418.6,40,417.5,40L417.5,40z"/>
		</g>
	</g>
	<defs>
		<filter id="Adobe_OpacityMaskFilter" filterUnits="userSpaceOnUse" x="404.9" y="53.6" width="10.1" height="10.1">
			<feFlood style="flood-color:white;flood-opacity:1" result="back"/>
			<feBlend in="SourceGraphic" in2="back" mode="normal"/>
		</filter>
	</defs>
	<mask maskUnits="userSpaceOnUse" x="404.9" y="53.6" width="10.1" height="10.1" id="SVGID_1_">
		<g class="st9">
			<path class="st4" d="M410,54.4c-2.4,0-4.3,1.9-4.3,4.3c0,2.4,1.9,4.3,4.3,4.3s4.3-1.9,4.3-4.3C414.3,56.3,412.3,54.4,410,54.4z      M410,62.7c-2.2,0-4-1.8-4-4s1.8-4,4-4s4,1.8,4,4S412.2,62.7,410,62.7z"/>
			<path class="st4" d="M410,57.8c-0.5,0-0.9,0.4-0.9,0.9c0,0.5,0.4,0.9,0.9,0.9s0.9-0.4,0.9-0.9C410.9,58.2,410.5,57.8,410,57.8z      M410,59.1c-0.2,0-0.4-0.2-0.4-0.4c0-0.2,0.2-0.4,0.4-0.4c0.2,0,0.4,0.2,0.4,0.4C410.4,58.9,410.2,59.1,410,59.1z"/>
			<path class="st4" d="M413.3,58c-0.1-0.3-0.3-0.5-0.8-0.4c-0.5,0-1.3,0.5-1.3,0.7c-0.1,0.1,0,0.3,0.2,0.3h0.9     c0-0.1,0.1-0.1,0.2-0.1c0.1,0,0.2,0.1,0.2,0.2c0,0.1-0.1,0.2-0.2,0.2c-0.1,0-0.1,0-0.2-0.1h-0.9c-0.2,0-0.2,0.2-0.2,0.3     c0.1,0.1,0.9,0.7,1.3,0.7c0.5,0,0.7-0.2,0.8-0.4c0.1-0.2,0.1-0.4,0.1-0.6S413.4,58.2,413.3,58z"/>
			<path class="st4" d="M411.1,55.4c-0.3,0-0.5,0-0.8,0.5c-0.2,0.4-0.2,1.4-0.1,1.5c0.1,0.1,0.2,0.2,0.3,0l0.4-0.8     c0-0.1,0-0.1,0-0.2c0.1-0.1,0.2-0.1,0.3-0.1c0.1,0.1,0.1,0.2,0.1,0.3c0,0.1-0.1,0.1-0.2,0.1l-0.4,0.8c-0.1,0.1,0,0.3,0.2,0.3     c0.2,0,1-0.4,1.3-0.8c0.3-0.4,0.2-0.7,0-0.9c-0.1-0.1-0.3-0.3-0.5-0.4C411.5,55.5,411.3,55.4,411.1,55.4z"/>
			<path class="st4" d="M407.7,56.1c-0.2,0.2-0.3,0.5,0,0.9c0.3,0.4,1.1,0.8,1.3,0.8c0.2,0,0.3-0.1,0.2-0.3l-0.4-0.8     c-0.1,0-0.1,0-0.2-0.1c-0.1-0.1,0-0.2,0.1-0.3c0.1-0.1,0.2,0,0.3,0.1c0,0.1,0,0.1,0,0.2l0.4,0.8c0.1,0.1,0.2,0.1,0.3,0     s0.1-1.1-0.1-1.5c-0.2-0.5-0.5-0.5-0.8-0.5c-0.2,0-0.4,0.1-0.6,0.2C408,55.8,407.8,55.9,407.7,56.1z"/>
			<path class="st4" d="M406.6,59.3c0.1,0.3,0.3,0.5,0.8,0.4c0.5,0,1.3-0.5,1.3-0.7c0.1-0.1,0-0.3-0.2-0.3h-0.9     c0,0.1-0.1,0.1-0.2,0.1c-0.1,0-0.2-0.1-0.2-0.2c0-0.1,0.1-0.2,0.2-0.2c0.1,0,0.1,0,0.2,0.1h0.9c0.2,0,0.2-0.2,0.2-0.3     c-0.1-0.1-0.9-0.7-1.3-0.7c-0.5,0-0.7,0.2-0.8,0.4c-0.1,0.2-0.1,0.4-0.1,0.6S406.5,59.2,406.6,59.3z"/>
			<path class="st4" d="M408.8,61.9c0.3,0,0.5,0,0.8-0.5c0.2-0.4,0.2-1.4,0.1-1.5c-0.1-0.1-0.2-0.2-0.3,0l-0.4,0.8     c0,0.1,0,0.1,0,0.2c-0.1,0.1-0.2,0.1-0.3,0.1c-0.1-0.1-0.1-0.2-0.1-0.3c0-0.1,0.1-0.1,0.2-0.1l0.4-0.8c0.1-0.1,0-0.3-0.2-0.3     c-0.2,0-1,0.4-1.3,0.8c-0.3,0.4-0.2,0.7,0,0.9c0.1,0.1,0.3,0.3,0.5,0.4C408.5,61.8,408.6,61.9,408.8,61.9z"/>
			<path class="st4" d="M412.2,61.3c0.2-0.2,0.3-0.5,0-0.9c-0.3-0.4-1.1-0.8-1.3-0.8s-0.3,0.1-0.2,0.3l0.4,0.8c0.1,0,0.1,0,0.2,0.1     c0.1,0.1,0,0.2-0.1,0.3c-0.1,0.1-0.2,0-0.3-0.1c0-0.1,0-0.1,0-0.2l-0.4-0.8c-0.1-0.1-0.2-0.1-0.3,0c-0.1,0.1-0.1,1.1,0.1,1.5     c0.2,0.5,0.5,0.5,0.8,0.5c0.2,0,0.4-0.1,0.6-0.2C411.9,61.6,412.1,61.4,412.2,61.3z"/>
		</g>
	</mask>
	<circle class="st10" cx="410" cy="58.7" r="5.1"/>
	<defs>
		<filter id="Adobe_OpacityMaskFilter_1_" filterUnits="userSpaceOnUse" x="404.9" y="42.4" width="10.1" height="10.1">
			<feFlood style="flood-color:white;flood-opacity:1" result="back"/>
			<feBlend in="SourceGraphic" in2="back" mode="normal"/>
		</filter>
	</defs>
	<mask maskUnits="userSpaceOnUse" x="404.9" y="42.4" width="10.1" height="10.1" id="SVGID_2_">
		<g class="st11">
			<path class="st4" d="M410,43.1c-2.4,0-4.3,1.9-4.3,4.3c0,2.4,1.9,4.3,4.3,4.3s4.3-1.9,4.3-4.3C414.3,45,412.3,43.1,410,43.1z      M410,51.4c-2.2,0-4-1.8-4-4s1.8-4,4-4s4,1.8,4,4S412.2,51.4,410,51.4z"/>
			<path class="st4" d="M410,46.5c-0.5,0-0.9,0.4-0.9,0.9c0,0.5,0.4,0.9,0.9,0.9s0.9-0.4,0.9-0.9C410.9,46.9,410.5,46.5,410,46.5z      M410,47.8c-0.2,0-0.4-0.2-0.4-0.4c0-0.2,0.2-0.4,0.4-0.4c0.2,0,0.4,0.2,0.4,0.4C410.4,47.7,410.2,47.8,410,47.8z"/>
			<path class="st4" d="M413.3,46.8c-0.1-0.3-0.3-0.5-0.8-0.4c-0.5,0-1.3,0.5-1.3,0.7c-0.1,0.1,0,0.3,0.2,0.3h0.9     c0-0.1,0.1-0.1,0.2-0.1c0.1,0,0.2,0.1,0.2,0.2c0,0.1-0.1,0.2-0.2,0.2c-0.1,0-0.1,0-0.2-0.1h-0.9c-0.2,0-0.2,0.2-0.2,0.3     c0.1,0.1,0.9,0.7,1.3,0.7c0.5,0,0.7-0.2,0.8-0.4c0.1-0.2,0.1-0.4,0.1-0.6S413.4,46.9,413.3,46.8z"/>
			<path class="st4" d="M411.1,44.2c-0.3,0-0.5,0-0.8,0.5c-0.2,0.4-0.2,1.4-0.1,1.5c0.1,0.1,0.2,0.2,0.3,0l0.4-0.8     c0-0.1,0-0.1,0-0.2c0.1-0.1,0.2-0.1,0.3-0.1c0.1,0.1,0.1,0.2,0.1,0.3c0,0.1-0.1,0.1-0.2,0.1l-0.4,0.8c-0.1,0.1,0,0.3,0.2,0.3     c0.2,0,1-0.4,1.3-0.8c0.3-0.4,0.2-0.7,0-0.9c-0.1-0.1-0.3-0.3-0.5-0.4C411.5,44.2,411.3,44.2,411.1,44.2z"/>
			<path class="st4" d="M407.7,44.8c-0.2,0.2-0.3,0.5,0,0.9c0.3,0.4,1.1,0.8,1.3,0.8c0.2,0,0.3-0.1,0.2-0.3l-0.4-0.8     c-0.1,0-0.1,0-0.2-0.1c-0.1-0.1,0-0.2,0.1-0.3c0.1-0.1,0.2,0,0.3,0.1c0,0.1,0,0.1,0,0.2l0.4,0.8c0.1,0.1,0.2,0.1,0.3,0     s0.1-1.1-0.1-1.5c-0.2-0.5-0.5-0.5-0.8-0.5c-0.2,0-0.4,0.1-0.6,0.2C408,44.5,407.8,44.7,407.7,44.8z"/>
			<path class="st4" d="M406.6,48.1c0.1,0.3,0.3,0.5,0.8,0.4c0.5,0,1.3-0.5,1.3-0.7c0.1-0.1,0-0.3-0.2-0.3h-0.9     c0,0.1-0.1,0.1-0.2,0.1c-0.1,0-0.2-0.1-0.2-0.2c0-0.1,0.1-0.2,0.2-0.2c0.1,0,0.1,0,0.2,0.1h0.9c0.2,0,0.2-0.2,0.2-0.3     c-0.1-0.1-0.9-0.7-1.3-0.7c-0.5,0-0.7,0.2-0.8,0.4c-0.1,0.2-0.1,0.4-0.1,0.6S406.5,47.9,406.6,48.1z"/>
			<path class="st4" d="M408.8,50.7c0.3,0,0.5,0,0.8-0.5c0.2-0.4,0.2-1.4,0.1-1.5c-0.1-0.1-0.2-0.2-0.3,0l-0.4,0.8     c0,0.1,0,0.1,0,0.2c-0.1,0.1-0.2,0.1-0.3,0.1c-0.1-0.1-0.1-0.2-0.1-0.3c0-0.1,0.1-0.1,0.2-0.1l0.4-0.8c0.1-0.1,0-0.3-0.2-0.3     c-0.2,0-1,0.4-1.3,0.8c-0.3,0.4-0.2,0.7,0,0.9c0.1,0.1,0.3,0.3,0.5,0.4C408.5,50.6,408.6,50.7,408.8,50.7z"/>
			<path class="st4" d="M412.2,50c0.2-0.2,0.3-0.5,0-0.9c-0.3-0.4-1.1-0.8-1.3-0.8s-0.3,0.1-0.2,0.3l0.4,0.8c0.1,0,0.1,0,0.2,0.1     c0.1,0.1,0,0.2-0.1,0.3c-0.1,0.1-0.2,0-0.3-0.1c0-0.1,0-0.1,0-0.2l-0.4-0.8c-0.1-0.1-0.2-0.1-0.3,0c-0.1,0.1-0.1,1.1,0.1,1.5     c0.2,0.5,0.5,0.5,0.8,0.5c0.2,0,0.4-0.1,0.6-0.2C411.9,50.3,412.1,50.2,412.2,50z"/>
		</g>
	</mask>
	<circle class="st12" cx="410" cy="47.4" r="5.1"/>
</g>
</svg>