<?xml version="1.0" encoding="utf-8"?>
<!-- Generator: Adobe Illustrator 19.1.0, SVG Export Plug-In . SVG Version: 6.00 Build 0)  -->
<svg version="1.0" xmlns="http://www.w3.org/2000/svg" xmlns:xlink="http://www.w3.org/1999/xlink" x="0px" y="0px" width="1200" height="800"
 viewBox="428 69 100 80" xml:space="preserve">
<style type="text/css">
	.st0{fill:#F2F2F2;}
	.st1{fill:#808080;}
	.st2{fill:#0B3413;}
	.st3{fill:#871008;}
	.st4{fill:#07092D;}
	.st5{fill:#870E06;}
	.st6{fill:#CC1009;}
	.st7{fill:#CC140D;}
	.st8{fill:#CC130C;}
	.st9{filter:url(#Adobe_OpacityMaskFilter);}
	.st10{mask:url(#SVGID_1_);fill:#07092D;}
	.st11{filter:url(#Adobe_OpacityMaskFilter_1_);}
	.st12{mask:url(#SVGID_2_);fill:#07092D;}
</style>
<g>
	<g>
		<path class="st0" d="M424.3,98c-1,0-1.9-0.8-1.9-1.9v-22c0-1,0.8-1.9,1.9-1.9h15c1,0,1.9,0.8,1.9,1.9v22c0,1-0.8,1.9-1.9,1.9    H424.3z"/>
		<path class="st1" d="M439.3,72.4c1,0,1.8,0.8,1.8,1.8v22c0,1-0.8,1.8-1.8,1.8h-15c-1,0-1.8-0.8-1.8-1.8v-22c0-1,0.8-1.8,1.8-1.8    H439.3 M439.3,72.2h-15c-1.1,0-2,0.9-2,2v22c0,1.1,0.9,2,2,2h15c1.1,0,2-0.9,2-2v-22C441.3,73.1,440.4,72.2,439.3,72.2L439.3,72.2    z"/>
	</g>
	<g>
		<path class="st2" d="M424.9,87.1c0-0.5,0.7-0.7,2-0.7c1.3,0,2,0.2,2,0.7c0,0.4-0.3,0.7-0.8,1v2.1c0.6,0.2,0.8,0.4,0.8,0.8    c0,0.4-0.3,0.6-0.8,0.8v2.1c0.6,0.3,0.8,0.6,0.8,1c0,0.5-0.7,0.7-2,0.7c-1.3,0-2-0.2-2-0.7c0-0.4,0.3-0.7,0.8-1v-2.1    c-0.6-0.2-0.8-0.4-0.8-0.8c0-0.4,0.3-0.6,0.8-0.8v-2.1C425.2,87.8,424.9,87.5,424.9,87.1z M426.4,87.1v3c0.1,0,0.3,0,0.5,0    c0.2,0,0.4,0,0.5,0v-3c-0.1,0-0.3,0-0.5,0C426.7,87.1,426.5,87.1,426.4,87.1z M426.4,91.7c0,0,0.1,0,0.2,0c0.1,0,0.2,0,0.3,0    c0.1,0,0.2,0,0.3,0c0.1,0,0.2,0,0.2,0v-1.3c0,0-0.1,0-0.2,0c-0.1,0-0.2,0-0.3,0c-0.1,0-0.2,0-0.3,0c-0.1,0-0.2,0-0.2,0V91.7z     M427.4,94.9v-3c-0.1,0-0.3,0-0.5,0c-0.2,0-0.4,0-0.5,0v3c0.1,0,0.3,0,0.5,0C427.1,95,427.3,95,427.4,94.9z M429.8,75.4    c0-0.5,0.7-0.7,2-0.7c1.3,0,2,0.2,2,0.7c0,0.4-0.3,0.7-0.8,1v2.1c0.6,0.2,0.8,0.4,0.8,0.8c0,0.4-0.3,0.6-0.8,0.8v2.1    c0.6,0.3,0.8,0.6,0.8,1c0,0.5-0.7,0.7-2,0.7c-1.3,0-2-0.2-2-0.7c0-0.4,0.3-0.7,0.8-1v-2.1c-0.6-0.2-0.8-0.4-0.8-0.8    c0-0.4,0.3-0.6,0.8-0.8v-2.1C430.1,76.1,429.8,75.7,429.8,75.4z M431.3,75.4v3c0.1,0,0.3,0,0.5,0c0.2,0,0.4,0,0.5,0v-3    c-0.1,0-0.3,0-0.5,0C431.6,75.3,431.4,75.3,431.3,75.4z M431.3,79.9c0.1,0,0.2,0,0.3,0c0.1,0,0.2,0,0.2,0c0,0,0.1,0,0.2,0    c0.1,0,0.2,0,0.3,0v-1.3c-0.1,0-0.2,0-0.3,0c-0.1,0-0.2,0-0.2,0c0,0-0.1,0-0.2,0c-0.1,0-0.2,0-0.3,0V79.9z M432.3,83.2v-3    c-0.1,0-0.3,0-0.5,0c-0.2,0-0.4,0-0.5,0v3c0.1,0,0.3,0,0.5,0C432,83.2,432.2,83.2,432.3,83.2z M434.6,87.1c0-0.5,0.7-0.7,2-0.7    c1.3,0,2,0.2,2,0.7c0,0.4-0.3,0.7-0.8,1v2.1c0.6,0.2,0.8,0.4,0.8,0.8c0,0.4-0.3,0.6-0.8,0.8v2.1c0.6,0.3,0.8,0.6,0.8,1    c0,0.5-0.7,0.7-2,0.7c-1.3,0-2-0.2-2-0.7c0-0.4,0.3-0.7,0.8-1v-2.1c-0.6-0.2-0.8-0.4-0.8-0.8c0-0.4,0.3-0.6,0.8-0.8v-2.1    C434.9,87.8,434.6,87.5,434.6,87.1z M436.1,87.1v3c0.1,0,0.3,0,0.5,0c0.2,0,0.4,0,0.5,0v-3c-0.1,0-0.3,0-0.5,0    C436.4,87.1,436.3,87.1,436.1,87.1z M436.1,91.7c0,0,0.1,0,0.2,0c0.1,0,0.2,0,0.3,0c0.1,0,0.2,0,0.3,0c0.1,0,0.2,0,0.2,0v-1.3    c0,0-0.1,0-0.2,0c-0.1,0-0.2,0-0.3,0c-0.1,0-0.2,0-0.3,0c-0.1,0-0.2,0-0.2,0V91.7z M437.2,94.9v-3c-0.1,0-0.3,0-0.5,0    c-0.2,0-0.4,0-0.5,0v3c0.1,0,0.3,0,0.5,0C436.9,95,437,95,437.2,94.9z"/>
	</g>
</g>
</svg>