<?xml version="1.0" encoding="utf-8"?>
<!-- Generator: Adobe Illustrator 19.1.0, SVG Export Plug-In . SVG Version: 6.00 Build 0)  -->
<svg version="1.0" xmlns="http://www.w3.org/2000/svg" xmlns:xlink="http://www.w3.org/1999/xlink" x="0px" y="0px" width="1200" height="800"
 viewBox="428 37 100 80" xml:space="preserve">
<style type="text/css">
	.st0{fill:#F2F2F2;}
	.st1{fill:#808080;}
	.st2{fill:#0B3413;}
	.st3{fill:#871008;}
	.st4{fill:#07092D;}
	.st5{fill:#870E06;}
	.st6{fill:#CC1009;}
	.st7{fill:#CC140D;}
	.st8{fill:#CC130C;}
	.st9{filter:url(#Adobe_OpacityMaskFilter);}
	.st10{mask:url(#SVGID_1_);fill:#07092D;}
	.st11{filter:url(#Adobe_OpacityMaskFilter_1_);}
	.st12{mask:url(#SVGID_2_);fill:#07092D;}
</style>
<g>
	<g>
		<path class="st0" d="M424.3,65.9c-1,0-1.9-0.8-1.9-1.9V42c0-1,0.8-1.9,1.9-1.9h15c1,0,1.9,0.8,1.9,1.9v22c0,1-0.8,1.9-1.9,1.9    H424.3z"/>
		<path class="st1" d="M439.3,40.3c1,0,1.8,0.8,1.8,1.8v22c0,1-0.8,1.8-1.8,1.8h-15c-1,0-1.8-0.8-1.8-1.8V42c0-1,0.8-1.8,1.8-1.8    H439.3 M439.3,40h-15c-1.1,0-2,0.9-2,2v22c0,1.1,0.9,2,2,2h15c1.1,0,2-0.9,2-2V42C441.3,40.9,440.4,40,439.3,40L439.3,40z"/>
	</g>
	<g>
		<g>
			<path class="st4" d="M427.4,43.5c-1.9,0-3.4,1.5-3.4,3.4s1.5,3.4,3.4,3.4c1.9,0,3.4-1.5,3.4-3.4S429.3,43.5,427.4,43.5z      M427.4,49.7c-1.6,0-2.8-1.3-2.8-2.8c0-1.6,1.3-2.8,2.8-2.8s2.8,1.3,2.8,2.8C430.2,48.5,428.9,49.7,427.4,49.7z"/>
			<g>
				<circle class="st4" cx="427.4" cy="46.9" r="0.2"/>
				<path class="st4" d="M427.4,44.7c-1.2,0-2.2,1-2.2,2.2s1,2.2,2.2,2.2c1.2,0,2.2-1,2.2-2.2S428.6,44.7,427.4,44.7z M426.7,45.3      c0.2-0.1,0.5-0.2,0.7-0.2v0c0.3,0,0.5,0.1,0.7,0.2c0.1,0,0.1,0.2,0.1,0.3c0,0.1-0.2,0.3-0.2,0.4c-0.1,0-0.2,0-0.2,0      c-0.1,0-0.2-0.1-0.3-0.1v0c-0.1,0-0.3,0.1-0.3,0.1c-0.1,0-0.1,0-0.2,0c-0.1,0-0.2-0.3-0.2-0.4C426.6,45.5,426.6,45.4,426.7,45.3      z M425.6,47.1c0-0.2,0-0.5,0.1-0.7l0,0c0.1-0.2,0.2-0.5,0.4-0.6c0.1-0.1,0.2,0,0.3,0c0.1,0.1,0.3,0.3,0.3,0.3c0,0.1,0,0.2,0,0.2      c0,0-0.1,0.2-0.2,0.3l0,0c0,0.1,0,0.3,0,0.4c0,0.1,0,0.1-0.1,0.2c-0.1,0.1-0.3,0.1-0.4,0.1C425.8,47.3,425.7,47.2,425.6,47.1z       M427.3,48.4c0,0.1-0.1,0.2-0.2,0.2c-0.2,0-0.5-0.1-0.7-0.3l0,0c-0.2-0.2-0.4-0.4-0.5-0.6c0-0.1,0-0.2,0.1-0.3      c0.1-0.1,0.3-0.2,0.4-0.1c0.1,0,0.2,0.1,0.2,0.1c0,0,0.1,0.2,0.2,0.3l0,0c0.1,0.1,0.3,0.1,0.3,0.1s0.1,0.1,0.2,0.2      C427.3,48.1,427.3,48.4,427.3,48.4z M426.8,46.9c0-0.3,0.3-0.6,0.6-0.6s0.6,0.3,0.6,0.6c0,0.3-0.3,0.6-0.6,0.6      S426.8,47.2,426.8,46.9z M428.4,48.3L428.4,48.3c-0.2,0.2-0.5,0.3-0.7,0.3c-0.1,0-0.2-0.1-0.2-0.2c0-0.1,0-0.4,0-0.4      c0-0.1,0.1-0.1,0.2-0.2c0,0,0.2-0.1,0.3-0.1l0,0c0.1-0.1,0.2-0.2,0.2-0.3c0,0,0.1-0.1,0.2-0.1c0.1,0,0.3,0.1,0.4,0.1      c0.1,0.1,0.1,0.2,0.1,0.3C428.8,48,428.6,48.2,428.4,48.3z M428.9,47.3c-0.1,0-0.4-0.1-0.4-0.1c-0.1-0.1-0.1-0.1-0.1-0.2      c0-0.1,0-0.2,0-0.4l0,0c0-0.1-0.2-0.3-0.2-0.3c0,0,0-0.1,0-0.2c0-0.1,0.2-0.3,0.3-0.3s0.2-0.1,0.3,0c0.2,0.2,0.3,0.4,0.4,0.6      l0,0c0.1,0.2,0.1,0.5,0.1,0.7C429.1,47.2,429,47.3,428.9,47.3z"/>
			</g>
		</g>
		<g>
			<path class="st4" d="M436.2,55.8c-1.9,0-3.4,1.5-3.4,3.4s1.5,3.4,3.4,3.4c1.9,0,3.4-1.5,3.4-3.4S438.1,55.8,436.2,55.8z      M436.2,62c-1.6,0-2.8-1.3-2.8-2.8c0-1.6,1.3-2.8,2.8-2.8s2.8,1.3,2.8,2.8C439,60.7,437.7,62,436.2,62z"/>
			<g>
				<circle class="st4" cx="436.2" cy="59.2" r="0.2"/>
				<path class="st4" d="M436.2,57c-1.2,0-2.2,1-2.2,2.2s1,2.2,2.2,2.2c1.2,0,2.2-1,2.2-2.2S437.4,57,436.2,57z M435.5,57.6      c0.2-0.1,0.5-0.2,0.7-0.2v0c0.3,0,0.5,0.1,0.7,0.2c0.1,0,0.1,0.2,0.1,0.3c0,0.1-0.2,0.3-0.2,0.4c-0.1,0-0.2,0-0.2,0      c-0.1,0-0.2-0.1-0.3-0.1v0c-0.1,0-0.3,0.1-0.3,0.1c-0.1,0-0.1,0-0.2,0c-0.1,0-0.2-0.3-0.2-0.4C435.4,57.8,435.4,57.6,435.5,57.6      z M434.4,59.4c0-0.2,0-0.5,0.1-0.7l0,0c0.1-0.2,0.2-0.5,0.4-0.6c0.1-0.1,0.2,0,0.3,0c0.1,0.1,0.3,0.3,0.3,0.3c0,0.1,0,0.2,0,0.2      c0,0-0.1,0.2-0.2,0.3l0,0c0,0.1,0,0.3,0,0.4c0,0.1,0,0.1-0.1,0.2c-0.1,0.1-0.3,0.1-0.4,0.1C434.6,59.5,434.5,59.5,434.4,59.4z       M436.1,60.7c0,0.1-0.1,0.2-0.2,0.2c-0.2,0-0.5-0.1-0.7-0.3l0,0c-0.2-0.2-0.4-0.4-0.5-0.6c0-0.1,0-0.2,0.1-0.3      c0.1-0.1,0.3-0.2,0.4-0.1c0.1,0,0.2,0.1,0.2,0.1c0,0,0.1,0.2,0.2,0.3l0,0c0.1,0.1,0.3,0.1,0.3,0.1s0.1,0.1,0.2,0.2      C436.1,60.3,436.1,60.6,436.1,60.7z M435.6,59.2c0-0.3,0.3-0.6,0.6-0.6s0.6,0.3,0.6,0.6c0,0.3-0.3,0.6-0.6,0.6      S435.6,59.5,435.6,59.2z M437.2,60.6L437.2,60.6c-0.2,0.2-0.5,0.3-0.7,0.3c-0.1,0-0.2-0.1-0.2-0.2c0-0.1,0-0.4,0-0.4      c0-0.1,0.1-0.1,0.2-0.2c0,0,0.2-0.1,0.3-0.1l0,0c0.1-0.1,0.2-0.2,0.2-0.3c0,0,0.1-0.1,0.2-0.1c0.1,0,0.3,0.1,0.4,0.1      c0.1,0.1,0.1,0.2,0.1,0.3C437.6,60.2,437.4,60.5,437.2,60.6z M437.7,59.5c-0.1,0-0.4-0.1-0.4-0.1c-0.1-0.1-0.1-0.1-0.1-0.2      c0-0.1,0-0.2,0-0.4l0,0c0-0.1-0.2-0.3-0.2-0.3c0,0,0-0.1,0-0.2c0-0.1,0.2-0.3,0.3-0.3s0.2-0.1,0.3,0c0.2,0.2,0.3,0.4,0.4,0.6      l0,0c0.1,0.2,0.1,0.5,0.1,0.7C437.9,59.5,437.8,59.5,437.7,59.5z"/>
			</g>
		</g>
	</g>
	<g>
		<path class="st4" d="M431.8,49.6c-1.9,0-3.4,1.5-3.4,3.4s1.5,3.4,3.4,3.4c1.9,0,3.4-1.5,3.4-3.4S433.7,49.6,431.8,49.6z     M431.8,55.9c-1.6,0-2.8-1.3-2.8-2.8c0-1.6,1.3-2.8,2.8-2.8s2.8,1.3,2.8,2.8C434.6,54.6,433.3,55.9,431.8,55.9z"/>
		<g>
			<circle class="st3" cx="431.8" cy="53" r="0.2"/>
			<path class="st3" d="M431.8,50.8c-1.2,0-2.2,1-2.2,2.2s1,2.2,2.2,2.2c1.2,0,2.2-1,2.2-2.2S433,50.8,431.8,50.8z M431.1,51.5     c0.2-0.1,0.5-0.2,0.7-0.2v0c0.3,0,0.5,0.1,0.7,0.2c0.1,0,0.1,0.2,0.1,0.3c0,0.1-0.2,0.3-0.2,0.4c-0.1,0-0.2,0-0.2,0     c-0.1,0-0.2-0.1-0.3-0.1v0c-0.1,0-0.3,0.1-0.3,0.1c-0.1,0-0.1,0-0.2,0c-0.1,0-0.2-0.3-0.2-0.4C431,51.6,431,51.5,431.1,51.5z      M430,53.2c0-0.2,0-0.5,0.1-0.7l0,0c0.1-0.2,0.2-0.5,0.4-0.6c0.1-0.1,0.2,0,0.3,0c0.1,0.1,0.3,0.3,0.3,0.3c0,0.1,0,0.2,0,0.2     c0,0-0.1,0.2-0.2,0.3l0,0c0,0.1,0,0.3,0,0.4c0,0.1,0,0.1-0.1,0.2c-0.1,0.1-0.3,0.1-0.4,0.1C430.2,53.4,430.1,53.3,430,53.2z      M431.7,54.6c0,0.1-0.1,0.2-0.2,0.2c-0.2,0-0.5-0.1-0.7-0.3l0,0c-0.2-0.2-0.4-0.4-0.5-0.6c0-0.1,0-0.2,0.1-0.3     c0.1-0.1,0.3-0.2,0.4-0.1c0.1,0,0.2,0.1,0.2,0.1c0,0,0.1,0.2,0.2,0.3l0,0c0.1,0.1,0.3,0.1,0.3,0.1s0.1,0.1,0.2,0.2     C431.7,54.2,431.7,54.5,431.7,54.6z M431.2,53c0-0.3,0.3-0.6,0.6-0.6s0.6,0.3,0.6,0.6c0,0.3-0.3,0.6-0.6,0.6S431.2,53.4,431.2,53     z M432.8,54.5L432.8,54.5c-0.2,0.2-0.5,0.3-0.7,0.3c-0.1,0-0.2-0.1-0.2-0.2c0-0.1,0-0.4,0-0.4c0-0.1,0.1-0.1,0.2-0.2     c0,0,0.2-0.1,0.3-0.1l0,0c0.1-0.1,0.2-0.2,0.2-0.3c0,0,0.1-0.1,0.2-0.1c0.1,0,0.3,0.1,0.4,0.1c0.1,0.1,0.1,0.2,0.1,0.3     C433.2,54.1,433,54.3,432.8,54.5z M433.3,53.4c-0.1,0-0.4-0.1-0.4-0.1c-0.1-0.1-0.1-0.1-0.1-0.2c0-0.1,0-0.2,0-0.4l0,0     c0-0.1-0.2-0.3-0.2-0.3c0,0,0-0.1,0-0.2c0-0.1,0.2-0.3,0.3-0.3s0.2-0.1,0.3,0c0.2,0.2,0.3,0.4,0.4,0.6l0,0     c0.1,0.2,0.1,0.5,0.1,0.7C433.5,53.3,433.4,53.4,433.3,53.4z"/>
		</g>
	</g>
</g>
</svg>