<?xml version="1.0" encoding="utf-8"?>
<!-- Generator: Adobe Illustrator 19.1.0, SVG Export Plug-In . SVG Version: 6.00 Build 0)  -->
<svg version="1.0" xmlns="http://www.w3.org/2000/svg" xmlns:xlink="http://www.w3.org/1999/xlink" x="0px" y="0px" width="1200" height="800"
 viewBox="440 0 100 100" xml:space="preserve">
<style type="text/css">
	.st0{fill:#F2F2F2;}
	.st1{fill:#808080;}
	.st2{fill:#0B3413;}
	.st3{fill:#871008;}
	.st4{fill:#07092D;}
	.st5{fill:#870E06;}
	.st6{fill:#CC1009;}
	.st7{fill:#CC140D;}
	.st8{fill:#CC130C;}
	.st9{filter:url(#Adobe_OpacityMaskFilter);}
	.st10{mask:url(#SVGID_1_);fill:#07092D;}
	.st11{filter:url(#Adobe_OpacityMaskFilter_1_);}
	.st12{mask:url(#SVGID_2_);fill:#07092D;}
</style>
<g>
	<g>
		<path class="st0" d="M424.3,33.8c-1,0-1.9-0.8-1.9-1.9v-22c0-1,0.8-1.9,1.9-1.9h15c1,0,1.9,0.8,1.9,1.9v22c0,1-0.8,1.9-1.9,1.9    H424.3z"/>
		<path class="st1" d="M439.3,8.2c1,0,1.8,0.8,1.8,1.8v22c0,1-0.8,1.8-1.8,1.8h-15c-1,0-1.8-0.8-1.8-1.8v-22c0-1,0.8-1.8,1.8-1.8    H439.3 M439.3,7.9h-15c-1.1,0-2,0.9-2,2v22c0,1.1,0.9,2,2,2h15c1.1,0,2-0.9,2-2v-22C441.3,8.8,440.4,7.9,439.3,7.9L439.3,7.9z"/>
	</g>
	<path d="M426.9,15.6c0-0.1,0.2-0.2,0.6-0.4c0.4-0.2,0.7-0.3,0.8-0.3c0,0,0.1,0,0.2,0c0.1,0,0.3,0,0.4,0c0.5,0,1.4-0.2,3-0.7   c1.5-0.5,2.4-0.7,2.7-0.7c0.2,0,0.3,0.1,0.3,0.3c0,0.3-0.2,0.6-0.6,1c-2.5,0.9-4.3,1.4-5.4,1.4c-0.4,0-0.8,0-1.3-0.1   C427.1,15.9,426.9,15.7,426.9,15.6z"/>
	<path d="M427.4,12.9c0-0.1,0.2-0.2,0.5-0.4c0.3-0.2,0.6-0.3,0.7-0.3c0.1,0,0.2,0,0.4,0c0.1,0,0.3,0,0.4,0c0.4,0,1.1-0.1,2.1-0.4   c1-0.2,1.8-0.5,2.6-0.7c0.8-0.2,1.2-0.4,1.3-0.4c0.2,0,0.3,0.1,0.3,0.3c0,0.1-0.1,0.4-0.4,0.6c-0.3,0.3-0.5,0.5-0.7,0.6   c-0.7,0.1-1.7,0.3-3,0.7c-1.3,0.3-2.1,0.5-2.5,0.5c-0.3,0-0.7-0.1-1.1-0.3C427.6,13.2,427.4,13.1,427.4,12.9z"/>
	<path d="M432.5,17.1c-0.4,0-1.2,0.2-2.6,0.7c-1.3,0.5-2.5,0.7-3.5,0.7c-0.9,0-1.4-0.1-1.4-0.4c0-0.1,0.2-0.2,0.6-0.4   c0.4-0.2,0.8-0.3,1.1-0.3c0.1,0,0.4-0.1,0.8-0.1c0.4,0,0.9-0.1,1.3-0.2c0.5-0.1,1-0.2,1.6-0.4c0.6-0.2,1.3-0.3,1.8-0.5   c0.6-0.2,1-0.3,1.2-0.4c0.2-0.1,0.5-0.1,0.7-0.2c0.2,0,0.4-0.1,0.5-0.1c0.2,0,0.6,0.2,1.3,0.5c0.3,0.1,0.7,0.3,1.2,0.5   c0.5,0.2,0.9,0.3,1.1,0.5c0.2,0.1,0.3,0.3,0.3,0.6c0,0.2-0.1,0.5-0.3,0.8c-0.2,0.3-0.4,0.4-0.6,0.4c-0.2,0-0.7-0.3-1.6-0.8   c-0.9-0.5-1.5-0.8-1.9-0.9C433.8,17.2,433.2,17.1,432.5,17.1z"/>
	<path class="st5" d="M430.3,28.1c-0.1,0-0.3,0.1-0.6,0.2l-0.1,0.3c-0.1,0.2-0.2,0.3-0.3,0.4c-0.4-0.2-0.5-0.9-0.5-2.1   c0-0.9,0-1.6,0.1-2c0.9-0.1,1.9-0.4,2.9-0.6c1.1-0.3,1.7-0.4,2-0.4c0.5,0,0.8,0.2,0.8,0.5l-0.3,0.9c-0.2,0.6-0.3,1.3-0.3,1.9   c0,0.4,0,0.8,0.1,1.2c0.5,0,0.9,0.1,1.5,0.2c0.5,0.1,1.1,0.4,1.6,0.7c0.6,0.4,0.8,0.8,0.8,1.3c0,0.4-0.2,0.7-0.5,0.9   c-0.3,0.2-0.7,0.3-1.2,0.3c-0.1,0-0.4,0.1-0.8,0.2c-0.4,0.2-0.7,0.2-1,0.2c-0.3,0-0.9-0.2-1.7-0.5c-0.8-0.3-1.4-0.6-1.7-0.8   c-0.1,0-0.2,0.1-0.4,0.2c-0.1,0.1-0.2,0.2-0.3,0.2c-0.1,0-0.5-0.1-1.2-0.3c0,0,0,0.1,0,0.2c0,0.1,0,0.2,0,0.3c0,0.1,0,0.1,0,0.2   c0,0.1,0,0.1-0.1,0.2c0,0-0.1,0.1-0.2,0.1s-0.2,0-0.2-0.1c-0.1-0.1-0.2-0.2-0.2-0.4c-0.1-0.2-0.1-0.3-0.2-0.4   c-0.1-0.1-0.1-0.3-0.2-0.5c0-0.2-0.1-0.3-0.1-0.3h-0.4c-0.5,0-0.9-0.1-1.3-0.2c-0.4-0.1-0.6-0.3-0.6-0.6c0,0,0-0.1,0-0.1   c0,0,0-0.1,0-0.1c0.2,0,0.5,0,0.9,0.1c0.4,0,0.7,0.1,0.9,0.1h0.1c0-0.2-0.1-0.5-0.1-0.8c-0.1-0.3-0.1-0.6-0.2-0.9   c0-0.2-0.1-0.4-0.1-0.5c0,0,0-0.1,0.1-0.2c0.3,0,0.5,0.2,0.6,0.4c0.1,0.2,0.2,0.5,0.3,1c0.1,0.4,0.2,0.7,0.4,1   c0.3,0,0.8-0.1,1.4-0.3c0-0.1,0-0.2,0-0.5C430.3,28.4,430.3,28.2,430.3,28.1z M434.8,23.2c-0.7,0-1.8,0.2-3.2,0.6   c-1.4,0.4-2.4,0.6-2.8,0.6c-1.4,0-2.4-0.3-2.8-0.8c0.4-0.3,0.8-0.4,1-0.4c0.2,0,0.6,0.1,1.1,0.2c0.5,0.1,0.9,0.2,1.2,0.2   c0.5,0,0.8,0,1-0.1c0.2-0.1,0.3-0.3,0.3-0.6c0-0.1-0.1-0.1-0.2-0.2c-0.1,0-0.2-0.1-0.3-0.2c0-0.1,0-0.2,0.1-0.2   c0,0,0.1-0.1,0.2-0.2c0.1-0.1,0.1-0.2,0.2-0.3c0-0.1,0.1-0.2,0.3-0.4c0.1-0.2,0.2-0.4,0.3-0.5c0.1-0.1,0.2-0.1,0.3-0.1   c0.2,0,0.3,0.1,0.3,0.4c0,0.2,0,0.4-0.1,0.6c0,0.2-0.1,0.4-0.2,0.7c-0.1,0.3-0.1,0.4-0.2,0.6c0,0.1,0.1,0.2,0.3,0.2   c0.1,0,0.4-0.3,0.6-0.8c0.3-0.6,0.4-0.9,0.4-1.2c0-0.1-0.1-0.3-0.2-0.4c-0.2-0.1-0.3-0.2-0.3-0.3c0.2-0.4,0.6-0.8,1.3-1   c0.5,0.2,0.7,0.6,0.7,1.3c0,0.2-0.1,0.5-0.3,0.9c-0.2,0.3-0.3,0.6-0.3,0.9c0.2,0,0.5-0.1,0.8-0.1c0.3-0.1,0.7-0.1,1-0.2   c0.3,0,0.7-0.1,1.1-0.1c0.8,0,1.2,0.1,1.3,0.3c-0.2,0.3-0.4,0.6-0.8,0.8C436.5,23.2,435.8,23.2,434.8,23.2z M429.1,30.2   c0.1,0.2,0.2,0.4,0.3,0.6c0.3-0.1,0.7-0.2,1.2-0.4c-0.1-0.1-0.2-0.3-0.2-0.6L429.1,30.2z M429.6,25.4v0.6h0.1l0.1,0l0.6-0.1   c0-0.2,0-0.4,0.1-0.7L429.6,25.4z M430.3,26.6c-0.1,0-0.3,0-0.5,0.1c-0.1,0-0.2,0-0.2,0c0,0,0,0.1,0,0.1c0,0,0,0.1,0,0.1   c0,0,0,0.1,0,0.3c0,0.1,0,0.2,0,0.3c0.1,0,0.3,0,0.7-0.1V26.6z M431.2,25.1c0,0.1,0,0.3-0.1,0.4c0,0.1-0.1,0.3-0.1,0.4   c0.2,0,0.5-0.1,0.8-0.2c0.3-0.1,0.5-0.1,0.7-0.1c0-0.1,0-0.3,0-0.4c0-0.2,0-0.3,0-0.4c-0.2,0-0.5,0.1-0.8,0.2   C431.6,25,431.4,25.1,431.2,25.1z M431.1,26.5v0.8c0.3,0,0.8-0.1,1.4-0.3c0-0.4,0-0.6,0-0.8C432.1,26.3,431.6,26.4,431.1,26.5z    M431.2,27.9v1c0.5-0.1,1-0.2,1.4-0.4c0-0.4,0-0.7,0-0.9c-0.1,0-0.3,0.1-0.6,0.2C431.6,27.8,431.4,27.9,431.2,27.9z M431.2,29.5   c0,0.4,0.1,0.6,0.2,0.6c0.1,0,0.2,0,0.3-0.1c0.1,0,0.3-0.1,0.4-0.2c0.2-0.1,0.4-0.1,0.5-0.2c0-0.3-0.1-0.5,0-0.6   C432.5,29.1,432,29.3,431.2,29.5z M434.3,29.1c0,0,0,0.2,0.1,0.3c0,0.2,0.1,0.3,0.1,0.4c0,0.1,0,0.3-0.1,0.4   c-0.5,0.3-0.9,0.5-1.3,0.5c0,0-0.1-0.1-0.1-0.2c0-0.1-0.1-0.2-0.1-0.3c-0.1,0-0.3,0.1-0.5,0.3c-0.2,0.1-0.3,0.2-0.4,0.3   c0.1,0.1,0.3,0.3,0.7,0.4c0.4,0.2,0.7,0.2,0.9,0.2c0.1,0,0.3,0,0.4-0.1c0.1-0.1,0.3-0.1,0.4-0.3c0.2-0.1,0.3-0.2,0.4-0.3   c0.1,0,0.4-0.1,0.7-0.1c0.3,0,0.6-0.1,0.8-0.2c0.2-0.1,0.3-0.3,0.3-0.6c0-0.2-0.3-0.4-0.8-0.6C435.1,29.2,434.7,29.1,434.3,29.1z"/>
</g>
</svg>