<?xml version="1.0" encoding="utf-8"?>
<!-- Generator: Adobe Illustrator 19.1.0, SVG Export Plug-In . SVG Version: 6.00 Build 0)  -->
<svg version="1.0" xmlns="http://www.w3.org/2000/svg" xmlns:xlink="http://www.w3.org/1999/xlink" x="0px" y="0px" width="1200" height="800"
 viewBox="450 37 100 80" xml:space="preserve">
<style type="text/css">
	.st0{fill:#F2F2F2;}
	.st1{fill:#808080;}
	.st2{fill:#0B3413;}
	.st3{fill:#871008;}
	.st4{fill:#07092D;}
	.st5{fill:#870E06;}
	.st6{fill:#CC1009;}
	.st7{fill:#CC140D;}
	.st8{fill:#CC130C;}
	.st9{filter:url(#Adobe_OpacityMaskFilter);}
	.st10{mask:url(#SVGID_1_);fill:#07092D;}
	.st11{filter:url(#Adobe_OpacityMaskFilter_1_);}
	.st12{mask:url(#SVGID_2_);fill:#07092D;}
</style>
<g>
	<g>
		<path class="st0" d="M446.1,65.9c-1,0-1.9-0.8-1.9-1.9V42c0-1,0.8-1.9,1.9-1.9h15c1,0,1.9,0.8,1.9,1.9v22c0,1-0.8,1.9-1.9,1.9    H446.1z"/>
		<path class="st1" d="M461.1,40.3c1,0,1.8,0.8,1.8,1.8v22c0,1-0.8,1.8-1.8,1.8h-15c-1,0-1.8-0.8-1.8-1.8V42c0-1,0.8-1.8,1.8-1.8    H461.1 M461.1,40h-15c-1.1,0-2,0.9-2,2v22c0,1.1,0.9,2,2,2h15c1.1,0,2-0.9,2-2V42C463.1,40.9,462.2,40,461.1,40L461.1,40z"/>
	</g>
	<g>
		<path class="st4" d="M449.3,43.6c-1.9,0-3.4,1.5-3.4,3.4s1.5,3.4,3.4,3.4c1.9,0,3.4-1.5,3.4-3.4S451.1,43.6,449.3,43.6z     M449.3,49.8c-1.6,0-2.8-1.3-2.8-2.8c0-1.6,1.3-2.8,2.8-2.8s2.8,1.3,2.8,2.8C452.1,48.6,450.8,49.8,449.3,49.8z"/>
		<g>
			<circle class="st4" cx="449.3" cy="47" r="0.2"/>
			<path class="st4" d="M449.3,44.8c-1.2,0-2.2,1-2.2,2.2s1,2.2,2.2,2.2c1.2,0,2.2-1,2.2-2.2S450.5,44.8,449.3,44.8z M448.5,45.4     c0.2-0.1,0.5-0.2,0.7-0.2v0c0.3,0,0.5,0.1,0.7,0.2c0.1,0,0.1,0.2,0.1,0.3c0,0.1-0.2,0.3-0.2,0.4c-0.1,0-0.2,0-0.2,0     c-0.1,0-0.2-0.1-0.3-0.1v0c-0.1,0-0.3,0.1-0.3,0.1c-0.1,0-0.1,0-0.2,0c-0.1,0-0.2-0.3-0.2-0.4C448.4,45.6,448.4,45.5,448.5,45.4z      M447.5,47.2c0-0.2,0-0.5,0.1-0.7l0,0c0.1-0.2,0.2-0.5,0.4-0.6c0.1-0.1,0.2,0,0.3,0c0.1,0.1,0.3,0.3,0.3,0.3c0,0.1,0,0.2,0,0.2     c0,0-0.1,0.2-0.2,0.3l0,0c0,0.1,0,0.3,0,0.4c0,0.1,0,0.1-0.1,0.2c-0.1,0.1-0.3,0.1-0.4,0.1C447.7,47.4,447.5,47.3,447.5,47.2z      M449.1,48.6c0,0.1-0.1,0.2-0.2,0.2c-0.2,0-0.5-0.1-0.7-0.3l0,0c-0.2-0.2-0.4-0.4-0.5-0.6c0-0.1,0-0.2,0.1-0.3     c0.1-0.1,0.3-0.2,0.4-0.1c0.1,0,0.2,0.1,0.2,0.1c0,0,0.1,0.2,0.2,0.3l0,0c0.1,0.1,0.3,0.1,0.3,0.1s0.1,0.1,0.2,0.2     C449.2,48.2,449.2,48.5,449.1,48.6z M448.7,47c0-0.3,0.3-0.6,0.6-0.6s0.6,0.3,0.6,0.6c0,0.3-0.3,0.6-0.6,0.6S448.7,47.4,448.7,47     z M450.3,48.5L450.3,48.5c-0.2,0.2-0.5,0.3-0.7,0.3c-0.1,0-0.2-0.1-0.2-0.2c0-0.1,0-0.4,0-0.4c0-0.1,0.1-0.1,0.2-0.2     c0,0,0.2-0.1,0.3-0.1l0,0c0.1-0.1,0.2-0.2,0.2-0.3c0,0,0.1-0.1,0.2-0.1c0.1,0,0.3,0.1,0.4,0.1c0.1,0.1,0.1,0.2,0.1,0.3     C450.7,48.1,450.5,48.3,450.3,48.5z M450.8,47.4c-0.1,0-0.4-0.1-0.4-0.1c-0.1-0.1-0.1-0.1-0.1-0.2c0-0.1,0-0.2,0-0.4l0,0     c0-0.1-0.2-0.3-0.2-0.3c0,0,0-0.1,0-0.2c0-0.1,0.2-0.3,0.3-0.3s0.2-0.1,0.3,0c0.2,0.2,0.3,0.4,0.4,0.6l0,0     c0.1,0.2,0.1,0.5,0.1,0.7C451,47.3,450.9,47.4,450.8,47.4z"/>
		</g>
	</g>
	<g>
		<path class="st4" d="M458,43.6c-1.9,0-3.4,1.5-3.4,3.4s1.5,3.4,3.4,3.4c1.9,0,3.4-1.5,3.4-3.4S459.9,43.6,458,43.6z M458,49.8    c-1.6,0-2.8-1.3-2.8-2.8c0-1.6,1.3-2.8,2.8-2.8s2.8,1.3,2.8,2.8C460.8,48.6,459.5,49.8,458,49.8z"/>
		<g>
			<circle class="st4" cx="458" cy="47" r="0.2"/>
			<path class="st4" d="M458,44.8c-1.2,0-2.2,1-2.2,2.2s1,2.2,2.2,2.2c1.2,0,2.2-1,2.2-2.2S459.2,44.8,458,44.8z M457.2,45.4     c0.2-0.1,0.5-0.2,0.7-0.2v0c0.3,0,0.5,0.1,0.7,0.2c0.1,0,0.1,0.2,0.1,0.3c0,0.1-0.2,0.3-0.2,0.4c-0.1,0-0.2,0-0.2,0     c-0.1,0-0.2-0.1-0.3-0.1v0c-0.1,0-0.3,0.1-0.3,0.1c-0.1,0-0.1,0-0.2,0c-0.1,0-0.2-0.3-0.2-0.4C457.2,45.6,457.2,45.5,457.2,45.4z      M456.2,47.2c0-0.2,0-0.5,0.1-0.7l0,0c0.1-0.2,0.2-0.5,0.4-0.6c0.1-0.1,0.2,0,0.3,0c0.1,0.1,0.3,0.3,0.3,0.3c0,0.1,0,0.2,0,0.2     c0,0-0.1,0.2-0.2,0.3l0,0c0,0.1,0,0.3,0,0.4c0,0.1,0,0.1-0.1,0.2c-0.1,0.1-0.3,0.1-0.4,0.1C456.4,47.4,456.3,47.3,456.2,47.2z      M457.8,48.6c0,0.1-0.1,0.2-0.2,0.2c-0.2,0-0.5-0.1-0.7-0.3l0,0c-0.2-0.2-0.4-0.4-0.5-0.6c0-0.1,0-0.2,0.1-0.3     c0.1-0.1,0.3-0.2,0.4-0.1c0.1,0,0.2,0.1,0.2,0.1c0,0,0.1,0.2,0.2,0.3l0,0c0.1,0.1,0.3,0.1,0.3,0.1s0.1,0.1,0.2,0.2     C457.9,48.2,457.9,48.5,457.8,48.6z M457.4,47c0-0.3,0.3-0.6,0.6-0.6s0.6,0.3,0.6,0.6c0,0.3-0.3,0.6-0.6,0.6S457.4,47.4,457.4,47     z M459,48.5L459,48.5c-0.2,0.2-0.5,0.3-0.7,0.3c-0.1,0-0.2-0.1-0.2-0.2c0-0.1,0-0.4,0-0.4c0-0.1,0.1-0.1,0.2-0.2     c0,0,0.2-0.1,0.3-0.1l0,0c0.1-0.1,0.2-0.2,0.2-0.3c0,0,0.1-0.1,0.2-0.1c0.1,0,0.3,0.1,0.4,0.1c0.1,0.1,0.1,0.2,0.1,0.3     C459.4,48.1,459.2,48.3,459,48.5z M459.5,47.4c-0.1,0-0.4-0.1-0.4-0.1c-0.1-0.1-0.1-0.1-0.1-0.2c0-0.1,0-0.2,0-0.4l0,0     c0-0.1-0.2-0.3-0.2-0.3c0,0,0-0.1,0-0.2c0-0.1,0.2-0.3,0.3-0.3s0.2-0.1,0.3,0c0.2,0.2,0.3,0.4,0.4,0.6l0,0     c0.1,0.2,0.1,0.5,0.1,0.7C459.7,47.3,459.6,47.4,459.5,47.4z"/>
		</g>
	</g>
	<g>
		<path class="st4" d="M449.3,55.6c-1.9,0-3.4,1.5-3.4,3.4s1.5,3.4,3.4,3.4c1.9,0,3.4-1.5,3.4-3.4S451.1,55.6,449.3,55.6z     M449.3,61.9c-1.6,0-2.8-1.3-2.8-2.8c0-1.6,1.3-2.8,2.8-2.8s2.8,1.3,2.8,2.8C452.1,60.6,450.8,61.9,449.3,61.9z"/>
		<g>
			<circle class="st4" cx="449.3" cy="59.1" r="0.2"/>
			<path class="st4" d="M449.3,56.8c-1.2,0-2.2,1-2.2,2.2s1,2.2,2.2,2.2c1.2,0,2.2-1,2.2-2.2S450.5,56.8,449.3,56.8z M448.5,57.5     c0.2-0.1,0.5-0.2,0.7-0.2v0c0.3,0,0.5,0.1,0.7,0.2c0.1,0,0.1,0.2,0.1,0.3c0,0.1-0.2,0.3-0.2,0.4c-0.1,0-0.2,0-0.2,0     c-0.1,0-0.2-0.1-0.3-0.1v0c-0.1,0-0.3,0.1-0.3,0.1c-0.1,0-0.1,0-0.2,0c-0.1,0-0.2-0.3-0.2-0.4C448.4,57.6,448.4,57.5,448.5,57.5z      M447.5,59.3c0-0.2,0-0.5,0.1-0.7l0,0c0.1-0.2,0.2-0.5,0.4-0.6c0.1-0.1,0.2,0,0.3,0c0.1,0.1,0.3,0.3,0.3,0.3c0,0.1,0,0.2,0,0.2     c0,0-0.1,0.2-0.2,0.3l0,0c0,0.1,0,0.3,0,0.4c0,0.1,0,0.1-0.1,0.2c-0.1,0.1-0.3,0.1-0.4,0.1C447.7,59.4,447.5,59.3,447.5,59.3z      M449.1,60.6c0,0.1-0.1,0.2-0.2,0.2c-0.2,0-0.5-0.1-0.7-0.3l0,0c-0.2-0.2-0.4-0.4-0.5-0.6c0-0.1,0-0.2,0.1-0.3     c0.1-0.1,0.3-0.2,0.4-0.1c0.1,0,0.2,0.1,0.2,0.1c0,0,0.1,0.2,0.2,0.3l0,0c0.1,0.1,0.3,0.1,0.3,0.1s0.1,0.1,0.2,0.2     C449.2,60.2,449.2,60.5,449.1,60.6z M448.7,59.1c0-0.3,0.3-0.6,0.6-0.6s0.6,0.3,0.6,0.6c0,0.3-0.3,0.6-0.6,0.6     S448.7,59.4,448.7,59.1z M450.3,60.5L450.3,60.5c-0.2,0.2-0.5,0.3-0.7,0.3c-0.1,0-0.2-0.1-0.2-0.2c0-0.1,0-0.4,0-0.4     c0-0.1,0.1-0.1,0.2-0.2c0,0,0.2-0.1,0.3-0.1l0,0c0.1-0.1,0.2-0.2,0.2-0.3c0,0,0.1-0.1,0.2-0.1c0.1,0,0.3,0.1,0.4,0.1     c0.1,0.1,0.1,0.2,0.1,0.3C450.7,60.1,450.5,60.3,450.3,60.5z M450.8,59.4c-0.1,0-0.4-0.1-0.4-0.1c-0.1-0.1-0.1-0.1-0.1-0.2     c0-0.1,0-0.2,0-0.4l0,0c0-0.1-0.2-0.3-0.2-0.3c0,0,0-0.1,0-0.2c0-0.1,0.2-0.3,0.3-0.3s0.2-0.1,0.3,0c0.2,0.2,0.3,0.4,0.4,0.6l0,0     c0.1,0.2,0.1,0.5,0.1,0.7C451,59.4,450.9,59.4,450.8,59.4z"/>
		</g>
	</g>
	<g>
		<path class="st4" d="M458,55.6c-1.9,0-3.4,1.5-3.4,3.4s1.5,3.4,3.4,3.4c1.9,0,3.4-1.5,3.4-3.4S459.9,55.6,458,55.6z M458,61.9    c-1.6,0-2.8-1.3-2.8-2.8c0-1.6,1.3-2.8,2.8-2.8s2.8,1.3,2.8,2.8C460.8,60.6,459.5,61.9,458,61.9z"/>
		<g>
			<circle class="st4" cx="458" cy="59.1" r="0.2"/>
			<path class="st4" d="M458,56.8c-1.2,0-2.2,1-2.2,2.2s1,2.2,2.2,2.2c1.2,0,2.2-1,2.2-2.2S459.2,56.8,458,56.8z M457.2,57.5     c0.2-0.1,0.5-0.2,0.7-0.2v0c0.3,0,0.5,0.1,0.7,0.2c0.1,0,0.1,0.2,0.1,0.3c0,0.1-0.2,0.3-0.2,0.4c-0.1,0-0.2,0-0.2,0     c-0.1,0-0.2-0.1-0.3-0.1v0c-0.1,0-0.3,0.1-0.3,0.1c-0.1,0-0.1,0-0.2,0c-0.1,0-0.2-0.3-0.2-0.4C457.2,57.6,457.2,57.5,457.2,57.5z      M456.2,59.3c0-0.2,0-0.5,0.1-0.7l0,0c0.1-0.2,0.2-0.5,0.4-0.6c0.1-0.1,0.2,0,0.3,0c0.1,0.1,0.3,0.3,0.3,0.3c0,0.1,0,0.2,0,0.2     c0,0-0.1,0.2-0.2,0.3l0,0c0,0.1,0,0.3,0,0.4c0,0.1,0,0.1-0.1,0.2c-0.1,0.1-0.3,0.1-0.4,0.1C456.4,59.4,456.3,59.3,456.2,59.3z      M457.8,60.6c0,0.1-0.1,0.2-0.2,0.2c-0.2,0-0.5-0.1-0.7-0.3l0,0c-0.2-0.2-0.4-0.4-0.5-0.6c0-0.1,0-0.2,0.1-0.3     c0.1-0.1,0.3-0.2,0.4-0.1c0.1,0,0.2,0.1,0.2,0.1c0,0,0.1,0.2,0.2,0.3l0,0c0.1,0.1,0.3,0.1,0.3,0.1s0.1,0.1,0.2,0.2     C457.9,60.2,457.9,60.5,457.8,60.6z M457.4,59.1c0-0.3,0.3-0.6,0.6-0.6s0.6,0.3,0.6,0.6c0,0.3-0.3,0.6-0.6,0.6     S457.4,59.4,457.4,59.1z M459,60.5L459,60.5c-0.2,0.2-0.5,0.3-0.7,0.3c-0.1,0-0.2-0.1-0.2-0.2c0-0.1,0-0.4,0-0.4     c0-0.1,0.1-0.1,0.2-0.2c0,0,0.2-0.1,0.3-0.1l0,0c0.1-0.1,0.2-0.2,0.2-0.3c0,0,0.1-0.1,0.2-0.1c0.1,0,0.3,0.1,0.4,0.1     c0.1,0.1,0.1,0.2,0.1,0.3C459.4,60.1,459.2,60.3,459,60.5z M459.5,59.4c-0.1,0-0.4-0.1-0.4-0.1c-0.1-0.1-0.1-0.1-0.1-0.2     c0-0.1,0-0.2,0-0.4l0,0c0-0.1-0.2-0.3-0.2-0.3c0,0,0-0.1,0-0.2c0-0.1,0.2-0.3,0.3-0.3s0.2-0.1,0.3,0c0.2,0.2,0.3,0.4,0.4,0.6l0,0     c0.1,0.2,0.1,0.5,0.1,0.7C459.7,59.4,459.6,59.4,459.5,59.4z"/>
		</g>
	</g>
</g>
</svg>