<?xml version="1.0" encoding="utf-8"?>
<!-- Generator: Adobe Illustrator 19.1.0, SVG Export Plug-In . SVG Version: 6.00 Build 0)  -->
<svg version="1.0" xmlns="http://www.w3.org/2000/svg" xmlns:xlink="http://www.w3.org/1999/xlink" x="0px" y="0px" width="1200" height="800"
 viewBox="450 5 100 80" xml:space="preserve">
<style type="text/css">
	.st0{fill:#F2F2F2;}
	.st1{fill:#808080;}
	.st2{fill:#0B3413;}
	.st3{fill:#871008;}
	.st4{fill:#07092D;}
	.st5{fill:#870E06;}
	.st6{fill:#CC1009;}
	.st7{fill:#CC140D;}
	.st8{fill:#CC130C;}
	.st9{filter:url(#Adobe_OpacityMaskFilter);}
	.st10{mask:url(#SVGID_1_);fill:#07092D;}
	.st11{filter:url(#Adobe_OpacityMaskFilter_1_);}
	.st12{mask:url(#SVGID_2_);fill:#07092D;}
</style>
<g>
	<g>
		<path class="st0" d="M446.1,33.8c-1,0-1.9-0.8-1.9-1.9v-22c0-1,0.8-1.9,1.9-1.9h15c1,0,1.9,0.8,1.9,1.9v22c0,1-0.8,1.9-1.9,1.9    H446.1z"/>
		<path class="st1" d="M461.1,8.2c1,0,1.8,0.8,1.8,1.8v22c0,1-0.8,1.8-1.8,1.8h-15c-1,0-1.8-0.8-1.8-1.8v-22c0-1,0.8-1.8,1.8-1.8    H461.1 M461.1,7.9h-15c-1.1,0-2,0.9-2,2v22c0,1.1,0.9,2,2,2h15c1.1,0,2-0.9,2-2v-22C463.1,8.8,462.2,7.9,461.1,7.9L461.1,7.9z"/>
	</g>
	<path d="M460.1,13.7c-0.3-0.3-0.9-0.5-1.7-0.8c-1.1-0.3-2.2-0.6-3.4-0.6c0,0-0.1-0.1-0.2-0.2c-0.1-0.1-0.2-0.2-0.3-0.3   c-0.1-0.1-0.2-0.1-0.3-0.1c-0.1,0-0.1,0-0.2,0.1c0,0.1-0.1,0.2-0.1,0.4c0,0.2-0.1,0.3-0.1,0.3c-1.2,0.2-3.1,0.9-5.8,1.9   c-1-0.4-1.5-0.5-1.8-0.5c-0.2,0-0.3,0.1-0.4,0.3c0.4,0.5,0.7,1,1,1.3c0.3,0.3,0.5,0.6,0.7,0.8c0.2,0.2,0.4,0.4,0.8,0.8   c0.4,0.3,0.7,0.6,0.9,0.9c0,0,0.1,0.1,0.3,0.3c0.1,0.1,0.2,0.3,0.3,0.3c0.1,0.1,0.1,0.2,0.3,0.3c0.1,0.1,0.2,0.2,0.3,0.2   c0.1,0,0.2,0.1,0.3,0.1c0.2,0,0.6-0.2,1.4-0.6c0.7-0.4,1.4-0.6,2.2-0.6c0.5,0,0.8,0,1.2,0.1c0.3,0.1,0.6,0.2,0.9,0.3   c0.3,0.1,0.5,0.2,0.6,0.2c0.3-0.2,0.7-0.5,1.2-0.8c0.5-0.3,1-0.7,1.6-1.3c0.6-0.5,0.9-1,0.9-1.3C460.5,14.4,460.4,14,460.1,13.7z    M451.2,17.5c-0.5-0.5-0.9-0.9-1.2-1.3c-0.3-0.4-0.6-0.6-0.7-0.7c-0.1-0.1-0.2-0.2-0.3-0.3c-0.1-0.1-0.2-0.2-0.3-0.4   c0.1,0,0.3-0.1,0.7-0.1c0.2,0,0.3,0,0.5-0.1c0.2,0,0.4-0.1,0.6-0.2s0.4-0.1,0.5-0.1c0.1,0.1,0.2,0.3,0.2,0.5c0,0.1,0.1,0.5,0.2,1   c0.1,0.6,0.2,1,0.2,1.4L451.2,17.5z M453.3,16.9c-0.1,0-0.2,0.1-0.4,0.1c-0.2,0-0.3,0.1-0.4,0.1c0.2-0.9,0.3-1.5,0.3-2   c0-0.1-0.1-0.5-0.3-1.2c0.4-0.2,0.7-0.3,1.1-0.3C453.5,14.3,453.4,15.4,453.3,16.9z M457.7,16c-0.4,0.6-0.6,1-0.8,1   c0,0-0.2,0-0.4-0.1c-0.3,0-0.6-0.1-1-0.1c-0.4,0-0.7-0.1-1-0.1c0.1-0.5,0.3-1.1,0.5-1.8c0.3-0.7,0.4-1.2,0.4-1.3c0,0,0-0.1,0-0.1   c0,0,0-0.1,0-0.1c0.4,0,1,0.3,1.7,0.6c0.7,0.4,1.1,0.6,1.1,0.8C458.2,15,458,15.4,457.7,16z"/>
	<path class="st5" d="M452.2,28.1c-0.1,0-0.3,0.1-0.6,0.2l-0.1,0.3c-0.1,0.2-0.2,0.3-0.3,0.4c-0.4-0.2-0.5-0.9-0.5-2.1   c0-0.9,0-1.6,0.1-2c0.9-0.1,1.9-0.4,2.9-0.6c1.1-0.3,1.7-0.4,2-0.4c0.5,0,0.8,0.2,0.8,0.5l-0.3,0.9c-0.2,0.6-0.3,1.3-0.3,1.9   c0,0.4,0,0.8,0.1,1.2c0.5,0,0.9,0.1,1.5,0.2c0.5,0.1,1.1,0.4,1.6,0.7c0.6,0.4,0.8,0.8,0.8,1.3c0,0.4-0.2,0.7-0.5,0.9   c-0.3,0.2-0.7,0.3-1.2,0.3c-0.1,0-0.4,0.1-0.8,0.2c-0.4,0.2-0.7,0.2-1,0.2c-0.3,0-0.9-0.2-1.7-0.5c-0.8-0.3-1.4-0.6-1.7-0.8   c-0.1,0-0.2,0.1-0.4,0.2c-0.1,0.1-0.2,0.2-0.3,0.2c-0.1,0-0.5-0.1-1.2-0.3c0,0,0,0.1,0,0.2c0,0.1,0,0.2,0,0.3c0,0.1,0,0.1,0,0.2   c0,0.1,0,0.1-0.1,0.2c0,0-0.1,0.1-0.2,0.1s-0.2,0-0.2-0.1c-0.1-0.1-0.2-0.2-0.2-0.4c-0.1-0.2-0.1-0.3-0.2-0.4   c-0.1-0.1-0.1-0.3-0.2-0.5c0-0.2-0.1-0.3-0.1-0.3h-0.4c-0.5,0-0.9-0.1-1.3-0.2c-0.4-0.1-0.6-0.3-0.6-0.6c0,0,0-0.1,0-0.1   c0,0,0-0.1,0-0.1c0.2,0,0.5,0,0.9,0.1c0.4,0,0.7,0.1,0.9,0.1h0.1c0-0.2-0.1-0.5-0.1-0.8c-0.1-0.3-0.1-0.6-0.2-0.9   c0-0.2-0.1-0.4-0.1-0.5c0,0,0-0.1,0.1-0.2c0.3,0,0.5,0.2,0.6,0.4c0.1,0.2,0.2,0.5,0.3,1c0.1,0.4,0.2,0.7,0.4,1   c0.3,0,0.8-0.1,1.4-0.3c0-0.1,0-0.2,0-0.5C452.2,28.4,452.2,28.2,452.2,28.1z M456.7,23.2c-0.7,0-1.8,0.2-3.2,0.6   c-1.4,0.4-2.4,0.6-2.8,0.6c-1.4,0-2.4-0.3-2.8-0.8c0.4-0.3,0.8-0.4,1-0.4c0.2,0,0.6,0.1,1.1,0.2c0.5,0.1,0.9,0.2,1.2,0.2   c0.5,0,0.8,0,1-0.1c0.2-0.1,0.3-0.3,0.3-0.6c0-0.1-0.1-0.1-0.2-0.2c-0.1,0-0.2-0.1-0.3-0.2c0-0.1,0-0.2,0.1-0.2   c0,0,0.1-0.1,0.2-0.2c0.1-0.1,0.1-0.2,0.2-0.3c0-0.1,0.1-0.2,0.3-0.4c0.1-0.2,0.2-0.4,0.3-0.5c0.1-0.1,0.2-0.1,0.3-0.1   c0.2,0,0.3,0.1,0.3,0.4c0,0.2,0,0.4-0.1,0.6c0,0.2-0.1,0.4-0.2,0.7c-0.1,0.3-0.1,0.4-0.2,0.6c0,0.1,0.1,0.2,0.3,0.2   c0.1,0,0.4-0.3,0.6-0.8c0.3-0.6,0.4-0.9,0.4-1.2c0-0.1-0.1-0.3-0.2-0.4c-0.2-0.1-0.3-0.2-0.3-0.3c0.2-0.4,0.6-0.8,1.3-1   c0.5,0.2,0.7,0.6,0.7,1.3c0,0.2-0.1,0.5-0.3,0.9c-0.2,0.3-0.3,0.6-0.3,0.9c0.2,0,0.5-0.1,0.8-0.1c0.3-0.1,0.7-0.1,1-0.2   c0.3,0,0.7-0.1,1.1-0.1c0.8,0,1.2,0.1,1.3,0.3c-0.2,0.3-0.4,0.6-0.8,0.8C458.3,23.2,457.6,23.2,456.7,23.2z M450.9,30.2   c0.1,0.2,0.2,0.4,0.3,0.6c0.3-0.1,0.7-0.2,1.2-0.4c-0.1-0.1-0.2-0.3-0.2-0.6L450.9,30.2z M451.4,25.4v0.6h0.1l0.1,0l0.6-0.1   c0-0.2,0-0.4,0.1-0.7L451.4,25.4z M452.2,26.6c-0.1,0-0.3,0-0.5,0.1c-0.1,0-0.2,0-0.2,0c0,0,0,0.1,0,0.1c0,0,0,0.1,0,0.1   c0,0,0,0.1,0,0.3c0,0.1,0,0.2,0,0.3c0.1,0,0.3,0,0.7-0.1V26.6z M453.1,25.1c0,0.1,0,0.3-0.1,0.4c0,0.1-0.1,0.3-0.1,0.4   c0.2,0,0.5-0.1,0.8-0.2c0.3-0.1,0.5-0.1,0.7-0.1c0-0.1,0-0.3,0-0.4c0-0.2,0-0.3,0-0.4c-0.2,0-0.5,0.1-0.8,0.2   C453.5,25,453.2,25.1,453.1,25.1z M453,26.5v0.8c0.3,0,0.8-0.1,1.4-0.3c0-0.4,0-0.6,0-0.8C453.9,26.3,453.4,26.4,453,26.5z    M453,27.9v1c0.5-0.1,1-0.2,1.4-0.4c0-0.4,0-0.7,0-0.9c-0.1,0-0.3,0.1-0.6,0.2C453.5,27.8,453.2,27.9,453,27.9z M453.1,29.5   c0,0.4,0.1,0.6,0.2,0.6c0.1,0,0.2,0,0.3-0.1c0.1,0,0.3-0.1,0.4-0.2c0.2-0.1,0.4-0.1,0.5-0.2c0-0.3-0.1-0.5,0-0.6   C454.3,29.1,453.9,29.3,453.1,29.5z M456.1,29.1c0,0,0,0.2,0.1,0.3c0,0.2,0.1,0.3,0.1,0.4c0,0.1,0,0.3-0.1,0.4   c-0.5,0.3-0.9,0.5-1.3,0.5c0,0-0.1-0.1-0.1-0.2c0-0.1-0.1-0.2-0.1-0.3c-0.1,0-0.3,0.1-0.5,0.3c-0.2,0.1-0.3,0.2-0.4,0.3   c0.1,0.1,0.3,0.3,0.7,0.4c0.4,0.2,0.7,0.2,0.9,0.2c0.1,0,0.3,0,0.4-0.1c0.1-0.1,0.3-0.1,0.4-0.3c0.2-0.1,0.3-0.2,0.4-0.3   c0.1,0,0.4-0.1,0.7-0.1c0.3,0,0.6-0.1,0.8-0.2c0.2-0.1,0.3-0.3,0.3-0.6c0-0.2-0.3-0.4-0.8-0.6C456.9,29.2,456.5,29.1,456.1,29.1z"/>
</g>
</svg>