<?xml version="1.0" encoding="utf-8"?>
<!-- Generator: Adobe Illustrator 19.1.0, SVG Export Plug-In . SVG Version: 6.00 Build 0)  -->
<svg version="1.0" xmlns="http://www.w3.org/2000/svg" xmlns:xlink="http://www.w3.org/1999/xlink" x="0px" y="0px" width="1200" height="800"
 viewBox="472 69 100 80" xml:space="preserve">
<style type="text/css">
	.st0{fill:#F2F2F2;}
	.st1{fill:#808080;}
	.st2{fill:#0B3413;}
	.st3{fill:#871008;}
	.st4{fill:#07092D;}
	.st5{fill:#870E06;}
	.st6{fill:#CC1009;}
	.st7{fill:#CC140D;}
	.st8{fill:#CC130C;}
	.st9{filter:url(#Adobe_OpacityMaskFilter);}
	.st10{mask:url(#SVGID_1_);fill:#07092D;}
	.st11{filter:url(#Adobe_OpacityMaskFilter_1_);}
	.st12{mask:url(#SVGID_2_);fill:#07092D;}
</style>
<g>
	<g>
		<path class="st0" d="M467.9,98c-1,0-1.9-0.8-1.9-1.9v-22c0-1,0.8-1.9,1.9-1.9h15c1,0,1.9,0.8,1.9,1.9v22c0,1-0.8,1.9-1.9,1.9    H467.9z"/>
		<path class="st1" d="M482.9,72.4c1,0,1.8,0.8,1.8,1.8v22c0,1-0.8,1.8-1.8,1.8h-15c-1,0-1.8-0.8-1.8-1.8v-22c0-1,0.8-1.8,1.8-1.8    H482.9 M482.9,72.2h-15c-1.1,0-2,0.9-2,2v22c0,1.1,0.9,2,2,2h15c1.1,0,2-0.9,2-2v-22C484.9,73.1,484,72.2,482.9,72.2L482.9,72.2z"/>
	</g>
	<g>
		<path class="st3" d="M473.4,81.2c0-0.5,0.7-0.7,2-0.7s2,0.2,2,0.7c0,0.4-0.3,0.7-0.8,1v2.1c0.6,0.2,0.8,0.4,0.8,0.8    c0,0.4-0.3,0.6-0.8,0.8v2.1c0.6,0.3,0.8,0.6,0.8,1c0,0.5-0.7,0.7-2,0.7s-2-0.2-2-0.7c0-0.4,0.3-0.7,0.8-1V86    c-0.6-0.2-0.8-0.4-0.8-0.8c0-0.4,0.3-0.6,0.8-0.8v-2.1C473.7,81.9,473.4,81.6,473.4,81.2z M474.9,81.2v3c0.1,0,0.3,0,0.5,0    c0.2,0,0.4,0,0.5,0v-3c-0.1,0-0.3,0-0.5,0C475.2,81.2,475.1,81.2,474.9,81.2z M474.9,85.8c0.1,0,0.2,0,0.3,0c0.1,0,0.2,0,0.2,0    c0,0,0.1,0,0.2,0c0.1,0,0.2,0,0.3,0v-1.3c-0.1,0-0.2,0-0.3,0c-0.1,0-0.2,0-0.2,0c0,0-0.1,0-0.2,0c-0.1,0-0.2,0-0.3,0V85.8z     M475.9,89.1v-3c-0.1,0-0.3,0-0.5,0c-0.2,0-0.4,0-0.5,0v3c0.1,0,0.3,0,0.5,0C475.7,89.1,475.8,89.1,475.9,89.1z"/>
		<path class="st2" d="M468.6,75.4c0-0.5,0.7-0.7,2-0.7c1.3,0,2,0.2,2,0.7c0,0.4-0.3,0.7-0.8,1v2.1c0.6,0.2,0.8,0.4,0.8,0.8    c0,0.4-0.3,0.6-0.8,0.8v2.1c0.6,0.3,0.8,0.6,0.8,1c0,0.5-0.7,0.7-2,0.7c-1.3,0-2-0.2-2-0.7c0-0.4,0.3-0.7,0.8-1v-2.1    c-0.6-0.2-0.8-0.4-0.8-0.8c0-0.4,0.3-0.6,0.8-0.8v-2.1C468.8,76.1,468.6,75.7,468.6,75.4z M468.6,87.1c0-0.5,0.7-0.7,2-0.7    c1.3,0,2,0.2,2,0.7c0,0.4-0.3,0.7-0.8,1v2.1c0.6,0.2,0.8,0.4,0.8,0.8c0,0.4-0.3,0.6-0.8,0.8v2.1c0.6,0.3,0.8,0.6,0.8,1    c0,0.5-0.7,0.7-2,0.7c-1.3,0-2-0.2-2-0.7c0-0.4,0.3-0.7,0.8-1v-2.1c-0.6-0.2-0.8-0.4-0.8-0.8c0-0.4,0.3-0.6,0.8-0.8v-2.1    C468.8,87.8,468.6,87.5,468.6,87.1z M470.1,75.4v3c0.1,0,0.3,0,0.5,0c0.2,0,0.4,0,0.5,0v-3c-0.1,0-0.3,0-0.5,0    C470.4,75.3,470.2,75.3,470.1,75.4z M470.1,79.9c0,0,0.1,0,0.2,0c0.1,0,0.2,0,0.3,0c0.1,0,0.2,0,0.3,0c0.1,0,0.2,0,0.2,0v-1.3    c0,0-0.1,0-0.2,0c-0.1,0-0.2,0-0.3,0c-0.1,0-0.2,0-0.3,0c-0.1,0-0.2,0-0.2,0V79.9z M471.1,83.2v-3c-0.1,0-0.3,0-0.5,0    c-0.2,0-0.4,0-0.5,0v3c0.1,0,0.3,0,0.5,0C470.8,83.2,471,83.2,471.1,83.2z M470.1,87.1v3c0.1,0,0.3,0,0.5,0c0.2,0,0.4,0,0.5,0v-3    c-0.1,0-0.3,0-0.5,0C470.4,87.1,470.2,87.1,470.1,87.1z M470.1,91.7c0,0,0.1,0,0.2,0c0.1,0,0.2,0,0.3,0c0.1,0,0.2,0,0.3,0    c0.1,0,0.2,0,0.2,0v-1.3c0,0-0.1,0-0.2,0c-0.1,0-0.2,0-0.3,0c-0.1,0-0.2,0-0.3,0c-0.1,0-0.2,0-0.2,0V91.7z M471.1,94.9v-3    c-0.1,0-0.3,0-0.5,0c-0.2,0-0.4,0-0.5,0v3c0.1,0,0.3,0,0.5,0C470.8,95,471,95,471.1,94.9z M478.3,75.4c0-0.5,0.7-0.7,2-0.7    c1.3,0,2,0.2,2,0.7c0,0.4-0.3,0.7-0.8,1v2.1c0.6,0.2,0.8,0.4,0.8,0.8c0,0.4-0.3,0.6-0.8,0.8v2.1c0.6,0.3,0.8,0.6,0.8,1    c0,0.5-0.7,0.7-2,0.7c-1.3,0-2-0.2-2-0.7c0-0.4,0.3-0.7,0.8-1v-2.1c-0.6-0.2-0.8-0.4-0.8-0.8c0-0.4,0.3-0.6,0.8-0.8v-2.1    C478.6,76.1,478.3,75.7,478.3,75.4z M478.3,87.1c0-0.5,0.7-0.7,2-0.7c1.3,0,2,0.2,2,0.7c0,0.4-0.3,0.7-0.8,1v2.1    c0.6,0.2,0.8,0.4,0.8,0.8c0,0.4-0.3,0.6-0.8,0.8v2.1c0.6,0.3,0.8,0.6,0.8,1c0,0.5-0.7,0.7-2,0.7c-1.3,0-2-0.2-2-0.7    c0-0.4,0.3-0.7,0.8-1v-2.1c-0.6-0.2-0.8-0.4-0.8-0.8c0-0.4,0.3-0.6,0.8-0.8v-2.1C478.6,87.8,478.3,87.5,478.3,87.1z M479.8,75.4v3    c0.1,0,0.3,0,0.5,0c0.2,0,0.4,0,0.5,0v-3c-0.1,0-0.3,0-0.5,0C480.1,75.3,479.9,75.3,479.8,75.4z M479.8,79.9c0,0,0.1,0,0.2,0    c0.1,0,0.2,0,0.3,0c0.1,0,0.2,0,0.3,0c0.1,0,0.2,0,0.2,0v-1.3c0,0-0.1,0-0.2,0c-0.1,0-0.2,0-0.3,0c-0.1,0-0.2,0-0.3,0    c-0.1,0-0.2,0-0.2,0V79.9z M480.8,83.2v-3c-0.1,0-0.3,0-0.5,0c-0.2,0-0.4,0-0.5,0v3c0.1,0,0.3,0,0.5,0    C480.5,83.2,480.7,83.2,480.8,83.2z M479.8,87.1v3c0.1,0,0.3,0,0.5,0c0.2,0,0.4,0,0.5,0v-3c-0.1,0-0.3,0-0.5,0    C480.1,87.1,479.9,87.1,479.8,87.1z M479.8,91.7c0,0,0.1,0,0.2,0c0.1,0,0.2,0,0.3,0c0.1,0,0.2,0,0.3,0c0.1,0,0.2,0,0.2,0v-1.3    c0,0-0.1,0-0.2,0c-0.1,0-0.2,0-0.3,0c-0.1,0-0.2,0-0.3,0c-0.1,0-0.2,0-0.2,0V91.7z M480.8,94.9v-3c-0.1,0-0.3,0-0.5,0    c-0.2,0-0.4,0-0.5,0v3c0.1,0,0.3,0,0.5,0C480.5,95,480.7,95,480.8,94.9z"/>
	</g>
</g>
</svg>