<?xml version="1.0" encoding="utf-8"?>
<!-- Generator: Adobe Illustrator 19.1.0, SVG Export Plug-In . SVG Version: 6.00 Build 0)  -->
<svg version="1.0" xmlns="http://www.w3.org/2000/svg" xmlns:xlink="http://www.w3.org/1999/xlink" x="0px" y="0px" width="1200" height="800"
 viewBox="472 37 100 80" xml:space="preserve">
<style type="text/css">
	.st0{fill:#F2F2F2;}
	.st1{fill:#808080;}
	.st2{fill:#0B3413;}
	.st3{fill:#871008;}
	.st4{fill:#07092D;}
	.st5{fill:#870E06;}
	.st6{fill:#CC1009;}
	.st7{fill:#CC140D;}
	.st8{fill:#CC130C;}
	.st9{filter:url(#Adobe_OpacityMaskFilter);}
	.st10{mask:url(#SVGID_1_);fill:#07092D;}
	.st11{filter:url(#Adobe_OpacityMaskFilter_1_);}
	.st12{mask:url(#SVGID_2_);fill:#07092D;}
</style>
<g>
	<g>
		<path class="st0" d="M467.9,65.9c-1,0-1.9-0.8-1.9-1.9V42c0-1,0.8-1.9,1.9-1.9h15c1,0,1.9,0.8,1.9,1.9v22c0,1-0.8,1.9-1.9,1.9    H467.9z"/>
		<path class="st1" d="M482.9,40.3c1,0,1.8,0.8,1.8,1.8v22c0,1-0.8,1.8-1.8,1.8h-15c-1,0-1.8-0.8-1.8-1.8V42c0-1,0.8-1.8,1.8-1.8    H482.9 M482.9,40h-15c-1.1,0-2,0.9-2,2v22c0,1.1,0.9,2,2,2h15c1.1,0,2-0.9,2-2V42C484.9,40.9,484,40,482.9,40L482.9,40z"/>
	</g>
	<g>
		<g>
			<path class="st4" d="M471.1,43c-1.9,0-3.4,1.5-3.4,3.4s1.5,3.4,3.4,3.4c1.9,0,3.4-1.5,3.4-3.4S473,43,471.1,43z M471.1,49.2     c-1.6,0-2.8-1.3-2.8-2.8c0-1.6,1.3-2.8,2.8-2.8s2.8,1.3,2.8,2.8C473.9,48,472.6,49.2,471.1,49.2z"/>
			<g>
				<circle class="st4" cx="471.1" cy="46.4" r="0.2"/>
				<path class="st4" d="M471.1,44.2c-1.2,0-2.2,1-2.2,2.2s1,2.2,2.2,2.2c1.2,0,2.2-1,2.2-2.2S472.3,44.2,471.1,44.2z M470.4,44.8      c0.2-0.1,0.5-0.2,0.7-0.2v0c0.3,0,0.5,0.1,0.7,0.2c0.1,0,0.1,0.2,0.1,0.3c0,0.1-0.2,0.3-0.2,0.4c-0.1,0-0.2,0-0.2,0      c-0.1,0-0.2-0.1-0.3-0.1v0c-0.1,0-0.3,0.1-0.3,0.1c-0.1,0-0.1,0-0.2,0c-0.1,0-0.2-0.3-0.2-0.4C470.3,45,470.3,44.9,470.4,44.8z       M469.3,46.6c0-0.2,0-0.5,0.1-0.7l0,0c0.1-0.2,0.2-0.5,0.4-0.6c0.1-0.1,0.2,0,0.3,0c0.1,0.1,0.3,0.3,0.3,0.3c0,0.1,0,0.2,0,0.2      c0,0-0.1,0.2-0.2,0.3l0,0c0,0.1,0,0.3,0,0.4c0,0.1,0,0.1-0.1,0.2c-0.1,0.1-0.3,0.1-0.4,0.1C469.5,46.8,469.4,46.7,469.3,46.6z       M471,48c0,0.1-0.1,0.2-0.2,0.2c-0.2,0-0.5-0.1-0.7-0.3l0,0c-0.2-0.2-0.4-0.4-0.5-0.6c0-0.1,0-0.2,0.1-0.3      c0.1-0.1,0.3-0.2,0.4-0.1c0.1,0,0.2,0.1,0.2,0.1c0,0,0.1,0.2,0.2,0.3l0,0c0.1,0.1,0.3,0.1,0.3,0.1s0.1,0.1,0.2,0.2      C471,47.6,471,47.9,471,48z M470.5,46.4c0-0.3,0.3-0.6,0.6-0.6s0.6,0.3,0.6,0.6c0,0.3-0.3,0.6-0.6,0.6S470.5,46.8,470.5,46.4z       M472.1,47.9L472.1,47.9c-0.2,0.2-0.5,0.3-0.7,0.3c-0.1,0-0.2-0.1-0.2-0.2c0-0.1,0-0.4,0-0.4c0-0.1,0.1-0.1,0.2-0.2      c0,0,0.2-0.1,0.3-0.1l0,0c0.1-0.1,0.2-0.2,0.2-0.3c0,0,0.1-0.1,0.2-0.1c0.1,0,0.3,0.1,0.4,0.1c0.1,0.1,0.1,0.2,0.1,0.3      C472.5,47.5,472.3,47.7,472.1,47.9z M472.6,46.8c-0.1,0-0.4-0.1-0.4-0.1c-0.1-0.1-0.1-0.1-0.1-0.2c0-0.1,0-0.2,0-0.4l0,0      c0-0.1-0.2-0.3-0.2-0.3c0,0,0-0.1,0-0.2c0-0.1,0.2-0.3,0.3-0.3s0.2-0.1,0.3,0c0.2,0.2,0.3,0.4,0.4,0.6l0,0      c0.1,0.2,0.1,0.5,0.1,0.7C472.8,46.7,472.7,46.8,472.6,46.8z"/>
			</g>
		</g>
		<g>
			<path class="st4" d="M479.8,43c-1.9,0-3.4,1.5-3.4,3.4s1.5,3.4,3.4,3.4c1.9,0,3.4-1.5,3.4-3.4S481.7,43,479.8,43z M479.8,49.2     c-1.6,0-2.8-1.3-2.8-2.8c0-1.6,1.3-2.8,2.8-2.8s2.8,1.3,2.8,2.8C482.6,48,481.4,49.2,479.8,49.2z"/>
			<g>
				<circle class="st4" cx="479.8" cy="46.4" r="0.2"/>
				<path class="st4" d="M479.8,44.2c-1.2,0-2.2,1-2.2,2.2s1,2.2,2.2,2.2c1.2,0,2.2-1,2.2-2.2S481,44.2,479.8,44.2z M479.1,44.8      c0.2-0.1,0.5-0.2,0.7-0.2v0c0.3,0,0.5,0.1,0.7,0.2c0.1,0,0.1,0.2,0.1,0.3c0,0.1-0.2,0.3-0.2,0.4c-0.1,0-0.2,0-0.2,0      c-0.1,0-0.2-0.1-0.3-0.1v0c-0.1,0-0.3,0.1-0.3,0.1c-0.1,0-0.1,0-0.2,0c-0.1,0-0.2-0.3-0.2-0.4C479,45,479,44.9,479.1,44.8z       M478.1,46.6c0-0.2,0-0.5,0.1-0.7l0,0c0.1-0.2,0.2-0.5,0.4-0.6c0.1-0.1,0.2,0,0.3,0c0.1,0.1,0.3,0.3,0.3,0.3c0,0.1,0,0.2,0,0.2      c0,0-0.1,0.2-0.2,0.3l0,0c0,0.1,0,0.3,0,0.4c0,0.1,0,0.1-0.1,0.2c-0.1,0.1-0.3,0.1-0.4,0.1C478.2,46.8,478.1,46.7,478.1,46.6z       M479.7,48c0,0.1-0.1,0.2-0.2,0.2c-0.2,0-0.5-0.1-0.7-0.3l0,0c-0.2-0.2-0.4-0.4-0.5-0.6c0-0.1,0-0.2,0.1-0.3      c0.1-0.1,0.3-0.2,0.4-0.1c0.1,0,0.2,0.1,0.2,0.1c0,0,0.1,0.2,0.2,0.3l0,0c0.1,0.1,0.3,0.1,0.3,0.1s0.1,0.1,0.2,0.2      C479.7,47.6,479.7,47.9,479.7,48z M479.2,46.4c0-0.3,0.3-0.6,0.6-0.6s0.6,0.3,0.6,0.6c0,0.3-0.3,0.6-0.6,0.6      S479.2,46.8,479.2,46.4z M480.8,47.9L480.8,47.9c-0.2,0.2-0.5,0.3-0.7,0.3c-0.1,0-0.2-0.1-0.2-0.2c0-0.1,0-0.4,0-0.4      c0-0.1,0.1-0.1,0.2-0.2c0,0,0.2-0.1,0.3-0.1l0,0c0.1-0.1,0.2-0.2,0.2-0.3c0,0,0.1-0.1,0.2-0.1c0.1,0,0.3,0.1,0.4,0.1      c0.1,0.1,0.1,0.2,0.1,0.3C481.2,47.5,481.1,47.7,480.8,47.9z M481.3,46.8c-0.1,0-0.4-0.1-0.4-0.1c-0.1-0.1-0.1-0.1-0.1-0.2      c0-0.1,0-0.2,0-0.4l0,0c0-0.1-0.2-0.3-0.2-0.3c0,0,0-0.1,0-0.2c0-0.1,0.2-0.3,0.3-0.3s0.2-0.1,0.3,0c0.2,0.2,0.3,0.4,0.4,0.6      l0,0c0.1,0.2,0.1,0.5,0.1,0.7C481.5,46.7,481.4,46.8,481.3,46.8z"/>
			</g>
		</g>
		<g>
			<path class="st4" d="M471.1,56.2c-1.9,0-3.4,1.5-3.4,3.4s1.5,3.4,3.4,3.4c1.9,0,3.4-1.5,3.4-3.4S473,56.2,471.1,56.2z      M471.1,62.5c-1.6,0-2.8-1.3-2.8-2.8c0-1.6,1.3-2.8,2.8-2.8s2.8,1.3,2.8,2.8C473.9,61.2,472.6,62.5,471.1,62.5z"/>
			<g>
				<circle class="st4" cx="471.1" cy="59.6" r="0.2"/>
				<path class="st4" d="M471.1,57.4c-1.2,0-2.2,1-2.2,2.2s1,2.2,2.2,2.2c1.2,0,2.2-1,2.2-2.2S472.3,57.4,471.1,57.4z M470.4,58.1      c0.2-0.1,0.5-0.2,0.7-0.2v0c0.3,0,0.5,0.1,0.7,0.2c0.1,0,0.1,0.2,0.1,0.3c0,0.1-0.2,0.3-0.2,0.4c-0.1,0-0.2,0-0.2,0      c-0.1,0-0.2-0.1-0.3-0.1v0c-0.1,0-0.3,0.1-0.3,0.1c-0.1,0-0.1,0-0.2,0c-0.1,0-0.2-0.3-0.2-0.4C470.3,58.2,470.3,58.1,470.4,58.1      z M469.3,59.8c0-0.2,0-0.5,0.1-0.7l0,0c0.1-0.2,0.2-0.5,0.4-0.6c0.1-0.1,0.2,0,0.3,0c0.1,0.1,0.3,0.3,0.3,0.3c0,0.1,0,0.2,0,0.2      c0,0-0.1,0.2-0.2,0.3l0,0c0,0.1,0,0.3,0,0.4c0,0.1,0,0.1-0.1,0.2c-0.1,0.1-0.3,0.1-0.4,0.1C469.5,60,469.4,59.9,469.3,59.8z       M471,61.2c0,0.1-0.1,0.2-0.2,0.2c-0.2,0-0.5-0.1-0.7-0.3l0,0c-0.2-0.2-0.4-0.4-0.5-0.6c0-0.1,0-0.2,0.1-0.3      c0.1-0.1,0.3-0.2,0.4-0.1c0.1,0,0.2,0.1,0.2,0.1c0,0,0.1,0.2,0.2,0.3l0,0c0.1,0.1,0.3,0.1,0.3,0.1s0.1,0.1,0.2,0.2      C471,60.8,471,61.1,471,61.2z M470.5,59.6c0-0.3,0.3-0.6,0.6-0.6s0.6,0.3,0.6,0.6c0,0.3-0.3,0.6-0.6,0.6S470.5,60,470.5,59.6z       M472.1,61.1L472.1,61.1c-0.2,0.2-0.5,0.3-0.7,0.3c-0.1,0-0.2-0.1-0.2-0.2c0-0.1,0-0.4,0-0.4c0-0.1,0.1-0.1,0.2-0.2      c0,0,0.2-0.1,0.3-0.1l0,0c0.1-0.1,0.2-0.2,0.2-0.3c0,0,0.1-0.1,0.2-0.1c0.1,0,0.3,0.1,0.4,0.1c0.1,0.1,0.1,0.2,0.1,0.3      C472.5,60.7,472.3,60.9,472.1,61.1z M472.6,60c-0.1,0-0.4-0.1-0.4-0.1c-0.1-0.1-0.1-0.1-0.1-0.2c0-0.1,0-0.2,0-0.4l0,0      c0-0.1-0.2-0.3-0.2-0.3c0,0,0-0.1,0-0.2c0-0.1,0.2-0.3,0.3-0.3s0.2-0.1,0.3,0c0.2,0.2,0.3,0.4,0.4,0.6l0,0      c0.1,0.2,0.1,0.5,0.1,0.7C472.8,59.9,472.7,60,472.6,60z"/>
			</g>
		</g>
		<g>
			<path class="st4" d="M479.8,56.2c-1.9,0-3.4,1.5-3.4,3.4s1.5,3.4,3.4,3.4c1.9,0,3.4-1.5,3.4-3.4S481.7,56.2,479.8,56.2z      M479.8,62.5c-1.6,0-2.8-1.3-2.8-2.8c0-1.6,1.3-2.8,2.8-2.8s2.8,1.3,2.8,2.8C482.6,61.2,481.4,62.5,479.8,62.5z"/>
			<g>
				<circle class="st4" cx="479.8" cy="59.6" r="0.2"/>
				<path class="st4" d="M479.8,57.4c-1.2,0-2.2,1-2.2,2.2s1,2.2,2.2,2.2c1.2,0,2.2-1,2.2-2.2S481,57.4,479.8,57.4z M479.1,58.1      c0.2-0.1,0.5-0.2,0.7-0.2v0c0.3,0,0.5,0.1,0.7,0.2c0.1,0,0.1,0.2,0.1,0.3c0,0.1-0.2,0.3-0.2,0.4c-0.1,0-0.2,0-0.2,0      c-0.1,0-0.2-0.1-0.3-0.1v0c-0.1,0-0.3,0.1-0.3,0.1c-0.1,0-0.1,0-0.2,0c-0.1,0-0.2-0.3-0.2-0.4C479,58.2,479,58.1,479.1,58.1z       M478.1,59.8c0-0.2,0-0.5,0.1-0.7l0,0c0.1-0.2,0.2-0.5,0.4-0.6c0.1-0.1,0.2,0,0.3,0c0.1,0.1,0.3,0.3,0.3,0.3c0,0.1,0,0.2,0,0.2      c0,0-0.1,0.2-0.2,0.3l0,0c0,0.1,0,0.3,0,0.4c0,0.1,0,0.1-0.1,0.2c-0.1,0.1-0.3,0.1-0.4,0.1C478.2,60,478.1,59.9,478.1,59.8z       M479.7,61.2c0,0.1-0.1,0.2-0.2,0.2c-0.2,0-0.5-0.1-0.7-0.3l0,0c-0.2-0.2-0.4-0.4-0.5-0.6c0-0.1,0-0.2,0.1-0.3      c0.1-0.1,0.3-0.2,0.4-0.1c0.1,0,0.2,0.1,0.2,0.1c0,0,0.1,0.2,0.2,0.3l0,0c0.1,0.1,0.3,0.1,0.3,0.1s0.1,0.1,0.2,0.2      C479.7,60.8,479.7,61.1,479.7,61.2z M479.2,59.6c0-0.3,0.3-0.6,0.6-0.6s0.6,0.3,0.6,0.6c0,0.3-0.3,0.6-0.6,0.6      S479.2,60,479.2,59.6z M480.8,61.1L480.8,61.1c-0.2,0.2-0.5,0.3-0.7,0.3c-0.1,0-0.2-0.1-0.2-0.2c0-0.1,0-0.4,0-0.4      c0-0.1,0.1-0.1,0.2-0.2c0,0,0.2-0.1,0.3-0.1l0,0c0.1-0.1,0.2-0.2,0.2-0.3c0,0,0.1-0.1,0.2-0.1c0.1,0,0.3,0.1,0.4,0.1      c0.1,0.1,0.1,0.2,0.1,0.3C481.2,60.7,481.1,60.9,480.8,61.1z M481.3,60c-0.1,0-0.4-0.1-0.4-0.1c-0.1-0.1-0.1-0.1-0.1-0.2      c0-0.1,0-0.2,0-0.4l0,0c0-0.1-0.2-0.3-0.2-0.3c0,0,0-0.1,0-0.2c0-0.1,0.2-0.3,0.3-0.3s0.2-0.1,0.3,0c0.2,0.2,0.3,0.4,0.4,0.6      l0,0c0.1,0.2,0.1,0.5,0.1,0.7C481.5,59.9,481.4,60,481.3,60z"/>
			</g>
		</g>
		<g>
			<path class="st4" d="M475.4,49.6c-1.9,0-3.4,1.5-3.4,3.4s1.5,3.4,3.4,3.4c1.9,0,3.4-1.5,3.4-3.4S477.3,49.6,475.4,49.6z      M475.4,55.9c-1.6,0-2.8-1.3-2.8-2.8c0-1.6,1.3-2.8,2.8-2.8s2.8,1.3,2.8,2.8C478.3,54.6,477,55.9,475.4,55.9z"/>
			<g>
				<circle class="st3" cx="475.4" cy="53" r="0.2"/>
				<path class="st3" d="M475.4,50.8c-1.2,0-2.2,1-2.2,2.2s1,2.2,2.2,2.2c1.2,0,2.2-1,2.2-2.2S476.7,50.8,475.4,50.8z M474.7,51.5      c0.2-0.1,0.5-0.2,0.7-0.2v0c0.3,0,0.5,0.1,0.7,0.2c0.1,0,0.1,0.2,0.1,0.3c0,0.1-0.2,0.3-0.2,0.4c-0.1,0-0.2,0-0.2,0      c-0.1,0-0.2-0.1-0.3-0.1v0c-0.1,0-0.3,0.1-0.3,0.1c-0.1,0-0.1,0-0.2,0c-0.1,0-0.2-0.3-0.2-0.4C474.6,51.6,474.6,51.5,474.7,51.5      z M473.7,53.2c0-0.2,0-0.5,0.1-0.7l0,0c0.1-0.2,0.2-0.5,0.4-0.6c0.1-0.1,0.2,0,0.3,0c0.1,0.1,0.3,0.3,0.3,0.3c0,0.1,0,0.2,0,0.2      c0,0-0.1,0.2-0.2,0.3l0,0c0,0.1,0,0.3,0,0.4c0,0.1,0,0.1-0.1,0.2c-0.1,0.1-0.3,0.1-0.4,0.1C473.8,53.4,473.7,53.3,473.7,53.2z       M475.3,54.6c0,0.1-0.1,0.2-0.2,0.2c-0.2,0-0.5-0.1-0.7-0.3l0,0c-0.2-0.2-0.4-0.4-0.5-0.6c0-0.1,0-0.2,0.1-0.3      c0.1-0.1,0.3-0.2,0.4-0.1c0.1,0,0.2,0.1,0.2,0.1c0,0,0.1,0.2,0.2,0.3l0,0c0.1,0.1,0.3,0.1,0.3,0.1s0.1,0.1,0.2,0.2      C475.4,54.2,475.3,54.5,475.3,54.6z M474.8,53c0-0.3,0.3-0.6,0.6-0.6s0.6,0.3,0.6,0.6c0,0.3-0.3,0.6-0.6,0.6      S474.8,53.4,474.8,53z M476.5,54.5L476.5,54.5c-0.2,0.2-0.5,0.3-0.7,0.3c-0.1,0-0.2-0.1-0.2-0.2c0-0.1,0-0.4,0-0.4      c0-0.1,0.1-0.1,0.2-0.2c0,0,0.2-0.1,0.3-0.1l0,0c0.1-0.1,0.2-0.2,0.2-0.3c0,0,0.1-0.1,0.2-0.1c0.1,0,0.3,0.1,0.4,0.1      c0.1,0.1,0.1,0.2,0.1,0.3C476.9,54.1,476.7,54.3,476.5,54.5z M476.9,53.4c-0.1,0-0.4-0.1-0.4-0.1c-0.1-0.1-0.1-0.1-0.1-0.2      c0-0.1,0-0.2,0-0.4l0,0c0-0.1-0.2-0.3-0.2-0.3c0,0,0-0.1,0-0.2c0-0.1,0.2-0.3,0.3-0.3s0.2-0.1,0.3,0c0.2,0.2,0.3,0.4,0.4,0.6      l0,0c0.1,0.2,0.1,0.5,0.1,0.7C477.2,53.3,477,53.4,476.9,53.4z"/>
			</g>
		</g>
	</g>
</g>
</svg>