<?xml version="1.0" encoding="utf-8"?>
<!-- Generator: Adobe Illustrator 19.1.0, SVG Export Plug-In . SVG Version: 6.00 Build 0)  -->
<svg version="1.0" xmlns="http://www.w3.org/2000/svg" xmlns:xlink="http://www.w3.org/1999/xlink" x="0px" y="0px" width="1200" height="800"
 viewBox="472 5 100 80" xml:space="preserve">
<style type="text/css">
	.st0{fill:#F2F2F2;}
	.st1{fill:#808080;}
	.st2{fill:#0B3413;}
	.st3{fill:#871008;}
	.st4{fill:#07092D;}
	.st5{fill:#870E06;}
	.st6{fill:#CC1009;}
	.st7{fill:#CC140D;}
	.st8{fill:#CC130C;}
	.st9{filter:url(#Adobe_OpacityMaskFilter);}
	.st10{mask:url(#SVGID_1_);fill:#07092D;}
	.st11{filter:url(#Adobe_OpacityMaskFilter_1_);}
	.st12{mask:url(#SVGID_2_);fill:#07092D;}
</style>
<g>
	<g>
		<path class="st0" d="M467.9,33.8c-1,0-1.9-0.8-1.9-1.9v-22c0-1,0.8-1.9,1.9-1.9h15c1,0,1.9,0.8,1.9,1.9v22c0,1-0.8,1.9-1.9,1.9    H467.9z"/>
		<path class="st1" d="M482.9,8.2c1,0,1.8,0.8,1.8,1.8v22c0,1-0.8,1.8-1.8,1.8h-15c-1,0-1.8-0.8-1.8-1.8v-22c0-1,0.8-1.8,1.8-1.8    H482.9 M482.9,7.9h-15c-1.1,0-2,0.9-2,2v22c0,1.1,0.9,2,2,2h15c1.1,0,2-0.9,2-2v-22C484.9,8.8,484,7.9,482.9,7.9L482.9,7.9z"/>
	</g>
	<path d="M482,17.5c-0.4-0.2-0.9-0.5-1.8-0.8c-0.8-0.3-1.4-0.6-1.7-0.7c-0.1-0.7-0.1-1.2-0.1-1.5c0-0.1,0-0.3,0.1-0.5   c0.1-0.3,0.1-0.5,0-0.5c-0.1-0.3-0.5-0.5-0.9-0.6c0,0.3-0.2,0.5-0.3,0.7c-0.2,0.1-0.6,0.3-1.4,0.6c0.1-0.8,0.6-1.5,1.3-1.8   c1-0.5,1.7-0.7,2.1-0.7c0.2,0,0.5,0.1,0.9,0.2c0.4,0.1,0.7,0.2,0.9,0.2c0.5,0,0.7-0.3,0.7-0.9c0-0.5-0.9-0.7-2.6-0.7   c0,0-0.7,0.3-2,0.9c-1.3,0.6-2.2,0.9-2.8,0.9c-0.1-0.2-0.3-0.4-0.6-0.5c-0.3-0.2-0.4-0.3-0.4-0.3c-0.1,0.1-0.2,0.2-0.4,0.3   c-0.2,0.1-0.3,0.2-0.4,0.3c-0.1,0.1-0.2,0.2-0.2,0.4c-0.1,0.2-0.2,0.4-0.3,0.5c0,0,0.1,0.1,0.2,0.3c0.1,0.1,0.2,0.2,0.2,0.3   c0,0.1,0.1,0.2,0.1,0.3c0,0.7-0.5,1.6-1.5,2.5c-1,1-2.1,1.7-3.1,2.2c0.1,0.1,0.2,0.1,0.4,0.1c0.4,0,1-0.3,1.8-0.8   c0.8-0.5,1.6-1.1,2.2-1.7c0.2,0.1,0.3,0.2,0.3,0.4c0,0.2-0.1,0.4-0.2,0.6c-0.1,0.3-0.2,0.5-0.2,0.6c0,0.4,0.1,0.7,0.4,1   c0.2,0.3,0.6,0.4,1,0.4c0.1,0,0.2,0,0.3-0.1c0-0.1,0-0.3,0.1-0.4c0.1-0.1,0.3-0.2,0.5-0.3c0.2-0.1,0.5-0.2,0.7-0.3   c0.2-0.1,0.6-0.2,1.1-0.4c0.5-0.2,0.9-0.3,1.3-0.5c0,0.2,0,0.3,0,0.4c0,0.1,0,0.2,0,0.2c0,0.1,0.1,0.1,0.3,0.1c0,0,0.2,0,0.3-0.1   c0.2,0,0.3-0.1,0.5-0.1c0.7,0,1.4,0.2,2.2,0.7c0.7,0.5,1.2,0.7,1.3,0.7c0.2,0,0.4-0.1,0.6-0.3c0.2-0.2,0.2-0.4,0.2-0.6   C482.5,18.1,482.4,17.8,482,17.5z M474.2,13.9c0.1-0.3,0.1-0.6,0.1-1c0-0.3,0-0.5,0-0.6c0.2,0,0.5,0.1,0.7,0.2   c0.2,0.1,0.3,0.3,0.3,0.4c0,0.2-0.2,0.7-0.5,1.5c-0.3,0.2-0.5,0.3-0.8,0.3c-0.1,0-0.2-0.1-0.2-0.3C474,14.3,474.1,14.2,474.2,13.9z    M473.7,17.2c-0.1,0-0.3,0-0.4-0.1c0,0,0-0.1,0-0.1c0,0,0-0.1,0-0.1c0-0.1,0-0.3-0.1-0.6c-0.1-0.3-0.1-0.5-0.1-0.7   c0-0.1,0-0.3,0-0.3c0.1,0.2,0.4,0.3,0.9,0.3c0,0,0.1,0,0.2,0c0.1,0,0.1,0,0.1,0C474.1,16.4,473.9,17,473.7,17.2z M477.3,16.4   c-1.1,0.6-1.9,0.9-2.5,0.9c0-0.6,0.2-1.2,0.6-1.9c0.2-0.1,0.4-0.2,0.6-0.3c0.2-0.1,0.4-0.3,0.6-0.4c0.2-0.1,0.3-0.1,0.3-0.1   c0.2,0,0.4,0.2,0.4,0.7c0,0,0,0.2,0,0.3c0,0.2,0,0.3,0,0.4C477.2,16.1,477.3,16.3,477.3,16.4z"/>
	<path class="st5" d="M474,28.1c-0.1,0-0.3,0.1-0.6,0.2l-0.1,0.3c-0.1,0.2-0.2,0.3-0.3,0.4c-0.4-0.2-0.5-0.9-0.5-2.1   c0-0.9,0-1.6,0.1-2c0.9-0.1,1.9-0.4,2.9-0.6c1.1-0.3,1.7-0.4,2-0.4c0.5,0,0.8,0.2,0.8,0.5l-0.3,0.9c-0.2,0.6-0.3,1.3-0.3,1.9   c0,0.4,0,0.8,0.1,1.2c0.5,0,0.9,0.1,1.5,0.2c0.5,0.1,1.1,0.4,1.6,0.7c0.6,0.4,0.8,0.8,0.8,1.3c0,0.4-0.2,0.7-0.5,0.9   c-0.3,0.2-0.7,0.3-1.2,0.3c-0.1,0-0.4,0.1-0.8,0.2c-0.4,0.2-0.7,0.2-1,0.2c-0.3,0-0.9-0.2-1.7-0.5c-0.8-0.3-1.4-0.6-1.7-0.8   c-0.1,0-0.2,0.1-0.4,0.2c-0.1,0.1-0.2,0.2-0.3,0.2c-0.1,0-0.5-0.1-1.2-0.3c0,0,0,0.1,0,0.2c0,0.1,0,0.2,0,0.3c0,0.1,0,0.1,0,0.2   c0,0.1,0,0.1-0.1,0.2c0,0-0.1,0.1-0.2,0.1s-0.2,0-0.2-0.1c-0.1-0.1-0.2-0.2-0.2-0.4c-0.1-0.2-0.1-0.3-0.2-0.4   c-0.1-0.1-0.1-0.3-0.2-0.5c0-0.2-0.1-0.3-0.1-0.3h-0.4c-0.5,0-0.9-0.1-1.3-0.2c-0.4-0.1-0.6-0.3-0.6-0.6c0,0,0-0.1,0-0.1   c0,0,0-0.1,0-0.1c0.2,0,0.5,0,0.9,0.1c0.4,0,0.7,0.1,0.9,0.1h0.1c0-0.2-0.1-0.5-0.1-0.8c-0.1-0.3-0.1-0.6-0.2-0.9   c0-0.2-0.1-0.4-0.1-0.5c0,0,0-0.1,0.1-0.2c0.3,0,0.5,0.2,0.6,0.4c0.1,0.2,0.2,0.5,0.3,1c0.1,0.4,0.2,0.7,0.4,1   c0.3,0,0.8-0.1,1.4-0.3c0-0.1,0-0.2,0-0.5C474,28.4,474,28.2,474,28.1z M478.5,23.2c-0.7,0-1.8,0.2-3.2,0.6   c-1.4,0.4-2.4,0.6-2.8,0.6c-1.4,0-2.4-0.3-2.8-0.8c0.4-0.3,0.8-0.4,1-0.4c0.2,0,0.6,0.1,1.1,0.2c0.5,0.1,0.9,0.2,1.2,0.2   c0.5,0,0.8,0,1-0.1c0.2-0.1,0.3-0.3,0.3-0.6c0-0.1-0.1-0.1-0.2-0.2c-0.1,0-0.2-0.1-0.3-0.2c0-0.1,0-0.2,0.1-0.2   c0,0,0.1-0.1,0.2-0.2c0.1-0.1,0.1-0.2,0.2-0.3c0-0.1,0.1-0.2,0.3-0.4c0.1-0.2,0.2-0.4,0.3-0.5c0.1-0.1,0.2-0.1,0.3-0.1   c0.2,0,0.3,0.1,0.3,0.4c0,0.2,0,0.4-0.1,0.6c0,0.2-0.1,0.4-0.2,0.7c-0.1,0.3-0.1,0.4-0.2,0.6c0,0.1,0.1,0.2,0.3,0.2   c0.1,0,0.4-0.3,0.6-0.8c0.3-0.6,0.4-0.9,0.4-1.2c0-0.1-0.1-0.3-0.2-0.4c-0.2-0.1-0.3-0.2-0.3-0.3c0.2-0.4,0.6-0.8,1.3-1   c0.5,0.2,0.7,0.6,0.7,1.3c0,0.2-0.1,0.5-0.3,0.9c-0.2,0.3-0.3,0.6-0.3,0.9c0.2,0,0.5-0.1,0.8-0.1c0.3-0.1,0.7-0.1,1-0.2   c0.3,0,0.7-0.1,1.1-0.1c0.8,0,1.2,0.1,1.3,0.3c-0.2,0.3-0.4,0.6-0.8,0.8C480.1,23.2,479.5,23.2,478.5,23.2z M472.7,30.2   c0.1,0.2,0.2,0.4,0.3,0.6c0.3-0.1,0.7-0.2,1.2-0.4c-0.1-0.1-0.2-0.3-0.2-0.6L472.7,30.2z M473.3,25.4v0.6h0.1l0.1,0l0.6-0.1   c0-0.2,0-0.4,0.1-0.7L473.3,25.4z M474,26.6c-0.1,0-0.3,0-0.5,0.1c-0.1,0-0.2,0-0.2,0c0,0,0,0.1,0,0.1c0,0,0,0.1,0,0.1   c0,0,0,0.1,0,0.3c0,0.1,0,0.2,0,0.3c0.1,0,0.3,0,0.7-0.1V26.6z M474.9,25.1c0,0.1,0,0.3-0.1,0.4c0,0.1-0.1,0.3-0.1,0.4   c0.2,0,0.5-0.1,0.8-0.2c0.3-0.1,0.5-0.1,0.7-0.1c0-0.1,0-0.3,0-0.4c0-0.2,0-0.3,0-0.4c-0.2,0-0.5,0.1-0.8,0.2   C475.3,25,475.1,25.1,474.9,25.1z M474.8,26.5v0.8c0.3,0,0.8-0.1,1.4-0.3c0-0.4,0-0.6,0-0.8C475.7,26.3,475.2,26.4,474.8,26.5z    M474.9,27.9v1c0.5-0.1,1-0.2,1.4-0.4c0-0.4,0-0.7,0-0.9c-0.1,0-0.3,0.1-0.6,0.2C475.3,27.8,475,27.9,474.9,27.9z M474.9,29.5   c0,0.4,0.1,0.6,0.2,0.6c0.1,0,0.2,0,0.3-0.1c0.1,0,0.3-0.1,0.4-0.2c0.2-0.1,0.4-0.1,0.5-0.2c0-0.3-0.1-0.5,0-0.6   C476.1,29.1,475.7,29.3,474.9,29.5z M477.9,29.1c0,0,0,0.2,0.1,0.3c0,0.2,0.1,0.3,0.1,0.4c0,0.1,0,0.3-0.1,0.4   c-0.5,0.3-0.9,0.5-1.3,0.5c0,0-0.1-0.1-0.1-0.2c0-0.1-0.1-0.2-0.1-0.3c-0.1,0-0.3,0.1-0.5,0.3c-0.2,0.1-0.3,0.2-0.4,0.3   c0.1,0.1,0.3,0.3,0.7,0.4c0.4,0.2,0.7,0.2,0.9,0.2c0.1,0,0.3,0,0.4-0.1c0.1-0.1,0.3-0.1,0.4-0.3c0.2-0.1,0.3-0.2,0.4-0.3   c0.1,0,0.4-0.1,0.7-0.1c0.3,0,0.6-0.1,0.8-0.2c0.2-0.1,0.3-0.3,0.3-0.6c0-0.2-0.3-0.4-0.8-0.6C478.8,29.2,478.3,29.1,477.9,29.1z"/>
</g>
</svg>