<?xml version="1.0" encoding="utf-8"?>
<!-- Generator: Adobe Illustrator 19.1.0, SVG Export Plug-In . SVG Version: 6.00 Build 0)  -->
<svg version="1.0" xmlns="http://www.w3.org/2000/svg" xmlns:xlink="http://www.w3.org/1999/xlink" x="0px" y="0px" width="1200" height="800"
 viewBox="494 69 100 80" xml:space="preserve">
<style type="text/css">
	.st0{fill:#F2F2F2;}
	.st1{fill:#808080;}
	.st2{fill:#0B3413;}
	.st3{fill:#871008;}
	.st4{fill:#07092D;}
	.st5{fill:#870E06;}
	.st6{fill:#CC1009;}
	.st7{fill:#CC140D;}
	.st8{fill:#CC130C;}
	.st9{filter:url(#Adobe_OpacityMaskFilter);}
	.st10{mask:url(#SVGID_1_);fill:#07092D;}
	.st11{filter:url(#Adobe_OpacityMaskFilter_1_);}
	.st12{mask:url(#SVGID_2_);fill:#07092D;}
</style>
<g>
	<g>
		<path class="st0" d="M489.8,98c-1,0-1.9-0.8-1.9-1.9v-22c0-1,0.8-1.9,1.9-1.9h15c1,0,1.9,0.8,1.9,1.9v22c0,1-0.8,1.9-1.9,1.9    H489.8z"/>
		<path class="st1" d="M504.8,72.4c1,0,1.8,0.8,1.8,1.8v22c0,1-0.8,1.8-1.8,1.8h-15c-1,0-1.8-0.8-1.8-1.8v-22c0-1,0.8-1.8,1.8-1.8    H504.8 M504.8,72.2h-15c-1.1,0-2,0.9-2,2v22c0,1.1,0.9,2,2,2h15c1.1,0,2-0.9,2-2v-22C506.8,73.1,505.9,72.2,504.8,72.2L504.8,72.2    z"/>
	</g>
	<g>
		<path class="st2" d="M490.1,75.4c0-0.5,0.7-0.7,2-0.7c1.3,0,2,0.2,2,0.7c0,0.4-0.3,0.7-0.8,1v2.1c0.6,0.2,0.8,0.4,0.8,0.8    c0,0.4-0.3,0.6-0.8,0.8v2.1c0.6,0.3,0.8,0.6,0.8,1c0,0.5-0.7,0.7-2,0.7c-1.3,0-2-0.2-2-0.7c0-0.4,0.3-0.7,0.8-1v-2.1    c-0.6-0.2-0.8-0.4-0.8-0.8c0-0.4,0.3-0.6,0.8-0.8v-2.1C490.3,76.1,490.1,75.7,490.1,75.4z M490.1,87.1c0-0.5,0.7-0.7,2-0.7    c1.3,0,2,0.2,2,0.7c0,0.4-0.3,0.7-0.8,1v2.1c0.6,0.2,0.8,0.4,0.8,0.8c0,0.4-0.3,0.6-0.8,0.8v2.1c0.6,0.3,0.8,0.6,0.8,1    c0,0.5-0.7,0.7-2,0.7c-1.3,0-2-0.2-2-0.7c0-0.4,0.3-0.7,0.8-1v-2.1c-0.6-0.2-0.8-0.4-0.8-0.8c0-0.4,0.3-0.6,0.8-0.8v-2.1    C490.3,87.8,490.1,87.5,490.1,87.1z M491.6,75.4v3c0.1,0,0.3,0,0.5,0c0.2,0,0.4,0,0.5,0v-3c-0.1,0-0.3,0-0.5,0    C491.9,75.3,491.7,75.3,491.6,75.4z M491.6,79.9c0,0,0.1,0,0.2,0c0.1,0,0.2,0,0.3,0c0.1,0,0.2,0,0.3,0c0.1,0,0.2,0,0.2,0v-1.3    c0,0-0.1,0-0.2,0c-0.1,0-0.2,0-0.3,0c-0.1,0-0.2,0-0.3,0c-0.1,0-0.2,0-0.2,0V79.9z M492.6,83.2v-3c-0.1,0-0.3,0-0.5,0    c-0.2,0-0.4,0-0.5,0v3c0.1,0,0.3,0,0.5,0C492.3,83.2,492.5,83.2,492.6,83.2z M491.6,87.1v3c0.1,0,0.3,0,0.5,0c0.2,0,0.4,0,0.5,0    v-3c-0.1,0-0.3,0-0.5,0C491.9,87.1,491.7,87.1,491.6,87.1z M491.6,91.7c0,0,0.1,0,0.2,0c0.1,0,0.2,0,0.3,0c0.1,0,0.2,0,0.3,0    c0.1,0,0.2,0,0.2,0v-1.3c0,0-0.1,0-0.2,0c-0.1,0-0.2,0-0.3,0c-0.1,0-0.2,0-0.3,0c-0.1,0-0.2,0-0.2,0V91.7z M492.6,94.9v-3    c-0.1,0-0.3,0-0.5,0c-0.2,0-0.4,0-0.5,0v3c0.1,0,0.3,0,0.5,0C492.3,95,492.5,95,492.6,94.9z M495.3,75.4c0-0.5,0.7-0.7,2-0.7    c1.3,0,2,0.2,2,0.7c0,0.4-0.3,0.7-0.8,1v2.1c0.6,0.2,0.8,0.4,0.8,0.8c0,0.4-0.3,0.6-0.8,0.8v2.1c0.6,0.3,0.8,0.6,0.8,1    c0,0.5-0.7,0.7-2,0.7c-1.3,0-2-0.2-2-0.7c0-0.4,0.3-0.7,0.8-1v-2.1c-0.6-0.2-0.8-0.4-0.8-0.8c0-0.4,0.3-0.6,0.8-0.8v-2.1    C495.5,76.1,495.3,75.7,495.3,75.4z M495.3,87.1c0-0.5,0.7-0.7,2-0.7c1.3,0,2,0.2,2,0.7c0,0.4-0.3,0.7-0.8,1v2.1    c0.6,0.2,0.8,0.4,0.8,0.8c0,0.4-0.3,0.6-0.8,0.8v2.1c0.6,0.3,0.8,0.6,0.8,1c0,0.5-0.7,0.7-2,0.7c-1.3,0-2-0.2-2-0.7    c0-0.4,0.3-0.7,0.8-1v-2.1c-0.6-0.2-0.8-0.4-0.8-0.8c0-0.4,0.3-0.6,0.8-0.8v-2.1C495.5,87.8,495.3,87.5,495.3,87.1z M496.8,75.4v3    c0.1,0,0.3,0,0.5,0c0.2,0,0.4,0,0.5,0v-3c-0.1,0-0.3,0-0.5,0C497.1,75.3,496.9,75.3,496.8,75.4z M496.8,79.9c0.1,0,0.2,0,0.3,0    c0.1,0,0.2,0,0.2,0c0,0,0.1,0,0.2,0c0.1,0,0.2,0,0.3,0v-1.3c-0.1,0-0.2,0-0.3,0c-0.1,0-0.2,0-0.2,0c0,0-0.1,0-0.2,0    c-0.1,0-0.2,0-0.3,0V79.9z M497.8,83.2v-3c-0.1,0-0.3,0-0.5,0c-0.2,0-0.4,0-0.5,0v3c0.1,0,0.3,0,0.5,0    C497.5,83.2,497.7,83.2,497.8,83.2z M496.8,87.1v3c0.1,0,0.3,0,0.5,0c0.2,0,0.4,0,0.5,0v-3c-0.1,0-0.3,0-0.5,0    C497.1,87.1,496.9,87.1,496.8,87.1z M496.8,91.7c0.1,0,0.2,0,0.3,0c0.1,0,0.2,0,0.2,0c0,0,0.1,0,0.2,0c0.1,0,0.2,0,0.3,0v-1.3    c-0.1,0-0.2,0-0.3,0c-0.1,0-0.2,0-0.2,0c0,0-0.1,0-0.2,0c-0.1,0-0.2,0-0.3,0V91.7z M497.8,94.9v-3c-0.1,0-0.3,0-0.5,0    c-0.2,0-0.4,0-0.5,0v3c0.1,0,0.3,0,0.5,0C497.5,95,497.7,95,497.8,94.9z M500.5,75.4c0-0.5,0.7-0.7,2-0.7c1.3,0,2,0.2,2,0.7    c0,0.4-0.3,0.7-0.8,1v2.1c0.6,0.2,0.8,0.4,0.8,0.8c0,0.4-0.3,0.6-0.8,0.8v2.1c0.6,0.3,0.8,0.6,0.8,1c0,0.5-0.7,0.7-2,0.7    c-1.3,0-2-0.2-2-0.7c0-0.4,0.3-0.7,0.8-1v-2.1c-0.6-0.2-0.8-0.4-0.8-0.8c0-0.4,0.3-0.6,0.8-0.8v-2.1    C500.7,76.1,500.5,75.7,500.5,75.4z M500.5,87.1c0-0.5,0.7-0.7,2-0.7c1.3,0,2,0.2,2,0.7c0,0.4-0.3,0.7-0.8,1v2.1    c0.6,0.2,0.8,0.4,0.8,0.8c0,0.4-0.3,0.6-0.8,0.8v2.1c0.6,0.3,0.8,0.6,0.8,1c0,0.5-0.7,0.7-2,0.7c-1.3,0-2-0.2-2-0.7    c0-0.4,0.3-0.7,0.8-1v-2.1c-0.6-0.2-0.8-0.4-0.8-0.8c0-0.4,0.3-0.6,0.8-0.8v-2.1C500.7,87.8,500.5,87.5,500.5,87.1z M502,75.4v3    c0.1,0,0.3,0,0.5,0c0.2,0,0.4,0,0.5,0v-3c-0.1,0-0.3,0-0.5,0C502.3,75.3,502.1,75.3,502,75.4z M502,79.9c0,0,0.1,0,0.2,0    c0.1,0,0.2,0,0.3,0c0.1,0,0.2,0,0.3,0c0.1,0,0.2,0,0.2,0v-1.3c0,0-0.1,0-0.2,0c-0.1,0-0.2,0-0.3,0c-0.1,0-0.2,0-0.3,0    c-0.1,0-0.2,0-0.2,0V79.9z M503,83.2v-3c-0.1,0-0.3,0-0.5,0c-0.2,0-0.4,0-0.5,0v3c0.1,0,0.3,0,0.5,0    C502.7,83.2,502.9,83.2,503,83.2z M502,87.1v3c0.1,0,0.3,0,0.5,0c0.2,0,0.4,0,0.5,0v-3c-0.1,0-0.3,0-0.5,0    C502.3,87.1,502.1,87.1,502,87.1z M502,91.7c0,0,0.1,0,0.2,0c0.1,0,0.2,0,0.3,0c0.1,0,0.2,0,0.3,0c0.1,0,0.2,0,0.2,0v-1.3    c0,0-0.1,0-0.2,0c-0.1,0-0.2,0-0.3,0c-0.1,0-0.2,0-0.3,0c-0.1,0-0.2,0-0.2,0V91.7z M503,94.9v-3c-0.1,0-0.3,0-0.5,0    c-0.2,0-0.4,0-0.5,0v3c0.1,0,0.3,0,0.5,0C502.7,95,502.9,95,503,94.9z"/>
	</g>
</g>
</svg>