<?xml version="1.0" encoding="utf-8"?>
<!-- Generator: Adobe Illustrator 19.1.0, SVG Export Plug-In . SVG Version: 6.00 Build 0)  -->
<svg version="1.0" xmlns="http://www.w3.org/2000/svg" xmlns:xlink="http://www.w3.org/1999/xlink" x="0px" y="0px" width="1200" height="800"
 viewBox="500 36 100 100" xml:space="preserve">
<style type="text/css">
	.st0{fill:#F2F2F2;}
	.st1{fill:#808080;}
	.st2{fill:#0B3413;}
	.st3{fill:#871008;}
	.st4{fill:#07092D;}
	.st5{fill:#870E06;}
	.st6{fill:#CC1009;}
	.st7{fill:#CC140D;}
	.st8{fill:#CC130C;}
	.st9{filter:url(#Adobe_OpacityMaskFilter);}
	.st10{mask:url(#SVGID_1_);fill:#07092D;}
	.st11{filter:url(#Adobe_OpacityMaskFilter_1_);}
	.st12{mask:url(#SVGID_2_);fill:#07092D;}
</style>
<g>
	<g>
		<path class="st0" d="M489.8,65.9c-1,0-1.9-0.8-1.9-1.9V42c0-1,0.8-1.9,1.9-1.9h15c1,0,1.9,0.8,1.9,1.9v22c0,1-0.8,1.9-1.9,1.9    H489.8z"/>
		<path class="st1" d="M504.8,40.3c1,0,1.8,0.8,1.8,1.8v22c0,1-0.8,1.8-1.8,1.8h-15c-1,0-1.8-0.8-1.8-1.8V42c0-1,0.8-1.8,1.8-1.8    H504.8 M504.8,40h-15c-1.1,0-2,0.9-2,2v22c0,1.1,0.9,2,2,2h15c1.1,0,2-0.9,2-2V42C506.8,40.9,505.9,40,504.8,40L504.8,40z"/>
	</g>
	<g>
		<g>
			<path class="st4" d="M500.1,56.8c-1.7,0-3,1.4-3,3s1.4,3,3,3c1.7,0,3-1.4,3-3S501.7,56.8,500.1,56.8z M500.1,62.3     c-1.4,0-2.5-1.1-2.5-2.5c0-1.4,1.1-2.5,2.5-2.5s2.5,1.1,2.5,2.5C502.6,61.2,501.4,62.3,500.1,62.3z"/>
			<g>
				<circle class="st3" cx="500.1" cy="59.8" r="0.2"/>
				<path class="st3" d="M500.1,57.8c-1.1,0-2,0.9-2,2c0,1.1,0.9,2,2,2c1.1,0,2-0.9,2-2C502,58.7,501.1,57.8,500.1,57.8z       M499.4,58.4c0.2-0.1,0.4-0.2,0.7-0.2v0c0.2,0,0.5,0.1,0.7,0.2c0.1,0,0.1,0.2,0.1,0.2c0,0.1-0.2,0.3-0.2,0.3c-0.1,0-0.1,0-0.2,0      c0,0-0.2-0.1-0.3-0.1v0c-0.1,0-0.3,0.1-0.3,0.1c0,0-0.1,0-0.2,0c-0.1,0-0.2-0.2-0.2-0.3C499.3,58.5,499.3,58.4,499.4,58.4z       M498.5,60c0-0.2,0-0.4,0-0.7l0,0c0.1-0.2,0.2-0.4,0.4-0.6c0.1-0.1,0.2,0,0.3,0c0.1,0,0.2,0.2,0.2,0.3c0,0.1,0,0.1,0,0.2      c0,0-0.1,0.2-0.2,0.3l0,0c0,0.1,0,0.3,0,0.3c0,0,0,0.1-0.1,0.2c0,0-0.3,0.1-0.4,0.1C498.6,60.1,498.5,60.1,498.5,60z       M499.9,61.2c0,0.1-0.1,0.2-0.2,0.2c-0.2,0-0.4-0.1-0.6-0.3l0,0c-0.2-0.1-0.3-0.3-0.4-0.5c0-0.1,0-0.2,0.1-0.2      c0.1-0.1,0.3-0.1,0.4-0.1c0.1,0,0.1,0.1,0.2,0.1c0,0,0.1,0.2,0.2,0.2l0,0c0.1,0.1,0.2,0.1,0.3,0.1c0,0,0.1,0.1,0.1,0.1      C500,60.8,500,61.1,499.9,61.2z M499.5,59.8c0-0.3,0.2-0.5,0.5-0.5s0.5,0.2,0.5,0.5c0,0.3-0.2,0.5-0.5,0.5      S499.5,60.1,499.5,59.8z M501,61.1L501,61.1c-0.2,0.1-0.4,0.2-0.6,0.3c-0.1,0-0.2-0.1-0.2-0.2c0-0.1,0-0.3,0-0.4      c0-0.1,0.1-0.1,0.1-0.1c0,0,0.2-0.1,0.3-0.1l0,0c0.1-0.1,0.2-0.2,0.2-0.2c0,0,0.1-0.1,0.2-0.1c0.1,0,0.3,0.1,0.4,0.1      c0.1,0.1,0.1,0.2,0.1,0.2C501.3,60.8,501.2,60.9,501,61.1z M501.4,60.1c-0.1,0-0.3-0.1-0.4-0.1c0,0-0.1-0.1-0.1-0.2      c0,0,0-0.2,0-0.3l0,0c0-0.1-0.1-0.2-0.2-0.3c0,0,0-0.1,0-0.2c0-0.1,0.2-0.3,0.2-0.3c0.1,0,0.2-0.1,0.3,0      c0.2,0.1,0.3,0.3,0.4,0.6l0,0c0.1,0.2,0.1,0.5,0,0.7C501.6,60.1,501.5,60.1,501.4,60.1z"/>
			</g>
		</g>
	</g>
	<g>
		<g>
			<path class="st4" d="M494.5,56.8c-1.7,0-3,1.4-3,3s1.4,3,3,3c1.7,0,3-1.4,3-3S496.2,56.8,494.5,56.8z M494.5,62.3     c-1.4,0-2.5-1.1-2.5-2.5c0-1.4,1.1-2.5,2.5-2.5s2.5,1.1,2.5,2.5C497,61.2,495.9,62.3,494.5,62.3z"/>
			<g>
				<circle class="st3" cx="494.5" cy="59.8" r="0.2"/>
				<path class="st3" d="M494.5,57.8c-1.1,0-2,0.9-2,2c0,1.1,0.9,2,2,2c1.1,0,2-0.9,2-2C496.5,58.7,495.6,57.8,494.5,57.8z       M493.9,58.4c0.2-0.1,0.4-0.2,0.7-0.2v0c0.2,0,0.5,0.1,0.7,0.2c0.1,0,0.1,0.2,0.1,0.2c0,0.1-0.2,0.3-0.2,0.3c-0.1,0-0.1,0-0.2,0      c0,0-0.2-0.1-0.3-0.1v0c-0.1,0-0.3,0.1-0.3,0.1c0,0-0.1,0-0.2,0c-0.1,0-0.2-0.2-0.2-0.3C493.8,58.5,493.8,58.4,493.9,58.4z       M492.9,60c0-0.2,0-0.4,0-0.7l0,0c0.1-0.2,0.2-0.4,0.4-0.6c0.1-0.1,0.2,0,0.3,0c0.1,0,0.2,0.2,0.2,0.3c0,0.1,0,0.1,0,0.2      c0,0-0.1,0.2-0.2,0.3l0,0c0,0.1,0,0.3,0,0.3c0,0,0,0.1-0.1,0.2c0,0-0.3,0.1-0.4,0.1C493.1,60.1,493,60.1,492.9,60z M494.4,61.2      c0,0.1-0.1,0.2-0.2,0.2c-0.2,0-0.4-0.1-0.6-0.3l0,0c-0.2-0.1-0.3-0.3-0.4-0.5c0-0.1,0-0.2,0.1-0.2c0.1-0.1,0.3-0.1,0.4-0.1      c0.1,0,0.1,0.1,0.2,0.1c0,0,0.1,0.2,0.2,0.2l0,0c0.1,0.1,0.2,0.1,0.3,0.1c0,0,0.1,0.1,0.1,0.1C494.4,60.8,494.4,61.1,494.4,61.2      z M494,59.8c0-0.3,0.2-0.5,0.5-0.5s0.5,0.2,0.5,0.5c0,0.3-0.2,0.5-0.5,0.5S494,60.1,494,59.8z M495.4,61.1L495.4,61.1      c-0.2,0.1-0.4,0.2-0.6,0.3c-0.1,0-0.2-0.1-0.2-0.2c0-0.1,0-0.3,0-0.4c0-0.1,0.1-0.1,0.1-0.1c0,0,0.2-0.1,0.3-0.1l0,0      c0.1-0.1,0.2-0.2,0.2-0.2c0,0,0.1-0.1,0.2-0.1c0.1,0,0.3,0.1,0.4,0.1c0.1,0.1,0.1,0.2,0.1,0.2C495.8,60.8,495.6,60.9,495.4,61.1      z M495.8,60.1c-0.1,0-0.3-0.1-0.4-0.1c0,0-0.1-0.1-0.1-0.2c0,0,0-0.2,0-0.3l0,0c0-0.1-0.1-0.2-0.2-0.3c0,0,0-0.1,0-0.2      c0-0.1,0.2-0.3,0.2-0.3c0.1,0,0.2-0.1,0.3,0c0.2,0.1,0.3,0.3,0.4,0.6l0,0c0.1,0.2,0.1,0.5,0,0.7C496,60.1,495.9,60.1,495.8,60.1      z"/>
			</g>
		</g>
	</g>
	<g>
		<g>
			<path class="st4" d="M500.1,51.2c-1.7,0-3,1.4-3,3s1.4,3,3,3c1.7,0,3-1.4,3-3S501.7,51.2,500.1,51.2z M500.1,56.8     c-1.4,0-2.5-1.1-2.5-2.5c0-1.4,1.1-2.5,2.5-2.5s2.5,1.1,2.5,2.5C502.6,55.6,501.4,56.8,500.1,56.8z"/>
			<g>
				<circle class="st3" cx="500.1" cy="54.2" r="0.2"/>
				<path class="st3" d="M500.1,52.3c-1.1,0-2,0.9-2,2c0,1.1,0.9,2,2,2c1.1,0,2-0.9,2-2C502,53.2,501.1,52.3,500.1,52.3z       M499.4,52.8c0.2-0.1,0.4-0.2,0.7-0.2v0c0.2,0,0.5,0.1,0.7,0.2c0.1,0,0.1,0.2,0.1,0.2c0,0.1-0.2,0.3-0.2,0.3c-0.1,0-0.1,0-0.2,0      c0,0-0.2-0.1-0.3-0.1v0c-0.1,0-0.3,0.1-0.3,0.1c0,0-0.1,0-0.2,0c-0.1,0-0.2-0.2-0.2-0.3C499.3,53,499.3,52.9,499.4,52.8z       M498.5,54.4c0-0.2,0-0.4,0-0.7l0,0c0.1-0.2,0.2-0.4,0.4-0.6c0.1-0.1,0.2,0,0.3,0c0.1,0,0.2,0.2,0.2,0.3c0,0.1,0,0.1,0,0.2      c0,0-0.1,0.2-0.2,0.3l0,0c0,0.1,0,0.3,0,0.3c0,0,0,0.1-0.1,0.2c0,0-0.3,0.1-0.4,0.1C498.6,54.6,498.5,54.5,498.5,54.4z       M499.9,55.6c0,0.1-0.1,0.2-0.2,0.2c-0.2,0-0.4-0.1-0.6-0.3l0,0c-0.2-0.1-0.3-0.3-0.4-0.5c0-0.1,0-0.2,0.1-0.2      c0.1-0.1,0.3-0.1,0.4-0.1c0.1,0,0.1,0.1,0.2,0.1c0,0,0.1,0.2,0.2,0.2l0,0c0.1,0.1,0.2,0.1,0.3,0.1c0,0,0.1,0.1,0.1,0.1      C500,55.3,500,55.5,499.9,55.6z M499.5,54.2c0-0.3,0.2-0.5,0.5-0.5s0.5,0.2,0.5,0.5c0,0.3-0.2,0.5-0.5,0.5      S499.5,54.5,499.5,54.2z M501,55.5L501,55.5c-0.2,0.1-0.4,0.2-0.6,0.3c-0.1,0-0.2-0.1-0.2-0.2c0-0.1,0-0.3,0-0.4      c0-0.1,0.1-0.1,0.1-0.1c0,0,0.2-0.1,0.3-0.1l0,0c0.1-0.1,0.2-0.2,0.2-0.2c0,0,0.1-0.1,0.2-0.1c0.1,0,0.3,0.1,0.4,0.1      c0.1,0.1,0.1,0.2,0.1,0.2C501.3,55.2,501.2,55.4,501,55.5z M501.4,54.6c-0.1,0-0.3-0.1-0.4-0.1c0,0-0.1-0.1-0.1-0.2      c0,0,0-0.2,0-0.3l0,0c0-0.1-0.1-0.2-0.2-0.3c0,0,0-0.1,0-0.2c0-0.1,0.2-0.3,0.2-0.3c0.1,0,0.2-0.1,0.3,0      c0.2,0.1,0.3,0.3,0.4,0.6l0,0c0.1,0.2,0.1,0.5,0,0.7C501.6,54.5,501.5,54.6,501.4,54.6z"/>
			</g>
		</g>
	</g>
	<g>
		<g>
			<path class="st4" d="M494.5,51.2c-1.7,0-3,1.4-3,3s1.4,3,3,3c1.7,0,3-1.4,3-3S496.2,51.2,494.5,51.2z M494.5,56.8     c-1.4,0-2.5-1.1-2.5-2.5c0-1.4,1.1-2.5,2.5-2.5s2.5,1.1,2.5,2.5C497,55.6,495.9,56.8,494.5,56.8z"/>
			<g>
				<circle class="st3" cx="494.5" cy="54.2" r="0.2"/>
				<path class="st3" d="M494.5,52.3c-1.1,0-2,0.9-2,2c0,1.1,0.9,2,2,2c1.1,0,2-0.9,2-2C496.5,53.2,495.6,52.3,494.5,52.3z       M493.9,52.8c0.2-0.1,0.4-0.2,0.7-0.2v0c0.2,0,0.5,0.1,0.7,0.2c0.1,0,0.1,0.2,0.1,0.2c0,0.1-0.2,0.3-0.2,0.3c-0.1,0-0.1,0-0.2,0      c0,0-0.2-0.1-0.3-0.1v0c-0.1,0-0.3,0.1-0.3,0.1c0,0-0.1,0-0.2,0c-0.1,0-0.2-0.2-0.2-0.3C493.8,53,493.8,52.9,493.9,52.8z       M492.9,54.4c0-0.2,0-0.4,0-0.7l0,0c0.1-0.2,0.2-0.4,0.4-0.6c0.1-0.1,0.2,0,0.3,0c0.1,0,0.2,0.2,0.2,0.3c0,0.1,0,0.1,0,0.2      c0,0-0.1,0.2-0.2,0.3l0,0c0,0.1,0,0.3,0,0.3c0,0,0,0.1-0.1,0.2c0,0-0.3,0.1-0.4,0.1C493.1,54.6,493,54.5,492.9,54.4z       M494.4,55.6c0,0.1-0.1,0.2-0.2,0.2c-0.2,0-0.4-0.1-0.6-0.3l0,0c-0.2-0.1-0.3-0.3-0.4-0.5c0-0.1,0-0.2,0.1-0.2      c0.1-0.1,0.3-0.1,0.4-0.1c0.1,0,0.1,0.1,0.2,0.1c0,0,0.1,0.2,0.2,0.2l0,0c0.1,0.1,0.2,0.1,0.3,0.1c0,0,0.1,0.1,0.1,0.1      C494.4,55.3,494.4,55.5,494.4,55.6z M494,54.2c0-0.3,0.2-0.5,0.5-0.5s0.5,0.2,0.5,0.5c0,0.3-0.2,0.5-0.5,0.5S494,54.5,494,54.2z       M495.4,55.5L495.4,55.5c-0.2,0.1-0.4,0.2-0.6,0.3c-0.1,0-0.2-0.1-0.2-0.2c0-0.1,0-0.3,0-0.4c0-0.1,0.1-0.1,0.1-0.1      c0,0,0.2-0.1,0.3-0.1l0,0c0.1-0.1,0.2-0.2,0.2-0.2c0,0,0.1-0.1,0.2-0.1c0.1,0,0.3,0.1,0.4,0.1c0.1,0.1,0.1,0.2,0.1,0.2      C495.8,55.2,495.6,55.4,495.4,55.5z M495.8,54.6c-0.1,0-0.3-0.1-0.4-0.1c0,0-0.1-0.1-0.1-0.2c0,0,0-0.2,0-0.3l0,0      c0-0.1-0.1-0.2-0.2-0.3c0,0,0-0.1,0-0.2c0-0.1,0.2-0.3,0.2-0.3c0.1,0,0.2-0.1,0.3,0c0.2,0.1,0.3,0.3,0.4,0.6l0,0      c0.1,0.2,0.1,0.5,0,0.7C496,54.5,495.9,54.6,495.8,54.6z"/>
			</g>
		</g>
	</g>
	<g>
		<g>
			<path class="st4" d="M494.5,43.2c-1.7,0-3,1.4-3,3s1.4,3,3,3c1.7,0,3-1.4,3-3S496.2,43.2,494.5,43.2z M494.5,48.8     c-1.4,0-2.5-1.1-2.5-2.5c0-1.4,1.1-2.5,2.5-2.5s2.5,1.1,2.5,2.5C497,47.7,495.9,48.8,494.5,48.8z"/>
			<g>
				<circle class="st4" cx="494.5" cy="46.3" r="0.2"/>
				<path class="st4" d="M494.5,44.3c-1.1,0-2,0.9-2,2c0,1.1,0.9,2,2,2c1.1,0,2-0.9,2-2C496.5,45.2,495.6,44.3,494.5,44.3z       M493.9,44.9c0.2-0.1,0.4-0.2,0.7-0.2v0c0.2,0,0.5,0.1,0.7,0.2c0.1,0,0.1,0.2,0.1,0.2c0,0.1-0.2,0.3-0.2,0.3c-0.1,0-0.1,0-0.2,0      c0,0-0.2-0.1-0.3-0.1v0c-0.1,0-0.3,0.1-0.3,0.1c0,0-0.1,0-0.2,0c-0.1,0-0.2-0.2-0.2-0.3C493.8,45,493.8,44.9,493.9,44.9z       M492.9,46.5c0-0.2,0-0.4,0-0.7l0,0c0.1-0.2,0.2-0.4,0.4-0.6c0.1-0.1,0.2,0,0.3,0c0.1,0,0.2,0.2,0.2,0.3c0,0.1,0,0.1,0,0.2      c0,0-0.1,0.2-0.2,0.3l0,0c0,0.1,0,0.3,0,0.3c0,0,0,0.1-0.1,0.2c0,0-0.3,0.1-0.4,0.1C493.1,46.6,493,46.5,492.9,46.5z       M494.4,47.7c0,0.1-0.1,0.2-0.2,0.2c-0.2,0-0.4-0.1-0.6-0.3l0,0c-0.2-0.1-0.3-0.3-0.4-0.5c0-0.1,0-0.2,0.1-0.2      c0.1-0.1,0.3-0.1,0.4-0.1c0.1,0,0.1,0.1,0.2,0.1c0,0,0.1,0.2,0.2,0.2l0,0c0.1,0.1,0.2,0.1,0.3,0.1c0,0,0.1,0.1,0.1,0.1      C494.4,47.3,494.4,47.6,494.4,47.7z M494,46.3c0-0.3,0.2-0.5,0.5-0.5s0.5,0.2,0.5,0.5c0,0.3-0.2,0.5-0.5,0.5S494,46.6,494,46.3z       M495.4,47.6L495.4,47.6c-0.2,0.1-0.4,0.2-0.6,0.3c-0.1,0-0.2-0.1-0.2-0.2c0-0.1,0-0.3,0-0.4c0-0.1,0.1-0.1,0.1-0.1      c0,0,0.2-0.1,0.3-0.1l0,0c0.1-0.1,0.2-0.2,0.2-0.2c0,0,0.1-0.1,0.2-0.1c0.1,0,0.3,0.1,0.4,0.1c0.1,0.1,0.1,0.2,0.1,0.2      C495.8,47.2,495.6,47.4,495.4,47.6z M495.8,46.6c-0.1,0-0.3-0.1-0.4-0.1c0,0-0.1-0.1-0.1-0.2c0,0,0-0.2,0-0.3l0,0      c0-0.1-0.1-0.2-0.2-0.3c0,0,0-0.1,0-0.2c0-0.1,0.2-0.3,0.2-0.3c0.1,0,0.2-0.1,0.3,0c0.2,0.1,0.3,0.3,0.4,0.6l0,0      c0.1,0.2,0.1,0.5,0,0.7C496,46.6,495.9,46.6,495.8,46.6z"/>
			</g>
		</g>
	</g>
	<g>
		<g>
			<path class="st4" d="M500.1,43.2c-1.7,0-3,1.4-3,3s1.4,3,3,3c1.7,0,3-1.4,3-3S501.7,43.2,500.1,43.2z M500.1,48.8     c-1.4,0-2.5-1.1-2.5-2.5c0-1.4,1.1-2.5,2.5-2.5s2.5,1.1,2.5,2.5C502.6,47.7,501.4,48.8,500.1,48.8z"/>
			<g>
				<circle class="st4" cx="500.1" cy="46.3" r="0.2"/>
				<path class="st4" d="M500.1,44.3c-1.1,0-2,0.9-2,2c0,1.1,0.9,2,2,2c1.1,0,2-0.9,2-2C502,45.2,501.1,44.3,500.1,44.3z       M499.4,44.9c0.2-0.1,0.4-0.2,0.7-0.2v0c0.2,0,0.5,0.1,0.7,0.2c0.1,0,0.1,0.2,0.1,0.2c0,0.1-0.2,0.3-0.2,0.3c-0.1,0-0.1,0-0.2,0      c0,0-0.2-0.1-0.3-0.1v0c-0.1,0-0.3,0.1-0.3,0.1c0,0-0.1,0-0.2,0c-0.1,0-0.2-0.2-0.2-0.3C499.3,45,499.3,44.9,499.4,44.9z       M498.5,46.5c0-0.2,0-0.4,0-0.7l0,0c0.1-0.2,0.2-0.4,0.4-0.6c0.1-0.1,0.2,0,0.3,0c0.1,0,0.2,0.2,0.2,0.3c0,0.1,0,0.1,0,0.2      c0,0-0.1,0.2-0.2,0.3l0,0c0,0.1,0,0.3,0,0.3c0,0,0,0.1-0.1,0.2c0,0-0.3,0.1-0.4,0.1C498.6,46.6,498.5,46.5,498.5,46.5z       M499.9,47.7c0,0.1-0.1,0.2-0.2,0.2c-0.2,0-0.4-0.1-0.6-0.3l0,0c-0.2-0.1-0.3-0.3-0.4-0.5c0-0.1,0-0.2,0.1-0.2      c0.1-0.1,0.3-0.1,0.4-0.1c0.1,0,0.1,0.1,0.2,0.1c0,0,0.1,0.2,0.2,0.2l0,0c0.1,0.1,0.2,0.1,0.3,0.1c0,0,0.1,0.1,0.1,0.1      C500,47.3,500,47.6,499.9,47.7z M499.5,46.3c0-0.3,0.2-0.5,0.5-0.5s0.5,0.2,0.5,0.5c0,0.3-0.2,0.5-0.5,0.5      S499.5,46.6,499.5,46.3z M501,47.6L501,47.6c-0.2,0.1-0.4,0.2-0.6,0.3c-0.1,0-0.2-0.1-0.2-0.2c0-0.1,0-0.3,0-0.4      c0-0.1,0.1-0.1,0.1-0.1c0,0,0.2-0.1,0.3-0.1l0,0c0.1-0.1,0.2-0.2,0.2-0.2c0,0,0.1-0.1,0.2-0.1c0.1,0,0.3,0.1,0.4,0.1      c0.1,0.1,0.1,0.2,0.1,0.2C501.3,47.2,501.2,47.4,501,47.6z M501.4,46.6c-0.1,0-0.3-0.1-0.4-0.1c0,0-0.1-0.1-0.1-0.2      c0,0,0-0.2,0-0.3l0,0c0-0.1-0.1-0.2-0.2-0.3c0,0,0-0.1,0-0.2c0-0.1,0.2-0.3,0.2-0.3c0.1,0,0.2-0.1,0.3,0      c0.2,0.1,0.3,0.3,0.4,0.6l0,0c0.1,0.2,0.1,0.5,0,0.7C501.6,46.6,501.5,46.6,501.4,46.6z"/>
			</g>
		</g>
	</g>
</g>
</svg>