<?xml version="1.0" encoding="utf-8"?>
<!-- Generator: Adobe Illustrator 19.1.0, SVG Export Plug-In . SVG Version: 6.00 Build 0)  -->
<svg version="1.0" xmlns="http://www.w3.org/2000/svg" xmlns:xlink="http://www.w3.org/1999/xlink" x="0px" y="0px" width="1200" height="800"
 viewBox="516 69 100 80" xml:space="preserve">
<style type="text/css">
	.st0{fill:#F2F2F2;}
	.st1{fill:#808080;}
	.st2{fill:#0B3413;}
	.st3{fill:#871008;}
	.st4{fill:#07092D;}
	.st5{fill:#870E06;}
	.st6{fill:#CC1009;}
	.st7{fill:#CC140D;}
	.st8{fill:#CC130C;}
	.st9{filter:url(#Adobe_OpacityMaskFilter);}
	.st10{mask:url(#SVGID_1_);fill:#07092D;}
	.st11{filter:url(#Adobe_OpacityMaskFilter_1_);}
	.st12{mask:url(#SVGID_2_);fill:#07092D;}
</style>
<g>
	<g>
		<path class="st0" d="M511.6,98c-1,0-1.9-0.8-1.9-1.9v-22c0-1,0.8-1.9,1.9-1.9h15c1,0,1.9,0.8,1.9,1.9v22c0,1-0.8,1.9-1.9,1.9    H511.6z"/>
		<path class="st1" d="M526.6,72.4c1,0,1.8,0.8,1.8,1.8v22c0,1-0.8,1.8-1.8,1.8h-15c-1,0-1.8-0.8-1.8-1.8v-22c0-1,0.8-1.8,1.8-1.8    H526.6 M526.6,72.2h-15c-1.1,0-2,0.9-2,2v22c0,1.1,0.9,2,2,2h15c1.1,0,2-0.9,2-2v-22C528.6,73.1,527.7,72.2,526.6,72.2L526.6,72.2    z"/>
	</g>
	<g>
		<path class="st3" d="M517.2,75.3c0-0.4,0.6-0.6,1.9-0.6c1.3,0,1.9,0.2,1.9,0.6c0,0.3-0.3,0.6-0.8,0.9v1c0.5,0.2,0.8,0.4,0.8,0.7    c0,0.3-0.3,0.6-0.8,0.7v1c0.5,0.3,0.8,0.6,0.8,0.9c0,0.4-0.6,0.6-1.9,0.6c-1.3,0-1.9-0.2-1.9-0.6c0-0.3,0.3-0.6,0.8-0.9v-1    c-0.5-0.2-0.8-0.4-0.8-0.7c0-0.3,0.3-0.6,0.8-0.7v-1C517.5,75.9,517.2,75.6,517.2,75.3z M518.6,75.3V77c0.1,0,0.3,0,0.5,0    c0.2,0,0.4,0,0.5,0v-1.7c-0.1,0-0.3,0-0.5,0C518.9,75.3,518.7,75.3,518.6,75.3z M518.6,78.5c0.1,0,0.2,0,0.3,0c0.1,0,0.2,0,0.2,0    c0,0,0.1,0,0.2,0c0.1,0,0.2,0,0.3,0v-1.1c-0.1,0-0.2,0-0.3,0c-0.1,0-0.2,0-0.2,0c0,0-0.1,0-0.2,0c-0.1,0-0.2,0-0.3,0V78.5z     M519.6,80.5v-1.7c-0.1,0-0.3,0-0.5,0c-0.2,0-0.4,0-0.5,0v1.7c0.1,0,0.3,0,0.5,0C519.3,80.5,519.5,80.5,519.6,80.5z"/>
		<path class="st2" d="M512.1,82.5c0-0.4,0.6-0.6,1.9-0.6c1.3,0,1.9,0.2,1.9,0.6c0,0.3-0.3,0.6-0.8,0.9v1c0.5,0.2,0.8,0.4,0.8,0.7    c0,0.3-0.3,0.6-0.8,0.7v1c0.5,0.3,0.8,0.6,0.8,0.9c0,0.4-0.6,0.6-1.9,0.6c-1.3,0-1.9-0.2-1.9-0.6c0-0.3,0.3-0.6,0.8-0.9v-1    c-0.5-0.2-0.8-0.4-0.8-0.7c0-0.3,0.3-0.6,0.8-0.7v-1C512.4,83.2,512.1,82.9,512.1,82.5z M512.1,89.8c0-0.4,0.6-0.6,1.9-0.6    c1.3,0,1.9,0.2,1.9,0.6c0,0.3-0.3,0.6-0.8,0.9v1c0.5,0.2,0.8,0.4,0.8,0.7c0,0.3-0.3,0.6-0.8,0.7v1c0.5,0.3,0.8,0.6,0.8,0.9    c0,0.4-0.6,0.6-1.9,0.6c-1.3,0-1.9-0.2-1.9-0.6c0-0.3,0.3-0.6,0.8-0.9v-1c-0.5-0.2-0.8-0.4-0.8-0.7c0-0.3,0.3-0.6,0.8-0.7v-1    C512.4,90.4,512.1,90.1,512.1,89.8z M513.5,82.5v1.7c0.1,0,0.3,0,0.5,0c0.2,0,0.4,0,0.5,0v-1.7c-0.1,0-0.3,0-0.5,0    C513.8,82.5,513.6,82.5,513.5,82.5z M513.5,85.7c0,0,0.1,0,0.2,0c0.1,0,0.2,0,0.3,0c0.1,0,0.2,0,0.3,0c0.1,0,0.2,0,0.2,0v-1.1    c0,0-0.1,0-0.2,0c-0.1,0-0.2,0-0.3,0c-0.1,0-0.2,0-0.3,0c-0.1,0-0.2,0-0.2,0V85.7z M514.5,87.8V86c-0.1,0-0.3,0-0.5,0    c-0.2,0-0.4,0-0.5,0v1.7c0.1,0,0.3,0,0.5,0C514.2,87.8,514.4,87.8,514.5,87.8z M513.5,89.8v1.7c0.1,0,0.3,0,0.5,0    c0.2,0,0.4,0,0.5,0v-1.7c-0.1,0-0.3,0-0.5,0C513.8,89.8,513.6,89.8,513.5,89.8z M513.5,93c0,0,0.1,0,0.2,0c0.1,0,0.2,0,0.3,0    c0.1,0,0.2,0,0.3,0c0.1,0,0.2,0,0.2,0v-1.1c0,0-0.1,0-0.2,0c-0.1,0-0.2,0-0.3,0c-0.1,0-0.2,0-0.3,0c-0.1,0-0.2,0-0.2,0V93z     M514.5,95v-1.7c-0.1,0-0.3,0-0.5,0c-0.2,0-0.4,0-0.5,0V95c0.1,0,0.3,0,0.5,0C514.2,95.1,514.4,95,514.5,95z M517.2,82.5    c0-0.4,0.6-0.6,1.9-0.6c1.3,0,1.9,0.2,1.9,0.6c0,0.3-0.3,0.6-0.8,0.9v1c0.5,0.2,0.8,0.4,0.8,0.7c0,0.3-0.3,0.6-0.8,0.7v1    c0.5,0.3,0.8,0.6,0.8,0.9c0,0.4-0.6,0.6-1.9,0.6c-1.3,0-1.9-0.2-1.9-0.6c0-0.3,0.3-0.6,0.8-0.9v-1c-0.5-0.2-0.8-0.4-0.8-0.7    c0-0.3,0.3-0.6,0.8-0.7v-1C517.5,83.2,517.2,82.9,517.2,82.5z M517.2,89.8c0-0.4,0.6-0.6,1.9-0.6c1.3,0,1.9,0.2,1.9,0.6    c0,0.3-0.3,0.6-0.8,0.9v1c0.5,0.2,0.8,0.4,0.8,0.7c0,0.3-0.3,0.6-0.8,0.7v1c0.5,0.3,0.8,0.6,0.8,0.9c0,0.4-0.6,0.6-1.9,0.6    c-1.3,0-1.9-0.2-1.9-0.6c0-0.3,0.3-0.6,0.8-0.9v-1c-0.5-0.2-0.8-0.4-0.8-0.7c0-0.3,0.3-0.6,0.8-0.7v-1    C517.5,90.4,517.2,90.1,517.2,89.8z M518.6,82.5v1.7c0.1,0,0.3,0,0.5,0c0.2,0,0.4,0,0.5,0v-1.7c-0.1,0-0.3,0-0.5,0    C518.9,82.5,518.7,82.5,518.6,82.5z M518.6,85.7c0.1,0,0.2,0,0.3,0c0.1,0,0.2,0,0.2,0c0,0,0.1,0,0.2,0c0.1,0,0.2,0,0.3,0v-1.1    c-0.1,0-0.2,0-0.3,0c-0.1,0-0.2,0-0.2,0c0,0-0.1,0-0.2,0c-0.1,0-0.2,0-0.3,0V85.7z M519.6,87.8V86c-0.1,0-0.3,0-0.5,0    c-0.2,0-0.4,0-0.5,0v1.7c0.1,0,0.3,0,0.5,0C519.3,87.8,519.5,87.8,519.6,87.8z M518.6,89.8v1.7c0.1,0,0.3,0,0.5,0    c0.2,0,0.4,0,0.5,0v-1.7c-0.1,0-0.3,0-0.5,0C518.9,89.8,518.7,89.8,518.6,89.8z M518.6,93c0.1,0,0.2,0,0.3,0c0.1,0,0.2,0,0.2,0    c0,0,0.1,0,0.2,0c0.1,0,0.2,0,0.3,0v-1.1c-0.1,0-0.2,0-0.3,0c-0.1,0-0.2,0-0.2,0c0,0-0.1,0-0.2,0c-0.1,0-0.2,0-0.3,0V93z     M519.6,95v-1.7c-0.1,0-0.3,0-0.5,0c-0.2,0-0.4,0-0.5,0V95c0.1,0,0.3,0,0.5,0C519.3,95.1,519.5,95,519.6,95z M522.3,82.5    c0-0.4,0.6-0.6,1.9-0.6c1.3,0,1.9,0.2,1.9,0.6c0,0.3-0.3,0.6-0.8,0.9v1c0.5,0.2,0.8,0.4,0.8,0.7c0,0.3-0.3,0.6-0.8,0.7v1    c0.5,0.3,0.8,0.6,0.8,0.9c0,0.4-0.6,0.6-1.9,0.6c-1.3,0-1.9-0.2-1.9-0.6c0-0.3,0.3-0.6,0.8-0.9v-1c-0.5-0.2-0.8-0.4-0.8-0.7    c0-0.3,0.3-0.6,0.8-0.7v-1C522.6,83.2,522.3,82.9,522.3,82.5z M522.3,89.8c0-0.4,0.6-0.6,1.9-0.6c1.3,0,1.9,0.2,1.9,0.6    c0,0.3-0.3,0.6-0.8,0.9v1c0.5,0.2,0.8,0.4,0.8,0.7c0,0.3-0.3,0.6-0.8,0.7v1c0.5,0.3,0.8,0.6,0.8,0.9c0,0.4-0.6,0.6-1.9,0.6    c-1.3,0-1.9-0.2-1.9-0.6c0-0.3,0.3-0.6,0.8-0.9v-1c-0.5-0.2-0.8-0.4-0.8-0.7c0-0.3,0.3-0.6,0.8-0.7v-1    C522.6,90.4,522.3,90.1,522.3,89.8z M523.7,82.5v1.7c0.1,0,0.3,0,0.5,0c0.2,0,0.4,0,0.5,0v-1.7c-0.1,0-0.3,0-0.5,0    C524,82.5,523.8,82.5,523.7,82.5z M523.7,85.7c0,0,0.1,0,0.2,0c0.1,0,0.2,0,0.3,0c0.1,0,0.2,0,0.3,0c0.1,0,0.2,0,0.2,0v-1.1    c0,0-0.1,0-0.2,0c-0.1,0-0.2,0-0.3,0c-0.1,0-0.2,0-0.3,0c-0.1,0-0.2,0-0.2,0V85.7z M524.7,87.8V86c-0.1,0-0.3,0-0.5,0    c-0.2,0-0.4,0-0.5,0v1.7c0.1,0,0.3,0,0.5,0C524.4,87.8,524.6,87.8,524.7,87.8z M523.7,89.8v1.7c0.1,0,0.3,0,0.5,0    c0.2,0,0.4,0,0.5,0v-1.7c-0.1,0-0.3,0-0.5,0C524,89.8,523.8,89.8,523.7,89.8z M523.7,93c0,0,0.1,0,0.2,0c0.1,0,0.2,0,0.3,0    c0.1,0,0.2,0,0.3,0c0.1,0,0.2,0,0.2,0v-1.1c0,0-0.1,0-0.2,0c-0.1,0-0.2,0-0.3,0c-0.1,0-0.2,0-0.3,0c-0.1,0-0.2,0-0.2,0V93z     M524.7,95v-1.7c-0.1,0-0.3,0-0.5,0c-0.2,0-0.4,0-0.5,0V95c0.1,0,0.3,0,0.5,0C524.4,95.1,524.6,95,524.7,95z"/>
	</g>
</g>
</svg>