<?xml version="1.0" encoding="utf-8"?>
<!-- Generator: Adobe Illustrator 19.1.0, SVG Export Plug-In . SVG Version: 6.00 Build 0)  -->
<svg version="1.0" xmlns="http://www.w3.org/2000/svg" xmlns:xlink="http://www.w3.org/1999/xlink" x="0px" y="0px" width="1200" height="800"
 viewBox="516 37 100 80" xml:space="preserve">
<style type="text/css">
	.st0{fill:#F2F2F2;}
	.st1{fill:#808080;}
	.st2{fill:#0B3413;}
	.st3{fill:#871008;}
	.st4{fill:#07092D;}
	.st5{fill:#870E06;}
	.st6{fill:#CC1009;}
	.st7{fill:#CC140D;}
	.st8{fill:#CC130C;}
	.st9{filter:url(#Adobe_OpacityMaskFilter);}
	.st10{mask:url(#SVGID_1_);fill:#07092D;}
	.st11{filter:url(#Adobe_OpacityMaskFilter_1_);}
	.st12{mask:url(#SVGID_2_);fill:#07092D;}
</style>
<g>
	<g>
		<path class="st0" d="M511.6,65.9c-1,0-1.9-0.8-1.9-1.9V42c0-1,0.8-1.9,1.9-1.9h15c1,0,1.9,0.8,1.9,1.9v22c0,1-0.8,1.9-1.9,1.9    H511.6z"/>
		<path class="st1" d="M526.6,40.3c1,0,1.8,0.8,1.8,1.8v22c0,1-0.8,1.8-1.8,1.8h-15c-1,0-1.8-0.8-1.8-1.8V42c0-1,0.8-1.8,1.8-1.8    H526.6 M526.6,40h-15c-1.1,0-2,0.9-2,2v22c0,1.1,0.9,2,2,2h15c1.1,0,2-0.9,2-2V42C528.6,40.9,527.7,40,526.6,40L526.6,40z"/>
	</g>
	<g>
		<g>
			<path class="st4" d="M521.9,58.1c-1.7,0-3,1.4-3,3c0,1.7,1.4,3,3,3c1.7,0,3-1.4,3-3C524.9,59.5,523.6,58.1,521.9,58.1z      M521.9,63.7c-1.4,0-2.5-1.1-2.5-2.5c0-1.4,1.1-2.5,2.5-2.5s2.5,1.1,2.5,2.5C524.4,62.6,523.3,63.7,521.9,63.7z"/>
			<g>
				<circle class="st3" cx="521.9" cy="61.2" r="0.2"/>
				<path class="st3" d="M521.9,59.2c-1.1,0-2,0.9-2,2c0,1.1,0.9,2,2,2c1.1,0,2-0.9,2-2C523.9,60.1,523,59.2,521.9,59.2z       M521.2,59.7c0.2-0.1,0.4-0.2,0.7-0.2v0c0.2,0,0.5,0.1,0.7,0.2c0.1,0,0.1,0.2,0.1,0.2c0,0.1-0.2,0.3-0.2,0.3c-0.1,0-0.1,0-0.2,0      c0,0-0.2-0.1-0.3-0.1v0c-0.1,0-0.3,0.1-0.3,0.1c0,0-0.1,0-0.2,0c-0.1,0-0.2-0.2-0.2-0.3C521.1,59.9,521.2,59.8,521.2,59.7z       M520.3,61.3c0-0.2,0-0.4,0-0.7l0,0c0.1-0.2,0.2-0.4,0.4-0.6c0.1-0.1,0.2,0,0.3,0c0.1,0,0.2,0.2,0.2,0.3c0,0.1,0,0.1,0,0.2      c0,0-0.1,0.2-0.2,0.3l0,0c0,0.1,0,0.3,0,0.3c0,0,0,0.1-0.1,0.2c0,0-0.3,0.1-0.4,0.1C520.5,61.5,520.3,61.4,520.3,61.3z       M521.8,62.5c0,0.1-0.1,0.2-0.2,0.2c-0.2,0-0.4-0.1-0.6-0.3l0,0c-0.2-0.1-0.3-0.3-0.4-0.5c0-0.1,0-0.2,0.1-0.2      c0.1-0.1,0.3-0.1,0.4-0.1c0.1,0,0.1,0.1,0.2,0.1c0,0,0.1,0.2,0.2,0.2l0,0c0.1,0.1,0.2,0.1,0.3,0.1s0.1,0.1,0.1,0.1      C521.8,62.2,521.8,62.5,521.8,62.5z M521.3,61.2c0-0.3,0.2-0.5,0.5-0.5s0.5,0.2,0.5,0.5c0,0.3-0.2,0.5-0.5,0.5      S521.3,61.5,521.3,61.2z M522.8,62.5L522.8,62.5c-0.2,0.1-0.4,0.2-0.6,0.3c-0.1,0-0.2-0.1-0.2-0.2c0-0.1,0-0.3,0-0.4      c0-0.1,0.1-0.1,0.1-0.1c0,0,0.2-0.1,0.3-0.1l0,0c0.1-0.1,0.2-0.2,0.2-0.2c0,0,0.1-0.1,0.2-0.1c0.1,0,0.3,0.1,0.4,0.1      c0.1,0.1,0.1,0.2,0.1,0.2C523.2,62.1,523,62.3,522.8,62.5z M523.2,61.5c-0.1,0-0.3-0.1-0.4-0.1c0,0-0.1-0.1-0.1-0.2      c0,0,0-0.2,0-0.3l0,0c0-0.1-0.1-0.2-0.2-0.3c0,0,0-0.1,0-0.2c0-0.1,0.2-0.3,0.2-0.3c0.1,0,0.2-0.1,0.3,0      c0.2,0.1,0.3,0.3,0.4,0.6l0,0c0.1,0.2,0.1,0.5,0,0.7C523.4,61.4,523.3,61.5,523.2,61.5z"/>
			</g>
		</g>
	</g>
	<g>
		<g>
			<path class="st4" d="M516.3,58.1c-1.7,0-3,1.4-3,3c0,1.7,1.4,3,3,3s3-1.4,3-3C519.4,59.5,518,58.1,516.3,58.1z M516.3,63.7     c-1.4,0-2.5-1.1-2.5-2.5c0-1.4,1.1-2.5,2.5-2.5s2.5,1.1,2.5,2.5C518.8,62.6,517.7,63.7,516.3,63.7z"/>
			<g>
				<circle class="st3" cx="516.3" cy="61.2" r="0.2"/>
				<path class="st3" d="M516.3,59.2c-1.1,0-2,0.9-2,2c0,1.1,0.9,2,2,2s2-0.9,2-2C518.3,60.1,517.4,59.2,516.3,59.2z M515.7,59.7      c0.2-0.1,0.4-0.2,0.7-0.2v0c0.2,0,0.5,0.1,0.7,0.2c0.1,0,0.1,0.2,0.1,0.2c0,0.1-0.2,0.3-0.2,0.3c-0.1,0-0.1,0-0.2,0      c0,0-0.2-0.1-0.3-0.1v0c-0.1,0-0.3,0.1-0.3,0.1c0,0-0.1,0-0.2,0c-0.1,0-0.2-0.2-0.2-0.3C515.6,59.9,515.6,59.8,515.7,59.7z       M514.8,61.3c0-0.2,0-0.4,0-0.7l0,0c0.1-0.2,0.2-0.4,0.4-0.6c0.1-0.1,0.2,0,0.3,0c0.1,0,0.2,0.2,0.2,0.3c0,0.1,0,0.1,0,0.2      c0,0-0.1,0.2-0.2,0.3l0,0c0,0.1,0,0.3,0,0.3c0,0,0,0.1-0.1,0.2c0,0-0.3,0.1-0.4,0.1C514.9,61.5,514.8,61.4,514.8,61.3z       M516.2,62.5c0,0.1-0.1,0.2-0.2,0.2c-0.2,0-0.4-0.1-0.6-0.3l0,0c-0.2-0.1-0.3-0.3-0.4-0.5c0-0.1,0-0.2,0.1-0.2      c0.1-0.1,0.3-0.1,0.4-0.1c0.1,0,0.1,0.1,0.2,0.1c0,0,0.1,0.2,0.2,0.2l0,0c0.1,0.1,0.2,0.1,0.3,0.1c0,0,0.1,0.1,0.1,0.1      C516.3,62.2,516.2,62.5,516.2,62.5z M515.8,61.2c0-0.3,0.2-0.5,0.5-0.5s0.5,0.2,0.5,0.5c0,0.3-0.2,0.5-0.5,0.5      S515.8,61.5,515.8,61.2z M517.3,62.5L517.3,62.5c-0.2,0.1-0.4,0.2-0.6,0.3c-0.1,0-0.2-0.1-0.2-0.2c0-0.1,0-0.3,0-0.4      c0-0.1,0.1-0.1,0.1-0.1c0,0,0.2-0.1,0.3-0.1l0,0c0.1-0.1,0.2-0.2,0.2-0.2c0,0,0.1-0.1,0.2-0.1c0.1,0,0.3,0.1,0.4,0.1      c0.1,0.1,0.1,0.2,0.1,0.2C517.6,62.1,517.4,62.3,517.3,62.5z M517.7,61.5c-0.1,0-0.3-0.1-0.4-0.1c0,0-0.1-0.1-0.1-0.2      c0,0,0-0.2,0-0.3l0,0c0-0.1-0.1-0.2-0.2-0.3c0,0,0-0.1,0-0.2c0-0.1,0.2-0.3,0.2-0.3c0.1,0,0.2-0.1,0.3,0      c0.2,0.1,0.3,0.3,0.4,0.6l0,0c0.1,0.2,0.1,0.5,0,0.7C517.9,61.4,517.8,61.5,517.7,61.5z"/>
			</g>
		</g>
	</g>
	<g>
		<g>
			<path class="st4" d="M521.9,52.6c-1.7,0-3,1.4-3,3s1.4,3,3,3c1.7,0,3-1.4,3-3S523.6,52.6,521.9,52.6z M521.9,58.1     c-1.4,0-2.5-1.1-2.5-2.5c0-1.4,1.1-2.5,2.5-2.5s2.5,1.1,2.5,2.5C524.4,57,523.3,58.1,521.9,58.1z"/>
			<g>
				<circle class="st3" cx="521.9" cy="55.6" r="0.2"/>
				<path class="st3" d="M521.9,53.6c-1.1,0-2,0.9-2,2c0,1.1,0.9,2,2,2c1.1,0,2-0.9,2-2C523.9,54.5,523,53.6,521.9,53.6z       M521.2,54.2c0.2-0.1,0.4-0.2,0.7-0.2v0c0.2,0,0.5,0.1,0.7,0.2c0.1,0,0.1,0.2,0.1,0.2c0,0.1-0.2,0.3-0.2,0.3c-0.1,0-0.1,0-0.2,0      c0,0-0.2-0.1-0.3-0.1v0c-0.1,0-0.3,0.1-0.3,0.1c0,0-0.1,0-0.2,0c-0.1,0-0.2-0.2-0.2-0.3C521.1,54.4,521.2,54.2,521.2,54.2z       M520.3,55.8c0-0.2,0-0.4,0-0.7l0,0c0.1-0.2,0.2-0.4,0.4-0.6c0.1-0.1,0.2,0,0.3,0c0.1,0,0.2,0.2,0.2,0.3c0,0.1,0,0.1,0,0.2      c0,0-0.1,0.2-0.2,0.3l0,0c0,0.1,0,0.3,0,0.3c0,0,0,0.1-0.1,0.2c0,0-0.3,0.1-0.4,0.1C520.5,55.9,520.3,55.9,520.3,55.8z       M521.8,57c0,0.1-0.1,0.2-0.2,0.2c-0.2,0-0.4-0.1-0.6-0.3l0,0c-0.2-0.1-0.3-0.3-0.4-0.5c0-0.1,0-0.2,0.1-0.2      c0.1-0.1,0.3-0.1,0.4-0.1c0.1,0,0.1,0.1,0.2,0.1c0,0,0.1,0.2,0.2,0.2l0,0c0.1,0.1,0.2,0.1,0.3,0.1s0.1,0.1,0.1,0.1      C521.8,56.7,521.8,56.9,521.8,57z M521.3,55.6c0-0.3,0.2-0.5,0.5-0.5s0.5,0.2,0.5,0.5c0,0.3-0.2,0.5-0.5,0.5      S521.3,55.9,521.3,55.6z M522.8,56.9L522.8,56.9c-0.2,0.1-0.4,0.2-0.6,0.3c-0.1,0-0.2-0.1-0.2-0.2c0-0.1,0-0.3,0-0.4      c0-0.1,0.1-0.1,0.1-0.1c0,0,0.2-0.1,0.3-0.1l0,0c0.1-0.1,0.2-0.2,0.2-0.2c0,0,0.1-0.1,0.2-0.1c0.1,0,0.3,0.1,0.4,0.1      c0.1,0.1,0.1,0.2,0.1,0.2C523.2,56.6,523,56.8,522.8,56.9z M523.2,55.9c-0.1,0-0.3-0.1-0.4-0.1c0,0-0.1-0.1-0.1-0.2      c0,0,0-0.2,0-0.3l0,0c0-0.1-0.1-0.2-0.2-0.3c0,0,0-0.1,0-0.2c0-0.1,0.2-0.3,0.2-0.3c0.1,0,0.2-0.1,0.3,0      c0.2,0.1,0.3,0.3,0.4,0.6l0,0c0.1,0.2,0.1,0.5,0,0.7C523.4,55.9,523.3,55.9,523.2,55.9z"/>
			</g>
		</g>
	</g>
	<g>
		<g>
			<path class="st4" d="M516.3,52.6c-1.7,0-3,1.4-3,3s1.4,3,3,3s3-1.4,3-3S518,52.6,516.3,52.6z M516.3,58.1c-1.4,0-2.5-1.1-2.5-2.5     c0-1.4,1.1-2.5,2.5-2.5s2.5,1.1,2.5,2.5C518.8,57,517.7,58.1,516.3,58.1z"/>
			<g>
				<circle class="st3" cx="516.3" cy="55.6" r="0.2"/>
				<path class="st3" d="M516.3,53.6c-1.1,0-2,0.9-2,2c0,1.1,0.9,2,2,2s2-0.9,2-2C518.3,54.5,517.4,53.6,516.3,53.6z M515.7,54.2      c0.2-0.1,0.4-0.2,0.7-0.2v0c0.2,0,0.5,0.1,0.7,0.2c0.1,0,0.1,0.2,0.1,0.2c0,0.1-0.2,0.3-0.2,0.3c-0.1,0-0.1,0-0.2,0      c0,0-0.2-0.1-0.3-0.1v0c-0.1,0-0.3,0.1-0.3,0.1c0,0-0.1,0-0.2,0c-0.1,0-0.2-0.2-0.2-0.3C515.6,54.4,515.6,54.2,515.7,54.2z       M514.8,55.8c0-0.2,0-0.4,0-0.7l0,0c0.1-0.2,0.2-0.4,0.4-0.6c0.1-0.1,0.2,0,0.3,0c0.1,0,0.2,0.2,0.2,0.3c0,0.1,0,0.1,0,0.2      c0,0-0.1,0.2-0.2,0.3l0,0c0,0.1,0,0.3,0,0.3c0,0,0,0.1-0.1,0.2c0,0-0.3,0.1-0.4,0.1C514.9,55.9,514.8,55.9,514.8,55.8z       M516.2,57c0,0.1-0.1,0.2-0.2,0.2c-0.2,0-0.4-0.1-0.6-0.3l0,0c-0.2-0.1-0.3-0.3-0.4-0.5c0-0.1,0-0.2,0.1-0.2      c0.1-0.1,0.3-0.1,0.4-0.1c0.1,0,0.1,0.1,0.2,0.1c0,0,0.1,0.2,0.2,0.2l0,0c0.1,0.1,0.2,0.1,0.3,0.1c0,0,0.1,0.1,0.1,0.1      C516.3,56.7,516.2,56.9,516.2,57z M515.8,55.6c0-0.3,0.2-0.5,0.5-0.5s0.5,0.2,0.5,0.5c0,0.3-0.2,0.5-0.5,0.5      S515.8,55.9,515.8,55.6z M517.3,56.9L517.3,56.9c-0.2,0.1-0.4,0.2-0.6,0.3c-0.1,0-0.2-0.1-0.2-0.2c0-0.1,0-0.3,0-0.4      c0-0.1,0.1-0.1,0.1-0.1c0,0,0.2-0.1,0.3-0.1l0,0c0.1-0.1,0.2-0.2,0.2-0.2c0,0,0.1-0.1,0.2-0.1c0.1,0,0.3,0.1,0.4,0.1      c0.1,0.1,0.1,0.2,0.1,0.2C517.6,56.6,517.4,56.8,517.3,56.9z M517.7,55.9c-0.1,0-0.3-0.1-0.4-0.1c0,0-0.1-0.1-0.1-0.2      c0,0,0-0.2,0-0.3l0,0c0-0.1-0.1-0.2-0.2-0.3c0,0,0-0.1,0-0.2c0-0.1,0.2-0.3,0.2-0.3c0.1,0,0.2-0.1,0.3,0      c0.2,0.1,0.3,0.3,0.4,0.6l0,0c0.1,0.2,0.1,0.5,0,0.7C517.9,55.9,517.8,55.9,517.7,55.9z"/>
			</g>
		</g>
	</g>
	<g>
		<g>
			<path class="st4" d="M514.2,41.9c-1.7,0-3,1.4-3,3c0,1.7,1.4,3,3,3c1.7,0,3-1.4,3-3C517.2,43.2,515.8,41.9,514.2,41.9z      M514.2,47.4c-1.4,0-2.5-1.1-2.5-2.5c0-1.4,1.1-2.5,2.5-2.5s2.5,1.1,2.5,2.5C516.7,46.3,515.5,47.4,514.2,47.4z"/>
			<g>
				<circle class="st4" cx="514.2" cy="44.9" r="0.2"/>
				<path class="st4" d="M514.2,42.9c-1.1,0-2,0.9-2,2c0,1.1,0.9,2,2,2c1.1,0,2-0.9,2-2C516.1,43.8,515.2,42.9,514.2,42.9z       M513.5,43.5c0.2-0.1,0.4-0.2,0.7-0.2v0c0.2,0,0.5,0.1,0.7,0.2c0.1,0,0.1,0.2,0.1,0.2c0,0.1-0.2,0.3-0.2,0.3c-0.1,0-0.1,0-0.2,0      c0,0-0.2-0.1-0.3-0.1v0c-0.1,0-0.3,0.1-0.3,0.1c0,0-0.1,0-0.2,0c-0.1,0-0.2-0.2-0.2-0.3C513.4,43.7,513.4,43.5,513.5,43.5z       M512.6,45.1c0-0.2,0-0.4,0-0.7l0,0c0.1-0.2,0.2-0.4,0.4-0.6c0.1-0.1,0.2,0,0.3,0c0.1,0,0.2,0.2,0.2,0.3c0,0.1,0,0.1,0,0.2      c0,0-0.1,0.2-0.2,0.3l0,0c0,0.1,0,0.3,0,0.3c0,0,0,0.1-0.1,0.2c0,0-0.3,0.1-0.4,0.1C512.7,45.2,512.6,45.2,512.6,45.1z       M514,46.3c0,0.1-0.1,0.2-0.2,0.2c-0.2,0-0.4-0.1-0.6-0.3l0,0c-0.2-0.1-0.3-0.3-0.4-0.5c0-0.1,0-0.2,0.1-0.2      c0.1-0.1,0.3-0.1,0.4-0.1c0.1,0,0.1,0.1,0.2,0.1c0,0,0.1,0.2,0.2,0.2l0,0c0.1,0.1,0.2,0.1,0.3,0.1c0,0,0.1,0.1,0.1,0.1      C514.1,46,514.1,46.2,514,46.3z M513.6,44.9c0-0.3,0.2-0.5,0.5-0.5s0.5,0.2,0.5,0.5c0,0.3-0.2,0.5-0.5,0.5      S513.6,45.2,513.6,44.9z M515.1,46.2L515.1,46.2c-0.2,0.1-0.4,0.2-0.6,0.3c-0.1,0-0.2-0.1-0.2-0.2c0-0.1,0-0.3,0-0.4      c0-0.1,0.1-0.1,0.1-0.1c0,0,0.2-0.1,0.3-0.1l0,0c0.1-0.1,0.2-0.2,0.2-0.2c0,0,0.1-0.1,0.2-0.1c0.1,0,0.3,0.1,0.4,0.1      c0.1,0.1,0.1,0.2,0.1,0.2C515.4,45.9,515.3,46.1,515.1,46.2z M515.5,45.2c-0.1,0-0.3-0.1-0.4-0.1c0,0-0.1-0.1-0.1-0.2      c0,0,0-0.2,0-0.3l0,0c0-0.1-0.1-0.2-0.2-0.3c0,0,0-0.1,0-0.2c0-0.1,0.2-0.3,0.2-0.3c0.1,0,0.2-0.1,0.3,0      c0.2,0.1,0.3,0.3,0.4,0.6l0,0c0.1,0.2,0.1,0.5,0,0.7C515.7,45.2,515.6,45.2,515.5,45.2z"/>
			</g>
		</g>
	</g>
	<g>
		<g>
			<path class="st4" d="M524.1,47.4c-1.7,0-3,1.4-3,3s1.4,3,3,3c1.7,0,3-1.4,3-3S525.7,47.4,524.1,47.4z M524.1,52.9     c-1.4,0-2.5-1.1-2.5-2.5c0-1.4,1.1-2.5,2.5-2.5s2.5,1.1,2.5,2.5C526.6,51.8,525.4,52.9,524.1,52.9z"/>
			<g>
				<circle class="st4" cx="524.1" cy="50.4" r="0.2"/>
				<path class="st4" d="M524.1,48.4c-1.1,0-2,0.9-2,2s0.9,2,2,2s2-0.9,2-2S525.1,48.4,524.1,48.4z M523.4,49      c0.2-0.1,0.4-0.2,0.7-0.2v0c0.2,0,0.5,0.1,0.7,0.2c0.1,0,0.1,0.2,0.1,0.2c0,0.1-0.2,0.3-0.2,0.3c-0.1,0-0.1,0-0.2,0      c0,0-0.2-0.1-0.3-0.1v0c-0.1,0-0.3,0.1-0.3,0.1c0,0-0.1,0-0.2,0c-0.1,0-0.2-0.2-0.2-0.3C523.3,49.1,523.3,49,523.4,49z       M522.5,50.6c0-0.2,0-0.4,0-0.7l0,0c0.1-0.2,0.2-0.4,0.4-0.6c0.1-0.1,0.2,0,0.3,0c0.1,0,0.2,0.2,0.2,0.3c0,0.1,0,0.1,0,0.2      c0,0-0.1,0.2-0.2,0.3l0,0c0,0.1,0,0.3,0,0.3c0,0,0,0.1-0.1,0.2c0,0-0.3,0.1-0.4,0.1C522.6,50.7,522.5,50.7,522.5,50.6z       M523.9,51.8c0,0.1-0.1,0.2-0.2,0.2c-0.2,0-0.4-0.1-0.6-0.3l0,0c-0.2-0.1-0.3-0.3-0.4-0.5c0-0.1,0-0.2,0.1-0.2      c0.1-0.1,0.3-0.1,0.4-0.1c0.1,0,0.1,0.1,0.2,0.1c0,0,0.1,0.2,0.2,0.2l0,0c0.1,0.1,0.2,0.1,0.3,0.1c0,0,0.1,0.1,0.1,0.1      C524,51.4,524,51.7,523.9,51.8z M523.5,50.4c0-0.3,0.2-0.5,0.5-0.5s0.5,0.2,0.5,0.5c0,0.3-0.2,0.5-0.5,0.5      S523.5,50.7,523.5,50.4z M525,51.7L525,51.7c-0.2,0.1-0.4,0.2-0.6,0.3c-0.1,0-0.2-0.1-0.2-0.2c0-0.1,0-0.3,0-0.4      c0-0.1,0.1-0.1,0.1-0.1c0,0,0.2-0.1,0.3-0.1l0,0c0.1-0.1,0.2-0.2,0.2-0.2c0,0,0.1-0.1,0.2-0.1c0.1,0,0.3,0.1,0.4,0.1      c0.1,0.1,0.1,0.2,0.1,0.2C525.3,51.4,525.2,51.5,525,51.7z M525.4,50.7c-0.1,0-0.3-0.1-0.4-0.1c0,0-0.1-0.1-0.1-0.2      c0,0,0-0.2,0-0.3l0,0c0-0.1-0.1-0.2-0.2-0.3c0,0,0-0.1,0-0.2c0-0.1,0.2-0.3,0.2-0.3c0.1,0,0.2-0.1,0.3,0      c0.2,0.1,0.3,0.3,0.4,0.6l0,0c0.1,0.2,0.1,0.5,0,0.7C525.6,50.7,525.5,50.7,525.4,50.7z"/>
			</g>
		</g>
	</g>
	<g>
		<g>
			<path class="st4" d="M519.1,44.6c-1.7,0-3,1.4-3,3s1.4,3,3,3c1.7,0,3-1.4,3-3S520.8,44.6,519.1,44.6z M519.1,50.2     c-1.4,0-2.5-1.1-2.5-2.5c0-1.4,1.1-2.5,2.5-2.5s2.5,1.1,2.5,2.5C521.6,49,520.5,50.2,519.1,50.2z"/>
			<g>
				<circle class="st4" cx="519.1" cy="47.7" r="0.2"/>
				<path class="st4" d="M519.1,45.7c-1.1,0-2,0.9-2,2c0,1.1,0.9,2,2,2s2-0.9,2-2C521.1,46.6,520.2,45.7,519.1,45.7z M518.5,46.2      c0.2-0.1,0.4-0.2,0.7-0.2v0c0.2,0,0.5,0.1,0.7,0.2c0.1,0,0.1,0.2,0.1,0.2s-0.2,0.3-0.2,0.3c-0.1,0-0.1,0-0.2,0      c0,0-0.2-0.1-0.3-0.1v0c-0.1,0-0.3,0.1-0.3,0.1c0,0-0.1,0-0.2,0c-0.1,0-0.2-0.2-0.2-0.3C518.4,46.4,518.4,46.3,518.5,46.2z       M517.6,47.8c0-0.2,0-0.4,0-0.7l0,0c0.1-0.2,0.2-0.4,0.4-0.6c0.1-0.1,0.2,0,0.3,0c0.1,0,0.2,0.2,0.2,0.3c0,0.1,0,0.1,0,0.2      c0,0-0.1,0.2-0.2,0.3l0,0c0,0.1,0,0.3,0,0.3c0,0,0,0.1-0.1,0.2c0,0-0.3,0.1-0.4,0.1C517.7,48,517.6,47.9,517.6,47.8z M519,49      c0,0.1-0.1,0.2-0.2,0.2c-0.2,0-0.4-0.1-0.6-0.3l0,0c-0.2-0.1-0.3-0.3-0.4-0.5c0-0.1,0-0.2,0.1-0.2c0.1-0.1,0.3-0.1,0.4-0.1      c0.1,0,0.1,0.1,0.2,0.1c0,0,0.1,0.2,0.2,0.2l0,0c0.1,0.1,0.2,0.1,0.3,0.1c0,0,0.1,0.1,0.1,0.1C519,48.7,519,48.9,519,49z       M518.6,47.7c0-0.3,0.2-0.5,0.5-0.5s0.5,0.2,0.5,0.5c0,0.3-0.2,0.5-0.5,0.5S518.6,48,518.6,47.7z M520,48.9L520,48.9      c-0.2,0.1-0.4,0.2-0.6,0.3c-0.1,0-0.2-0.1-0.2-0.2c0-0.1,0-0.3,0-0.4c0-0.1,0.1-0.1,0.1-0.1c0,0,0.2-0.1,0.3-0.1l0,0      c0.1-0.1,0.2-0.2,0.2-0.2c0,0,0.1-0.1,0.2-0.1c0.1,0,0.3,0.1,0.4,0.1c0.1,0.1,0.1,0.2,0.1,0.2C520.4,48.6,520.2,48.8,520,48.9z       M520.4,48c-0.1,0-0.3-0.1-0.4-0.1c0,0-0.1-0.1-0.1-0.2c0,0,0-0.2,0-0.3l0,0c0-0.1-0.1-0.2-0.2-0.3c0,0,0-0.1,0-0.2      c0-0.1,0.2-0.3,0.2-0.3c0.1,0,0.2-0.1,0.3,0c0.2,0.1,0.3,0.3,0.4,0.6l0,0c0.1,0.2,0.1,0.5,0,0.7C520.6,47.9,520.5,48,520.4,48z"/>
			</g>
		</g>
	</g>
</g>
</svg>