<?xml version="1.0" encoding="utf-8"?>
<!-- Generator: Adobe Illustrator 19.1.0, SVG Export Plug-In . SVG Version: 6.00 Build 0)  -->
<svg version="1.0" xmlns="http://www.w3.org/2000/svg" xmlns:xlink="http://www.w3.org/1999/xlink" x="0px" y="0px" width="1200" height="800"
 viewBox="520 0 100 100" xml:space="preserve">
<style type="text/css">
	.st0{fill:#F2F2F2;}
	.st1{fill:#808080;}
	.st2{fill:#0B3413;}
	.st3{fill:#871008;}
	.st4{fill:#07092D;}
	.st5{fill:#870E06;}
	.st6{fill:#CC1009;}
	.st7{fill:#CC140D;}
	.st8{fill:#CC130C;}
	.st9{filter:url(#Adobe_OpacityMaskFilter);}
	.st10{mask:url(#SVGID_1_);fill:#07092D;}
	.st11{filter:url(#Adobe_OpacityMaskFilter_1_);}
	.st12{mask:url(#SVGID_2_);fill:#07092D;}
</style>
<g>
	<g>
		<path class="st0" d="M511.6,33.8c-1,0-1.9-0.8-1.9-1.9v-22c0-1,0.8-1.9,1.9-1.9h15c1,0,1.9,0.8,1.9,1.9v22c0,1-0.8,1.9-1.9,1.9    H511.6z"/>
		<path class="st1" d="M526.6,8.2c1,0,1.8,0.8,1.8,1.8v22c0,1-0.8,1.8-1.8,1.8h-15c-1,0-1.8-0.8-1.8-1.8v-22c0-1,0.8-1.8,1.8-1.8    H526.6 M526.6,7.9h-15c-1.1,0-2,0.9-2,2v22c0,1.1,0.9,2,2,2h15c1.1,0,2-0.9,2-2v-22C528.6,8.8,527.7,7.9,526.6,7.9L526.6,7.9z"/>
	</g>
	<path d="M517.1,16.4c0-0.3-0.1-0.7-0.2-1.3c-0.1-0.6-0.2-1-0.2-1.2c0-0.3-0.2-0.6-0.4-1c-0.3-0.3-0.4-0.7-0.4-1.1   c0-0.6,0.1-1,0.3-1.3c0.4,0,0.9,0.2,1.4,0.6c0.5,0.4,0.8,0.8,0.8,1.3c0,0.2-0.1,0.5-0.3,0.9c-0.2,0.4-0.3,0.8-0.3,1   c0,0.5,0.1,0.9,0.4,1.3c0.3-0.2,0.9-0.7,1.8-1.5c0.9-0.8,1.5-1.2,1.8-1.4c0.7-0.4,1.6-0.5,2.7-0.5c0.3,0,0.4,0.1,0.4,0.4   c0,0.3-0.1,0.5-0.2,0.6c-0.1,0.2-0.2,0.3-0.4,0.3c-0.1,0-0.3,0.1-0.6,0.1c-1.4,0.2-2.3,0.5-2.7,0.7c-0.6,0.3-1.4,1-2.4,2.2   c0.1,0.1,0.3,0.2,0.7,0.3c0.4,0.1,0.7,0.2,1,0.2c0.1,0,0.3,0,0.5-0.1c0.2-0.1,0.4-0.1,0.4-0.1c0.2,0,0.4,0.1,0.6,0.2   c0.2,0.1,0.3,0.3,0.3,0.5c0,0.3-0.1,0.7-0.4,1c-0.3,0.3-0.6,0.4-0.9,0.4c-0.3,0-0.6,0-1-0.1c-0.4-0.1-0.6-0.1-0.8-0.1   c-1.1-0.1-1.8-0.4-2-0.9c-0.1,0-0.5,0.1-1.3,0.4c-0.8,0.3-1.8,0.4-3.1,0.6c0.3-0.5,0.9-0.9,2-1.3C515.9,17.1,516.7,16.8,517.1,16.4   z"/>
	<path class="st5" d="M517.6,28.1c-0.1,0-0.3,0.1-0.6,0.2l-0.1,0.3c-0.1,0.2-0.2,0.3-0.3,0.4c-0.4-0.2-0.5-0.9-0.5-2.1   c0-0.9,0-1.6,0.1-2c0.9-0.1,1.9-0.4,2.9-0.6c1.1-0.3,1.7-0.4,2-0.4c0.5,0,0.8,0.2,0.8,0.5l-0.3,0.9c-0.2,0.6-0.3,1.3-0.3,1.9   c0,0.4,0,0.8,0.1,1.2c0.5,0,0.9,0.1,1.5,0.2c0.5,0.1,1.1,0.4,1.6,0.7c0.6,0.4,0.8,0.8,0.8,1.3c0,0.4-0.2,0.7-0.5,0.9   c-0.3,0.2-0.7,0.3-1.2,0.3c-0.1,0-0.4,0.1-0.8,0.2c-0.4,0.2-0.7,0.2-1,0.2c-0.3,0-0.9-0.2-1.7-0.5c-0.8-0.3-1.4-0.6-1.7-0.8   c-0.1,0-0.2,0.1-0.4,0.2c-0.1,0.1-0.2,0.2-0.3,0.2c-0.1,0-0.5-0.1-1.2-0.3c0,0,0,0.1,0,0.2c0,0.1,0,0.2,0,0.3c0,0.1,0,0.1,0,0.2   c0,0.1,0,0.1-0.1,0.2c0,0-0.1,0.1-0.2,0.1s-0.2,0-0.2-0.1c-0.1-0.1-0.2-0.2-0.2-0.4c-0.1-0.2-0.1-0.3-0.2-0.4   c-0.1-0.1-0.1-0.3-0.2-0.5c0-0.2-0.1-0.3-0.1-0.3H515c-0.5,0-0.9-0.1-1.3-0.2c-0.4-0.1-0.6-0.3-0.6-0.6c0,0,0-0.1,0-0.1   c0,0,0-0.1,0-0.1c0.2,0,0.5,0,0.9,0.1c0.4,0,0.7,0.1,0.9,0.1h0.1c0-0.2-0.1-0.5-0.1-0.8c-0.1-0.3-0.1-0.6-0.2-0.9   c0-0.2-0.1-0.4-0.1-0.5c0,0,0-0.1,0.1-0.2c0.3,0,0.5,0.2,0.6,0.4c0.1,0.2,0.2,0.5,0.3,1c0.1,0.4,0.2,0.7,0.4,1   c0.3,0,0.8-0.1,1.4-0.3c0-0.1,0-0.2,0-0.5C517.6,28.4,517.6,28.2,517.6,28.1z M522.1,23.2c-0.7,0-1.8,0.2-3.2,0.6   c-1.4,0.4-2.4,0.6-2.8,0.6c-1.4,0-2.4-0.3-2.8-0.8c0.4-0.3,0.8-0.4,1-0.4c0.2,0,0.6,0.1,1.1,0.2c0.5,0.1,0.9,0.2,1.2,0.2   c0.5,0,0.8,0,1-0.1c0.2-0.1,0.3-0.3,0.3-0.6c0-0.1-0.1-0.1-0.2-0.2c-0.1,0-0.2-0.1-0.3-0.2c0-0.1,0-0.2,0.1-0.2   c0,0,0.1-0.1,0.2-0.2c0.1-0.1,0.1-0.2,0.2-0.3c0-0.1,0.1-0.2,0.3-0.4c0.1-0.2,0.2-0.4,0.3-0.5c0.1-0.1,0.2-0.1,0.3-0.1   c0.2,0,0.3,0.1,0.3,0.4c0,0.2,0,0.4-0.1,0.6c0,0.2-0.1,0.4-0.2,0.7c-0.1,0.3-0.1,0.4-0.2,0.6c0,0.1,0.1,0.2,0.3,0.2   c0.1,0,0.4-0.3,0.6-0.8c0.3-0.6,0.4-0.9,0.4-1.2c0-0.1-0.1-0.3-0.2-0.4c-0.2-0.1-0.3-0.2-0.3-0.3c0.2-0.4,0.6-0.8,1.3-1   c0.5,0.2,0.7,0.6,0.7,1.3c0,0.2-0.1,0.5-0.3,0.9c-0.2,0.3-0.3,0.6-0.3,0.9c0.2,0,0.5-0.1,0.8-0.1c0.3-0.1,0.7-0.1,1-0.2   c0.3,0,0.7-0.1,1.1-0.1c0.8,0,1.2,0.1,1.3,0.3c-0.2,0.3-0.4,0.6-0.8,0.8C523.8,23.2,523.1,23.2,522.1,23.2z M516.4,30.2   c0.1,0.2,0.2,0.4,0.3,0.6c0.3-0.1,0.7-0.2,1.2-0.4c-0.1-0.1-0.2-0.3-0.2-0.6L516.4,30.2z M516.9,25.4v0.6h0.1l0.1,0l0.6-0.1   c0-0.2,0-0.4,0.1-0.7L516.9,25.4z M517.6,26.6c-0.1,0-0.3,0-0.5,0.1c-0.1,0-0.2,0-0.2,0c0,0,0,0.1,0,0.1c0,0,0,0.1,0,0.1   c0,0,0,0.1,0,0.3c0,0.1,0,0.2,0,0.3c0.1,0,0.3,0,0.7-0.1V26.6z M518.5,25.1c0,0.1,0,0.3-0.1,0.4c0,0.1-0.1,0.3-0.1,0.4   c0.2,0,0.5-0.1,0.8-0.2c0.3-0.1,0.5-0.1,0.7-0.1c0-0.1,0-0.3,0-0.4c0-0.2,0-0.3,0-0.4c-0.2,0-0.5,0.1-0.8,0.2   C518.9,25,518.7,25.1,518.5,25.1z M518.4,26.5v0.8c0.3,0,0.8-0.1,1.4-0.3c0-0.4,0-0.6,0-0.8C519.4,26.3,518.9,26.4,518.4,26.5z    M518.5,27.9v1c0.5-0.1,1-0.2,1.4-0.4c0-0.4,0-0.7,0-0.9c-0.1,0-0.3,0.1-0.6,0.2C518.9,27.8,518.7,27.9,518.5,27.9z M518.5,29.5   c0,0.4,0.1,0.6,0.2,0.6c0.1,0,0.2,0,0.3-0.1c0.1,0,0.3-0.1,0.4-0.2c0.2-0.1,0.4-0.1,0.5-0.2c0-0.3-0.1-0.5,0-0.6   C519.8,29.1,519.3,29.3,518.5,29.5z M521.6,29.1c0,0,0,0.2,0.1,0.3c0,0.2,0.1,0.3,0.1,0.4c0,0.1,0,0.3-0.1,0.4   c-0.5,0.3-0.9,0.5-1.3,0.5c0,0-0.1-0.1-0.1-0.2c0-0.1-0.1-0.2-0.1-0.3c-0.1,0-0.3,0.1-0.5,0.3c-0.2,0.1-0.3,0.2-0.4,0.3   c0.1,0.1,0.3,0.3,0.7,0.4c0.4,0.2,0.7,0.2,0.9,0.2c0.1,0,0.3,0,0.4-0.1c0.1-0.1,0.3-0.1,0.4-0.3c0.2-0.1,0.3-0.2,0.4-0.3   c0.1,0,0.4-0.1,0.7-0.1c0.3,0,0.6-0.1,0.8-0.2c0.2-0.1,0.3-0.3,0.3-0.6c0-0.2-0.3-0.4-0.8-0.6C522.4,29.2,522,29.1,521.6,29.1z"/>
</g>
</svg>