<?xml version="1.0" encoding="utf-8"?>
<!-- Generator: Adobe Illustrator 19.1.0, SVG Export Plug-In . SVG Version: 6.00 Build 0)  -->
<svg version="1.0" xmlns="http://www.w3.org/2000/svg" xmlns:xlink="http://www.w3.org/1999/xlink" x="0px" y="0px" width="1200" height="800"
 viewBox="538 69 100 80" xml:space="preserve">
<style type="text/css">
	.st0{fill:#F2F2F2;}
	.st1{fill:#808080;}
	.st2{fill:#0B3413;}
	.st3{fill:#871008;}
	.st4{fill:#07092D;}
	.st5{fill:#870E06;}
	.st6{fill:#CC1009;}
	.st7{fill:#CC140D;}
	.st8{fill:#CC130C;}
	.st9{filter:url(#Adobe_OpacityMaskFilter);}
	.st10{mask:url(#SVGID_1_);fill:#07092D;}
	.st11{filter:url(#Adobe_OpacityMaskFilter_1_);}
	.st12{mask:url(#SVGID_2_);fill:#07092D;}
</style>
<g>
	<g>
		<path class="st0" d="M533.4,98c-1,0-1.9-0.8-1.9-1.9v-22c0-1,0.8-1.9,1.9-1.9h15c1,0,1.9,0.8,1.9,1.9v22c0,1-0.8,1.9-1.9,1.9    H533.4z"/>
		<path class="st1" d="M548.4,72.4c1,0,1.8,0.8,1.8,1.8v22c0,1-0.8,1.8-1.8,1.8h-15c-1,0-1.8-0.8-1.8-1.8v-22c0-1,0.8-1.8,1.8-1.8    H548.4 M548.4,72.2h-15c-1.1,0-2,0.9-2,2v22c0,1.1,0.9,2,2,2h15c1.1,0,2-0.9,2-2v-22C550.4,73.1,549.5,72.2,548.4,72.2L548.4,72.2    z"/>
	</g>
	<path class="st2" d="M542.9,78.7c0.4-0.2,0.7-0.1,0.9,0.1c0.2,0.2,0.3,0.5,0.1,0.9l1.3,1.3v-0.6c-0.6-0.2-0.9-0.5-0.9-0.8   c0-0.4,0.3-0.7,0.9-0.8v-2.2c-0.6-0.3-0.9-0.7-0.9-1c0-0.5,0.7-0.7,2.1-0.7c1.4,0,2.1,0.2,2.1,0.7c0,0.4-0.3,0.7-0.9,1v2.2   c0.6,0.2,0.9,0.5,0.9,0.8c0,0.4-0.3,0.7-0.9,0.8v2.2c0.6,0.3,0.9,0.7,0.9,1c0,0.5-0.7,0.7-2.1,0.7c-1.4,0-2.1-0.2-2.1-0.7   c0-0.2,0.1-0.4,0.3-0.7l-2-2c-0.4,0.2-0.7,0.1-0.9-0.1c-0.2-0.2-0.3-0.5-0.1-0.9l-0.7-0.7l-0.7,0.7c0.2,0.3,0.1,0.6-0.1,0.8   c-0.2,0.2-0.5,0.3-0.9,0.1l-2,2c0.2,0.2,0.3,0.5,0.3,0.7c0,0.5-0.7,0.7-2.1,0.7c-1.4,0-2.1-0.2-2.1-0.7c0-0.4,0.3-0.7,0.9-1v-2.2   c-0.6-0.2-0.9-0.5-0.9-0.8c0-0.4,0.3-0.7,0.9-0.8v-2.2c-0.6-0.3-0.9-0.7-0.9-1c0-0.5,0.7-0.7,2.1-0.7c1.4,0,2.1,0.2,2.1,0.7   c0,0.4-0.3,0.7-0.9,1v2.2c0.6,0.2,0.9,0.5,0.9,0.8c0,0.4-0.3,0.7-0.9,0.8v0.6l1.3-1.3c-0.2-0.3-0.2-0.6,0.1-0.9   c0.2-0.2,0.5-0.2,0.9-0.1l0.8-0.8c-0.2-0.3-0.3-0.5-0.3-0.8c0-0.4,0.2-0.7,0.6-0.7c0.3,0,0.6,0.1,0.8,0.3c0.2-0.2,0.5-0.3,0.8-0.3   c0.4,0,0.6,0.2,0.6,0.7c0,0.3-0.1,0.5-0.3,0.8L542.9,78.7z M539,91.6c-0.4,0.2-0.7,0.1-0.9-0.1c-0.2-0.2-0.3-0.5-0.1-0.9l-1.3-1.3   V90c0.6,0.2,0.9,0.5,0.9,0.8c0,0.4-0.3,0.7-0.9,0.8v2.2c0.6,0.3,0.9,0.7,0.9,1c0,0.5-0.7,0.7-2.1,0.7c-1.4,0-2.1-0.2-2.1-0.7   c0-0.4,0.3-0.7,0.9-1v-2.2c-0.6-0.2-0.9-0.5-0.9-0.8c0-0.4,0.3-0.7,0.9-0.8v-2.2c-0.6-0.3-0.9-0.7-0.9-1c0-0.5,0.7-0.7,2.1-0.7   c1.4,0,2.1,0.2,2.1,0.7c0,0.2-0.1,0.4-0.3,0.7l2,2c0.4-0.2,0.7-0.1,0.9,0.1c0.2,0.2,0.3,0.5,0.1,0.9l0.7,0.7l0.7-0.7   c-0.2-0.3-0.1-0.6,0.1-0.8c0.2-0.2,0.5-0.3,0.9-0.1l2-2c-0.2-0.2-0.3-0.5-0.3-0.7c0-0.5,0.7-0.7,2.1-0.7c1.4,0,2.1,0.2,2.1,0.7   c0,0.4-0.3,0.7-0.9,1V90c0.6,0.2,0.9,0.5,0.9,0.8c0,0.4-0.3,0.7-0.9,0.8v2.2c0.6,0.3,0.9,0.7,0.9,1c0,0.5-0.7,0.7-2.1,0.7   c-1.4,0-2.1-0.2-2.1-0.7c0-0.4,0.3-0.7,0.9-1v-2.2c-0.6-0.2-0.9-0.5-0.9-0.8c0-0.4,0.3-0.7,0.9-0.8v-0.6l-1.3,1.3   c0.2,0.3,0.2,0.6-0.1,0.9c-0.2,0.2-0.5,0.2-0.9,0.1l-0.8,0.8c0.2,0.3,0.3,0.5,0.3,0.8c0,0.4-0.2,0.7-0.6,0.7   c-0.3,0-0.6-0.1-0.8-0.3c-0.2,0.2-0.5,0.3-0.8,0.3c-0.4,0-0.6-0.2-0.6-0.7c0-0.3,0.1-0.5,0.3-0.8L539,91.6z M535,75.4v3.1   c0.1,0,0.3,0,0.5,0c0.2,0,0.4,0,0.5,0v-3.1c-0.1,0-0.3,0-0.5,0C535.3,75.4,535.1,75.4,535,75.4z M535,80.1c0,0,0.1,0,0.2,0   c0.1,0,0.2,0,0.3,0s0.2,0,0.3,0c0.1,0,0.2,0,0.2,0v-1.3c0,0-0.1,0-0.2,0c-0.1,0-0.2,0-0.3,0s-0.2,0-0.3,0c-0.1,0-0.2,0-0.2,0V80.1z    M536,83.6v-3.1c-0.1,0-0.3,0-0.5,0c-0.2,0-0.4,0-0.5,0v3.1c0.1,0,0.3,0,0.5,0C535.8,83.6,535.9,83.6,536,83.6z M535,86.7v3.1   c0.1,0,0.3,0,0.5,0c0.2,0,0.4,0,0.5,0v-3.1c-0.1,0-0.3,0-0.5,0C535.3,86.7,535.1,86.7,535,86.7z M536,90.2c0,0-0.1,0-0.2,0   c-0.1,0-0.2,0-0.3,0s-0.2,0-0.3,0c-0.1,0-0.2,0-0.2,0v1.3c0,0,0.1,0,0.2,0c0.1,0,0.2,0,0.3,0s0.2,0,0.3,0c0.1,0,0.2,0,0.2,0V90.2z    M536,94.9v-3.1c-0.1,0-0.3,0-0.5,0c-0.2,0-0.4,0-0.5,0v3.1c0.1,0,0.3,0,0.5,0C535.8,95,535.9,94.9,536,94.9z M538.8,80.6   c-0.2-0.1-0.3-0.3-0.5-0.5l-1.6,1.6v0.8l0.1,0.1L538.8,80.6z M538.4,90.2c0.1-0.2,0.3-0.4,0.5-0.5l-2-2l-0.1,0.1v0.8L538.4,90.2z    M538.6,79.9c0,0,0.1,0.1,0.1,0.1c0,0,0.1,0.1,0.1,0.1c0,0,0.1,0.1,0.1,0.1c0,0,0.1,0.1,0.1,0.1l0.6-0.6c0,0-0.1-0.1-0.1-0.1   c0,0-0.1-0.1-0.1-0.1c0,0-0.1-0.1-0.1-0.1c0,0-0.1-0.1-0.1-0.1L538.6,79.9z M539.1,90c0,0-0.1,0.1-0.1,0.1c0,0-0.1,0.1-0.1,0.1   c0,0-0.1,0-0.1,0.1c0,0,0,0.1-0.1,0.1c0,0,0,0.1-0.1,0.1l0.6,0.6c0,0,0.1-0.1,0.1-0.1c0,0,0.1-0.1,0.1-0.1c0,0,0.1-0.1,0.1-0.1   c0,0,0.1-0.1,0.1-0.1L539.1,90z M542,79.5c0.2-0.2,0.3-0.4,0.5-0.5l-1.2-1.2v-0.8c-0.1,0-0.3-0.1-0.3-0.1s-0.2,0-0.3,0.1v0.8   l-1.2,1.2c0.1,0.1,0.3,0.3,0.5,0.5l1-1L542,79.5z M539.9,90.8c-0.2,0.2-0.3,0.4-0.5,0.5l1.2,1.2v0.8c0.1,0,0.3,0.1,0.3,0.1   s0.2,0,0.3-0.1v-0.8l1.2-1.2c-0.1-0.1-0.3-0.3-0.5-0.5l-1,1L539.9,90.8z M542.8,80.3c0,0,0.1-0.1,0.1-0.1c0,0,0.1-0.1,0.1-0.1   c0,0,0.1,0,0.1-0.1c0,0,0-0.1,0.1-0.1c0,0,0-0.1,0.1-0.1l-0.6-0.6c0,0-0.1,0.1-0.1,0.1c0,0-0.1,0.1-0.1,0.1c0,0-0.1,0.1-0.1,0.1   c0,0-0.1,0.1-0.1,0.1L542.8,80.3z M543.3,90.4c0,0-0.1-0.1-0.1-0.1c0,0-0.1-0.1-0.1-0.1c0,0-0.1-0.1-0.1-0.1c0,0-0.1-0.1-0.1-0.1   l-0.6,0.6c0,0,0.1,0.1,0.1,0.1c0,0,0.1,0.1,0.1,0.1c0,0,0.1,0.1,0.1,0.1c0,0,0.1,0.1,0.1,0.1L543.3,90.4z M543.5,80.1   c-0.1,0.2-0.3,0.4-0.5,0.5l2,2l0.1-0.1v-0.8L543.5,80.1z M543,89.7c0.2,0.1,0.3,0.3,0.5,0.5l1.6-1.6v-0.8l-0.1-0.1L543,89.7z    M545.8,75.4v3.1c0.1,0,0.3,0,0.5,0c0.2,0,0.4,0,0.5,0v-3.1c-0.1,0-0.3,0-0.5,0C546.1,75.4,545.9,75.4,545.8,75.4z M545.8,80.1   c0,0,0.1,0,0.2,0c0.1,0,0.2,0,0.3,0c0.1,0,0.2,0,0.3,0c0.1,0,0.2,0,0.2,0v-1.3c0,0-0.1,0-0.2,0c-0.1,0-0.2,0-0.3,0   c-0.1,0-0.2,0-0.3,0c-0.1,0-0.2,0-0.2,0V80.1z M546.9,83.6v-3.1c-0.1,0-0.3,0-0.5,0c-0.2,0-0.4,0-0.5,0v3.1c0.1,0,0.3,0,0.5,0   C546.6,83.6,546.8,83.6,546.9,83.6z M545.8,86.7v3.1c0.1,0,0.3,0,0.5,0c0.2,0,0.4,0,0.5,0v-3.1c-0.1,0-0.3,0-0.5,0   C546.1,86.7,545.9,86.7,545.8,86.7z M546.9,90.2c0,0-0.1,0-0.2,0c-0.1,0-0.2,0-0.3,0c-0.1,0-0.2,0-0.3,0c-0.1,0-0.2,0-0.2,0v1.3   c0,0,0.1,0,0.2,0c0.1,0,0.2,0,0.3,0c0.1,0,0.2,0,0.3,0c0.1,0,0.2,0,0.2,0V90.2z M546.9,94.9v-3.1c-0.1,0-0.3,0-0.5,0   c-0.2,0-0.4,0-0.5,0v3.1c0.1,0,0.3,0,0.5,0C546.6,95,546.8,94.9,546.9,94.9z"/>
</g>
</svg>