<?xml version="1.0" encoding="utf-8"?>
<!-- Generator: Adobe Illustrator 19.1.0, SVG Export Plug-In . SVG Version: 6.00 Build 0)  -->
<svg version="1.0" xmlns="http://www.w3.org/2000/svg" xmlns:xlink="http://www.w3.org/1999/xlink" x="0px" y="0px" width="1200" height="800"
 viewBox="538 37 100 80" xml:space="preserve">
<style type="text/css">
	.st0{fill:#F2F2F2;}
	.st1{fill:#808080;}
	.st2{fill:#0B3413;}
	.st3{fill:#871008;}
	.st4{fill:#07092D;}
	.st5{fill:#870E06;}
	.st6{fill:#CC1009;}
	.st7{fill:#CC140D;}
	.st8{fill:#CC130C;}
	.st9{filter:url(#Adobe_OpacityMaskFilter);}
	.st10{mask:url(#SVGID_1_);fill:#07092D;}
	.st11{filter:url(#Adobe_OpacityMaskFilter_1_);}
	.st12{mask:url(#SVGID_2_);fill:#07092D;}
</style>
<g>
	<g>
		<path class="st0" d="M533.4,65.9c-1,0-1.9-0.8-1.9-1.9V42c0-1,0.8-1.9,1.9-1.9h15c1,0,1.9,0.8,1.9,1.9v22c0,1-0.8,1.9-1.9,1.9    H533.4z"/>
		<path class="st1" d="M548.4,40.3c1,0,1.8,0.8,1.8,1.8v22c0,1-0.8,1.8-1.8,1.8h-15c-1,0-1.8-0.8-1.8-1.8V42c0-1,0.8-1.8,1.8-1.8    H548.4 M548.4,40h-15c-1.1,0-2,0.9-2,2v22c0,1.1,0.9,2,2,2h15c1.1,0,2-0.9,2-2V42C550.4,40.9,549.5,40,548.4,40L548.4,40z"/>
	</g>
	<g>
		<g>
			<path class="st4" d="M543.7,58.3c-1.7,0-3,1.4-3,3c0,1.7,1.4,3,3,3c1.7,0,3-1.4,3-3C546.8,59.7,545.4,58.3,543.7,58.3z      M543.7,63.9c-1.4,0-2.5-1.1-2.5-2.5c0-1.4,1.1-2.5,2.5-2.5s2.5,1.1,2.5,2.5C546.2,62.8,545.1,63.9,543.7,63.9z"/>
			<g>
				<circle class="st4" cx="543.7" cy="61.4" r="0.2"/>
				<path class="st4" d="M543.7,59.4c-1.1,0-2,0.9-2,2c0,1.1,0.9,2,2,2s2-0.9,2-2C545.7,60.3,544.8,59.4,543.7,59.4z M543.1,59.9      c0.2-0.1,0.4-0.2,0.7-0.2v0c0.2,0,0.5,0.1,0.7,0.2c0.1,0,0.1,0.2,0.1,0.2c0,0.1-0.2,0.3-0.2,0.3c-0.1,0-0.1,0-0.2,0      c0,0-0.2-0.1-0.3-0.1v0c-0.1,0-0.3,0.1-0.3,0.1c0,0-0.1,0-0.2,0c-0.1,0-0.2-0.2-0.2-0.3C543,60.1,543,60,543.1,59.9z       M542.2,61.5c0-0.2,0-0.4,0-0.7l0,0c0.1-0.2,0.2-0.4,0.4-0.6c0.1-0.1,0.2,0,0.3,0c0.1,0,0.2,0.2,0.2,0.3c0,0.1,0,0.1,0,0.2      c0,0-0.1,0.2-0.2,0.3l0,0c0,0.1,0,0.3,0,0.3c0,0,0,0.1-0.1,0.2c0,0-0.3,0.1-0.4,0.1C542.3,61.7,542.2,61.6,542.2,61.5z       M543.6,62.7c0,0.1-0.1,0.2-0.2,0.2c-0.2,0-0.4-0.1-0.6-0.3l0,0c-0.2-0.1-0.3-0.3-0.4-0.5c0-0.1,0-0.2,0.1-0.2      c0.1-0.1,0.3-0.1,0.4-0.1c0.1,0,0.1,0.1,0.2,0.1c0,0,0.1,0.2,0.2,0.2l0,0c0.1,0.1,0.2,0.1,0.3,0.1c0,0,0.1,0.1,0.1,0.1      C543.6,62.4,543.6,62.7,543.6,62.7z M543.2,61.4c0-0.3,0.2-0.5,0.5-0.5s0.5,0.2,0.5,0.5c0,0.3-0.2,0.5-0.5,0.5      S543.2,61.7,543.2,61.4z M544.6,62.7L544.6,62.7c-0.2,0.1-0.4,0.2-0.6,0.3c-0.1,0-0.2-0.1-0.2-0.2c0-0.1,0-0.3,0-0.4      c0-0.1,0.1-0.1,0.1-0.1c0,0,0.2-0.1,0.3-0.1l0,0c0.1-0.1,0.2-0.2,0.2-0.2c0,0,0.1-0.1,0.2-0.1c0.1,0,0.3,0.1,0.4,0.1      c0.1,0.1,0.1,0.2,0.1,0.2C545,62.3,544.8,62.5,544.6,62.7z M545.1,61.7c-0.1,0-0.3-0.1-0.4-0.1c0,0-0.1-0.1-0.1-0.2      c0,0,0-0.2,0-0.3l0,0c0-0.1-0.1-0.2-0.2-0.3c0,0,0-0.1,0-0.2c0-0.1,0.2-0.3,0.2-0.3c0.1,0,0.2-0.1,0.3,0      c0.2,0.1,0.3,0.3,0.4,0.6l0,0c0.1,0.2,0.1,0.5,0,0.7C545.2,61.6,545.1,61.7,545.1,61.7z"/>
			</g>
		</g>
	</g>
	<g>
		<g>
			<path class="st4" d="M538.2,58.3c-1.7,0-3,1.4-3,3c0,1.7,1.4,3,3,3c1.7,0,3-1.4,3-3C541.2,59.7,539.8,58.3,538.2,58.3z      M538.2,63.9c-1.4,0-2.5-1.1-2.5-2.5c0-1.4,1.1-2.5,2.5-2.5s2.5,1.1,2.5,2.5C540.7,62.8,539.5,63.9,538.2,63.9z"/>
			<g>
				<circle class="st4" cx="538.2" cy="61.4" r="0.2"/>
				<path class="st4" d="M538.2,59.4c-1.1,0-2,0.9-2,2c0,1.1,0.9,2,2,2c1.1,0,2-0.9,2-2C540.1,60.3,539.2,59.4,538.2,59.4z       M537.5,59.9c0.2-0.1,0.4-0.2,0.7-0.2v0c0.2,0,0.5,0.1,0.7,0.2c0.1,0,0.1,0.2,0.1,0.2c0,0.1-0.2,0.3-0.2,0.3c-0.1,0-0.1,0-0.2,0      c0,0-0.2-0.1-0.3-0.1v0c-0.1,0-0.3,0.1-0.3,0.1c0,0-0.1,0-0.2,0c-0.1,0-0.2-0.2-0.2-0.3C537.4,60.1,537.4,60,537.5,59.9z       M536.6,61.5c0-0.2,0-0.4,0-0.7l0,0c0.1-0.2,0.2-0.4,0.4-0.6c0.1-0.1,0.2,0,0.3,0c0.1,0,0.2,0.2,0.2,0.3c0,0.1,0,0.1,0,0.2      c0,0-0.1,0.2-0.2,0.3l0,0c0,0.1,0,0.3,0,0.3c0,0,0,0.1-0.1,0.2c0,0-0.3,0.1-0.4,0.1C536.7,61.7,536.6,61.6,536.6,61.5z       M538,62.7c0,0.1-0.1,0.2-0.2,0.2c-0.2,0-0.4-0.1-0.6-0.3l0,0c-0.2-0.1-0.3-0.3-0.4-0.5c0-0.1,0-0.2,0.1-0.2      c0.1-0.1,0.3-0.1,0.4-0.1c0.1,0,0.1,0.1,0.2,0.1c0,0,0.1,0.2,0.2,0.2l0,0c0.1,0.1,0.2,0.1,0.3,0.1c0,0,0.1,0.1,0.1,0.1      C538.1,62.4,538.1,62.7,538,62.7z M537.6,61.4c0-0.3,0.2-0.5,0.5-0.5s0.5,0.2,0.5,0.5c0,0.3-0.2,0.5-0.5,0.5      S537.6,61.7,537.6,61.4z M539.1,62.7L539.1,62.7c-0.2,0.1-0.4,0.2-0.6,0.3c-0.1,0-0.2-0.1-0.2-0.2c0-0.1,0-0.3,0-0.4      c0-0.1,0.1-0.1,0.1-0.1c0,0,0.2-0.1,0.3-0.1l0,0c0.1-0.1,0.2-0.2,0.2-0.2c0,0,0.1-0.1,0.2-0.1c0.1,0,0.3,0.1,0.4,0.1      c0.1,0.1,0.1,0.2,0.1,0.2C539.4,62.3,539.3,62.5,539.1,62.7z M539.5,61.7c-0.1,0-0.3-0.1-0.4-0.1c0,0-0.1-0.1-0.1-0.2      c0,0,0-0.2,0-0.3l0,0c0-0.1-0.1-0.2-0.2-0.3c0,0,0-0.1,0-0.2c0-0.1,0.2-0.3,0.2-0.3c0.1,0,0.2-0.1,0.3,0      c0.2,0.1,0.3,0.3,0.4,0.6l0,0c0.1,0.2,0.1,0.5,0,0.7C539.7,61.6,539.6,61.7,539.5,61.7z"/>
			</g>
		</g>
	</g>
	<g>
		<g>
			<path class="st4" d="M543.7,52.8c-1.7,0-3,1.4-3,3c0,1.7,1.4,3,3,3c1.7,0,3-1.4,3-3C546.8,54.1,545.4,52.8,543.7,52.8z      M543.7,58.3c-1.4,0-2.5-1.1-2.5-2.5c0-1.4,1.1-2.5,2.5-2.5s2.5,1.1,2.5,2.5C546.2,57.2,545.1,58.3,543.7,58.3z"/>
			<g>
				<circle class="st4" cx="543.7" cy="55.8" r="0.2"/>
				<path class="st4" d="M543.7,53.8c-1.1,0-2,0.9-2,2c0,1.1,0.9,2,2,2s2-0.9,2-2C545.7,54.7,544.8,53.8,543.7,53.8z M543.1,54.4      c0.2-0.1,0.4-0.2,0.7-0.2v0c0.2,0,0.5,0.1,0.7,0.2c0.1,0,0.1,0.2,0.1,0.2c0,0.1-0.2,0.3-0.2,0.3c-0.1,0-0.1,0-0.2,0      c0,0-0.2-0.1-0.3-0.1v0c-0.1,0-0.3,0.1-0.3,0.1c0,0-0.1,0-0.2,0c-0.1,0-0.2-0.2-0.2-0.3C543,54.6,543,54.4,543.1,54.4z       M542.2,56c0-0.2,0-0.4,0-0.7l0,0c0.1-0.2,0.2-0.4,0.4-0.6c0.1-0.1,0.2,0,0.3,0c0.1,0,0.2,0.2,0.2,0.3c0,0.1,0,0.1,0,0.2      c0,0-0.1,0.2-0.2,0.3l0,0c0,0.1,0,0.3,0,0.3c0,0,0,0.1-0.1,0.2c0,0-0.3,0.1-0.4,0.1C542.3,56.1,542.2,56.1,542.2,56z       M543.6,57.2c0,0.1-0.1,0.2-0.2,0.2c-0.2,0-0.4-0.1-0.6-0.3l0,0c-0.2-0.1-0.3-0.3-0.4-0.5c0-0.1,0-0.2,0.1-0.2      c0.1-0.1,0.3-0.1,0.4-0.1c0.1,0,0.1,0.1,0.2,0.1c0,0,0.1,0.2,0.2,0.2l0,0c0.1,0.1,0.2,0.1,0.3,0.1s0.1,0.1,0.1,0.1      C543.6,56.9,543.6,57.1,543.6,57.2z M543.2,55.8c0-0.3,0.2-0.5,0.5-0.5s0.5,0.2,0.5,0.5c0,0.3-0.2,0.5-0.5,0.5      S543.2,56.1,543.2,55.8z M544.6,57.1L544.6,57.1c-0.2,0.1-0.4,0.2-0.6,0.3c-0.1,0-0.2-0.1-0.2-0.2c0-0.1,0-0.3,0-0.4      c0-0.1,0.1-0.1,0.1-0.1c0,0,0.2-0.1,0.3-0.1l0,0c0.1-0.1,0.2-0.2,0.2-0.2c0,0,0.1-0.1,0.2-0.1c0.1,0,0.3,0.1,0.4,0.1      c0.1,0.1,0.1,0.2,0.1,0.2C545,56.8,544.8,57,544.6,57.1z M545.1,56.1c-0.1,0-0.3-0.1-0.4-0.1c0,0-0.1-0.1-0.1-0.2      c0,0,0-0.2,0-0.3l0,0c0-0.1-0.1-0.2-0.2-0.3c0,0,0-0.1,0-0.2c0-0.1,0.2-0.3,0.2-0.3c0.1,0,0.2-0.1,0.3,0      c0.2,0.1,0.3,0.3,0.4,0.6l0,0c0.1,0.2,0.1,0.5,0,0.7C545.2,56.1,545.1,56.1,545.1,56.1z"/>
			</g>
		</g>
	</g>
	<g>
		<g>
			<path class="st4" d="M538.2,52.8c-1.7,0-3,1.4-3,3c0,1.7,1.4,3,3,3c1.7,0,3-1.4,3-3C541.2,54.1,539.8,52.8,538.2,52.8z      M538.2,58.3c-1.4,0-2.5-1.1-2.5-2.5c0-1.4,1.1-2.5,2.5-2.5s2.5,1.1,2.5,2.5C540.7,57.2,539.5,58.3,538.2,58.3z"/>
			<g>
				<circle class="st4" cx="538.2" cy="55.8" r="0.2"/>
				<path class="st4" d="M538.2,53.8c-1.1,0-2,0.9-2,2c0,1.1,0.9,2,2,2c1.1,0,2-0.9,2-2C540.1,54.7,539.2,53.8,538.2,53.8z       M537.5,54.4c0.2-0.1,0.4-0.2,0.7-0.2v0c0.2,0,0.5,0.1,0.7,0.2c0.1,0,0.1,0.2,0.1,0.2c0,0.1-0.2,0.3-0.2,0.3c-0.1,0-0.1,0-0.2,0      c0,0-0.2-0.1-0.3-0.1v0c-0.1,0-0.3,0.1-0.3,0.1c0,0-0.1,0-0.2,0c-0.1,0-0.2-0.2-0.2-0.3C537.4,54.6,537.4,54.4,537.5,54.4z       M536.6,56c0-0.2,0-0.4,0-0.7l0,0c0.1-0.2,0.2-0.4,0.4-0.6c0.1-0.1,0.2,0,0.3,0c0.1,0,0.2,0.2,0.2,0.3c0,0.1,0,0.1,0,0.2      c0,0-0.1,0.2-0.2,0.3l0,0c0,0.1,0,0.3,0,0.3c0,0,0,0.1-0.1,0.2c0,0-0.3,0.1-0.4,0.1C536.7,56.1,536.6,56.1,536.6,56z M538,57.2      c0,0.1-0.1,0.2-0.2,0.2c-0.2,0-0.4-0.1-0.6-0.3l0,0c-0.2-0.1-0.3-0.3-0.4-0.5c0-0.1,0-0.2,0.1-0.2c0.1-0.1,0.3-0.1,0.4-0.1      c0.1,0,0.1,0.1,0.2,0.1c0,0,0.1,0.2,0.2,0.2l0,0c0.1,0.1,0.2,0.1,0.3,0.1s0.1,0.1,0.1,0.1C538.1,56.9,538.1,57.1,538,57.2z       M537.6,55.8c0-0.3,0.2-0.5,0.5-0.5s0.5,0.2,0.5,0.5c0,0.3-0.2,0.5-0.5,0.5S537.6,56.1,537.6,55.8z M539.1,57.1L539.1,57.1      c-0.2,0.1-0.4,0.2-0.6,0.3c-0.1,0-0.2-0.1-0.2-0.2c0-0.1,0-0.3,0-0.4c0-0.1,0.1-0.1,0.1-0.1c0,0,0.2-0.1,0.3-0.1l0,0      c0.1-0.1,0.2-0.2,0.2-0.2c0,0,0.1-0.1,0.2-0.1c0.1,0,0.3,0.1,0.4,0.1c0.1,0.1,0.1,0.2,0.1,0.2C539.4,56.8,539.3,57,539.1,57.1z       M539.5,56.1c-0.1,0-0.3-0.1-0.4-0.1c0,0-0.1-0.1-0.1-0.2c0,0,0-0.2,0-0.3l0,0c0-0.1-0.1-0.2-0.2-0.3c0,0,0-0.1,0-0.2      c0-0.1,0.2-0.3,0.2-0.3c0.1,0,0.2-0.1,0.3,0c0.2,0.1,0.3,0.3,0.4,0.6l0,0c0.1,0.2,0.1,0.5,0,0.7      C539.7,56.1,539.6,56.1,539.5,56.1z"/>
			</g>
		</g>
	</g>
	<g>
		<g>
			<path class="st4" d="M543.7,47.2c-1.7,0-3,1.4-3,3c0,1.7,1.4,3,3,3c1.7,0,3-1.4,3-3C546.8,48.6,545.4,47.2,543.7,47.2z      M543.7,52.8c-1.4,0-2.5-1.1-2.5-2.5c0-1.4,1.1-2.5,2.5-2.5s2.5,1.1,2.5,2.5C546.2,51.7,545.1,52.8,543.7,52.8z"/>
			<g>
				<circle class="st4" cx="543.7" cy="50.3" r="0.2"/>
				<path class="st4" d="M543.7,48.3c-1.1,0-2,0.9-2,2c0,1.1,0.9,2,2,2s2-0.9,2-2C545.7,49.2,544.8,48.3,543.7,48.3z M543.1,48.8      c0.2-0.1,0.4-0.2,0.7-0.2v0c0.2,0,0.5,0.1,0.7,0.2c0.1,0,0.1,0.2,0.1,0.2c0,0.1-0.2,0.3-0.2,0.3c-0.1,0-0.1,0-0.2,0      c0,0-0.2-0.1-0.3-0.1v0c-0.1,0-0.3,0.1-0.3,0.1c0,0-0.1,0-0.2,0c-0.1,0-0.2-0.2-0.2-0.3C543,49,543,48.9,543.1,48.8z       M542.2,50.4c0-0.2,0-0.4,0-0.7l0,0c0.1-0.2,0.2-0.4,0.4-0.6c0.1-0.1,0.2,0,0.3,0c0.1,0,0.2,0.2,0.2,0.3c0,0.1,0,0.1,0,0.2      c0,0-0.1,0.2-0.2,0.3l0,0c0,0.1,0,0.3,0,0.3c0,0,0,0.1-0.1,0.2c0,0-0.3,0.1-0.4,0.1C542.3,50.6,542.2,50.5,542.2,50.4z       M543.6,51.6c0,0.1-0.1,0.2-0.2,0.2c-0.2,0-0.4-0.1-0.6-0.3l0,0c-0.2-0.1-0.3-0.3-0.4-0.5c0-0.1,0-0.2,0.1-0.2      c0.1-0.1,0.3-0.1,0.4-0.1c0.1,0,0.1,0.1,0.2,0.1c0,0,0.1,0.2,0.2,0.2l0,0c0.1,0.1,0.2,0.1,0.3,0.1s0.1,0.1,0.1,0.1      C543.6,51.3,543.6,51.6,543.6,51.6z M543.2,50.3c0-0.3,0.2-0.5,0.5-0.5s0.5,0.2,0.5,0.5c0,0.3-0.2,0.5-0.5,0.5      S543.2,50.6,543.2,50.3z M544.6,51.5L544.6,51.5c-0.2,0.1-0.4,0.2-0.6,0.3c-0.1,0-0.2-0.1-0.2-0.2c0-0.1,0-0.3,0-0.4      c0-0.1,0.1-0.1,0.1-0.1c0,0,0.2-0.1,0.3-0.1l0,0c0.1-0.1,0.2-0.2,0.2-0.2c0,0,0.1-0.1,0.2-0.1c0.1,0,0.3,0.1,0.4,0.1      c0.1,0.1,0.1,0.2,0.1,0.2C545,51.2,544.8,51.4,544.6,51.5z M545.1,50.6c-0.1,0-0.3-0.1-0.4-0.1c0,0-0.1-0.1-0.1-0.2      c0,0,0-0.2,0-0.3l0,0c0-0.1-0.1-0.2-0.2-0.3c0,0,0-0.1,0-0.2c0-0.1,0.2-0.3,0.2-0.3c0.1,0,0.2-0.1,0.3,0      c0.2,0.1,0.3,0.3,0.4,0.6l0,0c0.1,0.2,0.1,0.5,0,0.7C545.2,50.5,545.1,50.6,545.1,50.6z"/>
			</g>
		</g>
	</g>
	<g>
		<g>
			<path class="st4" d="M538.2,47.2c-1.7,0-3,1.4-3,3c0,1.7,1.4,3,3,3c1.7,0,3-1.4,3-3C541.2,48.6,539.8,47.2,538.2,47.2z      M538.2,52.8c-1.4,0-2.5-1.1-2.5-2.5c0-1.4,1.1-2.5,2.5-2.5s2.5,1.1,2.5,2.5C540.7,51.7,539.5,52.8,538.2,52.8z"/>
			<g>
				<circle class="st4" cx="538.2" cy="50.3" r="0.2"/>
				<path class="st4" d="M538.2,48.3c-1.1,0-2,0.9-2,2c0,1.1,0.9,2,2,2c1.1,0,2-0.9,2-2C540.1,49.2,539.2,48.3,538.2,48.3z       M537.5,48.8c0.2-0.1,0.4-0.2,0.7-0.2v0c0.2,0,0.5,0.1,0.7,0.2c0.1,0,0.1,0.2,0.1,0.2c0,0.1-0.2,0.3-0.2,0.3c-0.1,0-0.1,0-0.2,0      c0,0-0.2-0.1-0.3-0.1v0c-0.1,0-0.3,0.1-0.3,0.1c0,0-0.1,0-0.2,0c-0.1,0-0.2-0.2-0.2-0.3C537.4,49,537.4,48.9,537.5,48.8z       M536.6,50.4c0-0.2,0-0.4,0-0.7l0,0c0.1-0.2,0.2-0.4,0.4-0.6c0.1-0.1,0.2,0,0.3,0c0.1,0,0.2,0.2,0.2,0.3c0,0.1,0,0.1,0,0.2      c0,0-0.1,0.2-0.2,0.3l0,0c0,0.1,0,0.3,0,0.3c0,0,0,0.1-0.1,0.2c0,0-0.3,0.1-0.4,0.1C536.7,50.6,536.6,50.5,536.6,50.4z       M538,51.6c0,0.1-0.1,0.2-0.2,0.2c-0.2,0-0.4-0.1-0.6-0.3l0,0c-0.2-0.1-0.3-0.3-0.4-0.5c0-0.1,0-0.2,0.1-0.2      c0.1-0.1,0.3-0.1,0.4-0.1c0.1,0,0.1,0.1,0.2,0.1c0,0,0.1,0.2,0.2,0.2l0,0c0.1,0.1,0.2,0.1,0.3,0.1s0.1,0.1,0.1,0.1      C538.1,51.3,538.1,51.6,538,51.6z M537.6,50.3c0-0.3,0.2-0.5,0.5-0.5s0.5,0.2,0.5,0.5c0,0.3-0.2,0.5-0.5,0.5      S537.6,50.6,537.6,50.3z M539.1,51.5L539.1,51.5c-0.2,0.1-0.4,0.2-0.6,0.3c-0.1,0-0.2-0.1-0.2-0.2c0-0.1,0-0.3,0-0.4      c0-0.1,0.1-0.1,0.1-0.1c0,0,0.2-0.1,0.3-0.1l0,0c0.1-0.1,0.2-0.2,0.2-0.2c0,0,0.1-0.1,0.2-0.1c0.1,0,0.3,0.1,0.4,0.1      c0.1,0.1,0.1,0.2,0.1,0.2C539.4,51.2,539.3,51.4,539.1,51.5z M539.5,50.6c-0.1,0-0.3-0.1-0.4-0.1c0,0-0.1-0.1-0.1-0.2      c0,0,0-0.2,0-0.3l0,0c0-0.1-0.1-0.2-0.2-0.3c0,0,0-0.1,0-0.2c0-0.1,0.2-0.3,0.2-0.3s0.2-0.1,0.3,0c0.2,0.1,0.3,0.3,0.4,0.6l0,0      c0.1,0.2,0.1,0.5,0,0.7C539.7,50.5,539.6,50.6,539.5,50.6z"/>
			</g>
		</g>
	</g>
	<g>
		<g>
			<path class="st4" d="M543.7,41.7c-1.7,0-3,1.4-3,3s1.4,3,3,3c1.7,0,3-1.4,3-3S545.4,41.7,543.7,41.7z M543.7,47.2     c-1.4,0-2.5-1.1-2.5-2.5c0-1.4,1.1-2.5,2.5-2.5s2.5,1.1,2.5,2.5C546.2,46.1,545.1,47.2,543.7,47.2z"/>
			<g>
				<circle class="st4" cx="543.7" cy="44.7" r="0.2"/>
				<path class="st4" d="M543.7,42.7c-1.1,0-2,0.9-2,2c0,1.1,0.9,2,2,2s2-0.9,2-2C545.7,43.6,544.8,42.7,543.7,42.7z M543.1,43.3      c0.2-0.1,0.4-0.2,0.7-0.2v0c0.2,0,0.5,0.1,0.7,0.2c0.1,0,0.1,0.2,0.1,0.2c0,0.1-0.2,0.3-0.2,0.3c-0.1,0-0.1,0-0.2,0      c0,0-0.2-0.1-0.3-0.1v0c-0.1,0-0.3,0.1-0.3,0.1c0,0-0.1,0-0.2,0c-0.1,0-0.2-0.2-0.2-0.3C543,43.5,543,43.3,543.1,43.3z       M542.2,44.9c0-0.2,0-0.4,0-0.7l0,0c0.1-0.2,0.2-0.4,0.4-0.6c0.1-0.1,0.2,0,0.3,0c0.1,0,0.2,0.2,0.2,0.3c0,0.1,0,0.1,0,0.2      c0,0-0.1,0.2-0.2,0.3l0,0c0,0.1,0,0.3,0,0.3c0,0,0,0.1-0.1,0.2c0,0-0.3,0.1-0.4,0.1C542.3,45,542.2,45,542.2,44.9z M543.6,46.1      c0,0.1-0.1,0.2-0.2,0.2c-0.2,0-0.4-0.1-0.6-0.3l0,0c-0.2-0.1-0.3-0.3-0.4-0.5c0-0.1,0-0.2,0.1-0.2c0.1-0.1,0.3-0.1,0.4-0.1      c0.1,0,0.1,0.1,0.2,0.1c0,0,0.1,0.2,0.2,0.2l0,0c0.1,0.1,0.2,0.1,0.3,0.1s0.1,0.1,0.1,0.1C543.6,45.8,543.6,46,543.6,46.1z       M543.2,44.7c0-0.3,0.2-0.5,0.5-0.5s0.5,0.2,0.5,0.5c0,0.3-0.2,0.5-0.5,0.5S543.2,45,543.2,44.7z M544.6,46L544.6,46      c-0.2,0.1-0.4,0.2-0.6,0.3c-0.1,0-0.2-0.1-0.2-0.2c0-0.1,0-0.3,0-0.4c0-0.1,0.1-0.1,0.1-0.1c0,0,0.2-0.1,0.3-0.1l0,0      c0.1-0.1,0.2-0.2,0.2-0.2c0,0,0.1-0.1,0.2-0.1c0.1,0,0.3,0.1,0.4,0.1c0.1,0.1,0.1,0.2,0.1,0.2C545,45.7,544.8,45.9,544.6,46z       M545.1,45c-0.1,0-0.3-0.1-0.4-0.1c0,0-0.1-0.1-0.1-0.2c0,0,0-0.2,0-0.3l0,0c0-0.1-0.1-0.2-0.2-0.3c0,0,0-0.1,0-0.2      c0-0.1,0.2-0.3,0.2-0.3c0.1,0,0.2-0.1,0.3,0c0.2,0.1,0.3,0.3,0.4,0.6l0,0c0.1,0.2,0.1,0.5,0,0.7C545.2,45,545.1,45,545.1,45z"/>
			</g>
		</g>
	</g>
	<g>
		<g>
			<path class="st4" d="M538.2,41.7c-1.7,0-3,1.4-3,3s1.4,3,3,3c1.7,0,3-1.4,3-3S539.8,41.7,538.2,41.7z M538.2,47.2     c-1.4,0-2.5-1.1-2.5-2.5c0-1.4,1.1-2.5,2.5-2.5s2.5,1.1,2.5,2.5C540.7,46.1,539.5,47.2,538.2,47.2z"/>
			<g>
				<circle class="st4" cx="538.2" cy="44.7" r="0.2"/>
				<path class="st4" d="M538.2,42.7c-1.1,0-2,0.9-2,2c0,1.1,0.9,2,2,2c1.1,0,2-0.9,2-2C540.1,43.6,539.2,42.7,538.2,42.7z       M537.5,43.3c0.2-0.1,0.4-0.2,0.7-0.2v0c0.2,0,0.5,0.1,0.7,0.2c0.1,0,0.1,0.2,0.1,0.2c0,0.1-0.2,0.3-0.2,0.3c-0.1,0-0.1,0-0.2,0      c0,0-0.2-0.1-0.3-0.1v0c-0.1,0-0.3,0.1-0.3,0.1c0,0-0.1,0-0.2,0c-0.1,0-0.2-0.2-0.2-0.3C537.4,43.5,537.4,43.3,537.5,43.3z       M536.6,44.9c0-0.2,0-0.4,0-0.7l0,0c0.1-0.2,0.2-0.4,0.4-0.6c0.1-0.1,0.2,0,0.3,0c0.1,0,0.2,0.2,0.2,0.3c0,0.1,0,0.1,0,0.2      c0,0-0.1,0.2-0.2,0.3l0,0c0,0.1,0,0.3,0,0.3c0,0,0,0.1-0.1,0.2c0,0-0.3,0.1-0.4,0.1C536.7,45,536.6,45,536.6,44.9z M538,46.1      c0,0.1-0.1,0.2-0.2,0.2c-0.2,0-0.4-0.1-0.6-0.3l0,0c-0.2-0.1-0.3-0.3-0.4-0.5c0-0.1,0-0.2,0.1-0.2c0.1-0.1,0.3-0.1,0.4-0.1      c0.1,0,0.1,0.1,0.2,0.1c0,0,0.1,0.2,0.2,0.2l0,0c0.1,0.1,0.2,0.1,0.3,0.1s0.1,0.1,0.1,0.1C538.1,45.8,538.1,46,538,46.1z       M537.6,44.7c0-0.3,0.2-0.5,0.5-0.5s0.5,0.2,0.5,0.5c0,0.3-0.2,0.5-0.5,0.5S537.6,45,537.6,44.7z M539.1,46L539.1,46      c-0.2,0.1-0.4,0.2-0.6,0.3c-0.1,0-0.2-0.1-0.2-0.2c0-0.1,0-0.3,0-0.4c0-0.1,0.1-0.1,0.1-0.1c0,0,0.2-0.1,0.3-0.1l0,0      c0.1-0.1,0.2-0.2,0.2-0.2c0,0,0.1-0.1,0.2-0.1c0.1,0,0.3,0.1,0.4,0.1c0.1,0.1,0.1,0.2,0.1,0.2C539.4,45.7,539.3,45.9,539.1,46z       M539.5,45c-0.1,0-0.3-0.1-0.4-0.1c0,0-0.1-0.1-0.1-0.2c0,0,0-0.2,0-0.3l0,0c0-0.1-0.1-0.2-0.2-0.3c0,0,0-0.1,0-0.2      c0-0.1,0.2-0.3,0.2-0.3s0.2-0.1,0.3,0c0.2,0.1,0.3,0.3,0.4,0.6l0,0c0.1,0.2,0.1,0.5,0,0.7C539.7,45,539.6,45,539.5,45z"/>
			</g>
		</g>
	</g>
</g>
</svg>