<?xml version="1.0" encoding="utf-8"?>
<!-- Generator: Adobe Illustrator 19.1.0, SVG Export Plug-In . SVG Version: 6.00 Build 0)  -->
<svg version="1.0" xmlns="http://www.w3.org/2000/svg" xmlns:xlink="http://www.w3.org/1999/xlink" x="0px" y="0px" width="1200" height="800"
 viewBox="560 69 100 80" xml:space="preserve">
<style type="text/css">
	.st0{fill:#F2F2F2;}
	.st1{fill:#808080;}
	.st2{fill:#0B3413;}
	.st3{fill:#871008;}
	.st4{fill:#07092D;}
	.st5{fill:#870E06;}
	.st6{fill:#CC1009;}
	.st7{fill:#CC140D;}
	.st8{fill:#CC130C;}
	.st9{filter:url(#Adobe_OpacityMaskFilter);}
	.st10{mask:url(#SVGID_1_);fill:#07092D;}
	.st11{filter:url(#Adobe_OpacityMaskFilter_1_);}
	.st12{mask:url(#SVGID_2_);fill:#07092D;}
</style>
<g>
	<g>
		<path class="st0" d="M555.3,98c-1,0-1.9-0.8-1.9-1.9v-22c0-1,0.8-1.9,1.9-1.9h15c1,0,1.9,0.8,1.9,1.9v22c0,1-0.8,1.9-1.9,1.9    H555.3z"/>
		<path class="st1" d="M570.3,72.4c1,0,1.8,0.8,1.8,1.8v22c0,1-0.8,1.8-1.8,1.8h-15c-1,0-1.8-0.8-1.8-1.8v-22c0-1,0.8-1.8,1.8-1.8    H570.3 M570.3,72.2h-15c-1.1,0-2,0.9-2,2v22c0,1.1,0.9,2,2,2h15c1.1,0,2-0.9,2-2v-22C572.3,73.1,571.4,72.2,570.3,72.2L570.3,72.2    z"/>
	</g>
	<g>
		<path class="st2" d="M555.8,75.3c0-0.4,0.6-0.6,1.9-0.6c1.3,0,1.9,0.2,1.9,0.6c0,0.3-0.3,0.6-0.8,0.9v1c0.5,0.2,0.8,0.4,0.8,0.7    c0,0.3-0.3,0.6-0.8,0.7v1c0.5,0.3,0.8,0.6,0.8,0.9c0,0.4-0.6,0.6-1.9,0.6c-1.3,0-1.9-0.2-1.9-0.6c0-0.3,0.3-0.6,0.8-0.9v-1    c-0.5-0.2-0.8-0.4-0.8-0.7c0-0.3,0.3-0.6,0.8-0.7v-1C556.1,75.9,555.8,75.6,555.8,75.3z M555.8,82.5c0-0.4,0.6-0.6,1.9-0.6    c1.3,0,1.9,0.2,1.9,0.6c0,0.3-0.3,0.6-0.8,0.9v1c0.5,0.2,0.8,0.4,0.8,0.7c0,0.3-0.3,0.6-0.8,0.7v1c0.5,0.3,0.8,0.6,0.8,0.9    c0,0.4-0.6,0.6-1.9,0.6c-1.3,0-1.9-0.2-1.9-0.6c0-0.3,0.3-0.6,0.8-0.9v-1c-0.5-0.2-0.8-0.4-0.8-0.7c0-0.3,0.3-0.6,0.8-0.7v-1    C556.1,83.2,555.8,82.9,555.8,82.5z M555.8,89.8c0-0.4,0.6-0.6,1.9-0.6c1.3,0,1.9,0.2,1.9,0.6c0,0.3-0.3,0.6-0.8,0.9v1    c0.5,0.2,0.8,0.4,0.8,0.7c0,0.3-0.3,0.6-0.8,0.7v1c0.5,0.3,0.8,0.6,0.8,0.9c0,0.4-0.6,0.6-1.9,0.6c-1.3,0-1.9-0.2-1.9-0.6    c0-0.3,0.3-0.6,0.8-0.9v-1c-0.5-0.2-0.8-0.4-0.8-0.7c0-0.3,0.3-0.6,0.8-0.7v-1C556.1,90.4,555.8,90.1,555.8,89.8z M557.2,75.3V77    c0.1,0,0.3,0,0.5,0c0.2,0,0.4,0,0.5,0v-1.7c-0.1,0-0.3,0-0.5,0C557.5,75.3,557.3,75.3,557.2,75.3z M557.2,78.5c0,0,0.1,0,0.2,0    c0.1,0,0.2,0,0.3,0s0.2,0,0.3,0c0.1,0,0.2,0,0.2,0v-1.1c0,0-0.1,0-0.2,0c-0.1,0-0.2,0-0.3,0s-0.2,0-0.3,0c-0.1,0-0.2,0-0.2,0V78.5    z M558.2,80.5v-1.7c-0.1,0-0.3,0-0.5,0c-0.2,0-0.4,0-0.5,0v1.7c0.1,0,0.3,0,0.5,0C557.9,80.5,558.1,80.5,558.2,80.5z M557.2,82.5    v1.7c0.1,0,0.3,0,0.5,0c0.2,0,0.4,0,0.5,0v-1.7c-0.1,0-0.3,0-0.5,0C557.5,82.5,557.3,82.5,557.2,82.5z M557.2,85.7    c0,0,0.1,0,0.2,0c0.1,0,0.2,0,0.3,0s0.2,0,0.3,0c0.1,0,0.2,0,0.2,0v-1.1c0,0-0.1,0-0.2,0c-0.1,0-0.2,0-0.3,0s-0.2,0-0.3,0    c-0.1,0-0.2,0-0.2,0V85.7z M558.2,87.8V86c-0.1,0-0.3,0-0.5,0c-0.2,0-0.4,0-0.5,0v1.7c0.1,0,0.3,0,0.5,0    C557.9,87.8,558.1,87.8,558.2,87.8z M557.2,89.8v1.7c0.1,0,0.3,0,0.5,0c0.2,0,0.4,0,0.5,0v-1.7c-0.1,0-0.3,0-0.5,0    C557.5,89.8,557.3,89.8,557.2,89.8z M557.2,93c0,0,0.1,0,0.2,0c0.1,0,0.2,0,0.3,0s0.2,0,0.3,0c0.1,0,0.2,0,0.2,0v-1.1    c0,0-0.1,0-0.2,0c-0.1,0-0.2,0-0.3,0s-0.2,0-0.3,0c-0.1,0-0.2,0-0.2,0V93z M558.2,95v-1.7c-0.1,0-0.3,0-0.5,0c-0.2,0-0.4,0-0.5,0    V95c0.1,0,0.3,0,0.5,0C557.9,95.1,558.1,95,558.2,95z"/>
		<path class="st3" d="M560.9,75.3c0-0.4,0.6-0.6,1.9-0.6c1.3,0,1.9,0.2,1.9,0.6c0,0.3-0.3,0.6-0.8,0.9v1c0.5,0.2,0.8,0.4,0.8,0.7    c0,0.3-0.3,0.6-0.8,0.7v1c0.5,0.3,0.8,0.6,0.8,0.9c0,0.4-0.6,0.6-1.9,0.6c-1.3,0-1.9-0.2-1.9-0.6c0-0.3,0.3-0.6,0.8-0.9v-1    c-0.5-0.2-0.8-0.4-0.8-0.7c0-0.3,0.3-0.6,0.8-0.7v-1C561.2,75.9,560.9,75.6,560.9,75.3z M560.9,82.5c0-0.4,0.6-0.6,1.9-0.6    c1.3,0,1.9,0.2,1.9,0.6c0,0.3-0.3,0.6-0.8,0.9v1c0.5,0.2,0.8,0.4,0.8,0.7c0,0.3-0.3,0.6-0.8,0.7v1c0.5,0.3,0.8,0.6,0.8,0.9    c0,0.4-0.6,0.6-1.9,0.6c-1.3,0-1.9-0.2-1.9-0.6c0-0.3,0.3-0.6,0.8-0.9v-1c-0.5-0.2-0.8-0.4-0.8-0.7c0-0.3,0.3-0.6,0.8-0.7v-1    C561.2,83.2,560.9,82.9,560.9,82.5z M560.9,89.8c0-0.4,0.6-0.6,1.9-0.6c1.3,0,1.9,0.2,1.9,0.6c0,0.3-0.3,0.6-0.8,0.9v1    c0.5,0.2,0.8,0.4,0.8,0.7c0,0.3-0.3,0.6-0.8,0.7v1c0.5,0.3,0.8,0.6,0.8,0.9c0,0.4-0.6,0.6-1.9,0.6c-1.3,0-1.9-0.2-1.9-0.6    c0-0.3,0.3-0.6,0.8-0.9v-1c-0.5-0.2-0.8-0.4-0.8-0.7c0-0.3,0.3-0.6,0.8-0.7v-1C561.2,90.4,560.9,90.1,560.9,89.8z M562.3,75.3V77    c0.1,0,0.3,0,0.5,0c0.2,0,0.4,0,0.5,0v-1.7c-0.1,0-0.3,0-0.5,0C562.6,75.3,562.4,75.3,562.3,75.3z M562.3,78.5c0.1,0,0.2,0,0.3,0    c0.1,0,0.2,0,0.2,0c0,0,0.1,0,0.2,0c0.1,0,0.2,0,0.3,0v-1.1c-0.1,0-0.2,0-0.3,0c-0.1,0-0.2,0-0.2,0c0,0-0.1,0-0.2,0    c-0.1,0-0.2,0-0.3,0V78.5z M563.3,80.5v-1.7c-0.1,0-0.3,0-0.5,0c-0.2,0-0.4,0-0.5,0v1.7c0.1,0,0.3,0,0.5,0    C563,80.5,563.1,80.5,563.3,80.5z M562.3,82.5v1.7c0.1,0,0.3,0,0.5,0c0.2,0,0.4,0,0.5,0v-1.7c-0.1,0-0.3,0-0.5,0    C562.6,82.5,562.4,82.5,562.3,82.5z M562.3,85.7c0.1,0,0.2,0,0.3,0c0.1,0,0.2,0,0.2,0c0,0,0.1,0,0.2,0c0.1,0,0.2,0,0.3,0v-1.1    c-0.1,0-0.2,0-0.3,0c-0.1,0-0.2,0-0.2,0c0,0-0.1,0-0.2,0c-0.1,0-0.2,0-0.3,0V85.7z M563.3,87.8V86c-0.1,0-0.3,0-0.5,0    c-0.2,0-0.4,0-0.5,0v1.7c0.1,0,0.3,0,0.5,0C563,87.8,563.1,87.8,563.3,87.8z M562.3,89.8v1.7c0.1,0,0.3,0,0.5,0c0.2,0,0.4,0,0.5,0    v-1.7c-0.1,0-0.3,0-0.5,0C562.6,89.8,562.4,89.8,562.3,89.8z M562.3,93c0.1,0,0.2,0,0.3,0c0.1,0,0.2,0,0.2,0c0,0,0.1,0,0.2,0    c0.1,0,0.2,0,0.3,0v-1.1c-0.1,0-0.2,0-0.3,0c-0.1,0-0.2,0-0.2,0c0,0-0.1,0-0.2,0c-0.1,0-0.2,0-0.3,0V93z M563.3,95v-1.7    c-0.1,0-0.3,0-0.5,0c-0.2,0-0.4,0-0.5,0V95c0.1,0,0.3,0,0.5,0C563,95.1,563.1,95,563.3,95z"/>
		<path class="st2" d="M566,75.3c0-0.4,0.6-0.6,1.9-0.6c1.3,0,1.9,0.2,1.9,0.6c0,0.3-0.3,0.6-0.8,0.9v1c0.5,0.2,0.8,0.4,0.8,0.7    c0,0.3-0.3,0.6-0.8,0.7v1c0.5,0.3,0.8,0.6,0.8,0.9c0,0.4-0.6,0.6-1.9,0.6c-1.3,0-1.9-0.2-1.9-0.6c0-0.3,0.3-0.6,0.8-0.9v-1    c-0.5-0.2-0.8-0.4-0.8-0.7c0-0.3,0.3-0.6,0.8-0.7v-1C566.3,75.9,566,75.6,566,75.3z M566,82.5c0-0.4,0.6-0.6,1.9-0.6    c1.3,0,1.9,0.2,1.9,0.6c0,0.3-0.3,0.6-0.8,0.9v1c0.5,0.2,0.8,0.4,0.8,0.7c0,0.3-0.3,0.6-0.8,0.7v1c0.5,0.3,0.8,0.6,0.8,0.9    c0,0.4-0.6,0.6-1.9,0.6c-1.3,0-1.9-0.2-1.9-0.6c0-0.3,0.3-0.6,0.8-0.9v-1c-0.5-0.2-0.8-0.4-0.8-0.7c0-0.3,0.3-0.6,0.8-0.7v-1    C566.3,83.2,566,82.9,566,82.5z M566,89.8c0-0.4,0.6-0.6,1.9-0.6c1.3,0,1.9,0.2,1.9,0.6c0,0.3-0.3,0.6-0.8,0.9v1    c0.5,0.2,0.8,0.4,0.8,0.7c0,0.3-0.3,0.6-0.8,0.7v1c0.5,0.3,0.8,0.6,0.8,0.9c0,0.4-0.6,0.6-1.9,0.6c-1.3,0-1.9-0.2-1.9-0.6    c0-0.3,0.3-0.6,0.8-0.9v-1c-0.5-0.2-0.8-0.4-0.8-0.7c0-0.3,0.3-0.6,0.8-0.7v-1C566.3,90.4,566,90.1,566,89.8z M567.4,75.3V77    c0.1,0,0.3,0,0.5,0c0.2,0,0.4,0,0.5,0v-1.7c-0.1,0-0.3,0-0.5,0C567.6,75.3,567.5,75.3,567.4,75.3z M567.4,78.5c0,0,0.1,0,0.2,0    c0.1,0,0.2,0,0.3,0c0.1,0,0.2,0,0.3,0c0.1,0,0.2,0,0.2,0v-1.1c0,0-0.1,0-0.2,0c-0.1,0-0.2,0-0.3,0c-0.1,0-0.2,0-0.3,0    c-0.1,0-0.2,0-0.2,0V78.5z M568.3,80.5v-1.7c-0.1,0-0.3,0-0.5,0c-0.2,0-0.4,0-0.5,0v1.7c0.1,0,0.3,0,0.5,0    C568.1,80.5,568.2,80.5,568.3,80.5z M567.4,82.5v1.7c0.1,0,0.3,0,0.5,0c0.2,0,0.4,0,0.5,0v-1.7c-0.1,0-0.3,0-0.5,0    C567.6,82.5,567.5,82.5,567.4,82.5z M567.4,85.7c0,0,0.1,0,0.2,0c0.1,0,0.2,0,0.3,0c0.1,0,0.2,0,0.3,0c0.1,0,0.2,0,0.2,0v-1.1    c0,0-0.1,0-0.2,0c-0.1,0-0.2,0-0.3,0c-0.1,0-0.2,0-0.3,0c-0.1,0-0.2,0-0.2,0V85.7z M568.3,87.8V86c-0.1,0-0.3,0-0.5,0    c-0.2,0-0.4,0-0.5,0v1.7c0.1,0,0.3,0,0.5,0C568.1,87.8,568.2,87.8,568.3,87.8z M567.4,89.8v1.7c0.1,0,0.3,0,0.5,0    c0.2,0,0.4,0,0.5,0v-1.7c-0.1,0-0.3,0-0.5,0C567.6,89.8,567.5,89.8,567.4,89.8z M567.4,93c0,0,0.1,0,0.2,0c0.1,0,0.2,0,0.3,0    c0.1,0,0.2,0,0.3,0c0.1,0,0.2,0,0.2,0v-1.1c0,0-0.1,0-0.2,0c-0.1,0-0.2,0-0.3,0c-0.1,0-0.2,0-0.3,0c-0.1,0-0.2,0-0.2,0V93z     M568.3,95v-1.7c-0.1,0-0.3,0-0.5,0c-0.2,0-0.4,0-0.5,0V95c0.1,0,0.3,0,0.5,0C568.1,95.1,568.2,95,568.3,95z"/>
	</g>
</g>
</svg>