<?xml version="1.0" encoding="utf-8"?>
<!-- Generator: Adobe Illustrator 19.1.0, SVG Export Plug-In . SVG Version: 6.00 Build 0)  -->
<svg version="1.0" xmlns="http://www.w3.org/2000/svg" xmlns:xlink="http://www.w3.org/1999/xlink" x="0px" y="0px" width="1200" height="800"
 viewBox="560 37 100 80" xml:space="preserve">
<style type="text/css">
	.st0{fill:#F2F2F2;}
	.st1{fill:#808080;}
	.st2{fill:#0B3413;}
	.st3{fill:#871008;}
	.st4{fill:#07092D;}
	.st5{fill:#870E06;}
	.st6{fill:#CC1009;}
	.st7{fill:#CC140D;}
	.st8{fill:#CC130C;}
	.st9{filter:url(#Adobe_OpacityMaskFilter);}
	.st10{mask:url(#SVGID_1_);fill:#07092D;}
	.st11{filter:url(#Adobe_OpacityMaskFilter_1_);}
	.st12{mask:url(#SVGID_2_);fill:#07092D;}
</style>
<g>
	<g>
		<path class="st0" d="M555.3,65.9c-1,0-1.9-0.8-1.9-1.9V42c0-1,0.8-1.9,1.9-1.9h15c1,0,1.9,0.8,1.9,1.9v22c0,1-0.8,1.9-1.9,1.9    H555.3z"/>
		<path class="st1" d="M570.3,40.3c1,0,1.8,0.8,1.8,1.8v22c0,1-0.8,1.8-1.8,1.8h-15c-1,0-1.8-0.8-1.8-1.8V42c0-1,0.8-1.8,1.8-1.8    H570.3 M570.3,40h-15c-1.1,0-2,0.9-2,2v22c0,1.1,0.9,2,2,2h15c1.1,0,2-0.9,2-2V42C572.3,40.9,571.4,40,570.3,40L570.3,40z"/>
	</g>
	<g>
		<g>
			<circle class="st4" cx="557.1" cy="60.7" r="0.2"/>
			<path class="st4" d="M557.1,58.7c-1.1,0-2,0.9-2,2c0,1.1,0.9,2,2,2c1.1,0,2-0.9,2-2C559.1,59.6,558.2,58.7,557.1,58.7z      M556.5,59.3c0.2-0.1,0.4-0.2,0.7-0.2v0c0.2,0,0.5,0.1,0.7,0.2c0.1,0,0.1,0.2,0.1,0.2c0,0.1-0.2,0.3-0.2,0.3c-0.1,0-0.1,0-0.2,0     c0,0-0.2-0.1-0.3-0.1v0c-0.1,0-0.3,0.1-0.3,0.1c0,0-0.1,0-0.2,0c-0.1,0-0.2-0.2-0.2-0.3C556.4,59.4,556.4,59.3,556.5,59.3z      M555.6,60.9c0-0.2,0-0.5,0-0.7l0,0c0.1-0.2,0.2-0.4,0.4-0.6c0.1-0.1,0.2,0,0.3,0c0.1,0.1,0.2,0.2,0.2,0.3c0,0.1,0,0.2,0,0.2     c0,0-0.1,0.2-0.2,0.3l0,0c0,0.1,0,0.3,0,0.3s0,0.1-0.1,0.2c0,0-0.3,0.1-0.4,0.1C555.7,61,555.6,61,555.6,60.9z M557,62.1     c0,0.1-0.1,0.2-0.2,0.2c-0.2,0-0.4-0.1-0.6-0.3l0,0c-0.2-0.1-0.4-0.3-0.4-0.5c0-0.1,0-0.2,0.1-0.2c0.1-0.1,0.3-0.1,0.4-0.1     c0.1,0,0.1,0.1,0.2,0.1c0,0,0.1,0.2,0.2,0.2l0,0c0.1,0.1,0.3,0.1,0.3,0.1s0.1,0.1,0.1,0.1C557.1,61.8,557.1,62,557,62.1z      M556.6,60.7c0-0.3,0.2-0.5,0.5-0.5c0.3,0,0.5,0.2,0.5,0.5c0,0.3-0.2,0.5-0.5,0.5C556.8,61.3,556.6,61,556.6,60.7z M558.1,62     L558.1,62c-0.2,0.1-0.4,0.2-0.6,0.3c-0.1,0-0.2-0.1-0.2-0.2c0-0.1,0-0.3,0-0.4c0-0.1,0.1-0.1,0.1-0.1c0,0,0.2-0.1,0.3-0.1l0,0     c0.1-0.1,0.2-0.2,0.2-0.2c0,0,0.1-0.1,0.2-0.1c0.1,0,0.3,0.1,0.4,0.1c0.1,0.1,0.1,0.2,0.1,0.2C558.4,61.7,558.3,61.9,558.1,62z      M558.5,61c-0.1,0-0.3-0.1-0.4-0.1c0,0-0.1-0.1-0.1-0.2c0,0,0-0.2,0-0.3l0,0c0-0.1-0.1-0.2-0.2-0.3c0,0,0-0.1,0-0.2     c0-0.1,0.2-0.3,0.2-0.3c0.1-0.1,0.2-0.1,0.3,0c0.2,0.1,0.3,0.4,0.4,0.6l0,0c0.1,0.2,0.1,0.5,0,0.7C558.7,61,558.6,61,558.5,61z"/>
		</g>
		<g>
			<circle class="st4" cx="568.4" cy="60.7" r="0.2"/>
			<path class="st4" d="M568.4,58.7c-1.1,0-2,0.9-2,2c0,1.1,0.9,2,2,2c1.1,0,2-0.9,2-2C570.4,59.6,569.5,58.7,568.4,58.7z      M567.7,59.3c0.2-0.1,0.4-0.2,0.7-0.2v0c0.2,0,0.5,0.1,0.7,0.2c0.1,0,0.1,0.2,0.1,0.2c0,0.1-0.2,0.3-0.2,0.3c-0.1,0-0.1,0-0.2,0     c0,0-0.2-0.1-0.3-0.1v0c-0.1,0-0.3,0.1-0.3,0.1s-0.1,0-0.2,0c-0.1,0-0.2-0.2-0.2-0.3C567.6,59.4,567.7,59.3,567.7,59.3z      M566.8,60.9c0-0.2,0-0.5,0-0.7l0,0c0.1-0.2,0.2-0.4,0.4-0.6c0.1-0.1,0.2,0,0.3,0c0.1,0.1,0.2,0.2,0.2,0.3c0,0.1,0,0.2,0,0.2     c0,0-0.1,0.2-0.2,0.3l0,0c0,0.1,0,0.3,0,0.3s0,0.1-0.1,0.2c0,0-0.3,0.1-0.4,0.1C566.9,61,566.8,61,566.8,60.9z M568.3,62.1     c0,0.1-0.1,0.2-0.2,0.2c-0.2,0-0.4-0.1-0.6-0.3l0,0c-0.2-0.1-0.4-0.3-0.4-0.5c0-0.1,0-0.2,0.1-0.2c0.1-0.1,0.3-0.1,0.4-0.1     c0.1,0,0.1,0.1,0.2,0.1c0,0,0.1,0.2,0.2,0.2l0,0c0.1,0.1,0.3,0.1,0.3,0.1c0,0,0.1,0.1,0.1,0.1C568.3,61.8,568.3,62,568.3,62.1z      M567.8,60.7c0-0.3,0.2-0.5,0.5-0.5c0.3,0,0.5,0.2,0.5,0.5c0,0.3-0.2,0.5-0.5,0.5C568.1,61.3,567.8,61,567.8,60.7z M569.3,62     L569.3,62c-0.2,0.1-0.4,0.2-0.6,0.3c-0.1,0-0.2-0.1-0.2-0.2c0-0.1,0-0.3,0-0.4c0-0.1,0.1-0.1,0.1-0.1c0,0,0.2-0.1,0.3-0.1l0,0     c0.1-0.1,0.2-0.2,0.2-0.2c0,0,0.1-0.1,0.2-0.1c0.1,0,0.3,0.1,0.4,0.1c0.1,0.1,0.1,0.2,0.1,0.2C569.7,61.7,569.5,61.9,569.3,62z      M569.8,61c-0.1,0-0.3-0.1-0.4-0.1c0,0-0.1-0.1-0.1-0.2c0,0,0-0.2,0-0.3l0,0c0-0.1-0.1-0.2-0.2-0.3c0,0,0-0.1,0-0.2     c0-0.1,0.2-0.3,0.2-0.3c0.1-0.1,0.2-0.1,0.3,0c0.2,0.1,0.3,0.4,0.4,0.6l0,0c0.1,0.2,0.1,0.5,0,0.7C570,61,569.8,61,569.8,61z"/>
		</g>
		<path class="st4" d="M568.4,57.6c-1.3,0-2.3,0.7-2.8,1.8c-0.5-1.1-1.6-1.8-2.8-1.8c-1.3,0-2.3,0.7-2.8,1.8    c-0.5-1.1-1.6-1.8-2.8-1.8c-1.7,0-3.1,1.4-3.1,3.1c0,1.7,1.4,3.1,3.1,3.1c1.3,0,2.3-0.7,2.8-1.8c0.5,1.1,1.6,1.8,2.8,1.8    c1.3,0,2.3-0.7,2.8-1.8c0.5,1.1,1.6,1.8,2.8,1.8c1.7,0,3.1-1.4,3.1-3.1C571.5,59,570.1,57.6,568.4,57.6z M557.1,63.3    c-1.4,0-2.5-1.1-2.5-2.5c0-1.4,1.1-2.5,2.5-2.5c1.4,0,2.5,1.1,2.5,2.5C559.7,62.1,558.6,63.3,557.1,63.3z M562.8,63.3    c-1.4,0-2.5-1.1-2.5-2.5c0-1.4,1.1-2.5,2.5-2.5c1.4,0,2.5,1.1,2.5,2.5C565.3,62.1,564.2,63.3,562.8,63.3z M568.4,63.3    c-1.4,0-2.5-1.1-2.5-2.5c0-1.4,1.1-2.5,2.5-2.5c1.4,0,2.5,1.1,2.5,2.5C570.9,62.1,569.8,63.3,568.4,63.3z"/>
		<g>
			<circle class="st4" cx="562.8" cy="60.7" r="0.2"/>
			<path class="st4" d="M562.8,58.7c-1.1,0-2,0.9-2,2c0,1.1,0.9,2,2,2c1.1,0,2-0.9,2-2C564.8,59.6,563.9,58.7,562.8,58.7z      M562.1,59.3c0.2-0.1,0.4-0.2,0.7-0.2v0c0.2,0,0.5,0.1,0.7,0.2c0.1,0,0.1,0.2,0.1,0.2c0,0.1-0.2,0.3-0.2,0.3c-0.1,0-0.1,0-0.2,0     c0,0-0.2-0.1-0.3-0.1v0c-0.1,0-0.3,0.1-0.3,0.1c0,0-0.1,0-0.2,0c-0.1,0-0.2-0.2-0.2-0.3C562,59.4,562,59.3,562.1,59.3z      M561.2,60.9c0-0.2,0-0.5,0-0.7l0,0c0.1-0.2,0.2-0.4,0.4-0.6c0.1-0.1,0.2,0,0.3,0c0.1,0.1,0.2,0.2,0.2,0.3c0,0.1,0,0.2,0,0.2     c0,0-0.1,0.2-0.2,0.3l0,0c0,0.1,0,0.3,0,0.3s0,0.1-0.1,0.2c0,0-0.3,0.1-0.4,0.1C561.3,61,561.2,61,561.2,60.9z M562.6,62.1     c0,0.1-0.1,0.2-0.2,0.2c-0.2,0-0.4-0.1-0.6-0.3l0,0c-0.2-0.1-0.4-0.3-0.4-0.5c0-0.1,0-0.2,0.1-0.2c0.1-0.1,0.3-0.1,0.4-0.1     c0.1,0,0.1,0.1,0.2,0.1c0,0,0.1,0.2,0.2,0.2l0,0c0.1,0.1,0.3,0.1,0.3,0.1s0.1,0.1,0.1,0.1C562.7,61.8,562.7,62,562.6,62.1z      M562.2,60.7c0-0.3,0.2-0.5,0.5-0.5c0.3,0,0.5,0.2,0.5,0.5c0,0.3-0.2,0.5-0.5,0.5C562.5,61.3,562.2,61,562.2,60.7z M563.7,62     L563.7,62c-0.2,0.1-0.4,0.2-0.6,0.3c-0.1,0-0.2-0.1-0.2-0.2c0-0.1,0-0.3,0-0.4c0-0.1,0.1-0.1,0.1-0.1c0,0,0.2-0.1,0.3-0.1l0,0     c0.1-0.1,0.2-0.2,0.2-0.2c0,0,0.1-0.1,0.2-0.1c0.1,0,0.3,0.1,0.4,0.1c0.1,0.1,0.1,0.2,0.1,0.2C564.1,61.7,563.9,61.9,563.7,62z      M564.1,61c-0.1,0-0.3-0.1-0.4-0.1c0,0-0.1-0.1-0.1-0.2c0,0,0-0.2,0-0.3l0,0c0-0.1-0.1-0.2-0.2-0.3c0,0,0-0.1,0-0.2     c0-0.1,0.2-0.3,0.2-0.3c0.1-0.1,0.2-0.1,0.3,0c0.2,0.1,0.3,0.4,0.4,0.6l0,0c0.1,0.2,0.1,0.5,0,0.7C564.3,61,564.2,61,564.1,61z"/>
		</g>
	</g>
	<g>
		<g>
			<circle class="st4" cx="557.1" cy="45.4" r="0.2"/>
			<path class="st4" d="M557.1,43.4c-1.1,0-2,0.9-2,2s0.9,2,2,2c1.1,0,2-0.9,2-2S558.2,43.4,557.1,43.4z M556.5,43.9     c0.2-0.1,0.4-0.2,0.7-0.2v0c0.2,0,0.5,0.1,0.7,0.2c0.1,0,0.1,0.2,0.1,0.2c0,0.1-0.2,0.3-0.2,0.3c-0.1,0-0.1,0-0.2,0     c0,0-0.2-0.1-0.3-0.1v0c-0.1,0-0.3,0.1-0.3,0.1s-0.1,0-0.2,0c-0.1,0-0.2-0.2-0.2-0.3C556.4,44.1,556.4,44,556.5,43.9z      M555.6,45.5c0-0.2,0-0.5,0-0.7l0,0c0.1-0.2,0.2-0.4,0.4-0.6c0.1-0.1,0.2,0,0.3,0c0.1,0.1,0.2,0.2,0.2,0.3c0,0.1,0,0.2,0,0.2     c0,0-0.1,0.2-0.2,0.3l0,0c0,0.1,0,0.3,0,0.3s0,0.1-0.1,0.2c0,0-0.3,0.1-0.4,0.1C555.7,45.7,555.6,45.6,555.6,45.5z M557,46.8     c0,0.1-0.1,0.2-0.2,0.2c-0.2,0-0.4-0.1-0.6-0.3l0,0c-0.2-0.1-0.4-0.3-0.4-0.5c0-0.1,0-0.2,0.1-0.2c0.1-0.1,0.3-0.1,0.4-0.1     c0.1,0,0.1,0.1,0.2,0.1c0,0,0.1,0.2,0.2,0.2l0,0c0.1,0.1,0.3,0.1,0.3,0.1c0,0,0.1,0.1,0.1,0.1C557.1,46.4,557.1,46.7,557,46.8z      M556.6,45.4c0-0.3,0.2-0.5,0.5-0.5c0.3,0,0.5,0.2,0.5,0.5c0,0.3-0.2,0.5-0.5,0.5C556.8,45.9,556.6,45.7,556.6,45.4z M558.1,46.7     L558.1,46.7c-0.2,0.1-0.4,0.2-0.6,0.3c-0.1,0-0.2-0.1-0.2-0.2c0-0.1,0-0.3,0-0.4c0-0.1,0.1-0.1,0.1-0.1c0,0,0.2-0.1,0.3-0.1l0,0     c0.1-0.1,0.2-0.2,0.2-0.2c0,0,0.1-0.1,0.2-0.1c0.1,0,0.3,0.1,0.4,0.1c0.1,0.1,0.1,0.2,0.1,0.2C558.4,46.3,558.3,46.5,558.1,46.7z      M558.5,45.7c-0.1,0-0.3-0.1-0.4-0.1c0,0-0.1-0.1-0.1-0.2c0,0,0-0.2,0-0.3l0,0c0-0.1-0.1-0.2-0.2-0.3c0,0,0-0.1,0-0.2     c0-0.1,0.2-0.3,0.2-0.3c0.1-0.1,0.2-0.1,0.3,0c0.2,0.1,0.3,0.4,0.4,0.6l0,0c0.1,0.2,0.1,0.5,0,0.7     C558.7,45.6,558.6,45.7,558.5,45.7z"/>
		</g>
		<g>
			<circle class="st4" cx="568.4" cy="45.4" r="0.2"/>
			<path class="st4" d="M568.4,43.4c-1.1,0-2,0.9-2,2s0.9,2,2,2c1.1,0,2-0.9,2-2S569.5,43.4,568.4,43.4z M567.7,43.9     c0.2-0.1,0.4-0.2,0.7-0.2v0c0.2,0,0.5,0.1,0.7,0.2c0.1,0,0.1,0.2,0.1,0.2c0,0.1-0.2,0.3-0.2,0.3c-0.1,0-0.1,0-0.2,0     c0,0-0.2-0.1-0.3-0.1v0c-0.1,0-0.3,0.1-0.3,0.1s-0.1,0-0.2,0c-0.1,0-0.2-0.2-0.2-0.3C567.6,44.1,567.7,44,567.7,43.9z      M566.8,45.5c0-0.2,0-0.5,0-0.7l0,0c0.1-0.2,0.2-0.4,0.4-0.6c0.1-0.1,0.2,0,0.3,0c0.1,0.1,0.2,0.2,0.2,0.3c0,0.1,0,0.2,0,0.2     c0,0-0.1,0.2-0.2,0.3l0,0c0,0.1,0,0.3,0,0.3s0,0.1-0.1,0.2c0,0-0.3,0.1-0.4,0.1C566.9,45.7,566.8,45.6,566.8,45.5z M568.3,46.8     c0,0.1-0.1,0.2-0.2,0.2c-0.2,0-0.4-0.1-0.6-0.3l0,0c-0.2-0.1-0.4-0.3-0.4-0.5c0-0.1,0-0.2,0.1-0.2c0.1-0.1,0.3-0.1,0.4-0.1     c0.1,0,0.1,0.1,0.2,0.1c0,0,0.1,0.2,0.2,0.2l0,0c0.1,0.1,0.3,0.1,0.3,0.1c0,0,0.1,0.1,0.1,0.1C568.3,46.4,568.3,46.7,568.3,46.8z      M567.8,45.4c0-0.3,0.2-0.5,0.5-0.5c0.3,0,0.5,0.2,0.5,0.5c0,0.3-0.2,0.5-0.5,0.5C568.1,45.9,567.8,45.7,567.8,45.4z M569.3,46.7     L569.3,46.7c-0.2,0.1-0.4,0.2-0.6,0.3c-0.1,0-0.2-0.1-0.2-0.2c0-0.1,0-0.3,0-0.4c0-0.1,0.1-0.1,0.1-0.1c0,0,0.2-0.1,0.3-0.1l0,0     c0.1-0.1,0.2-0.2,0.2-0.2c0,0,0.1-0.1,0.2-0.1c0.1,0,0.3,0.1,0.4,0.1c0.1,0.1,0.1,0.2,0.1,0.2C569.7,46.3,569.5,46.5,569.3,46.7z      M569.8,45.7c-0.1,0-0.3-0.1-0.4-0.1c0,0-0.1-0.1-0.1-0.2c0,0,0-0.2,0-0.3l0,0c0-0.1-0.1-0.2-0.2-0.3c0,0,0-0.1,0-0.2     c0-0.1,0.2-0.3,0.2-0.3c0.1-0.1,0.2-0.1,0.3,0c0.2,0.1,0.3,0.4,0.4,0.6l0,0c0.1,0.2,0.1,0.5,0,0.7     C570,45.6,569.8,45.7,569.8,45.7z"/>
		</g>
		<path class="st4" d="M568.4,42.3c-1.3,0-2.3,0.7-2.8,1.8c-0.5-1.1-1.6-1.8-2.8-1.8c-1.3,0-2.3,0.7-2.8,1.8    c-0.5-1.1-1.6-1.8-2.8-1.8c-1.7,0-3.1,1.4-3.1,3.1c0,1.7,1.4,3.1,3.1,3.1c1.3,0,2.3-0.7,2.8-1.8c0.5,1.1,1.6,1.8,2.8,1.8    c1.3,0,2.3-0.7,2.8-1.8c0.5,1.1,1.6,1.8,2.8,1.8c1.7,0,3.1-1.4,3.1-3.1C571.5,43.7,570.1,42.3,568.4,42.3z M557.1,47.9    c-1.4,0-2.5-1.1-2.5-2.5c0-1.4,1.1-2.5,2.5-2.5c1.4,0,2.5,1.1,2.5,2.5C559.7,46.8,558.6,47.9,557.1,47.9z M562.8,47.9    c-1.4,0-2.5-1.1-2.5-2.5c0-1.4,1.1-2.5,2.5-2.5c1.4,0,2.5,1.1,2.5,2.5C565.3,46.8,564.2,47.9,562.8,47.9z M568.4,47.9    c-1.4,0-2.5-1.1-2.5-2.5c0-1.4,1.1-2.5,2.5-2.5c1.4,0,2.5,1.1,2.5,2.5C570.9,46.8,569.8,47.9,568.4,47.9z"/>
		<g>
			<circle class="st4" cx="562.8" cy="45.4" r="0.2"/>
			<path class="st4" d="M562.8,43.4c-1.1,0-2,0.9-2,2s0.9,2,2,2c1.1,0,2-0.9,2-2S563.9,43.4,562.8,43.4z M562.1,43.9     c0.2-0.1,0.4-0.2,0.7-0.2v0c0.2,0,0.5,0.1,0.7,0.2c0.1,0,0.1,0.2,0.1,0.2c0,0.1-0.2,0.3-0.2,0.3c-0.1,0-0.1,0-0.2,0     c0,0-0.2-0.1-0.3-0.1v0c-0.1,0-0.3,0.1-0.3,0.1s-0.1,0-0.2,0c-0.1,0-0.2-0.2-0.2-0.3C562,44.1,562,44,562.1,43.9z M561.2,45.5     c0-0.2,0-0.5,0-0.7l0,0c0.1-0.2,0.2-0.4,0.4-0.6c0.1-0.1,0.2,0,0.3,0c0.1,0.1,0.2,0.2,0.2,0.3c0,0.1,0,0.2,0,0.2     c0,0-0.1,0.2-0.2,0.3l0,0c0,0.1,0,0.3,0,0.3s0,0.1-0.1,0.2c0,0-0.3,0.1-0.4,0.1C561.3,45.7,561.2,45.6,561.2,45.5z M562.6,46.8     c0,0.1-0.1,0.2-0.2,0.2c-0.2,0-0.4-0.1-0.6-0.3l0,0c-0.2-0.1-0.4-0.3-0.4-0.5c0-0.1,0-0.2,0.1-0.2c0.1-0.1,0.3-0.1,0.4-0.1     c0.1,0,0.1,0.1,0.2,0.1c0,0,0.1,0.2,0.2,0.2l0,0c0.1,0.1,0.3,0.1,0.3,0.1c0,0,0.1,0.1,0.1,0.1C562.7,46.4,562.7,46.7,562.6,46.8z      M562.2,45.4c0-0.3,0.2-0.5,0.5-0.5c0.3,0,0.5,0.2,0.5,0.5c0,0.3-0.2,0.5-0.5,0.5C562.5,45.9,562.2,45.7,562.2,45.4z M563.7,46.7     L563.7,46.7c-0.2,0.1-0.4,0.2-0.6,0.3c-0.1,0-0.2-0.1-0.2-0.2c0-0.1,0-0.3,0-0.4c0-0.1,0.1-0.1,0.1-0.1c0,0,0.2-0.1,0.3-0.1l0,0     c0.1-0.1,0.2-0.2,0.2-0.2c0,0,0.1-0.1,0.2-0.1c0.1,0,0.3,0.1,0.4,0.1c0.1,0.1,0.1,0.2,0.1,0.2C564.1,46.3,563.9,46.5,563.7,46.7z      M564.1,45.7c-0.1,0-0.3-0.1-0.4-0.1c0,0-0.1-0.1-0.1-0.2c0,0,0-0.2,0-0.3l0,0c0-0.1-0.1-0.2-0.2-0.3c0,0,0-0.1,0-0.2     c0-0.1,0.2-0.3,0.2-0.3c0.1-0.1,0.2-0.1,0.3,0c0.2,0.1,0.3,0.4,0.4,0.6l0,0c0.1,0.2,0.1,0.5,0,0.7     C564.3,45.6,564.2,45.7,564.1,45.7z"/>
		</g>
	</g>
	<g>
		<g>
			<circle class="st3" cx="557.1" cy="53" r="0.2"/>
			<path class="st3" d="M557.1,51c-1.1,0-2,0.9-2,2c0,1.1,0.9,2,2,2c1.1,0,2-0.9,2-2C559.1,51.9,558.2,51,557.1,51z M556.5,51.6     c0.2-0.1,0.4-0.2,0.7-0.2v0c0.2,0,0.5,0.1,0.7,0.2c0.1,0,0.1,0.2,0.1,0.2c0,0.1-0.2,0.3-0.2,0.3c-0.1,0-0.1,0-0.2,0     c0,0-0.2-0.1-0.3-0.1v0c-0.1,0-0.3,0.1-0.3,0.1s-0.1,0-0.2,0c-0.1,0-0.2-0.2-0.2-0.3C556.4,51.8,556.4,51.6,556.5,51.6z      M555.6,53.2c0-0.2,0-0.5,0-0.7l0,0c0.1-0.2,0.2-0.4,0.4-0.6c0.1-0.1,0.2,0,0.3,0c0.1,0.1,0.2,0.2,0.2,0.3c0,0.1,0,0.2,0,0.2     c0,0-0.1,0.2-0.2,0.3l0,0c0,0.1,0,0.3,0,0.3s0,0.1-0.1,0.2c0,0-0.3,0.1-0.4,0.1C555.7,53.4,555.6,53.3,555.6,53.2z M557,54.4     c0,0.1-0.1,0.2-0.2,0.2c-0.2,0-0.4-0.1-0.6-0.3l0,0c-0.2-0.1-0.4-0.3-0.4-0.5c0-0.1,0-0.2,0.1-0.2c0.1-0.1,0.3-0.1,0.4-0.1     c0.1,0,0.1,0.1,0.2,0.1c0,0,0.1,0.2,0.2,0.2l0,0c0.1,0.1,0.3,0.1,0.3,0.1c0,0,0.1,0.1,0.1,0.1C557.1,54.1,557.1,54.4,557,54.4z      M556.6,53c0-0.3,0.2-0.5,0.5-0.5c0.3,0,0.5,0.2,0.5,0.5c0,0.3-0.2,0.5-0.5,0.5C556.8,53.6,556.6,53.3,556.6,53z M558.1,54.3     L558.1,54.3c-0.2,0.1-0.4,0.2-0.6,0.3c-0.1,0-0.2-0.1-0.2-0.2c0-0.1,0-0.3,0-0.4c0-0.1,0.1-0.1,0.1-0.1c0,0,0.2-0.1,0.3-0.1l0,0     c0.1-0.1,0.2-0.2,0.2-0.2c0,0,0.1-0.1,0.2-0.1c0.1,0,0.3,0.1,0.4,0.1c0.1,0.1,0.1,0.2,0.1,0.2C558.4,54,558.3,54.2,558.1,54.3z      M558.5,53.4c-0.1,0-0.3-0.1-0.4-0.1c0,0-0.1-0.1-0.1-0.2c0,0,0-0.2,0-0.3l0,0c0-0.1-0.1-0.2-0.2-0.3c0,0,0-0.1,0-0.2     c0-0.1,0.2-0.3,0.2-0.3c0.1-0.1,0.2-0.1,0.3,0c0.2,0.1,0.3,0.4,0.4,0.6l0,0c0.1,0.2,0.1,0.5,0,0.7     C558.7,53.3,558.6,53.4,558.5,53.4z"/>
		</g>
		<g>
			<circle class="st3" cx="568.4" cy="53" r="0.2"/>
			<path class="st3" d="M568.4,51c-1.1,0-2,0.9-2,2c0,1.1,0.9,2,2,2c1.1,0,2-0.9,2-2C570.4,51.9,569.5,51,568.4,51z M567.7,51.6     c0.2-0.1,0.4-0.2,0.7-0.2v0c0.2,0,0.5,0.1,0.7,0.2c0.1,0,0.1,0.2,0.1,0.2c0,0.1-0.2,0.3-0.2,0.3c-0.1,0-0.1,0-0.2,0     c0,0-0.2-0.1-0.3-0.1v0c-0.1,0-0.3,0.1-0.3,0.1s-0.1,0-0.2,0c-0.1,0-0.2-0.2-0.2-0.3C567.6,51.8,567.7,51.6,567.7,51.6z      M566.8,53.2c0-0.2,0-0.5,0-0.7l0,0c0.1-0.2,0.2-0.4,0.4-0.6c0.1-0.1,0.2,0,0.3,0c0.1,0.1,0.2,0.2,0.2,0.3c0,0.1,0,0.2,0,0.2     c0,0-0.1,0.2-0.2,0.3l0,0c0,0.1,0,0.3,0,0.3s0,0.1-0.1,0.2c0,0-0.3,0.1-0.4,0.1C566.9,53.4,566.8,53.3,566.8,53.2z M568.3,54.4     c0,0.1-0.1,0.2-0.2,0.2c-0.2,0-0.4-0.1-0.6-0.3l0,0c-0.2-0.1-0.4-0.3-0.4-0.5c0-0.1,0-0.2,0.1-0.2c0.1-0.1,0.3-0.1,0.4-0.1     c0.1,0,0.1,0.1,0.2,0.1c0,0,0.1,0.2,0.2,0.2l0,0c0.1,0.1,0.3,0.1,0.3,0.1c0,0,0.1,0.1,0.1,0.1C568.3,54.1,568.3,54.4,568.3,54.4z      M567.8,53c0-0.3,0.2-0.5,0.5-0.5c0.3,0,0.5,0.2,0.5,0.5c0,0.3-0.2,0.5-0.5,0.5C568.1,53.6,567.8,53.3,567.8,53z M569.3,54.3     L569.3,54.3c-0.2,0.1-0.4,0.2-0.6,0.3c-0.1,0-0.2-0.1-0.2-0.2c0-0.1,0-0.3,0-0.4c0-0.1,0.1-0.1,0.1-0.1c0,0,0.2-0.1,0.3-0.1l0,0     c0.1-0.1,0.2-0.2,0.2-0.2c0,0,0.1-0.1,0.2-0.1c0.1,0,0.3,0.1,0.4,0.1c0.1,0.1,0.1,0.2,0.1,0.2C569.7,54,569.5,54.2,569.3,54.3z      M569.8,53.4c-0.1,0-0.3-0.1-0.4-0.1c0,0-0.1-0.1-0.1-0.2c0,0,0-0.2,0-0.3l0,0c0-0.1-0.1-0.2-0.2-0.3c0,0,0-0.1,0-0.2     c0-0.1,0.2-0.3,0.2-0.3c0.1-0.1,0.2-0.1,0.3,0c0.2,0.1,0.3,0.4,0.4,0.6l0,0c0.1,0.2,0.1,0.5,0,0.7     C570,53.3,569.8,53.4,569.8,53.4z"/>
		</g>
		<path class="st4" d="M568.4,49.9c-1.3,0-2.3,0.7-2.8,1.8c-0.5-1.1-1.6-1.8-2.8-1.8c-1.3,0-2.3,0.7-2.8,1.8    c-0.5-1.1-1.6-1.8-2.8-1.8c-1.7,0-3.1,1.4-3.1,3.1c0,1.7,1.4,3.1,3.1,3.1c1.3,0,2.3-0.7,2.8-1.8c0.5,1.1,1.6,1.8,2.8,1.8    c1.3,0,2.3-0.7,2.8-1.8c0.5,1.1,1.6,1.8,2.8,1.8c1.7,0,3.1-1.4,3.1-3.1C571.5,51.3,570.1,49.9,568.4,49.9z M557.1,55.6    c-1.4,0-2.5-1.1-2.5-2.5c0-1.4,1.1-2.5,2.5-2.5c1.4,0,2.5,1.1,2.5,2.5C559.7,54.5,558.6,55.6,557.1,55.6z M562.8,55.6    c-1.4,0-2.5-1.1-2.5-2.5c0-1.4,1.1-2.5,2.5-2.5c1.4,0,2.5,1.1,2.5,2.5C565.3,54.5,564.2,55.6,562.8,55.6z M568.4,55.6    c-1.4,0-2.5-1.1-2.5-2.5c0-1.4,1.1-2.5,2.5-2.5c1.4,0,2.5,1.1,2.5,2.5C570.9,54.5,569.8,55.6,568.4,55.6z"/>
		<g>
			<circle class="st3" cx="562.8" cy="53" r="0.2"/>
			<path class="st3" d="M562.8,51c-1.1,0-2,0.9-2,2c0,1.1,0.9,2,2,2c1.1,0,2-0.9,2-2C564.8,51.9,563.9,51,562.8,51z M562.1,51.6     c0.2-0.1,0.4-0.2,0.7-0.2v0c0.2,0,0.5,0.1,0.7,0.2c0.1,0,0.1,0.2,0.1,0.2c0,0.1-0.2,0.3-0.2,0.3c-0.1,0-0.1,0-0.2,0     c0,0-0.2-0.1-0.3-0.1v0c-0.1,0-0.3,0.1-0.3,0.1s-0.1,0-0.2,0c-0.1,0-0.2-0.2-0.2-0.3C562,51.8,562,51.6,562.1,51.6z M561.2,53.2     c0-0.2,0-0.5,0-0.7l0,0c0.1-0.2,0.2-0.4,0.4-0.6c0.1-0.1,0.2,0,0.3,0c0.1,0.1,0.2,0.2,0.2,0.3c0,0.1,0,0.2,0,0.2     c0,0-0.1,0.2-0.2,0.3l0,0c0,0.1,0,0.3,0,0.3s0,0.1-0.1,0.2c0,0-0.3,0.1-0.4,0.1C561.3,53.4,561.2,53.3,561.2,53.2z M562.6,54.4     c0,0.1-0.1,0.2-0.2,0.2c-0.2,0-0.4-0.1-0.6-0.3l0,0c-0.2-0.1-0.4-0.3-0.4-0.5c0-0.1,0-0.2,0.1-0.2c0.1-0.1,0.3-0.1,0.4-0.1     c0.1,0,0.1,0.1,0.2,0.1c0,0,0.1,0.2,0.2,0.2l0,0c0.1,0.1,0.3,0.1,0.3,0.1c0,0,0.1,0.1,0.1,0.1C562.7,54.1,562.7,54.4,562.6,54.4z      M562.2,53c0-0.3,0.2-0.5,0.5-0.5c0.3,0,0.5,0.2,0.5,0.5c0,0.3-0.2,0.5-0.5,0.5C562.5,53.6,562.2,53.3,562.2,53z M563.7,54.3     L563.7,54.3c-0.2,0.1-0.4,0.2-0.6,0.3c-0.1,0-0.2-0.1-0.2-0.2c0-0.1,0-0.3,0-0.4c0-0.1,0.1-0.1,0.1-0.1c0,0,0.2-0.1,0.3-0.1l0,0     c0.1-0.1,0.2-0.2,0.2-0.2c0,0,0.1-0.1,0.2-0.1c0.1,0,0.3,0.1,0.4,0.1c0.1,0.1,0.1,0.2,0.1,0.2C564.1,54,563.9,54.2,563.7,54.3z      M564.1,53.4c-0.1,0-0.3-0.1-0.4-0.1c0,0-0.1-0.1-0.1-0.2c0,0,0-0.2,0-0.3l0,0c0-0.1-0.1-0.2-0.2-0.3c0,0,0-0.1,0-0.2     c0-0.1,0.2-0.3,0.2-0.3c0.1-0.1,0.2-0.1,0.3,0c0.2,0.1,0.3,0.4,0.4,0.6l0,0c0.1,0.2,0.1,0.5,0,0.7     C564.3,53.3,564.2,53.4,564.1,53.4z"/>
		</g>
	</g>
</g>
</svg>