<?xml version="1.0" encoding="utf-8"?>
<!-- Generator: Adobe Illustrator 19.1.0, SVG Export Plug-In . SVG Version: 6.00 Build 0)  -->
<svg version="1.0" xmlns="http://www.w3.org/2000/svg" xmlns:xlink="http://www.w3.org/1999/xlink" x="0px" y="0px" width="1200" height="800"
 viewBox="460 100 100 100" xml:space="preserve">
<style type="text/css">
	.st0{fill:#F2F2F2;}
	.st1{fill:#808080;}
	.st2{fill:#0B3413;}
	.st3{fill:#871008;}
	.st4{fill:#07092D;}
	.st5{fill:#870E06;}
	.st6{fill:#CC1009;}
	.st7{fill:#CC140D;}
	.st8{fill:#CC130C;}
	.st9{filter:url(#Adobe_OpacityMaskFilter);}
	.st10{mask:url(#SVGID_1_);fill:#07092D;}
	.st11{filter:url(#Adobe_OpacityMaskFilter_1_);}
	.st12{mask:url(#SVGID_2_);fill:#07092D;}
</style>
<g>
	<g>
		<g>
			<path class="st0" d="M446.1,130.1c-1,0-1.9-0.8-1.9-1.9v-22c0-1,0.8-1.9,1.9-1.9h15c1,0,1.9,0.8,1.9,1.9v22c0,1-0.8,1.9-1.9,1.9     H446.1z"/>
			<path class="st1" d="M461.1,104.5c1,0,1.8,0.8,1.8,1.8v22c0,1-0.8,1.8-1.8,1.8h-15c-1,0-1.8-0.8-1.8-1.8v-22c0-1,0.8-1.8,1.8-1.8     H461.1 M461.1,104.3h-15c-1.1,0-2,0.9-2,2v22c0,1.1,0.9,2,2,2h15c1.1,0,2-0.9,2-2v-22C463.1,105.2,462.2,104.3,461.1,104.3     L461.1,104.3z"/>
		</g>
	</g>
	<path d="M445.7,123.8c0-0.2,0.2-0.5,0.5-0.9c0.3-0.4,0.8-1,1.3-2c0.5-0.9,1-2.1,1.3-3.4c-0.9-0.6-1.4-1.3-1.5-1.9   c0.5,0.2,1.1,0.4,1.8,0.5c0-0.3,0.1-0.5,0.2-0.8c0.1,0.2,0.1,0.5,0.2,0.9c0.7,0.2,1.1,0.5,1.1,0.9c0,0.4-0.4,0.6-1.3,0.6   c-0.2,0.9-0.3,1.6-0.5,2.3c-0.2,0.7-0.3,1.2-0.3,1.4c-0.1,0.3-0.1,0.5-0.1,0.6c0,0.2,0,0.4,0.1,0.4c0.3,0,0.8-0.3,1.5-0.7   c0.7-0.4,1.3-0.8,1.7-1.1c0.2-0.3,0.2-0.8,0.2-1.7c0-0.2,0-0.5,0-1c0-0.5,0-0.8,0-1c0-0.7-0.1-1.4-0.2-1.8   c-0.1-0.5-0.3-0.8-0.5-0.9c-0.2-0.2-0.3-0.3-0.5-0.5c-0.1-0.2-0.2-0.4-0.2-0.6c0-0.3,0.1-0.5,0.3-0.8c0.4,0.2,0.9,0.3,1.3,0.4   c0.5,0.1,0.8,0.2,0.9,0.3c0.1,0.1,0.3,0.2,0.5,0.4c0.2,0.2,0.3,0.5,0.4,0.8c-0.5,0.3-0.7,0.7-0.8,1.4c-0.1,0.6-0.2,2-0.2,4.2   c0.3-0.2,0.6-0.4,0.9-0.7c0.4-0.3,0.6-0.5,0.7-0.6c0-0.6,0.1-1.4,0.2-2.4c0.1-0.9,0.2-1.6,0.2-1.9c0-0.2,0-0.4,0-0.6   c0-0.2-0.1-0.3-0.1-0.4c-0.1-0.1-0.1-0.2-0.1-0.3c0-0.1-0.1-0.2-0.2-0.3c-0.1-0.1-0.2-0.1-0.2-0.2c0,0-0.1-0.1-0.2-0.2   c-0.1-0.1-0.2-0.1-0.2-0.1c0.1-0.3,0.2-0.6,0.4-0.8c0.2-0.2,0.4-0.5,0.7-0.7c0.3-0.3,0.5-0.5,0.7-0.7c0.2,0.2,0.6,0.6,1,1.1   c0.4,0.5,0.6,1,0.6,1.3c0,0.1-0.1,0.2-0.2,0.3c-0.1,0.1-0.3,0.2-0.5,0.4c-0.2,0.1-0.3,0.4-0.5,0.8c-0.1,0.4-0.2,0.9-0.2,1.6v2.3   c0.2-0.1,0.4-0.3,0.8-0.5c0.3-0.2,0.6-0.3,0.7-0.4c0.1-0.1,0.3-0.2,0.4-0.4c0.1-0.2,0.2-0.4,0.2-0.7c0-0.1,0-0.1,0-0.2   c0-0.1,0-0.1,0-0.2c0.2-0.2,0.4-0.2,0.8-0.2c0.4,0,0.8,0.1,1.2,0.4c0.4,0.3,0.6,0.6,0.6,0.9c0,0.2-0.2,0.3-0.5,0.4   c-0.3,0.1-0.9,0.2-1.7,0.5c-0.8,0.3-1.6,0.6-2.3,1.1v0.3c0,1.7,0.1,2.7,0.4,3.2c0.3,0.5,1,0.7,2,0.7c0.5,0,1.1-0.1,1.6-0.2   c0.5-0.1,0.9-0.2,1.1-0.2c0.3,0,0.5,0.1,0.5,0.4c0,1.1-1.5,1.7-4.5,1.7c-0.7,0-1.3-0.1-1.7-0.4c-0.4-0.3-0.7-0.7-0.7-1.2   c0-0.2,0-0.4,0-0.7c0-0.3,0-0.5,0-0.7c0-0.3,0-0.7-0.1-1.1c0-0.5-0.1-0.8-0.1-1c-0.5,0.4-1.1,0.8-1.7,1.4c0,0.1,0,0.2,0,0.4   c0,0.2,0,0.3,0,0.4c0,0.3-0.1,0.6-0.3,0.9c-0.2,0.3-0.4,0.4-0.6,0.4c-0.1,0-0.2,0-0.3-0.1c-0.1-0.1-0.2-0.2-0.2-0.3   c0-0.1-0.1-0.3-0.3-0.6c-0.5,0.3-1.1,0.8-1.7,1.4c-0.6,0.6-1.2,1-1.6,1.3c-0.5,0.3-1,0.4-1.5,0.4   C446,124.6,445.7,124.4,445.7,123.8z"/>
</g>
</svg>