<?xml version="1.0" encoding="utf-8"?>
<!-- Generator: Adobe Illustrator 19.1.0, SVG Export Plug-In . SVG Version: 6.00 Build 0)  -->
<svg version="1.0" xmlns="http://www.w3.org/2000/svg" xmlns:xlink="http://www.w3.org/1999/xlink" x="0px" y="0px" width="1200" height="800"
 viewBox="384 101 100 80" xml:space="preserve">
<style type="text/css">
	.st0{fill:#F2F2F2;}
	.st1{fill:#808080;}
	.st2{fill:#0B3413;}
	.st3{fill:#871008;}
	.st4{fill:#07092D;}
	.st5{fill:#870E06;}
	.st6{fill:#CC1009;}
	.st7{fill:#CC140D;}
	.st8{fill:#CC130C;}
	.st9{filter:url(#Adobe_OpacityMaskFilter);}
	.st10{mask:url(#SVGID_1_);fill:#07092D;}
	.st11{filter:url(#Adobe_OpacityMaskFilter_1_);}
	.st12{mask:url(#SVGID_2_);fill:#07092D;}
</style>
<g>
	<g>
		<g>
			<path class="st0" d="M380.6,130.1c-1,0-1.9-0.8-1.9-1.9v-22c0-1,0.8-1.9,1.9-1.9h15c1,0,1.9,0.8,1.9,1.9v22c0,1-0.8,1.9-1.9,1.9     H380.6z"/>
			<path class="st1" d="M395.6,104.5c1,0,1.8,0.8,1.8,1.8v22c0,1-0.8,1.8-1.8,1.8h-15c-1,0-1.8-0.8-1.8-1.8v-22c0-1,0.8-1.8,1.8-1.8     H395.6 M395.6,104.3h-15c-1.1,0-2,0.9-2,2v22c0,1.1,0.9,2,2,2h15c1.1,0,2-0.9,2-2v-22C397.6,105.2,396.7,104.3,395.6,104.3     L395.6,104.3z"/>
		</g>
	</g>
	<path d="M382.1,114.6c0.1-0.1,0.2-0.2,0.3-0.2c0.1,0,0.5,0.1,1,0.4c1.3-0.3,2.5-0.6,3.6-0.9c0-0.2,0-0.5,0-0.9   c-0.1,0-0.3,0-0.6,0.1c-0.3,0.1-0.6,0.1-0.8,0.1c-0.5,0-0.8-0.2-1-0.6c0.1,0,0.4-0.1,1-0.1c0.5-0.1,1-0.2,1.3-0.3v-0.1   c0-0.9-0.2-1.8-0.7-2.4c-0.5-0.7-0.7-1.4-0.7-2.2c0.7,0.3,1.5,0.6,2.3,0.8c0.8,0.2,1.3,0.4,1.5,0.5c0.2,0.1,0.3,0.3,0.3,0.6   c0,0.2-0.1,0.3-0.2,0.4c-0.1,0.1-0.3,0.2-0.5,0.2c-0.2,0.1-0.3,0.3-0.5,0.6c-0.2,0.3-0.3,0.8-0.3,1.3c0.4-0.1,0.7-0.3,0.9-0.5   c0.2-0.2,0.4-0.3,0.5-0.3c0.2,0,0.5,0.1,0.8,0.3c0.3,0.2,0.4,0.3,0.4,0.5c0,0.1-0.1,0.2-0.3,0.3c-0.2,0.1-0.6,0.2-1.1,0.3   c-0.5,0.1-0.9,0.2-1.2,0.3c0,0.1,0,0.3,0,0.5c0,0.2,0,0.4,0,0.4l3.4-0.6c0.2,0,0.6,0.2,1,0.7c0.4,0.5,0.6,0.9,0.6,1.2   c0,0.3-0.3,0.4-0.9,0.5c-0.2,0.5-0.5,1-0.9,1.5c-0.4,0.5-0.6,0.9-0.6,1.1c0,0.4-0.1,0.6-0.4,0.6c-0.2,0-0.4-0.1-0.6-0.3   c-0.3,0-0.6,0.1-0.8,0.2c0.7,0.9,1.6,1.6,2.7,2.1c1.1,0.5,2,0.9,2.9,1.3c0.9,0.3,1.5,0.8,1.8,1.3c-0.4-0.1-0.8-0.2-1.2-0.4   c-0.4-0.2-0.7-0.3-0.9-0.3c-0.1,0-0.4,0.1-0.8,0.4c-0.4,0.3-0.8,0.4-1.1,0.4c-0.4,0-0.7-0.2-1.1-0.6c-0.4-0.4-0.9-1.1-1.5-2   c-0.6-1-1.1-1.7-1.5-2.1c-0.1,0-0.2,0-0.3,0c0,0.3,0,0.7,0,1.1c0,0.5,0,0.8,0,1c0,0.7,0.1,1.7,0.3,2.9c0.2,1.2,0.3,1.9,0.3,2   c0,1.2-0.3,1.8-0.8,1.8c-0.3,0-0.6-0.4-0.8-1.1c-0.3-0.7-0.4-1.4-0.4-2c0-0.3-0.7-1.3-2-3.1c-1.4,1.2-2.6,1.8-3.4,1.8   c-0.5,0-0.8,0-1-0.1c1.8-0.9,3.1-1.7,3.9-2.4l-0.2-0.5l0.4,0.3c0.5-0.4,0.9-1,1.3-1.7c-0.3,0-0.5-0.2-0.8-0.5c0,0,0-0.1,0-0.1   c0-0.1,0.1-0.1,0.1-0.1c0-0.1-0.2-0.3-0.6-0.8c-0.4-0.5-0.8-1-1.2-1.5C382.5,115.2,382.2,114.8,382.1,114.6z M387,114.4   c-1.1,0.2-2.1,0.5-3,0.9c0.5,0.5,0.7,0.7,0.8,0.9c0.2-0.1,0.6-0.2,1.1-0.3c0.5-0.1,0.9-0.1,1.1-0.2c0-0.1,0-0.3,0-0.6   C387,114.8,387,114.6,387,114.4z M387.1,118.9c-0.1,0-0.2,0-0.3,0c-0.1,0-0.3,0-0.3,0c-0.3,0.6-0.9,1.4-1.7,2.4   c0.1,0.1,0.3,0.4,0.6,0.7c0.3,0.3,0.5,0.6,0.7,0.7c0.2,0.2,0.4,0.3,0.5,0.3C386.8,122.9,387,121.5,387.1,118.9z M387.1,116.5   c-0.9,0.1-1.5,0.2-1.8,0.3c0.2,0.4,0.4,0.8,0.7,1c0.1,0,0.3,0,0.6,0.1c0.3,0,0.5,0,0.6,0c0-0.2,0-0.4,0-0.8   C387.1,116.9,387.1,116.7,387.1,116.5z M390.9,114.4c0-0.2-0.3-0.3-1-0.3c-0.6,0-1.3,0.1-2.1,0.3c0,0.2,0,0.4-0.1,0.7   c0,0.3,0,0.5,0,0.6c0.4-0.1,0.7-0.2,0.9-0.3c0.2-0.2,0.5-0.2,0.8-0.2c0.1,0,0.2,0,0.3,0.1c0.1,0.1,0.2,0.1,0.3,0.2s0.2,0.2,0.3,0.2   C390.8,115.1,390.9,114.6,390.9,114.4z M390.1,116.3c-0.2-0.1-0.4-0.2-0.4-0.2c-0.1,0-0.4,0.1-0.9,0.2c-0.5,0.1-0.8,0.2-1,0.2   c0,0.1,0,0.4,0,0.7c0,0.3,0,0.6,0,0.8c0.4,0,0.9-0.1,1.5-0.2c0.1-0.1,0.2-0.3,0.4-0.7C389.9,116.6,390,116.4,390.1,116.3z"/>
</g>
</svg>