<?xml version="1.0" encoding="utf-8"?>
<!-- Generator: Adobe Illustrator 19.1.0, SVG Export Plug-In . SVG Version: 6.00 Build 0)  -->
<svg version="1.0" xmlns="http://www.w3.org/2000/svg" xmlns:xlink="http://www.w3.org/1999/xlink" x="0px" y="0px" width="1200" height="800"
 viewBox="500 100 100 100" xml:space="preserve">
<style type="text/css">
	.st0{fill:#F2F2F2;}
	.st1{fill:#808080;}
	.st2{fill:#0B3413;}
	.st3{fill:#871008;}
	.st4{fill:#07092D;}
	.st5{fill:#870E06;}
	.st6{fill:#CC1009;}
	.st7{fill:#CC140D;}
	.st8{fill:#CC130C;}
	.st9{filter:url(#Adobe_OpacityMaskFilter);}
	.st10{mask:url(#SVGID_1_);fill:#07092D;}
	.st11{filter:url(#Adobe_OpacityMaskFilter_1_);}
	.st12{mask:url(#SVGID_2_);fill:#07092D;}
</style>
<g>
	<g>
		<g>
			<path class="st0" d="M489.8,130.1c-1,0-1.9-0.8-1.9-1.9v-22c0-1,0.8-1.9,1.9-1.9h15c1,0,1.9,0.8,1.9,1.9v22c0,1-0.8,1.9-1.9,1.9     H489.8z"/>
			<path class="st1" d="M504.8,104.5c1,0,1.8,0.8,1.8,1.8v22c0,1-0.8,1.8-1.8,1.8h-15c-1,0-1.8-0.8-1.8-1.8v-22c0-1,0.8-1.8,1.8-1.8     H504.8 M504.8,104.3h-15c-1.1,0-2,0.9-2,2v22c0,1.1,0.9,2,2,2h15c1.1,0,2-0.9,2-2v-22C506.8,105.2,505.9,104.3,504.8,104.3     L504.8,104.3z"/>
		</g>
	</g>
	<path class="st2" d="M502.3,120.2c-0.1,0.3-0.6,0.4-1.6,0.4c-0.1,0-0.3,0-0.6,0c-0.3,0-0.5,0-0.7,0c-0.1,0-0.2,0-0.3,0   c-0.1,0-0.3,0-0.3,0c-0.2,1.5-0.3,2.3-0.4,2.4c-0.2,0.3-0.6,0.6-1.3,1c-0.7,0.4-1.2,0.6-1.4,0.6c-0.1,0-0.3-0.1-0.4-0.2   c-0.1-0.1-0.2-0.2-0.2-0.4c0-0.2,0.2-0.4,0.6-0.6c0.4-0.3,0.8-0.6,1.2-1.1c0.4-0.5,0.7-1,0.8-1.7c-0.1,0-0.4,0.1-0.8,0.1   c-0.5,0-0.8,0.1-1,0.1c-0.2,0.3-0.3,0.7-0.5,1.1c-0.2,0.4-0.4,0.8-0.5,1c-0.1,0.2-0.2,0.5-0.4,0.7c-0.1,0.2-0.3,0.4-0.5,0.5   c-0.2,0.1-0.3,0.2-0.6,0.2c-0.2,0-0.4-0.1-0.6-0.2c-0.2-0.1-0.4-0.3-0.5-0.4c-0.1-0.1-0.3-0.4-0.6-0.7c-0.2-0.3-0.4-0.5-0.5-0.6   c-0.1,0.1-0.4,0.1-0.9,0.1c-0.4,0-0.8-0.5-1-1.4c0.7,0.3,1.2,0.4,1.4,0.4c0.2,0,1-0.3,2.3-0.9c1.3-0.6,2-0.9,2.2-1.1   c0-0.2-0.3-0.5-0.7-0.8c-0.3,0.1-0.6,0.3-1,0.7c-0.4,0.4-0.8,0.6-1,0.6c-0.3,0-0.5-0.1-0.7-0.3c0.2-0.1,0.6-0.4,1.3-0.9   c0.7-0.5,1.2-0.8,1.6-1c0.2-0.3,0.3-0.6,0.3-1c-0.1-0.1-0.2-0.1-0.4-0.1c-0.2,0-0.6,0.1-1,0.4c-0.9,1-1.6,1.7-2.2,2.2   c-0.6,0.4-1.5,0.8-2.5,0.9c2.2-1.7,3.8-3.3,4.8-4.7c-0.1-0.2-0.4-0.6-1.1-1.2c-0.7-0.6-1-1.1-1-1.5c0.4,0.1,0.9,0.3,1.5,0.7   c0.6,0.4,1,0.8,1.3,1.1c0.7-0.9,1.3-1.8,1.6-2.6c-0.3,0-0.7,0.2-1.2,0.4c-0.5,0.3-0.9,0.4-1.2,0.4c-0.2,0-0.4-0.1-0.5-0.2   c0,0,0.2-0.2,0.5-0.4c0.3-0.2,0.7-0.5,1.1-0.8c0.4-0.3,0.7-0.5,1-0.8c0.2-0.2,0.3-0.4,0.5-0.6c0.2-0.3,0.4-0.5,0.5-0.6   c0.2-0.2,0.3-0.2,0.5-0.2c0.2,0,0.3,0.1,0.5,0.2c0.2,0.1,0.2,0.3,0.2,0.4c0,0-0.1,0.3-0.3,0.8c0.1,0.1,0.3,0.4,0.8,0.9   c0.2-0.3,0.5-1,0.9-2c0.3-1,0.6-1.6,0.7-1.7c0.1,0.1,0.3,0.2,0.5,0.5c0.2,0.3,0.3,0.6,0.3,0.8c0,0.1-0.1,0.2-0.2,0.3   c-0.1,0.1-0.2,0.2-0.3,0.3c-0.3,0.8-0.8,1.7-1.4,2.6c0.5,0.7,0.7,1.1,0.8,1.2c0.6-0.6,0.9-1.1,1.1-1.7c0.2,0,0.5,0.1,0.7,0.4   c0.2,0.2,0.3,0.4,0.3,0.6c0,0.2-0.1,0.3-0.2,0.3c-0.2,0-0.3,0.1-0.5,0.2c-0.2,0.1-0.3,0.3-0.5,0.4c-0.2,0.2-0.3,0.3-0.4,0.4   c0.8,1.1,1.5,1.9,2,2.4c0.6,0.6,0.9,0.9,1.2,1c0.2,0.1,0.5,0.4,0.8,0.9c0.3,0.5,0.8,1.3,1.3,2.4c-0.3,0-0.6-0.1-1-0.3   c-0.4-0.2-0.9-0.5-1.5-0.9c-0.6-0.4-1.2-0.7-1.6-0.9c-0.2-0.2-0.4-0.7-0.6-1.4c-0.2-0.7-0.7-1.5-1.3-2.6c-0.2,0.1-0.4,0.2-0.7,0.2   c0.3-0.5,0.4-0.7,0.4-0.7c-0.7-1.4-1.4-2.4-2-3c-0.4,0.7-1.2,2.2-2.5,4.2c0.2,0.2,0.3,0.2,0.6,0.2c0.1,0,0.3-0.1,0.4-0.2   c0.2-0.1,0.3-0.2,0.4-0.2c0.3,0,0.5,0.1,0.6,0.3c-0.1,0.1-0.1,0.2-0.2,0.3c-0.1,0.1-0.2,0.2-0.4,0.2c-0.1,0.1-0.2,0.1-0.3,0.2   c-0.2,0.3-0.2,0.5-0.2,0.8c0.5-0.1,0.9-0.3,1.3-0.5c0.3-1.3,0.5-2.3,0.5-3.2c0-0.2,0-0.4,0-0.6c0.7,0.4,1,0.9,1,1.4   c0,0.2,0,0.3-0.1,0.4c0,0.1-0.1,0.2-0.2,0.3c-0.1,0.1-0.2,0.4-0.3,0.7c-0.1,0.4-0.3,0.9-0.5,1.5c0.1,0.2,0.2,0.2,0.3,0.2   c0.2,0,0.5-0.1,0.9-0.3c0.4-0.2,0.8-0.3,1.1-0.3c0.3,0,0.5,0.2,0.6,0.6c-0.1,0.1-0.2,0.1-0.6,0.2c-0.3,0.1-0.6,0.2-0.7,0.3   c-0.1,0.5-0.1,1-0.2,1.5c0.3,0,0.6,0,0.9,0c0.3,0,0.5,0,0.6,0c0.1,0,0.2,0,0.4-0.1c0.1-0.1,0.3-0.1,0.4-0.1   C501.7,119.6,502.1,119.9,502.3,120.2z M491.6,122.4c0.4,0.4,1,0.6,1.7,0.6c0.3,0,0.6-0.3,1-0.8c0.4-0.6,0.6-0.9,0.6-1.2   c0-0.2-0.1-0.3-0.2-0.4C493.3,121.2,492.3,121.8,491.6,122.4z M496.5,119c0-0.1,0-0.2,0.1-0.3c0-0.1,0.1-0.3,0.2-0.5   c0.1-0.2,0.1-0.4,0.1-0.5c-0.7,0.1-1.3,0.4-1.7,0.8c0.1,0.2,0.2,0.4,0.4,0.5c0.2,0.1,0.3,0.2,0.3,0.3c0.2,0.5,0.3,0.7,0.4,0.8   c0.1,0,0.7-0.1,1.8-0.3c0.1-0.5,0.2-1,0.2-1.5c-0.3,0-0.6,0-0.8-0.1C496.9,118.8,496.6,119,496.5,119z M499.8,122   c0.2-0.2,0.5-0.2,1-0.2c0.6,0,1.2,0.2,1.8,0.5c0.6,0.3,0.8,0.7,0.8,1.1c0,0.4-0.2,0.7-0.6,1c-0.4,0.3-0.8,0.4-1.3,0.4   c0,0-0.1,0-0.1,0c0,0-0.1,0-0.1,0c-0.1-0.2-0.3-0.5-0.5-1C500.6,123.3,500.2,122.7,499.8,122z"/>
</g>
</svg>