<?xml version="1.0" encoding="utf-8"?>
<!-- Generator: Adobe Illustrator 19.1.0, SVG Export Plug-In . SVG Version: 6.00 Build 0)  -->
<svg version="1.0" xmlns="http://www.w3.org/2000/svg" xmlns:xlink="http://www.w3.org/1999/xlink" x="0px" y="0px" width="1200" height="800"
 viewBox="516 101 100 80" xml:space="preserve">
<style type="text/css">
	.st0{fill:#F2F2F2;}
	.st1{fill:#808080;}
	.st2{fill:#0B3413;}
	.st3{fill:#871008;}
	.st4{fill:#07092D;}
	.st5{fill:#870E06;}
	.st6{fill:#CC1009;}
	.st7{fill:#CC140D;}
	.st8{fill:#CC130C;}
	.st9{filter:url(#Adobe_OpacityMaskFilter);}
	.st10{mask:url(#SVGID_1_);fill:#07092D;}
	.st11{filter:url(#Adobe_OpacityMaskFilter_1_);}
	.st12{mask:url(#SVGID_2_);fill:#07092D;}
</style>
<g>
	<g>
		<g>
			<path class="st0" d="M511.6,130.1c-1,0-1.9-0.8-1.9-1.9v-22c0-1,0.8-1.9,1.9-1.9h15c1,0,1.9,0.8,1.9,1.9v22c0,1-0.8,1.9-1.9,1.9
				H511.6z"/>
			<path class="st1" d="M526.6,104.5c1,0,1.8,0.8,1.8,1.8v22c0,1-0.8,1.8-1.8,1.8h-15c-1,0-1.8-0.8-1.8-1.8v-22c0-1,0.8-1.8,1.8-1.8
				H526.6 M526.6,104.3h-15c-1.1,0-2,0.9-2,2v22c0,1.1,0.9,2,2,2h15c1.1,0,2-0.9,2-2v-22C528.6,105.2,527.7,104.3,526.6,104.3
				L526.6,104.3z"/>
		</g>
	</g>
	<path class="st3" d="M518.5,107.6c0.5,0.2,1.1,0.7,1.6,1.3c0.5,0.7,0.8,1.2,0.8,1.6c0,0.2,0,0.3-0.1,0.4c-0.1,0.1-0.2,0.2-0.3,0.3
		c-0.1,0.1-0.2,0.3-0.4,0.7c-0.1,0.4-0.2,0.9-0.3,1.4c0.3-0.1,0.8-0.3,1.4-0.5c0.6-0.2,1-0.4,1.4-0.5c0.4-0.1,0.7-0.2,0.8-0.2
		c0.2,0,0.5,0.2,0.9,0.7c0.1,0.1,0.3,0.3,0.5,0.6c0.3,0.3,0.4,0.5,0.5,0.6c0.1,0.1,0.2,0.3,0.3,0.5c0.1,0.2,0.2,0.4,0.2,0.5
		c0,0.2-0.1,0.4-0.3,0.4c-0.5,0-0.9,0.1-1.1,0.3c-0.2,0.3-0.4,0.6-0.7,1c-0.3,0.4-0.6,0.7-0.7,1c-0.2,0.2-0.3,0.4-0.3,0.5
		c0,0.5-0.2,0.7-0.6,0.7c-0.1,0-0.4,0-0.8-0.1c-0.4-0.1-0.9-0.1-1.6-0.2c0,0.2,0,0.8,0,1.7c0,0.9,0,1.4,0,1.5c0,0.2,0,0.7,0.1,1.5
		c0.1,0.8,0.1,1.4,0.1,1.7c0,0.7-0.1,1.4-0.3,2.1c-0.2,0.7-0.4,1.2-0.6,1.4c-0.3-0.3-0.5-1.3-0.5-3.1c0-0.2,0-0.6,0-1.2
		c0-0.6,0-1.2,0-1.7c0-0.3,0-0.9,0-1.8c0-0.9,0-1.6,0-2c-0.2,0-0.6,0.1-1.1,0.3c-0.5,0.2-0.9,0.3-1.2,0.3c-0.2,0-0.3-0.2-0.3-0.6
		c0-0.2-0.5-0.8-1.5-1.7c-1-0.9-1.5-1.6-1.5-2c0-0.7,0.1-1.1,0.3-1.4c0.2,0.1,0.5,0.3,0.8,0.6c0.3,0.3,0.6,0.5,0.8,0.6
		c0.2,0.2,0.4,0.2,0.6,0.2c0.2,0,0.7-0.2,1.6-0.5c0.9-0.3,1.5-0.6,1.6-0.7c0-0.1,0-0.3,0-0.6c0-0.3,0-0.6,0-0.7c0-0.1,0-0.4-0.1-0.6
		c0-0.3-0.1-0.5-0.1-0.6c-0.1-0.1-0.1-0.3-0.2-0.5c-0.1-0.2-0.2-0.3-0.3-0.4c-0.1-0.1-0.3-0.1-0.4-0.1c0-0.1,0-0.2-0.1-0.3
		c-0.1-0.1-0.1-0.3-0.1-0.3C516.9,108.9,517.4,108.3,518.5,107.6z M515.5,115.6c0.6,0.8,1.1,1.6,1.4,2.4c0.4-0.1,0.9-0.1,1.3-0.2v-3
		c-0.2,0.1-0.5,0.2-0.9,0.4c-0.4,0.2-0.7,0.3-0.9,0.4c-0.3,0.1-0.4,0.1-0.6,0.1C515.7,115.7,515.6,115.7,515.5,115.6z M519.7,114.3
		c-0.1,1.3-0.2,2.4-0.2,3.4c0.1,0,0.3,0,0.6,0c0.3,0,0.5,0,0.7,0c0.1-0.1,0.2-0.3,0.5-0.7c0.2-0.3,0.4-0.6,0.6-0.8
		c0.1-0.2,0.3-0.4,0.5-0.7c0.2-0.3,0.3-0.5,0.4-0.8c0.1-0.2,0.1-0.4,0.1-0.6c0-0.3-0.2-0.5-0.6-0.5
		C521.6,113.7,520.7,113.9,519.7,114.3z"/>
</g>
</svg>